<?xml version="1.0" encoding="utf-8"?>
<!-- Generator: Adobe Illustrator 18.1.1, SVG Export Plug-In . SVG Version: 6.00 Build 0)  -->
<svg version="1.1" id="Layer_1" xmlns="http://www.w3.org/2000/svg" xmlns:xlink="http://www.w3.org/1999/xlink" x="0px" y="0px"
	 viewBox="0 367.4 612 71.3" enable-background="new 0 367.4 612 71.3" xml:space="preserve">
<g>
	<g>
		<g>
			<g>
				<g>
					<path fill="#DCDBDB" d="M598,436.5l-17.9-32.6h-0.3v32.6h-11.4v-67h11.4v29h0.3l17.1-29H610l-19.7,30.9l20.9,36.1H598z"/>
				</g>
			</g>
			<g>
				<g>
					<g>
						<path fill="#010101" d="M612,437h-14.3l-3.1-5.8l0.9-0.5l2.9,5.3h12L598,414.8l0.9-0.5L612,437z M580.3,437H568v-38.2h1V436
							h10.4v-11h1V437z M590.7,424.5l-10.4-19.1v11.7h-1v-13.7h1.1l11.2,20.5L590.7,424.5z M590.7,400.7l-0.8-0.5L609,370h-11.6
							l-9.8,16.7l-0.9-0.5l10.1-17.3h14L590.7,400.7z M580.3,392h-1v-22H569v11.9h-1V369h12.4V392z"/>
					</g>
				</g>
			</g>
			<g>
				<g>
					<path fill="#414141" d="M573.4,433h-1v-3h1V433z M573.4,428h-1v-3h1V428z M573.4,422.9h-1v-3h1V422.9z M573.4,417.8h-1v-3h1
						V417.8z M573.4,412.7h-1v-3h1V412.7z M573.4,407.7h-1v-3h1V407.7z M573.4,402.6h-1v-3h1V402.6z M573.4,397.5h-1v-3h1V397.5z
						 M573.4,392.4h-1v-3h1V392.4z M573.4,387.4h-1v-3h1V387.4z M573.4,382.3h-1v-3h1V382.3z M573.4,377.2h-1v-3h1V377.2z"/>
				</g>
			</g>
			<g>
				<g>
					<path fill="#414141" d="M584.4,399.9l-0.8-0.5l0.6-0.9l0.8,0.5L584.4,399.9z M586.1,397.1l-0.8-0.5l1.6-2.5l0.8,0.5
						L586.1,397.1z M588.9,392.9l-0.8-0.5l1.6-2.5l0.8,0.5L588.9,392.9z M591.6,388.6l-0.8-0.5l1.6-2.5l0.8,0.5L591.6,388.6z
						 M594.3,384.3l-0.8-0.5l1.6-2.5l0.8,0.5L594.3,384.3z M597.2,380.1l-0.8-0.5l1.6-2.5l0.8,0.5L597.2,380.1z M599.9,375.8
						l-0.8-0.5l1.6-2.5l0.8,0.5L599.9,375.8z"/>
				</g>
			</g>
			<g>
				<g>
					<path fill="#414141" d="M602.2,434.3l-0.1-0.2l0.9-0.5l0.1,0.2L602.2,434.3z M601,432.3l-1.5-2.6l0.9-0.5l1.5,2.6L601,432.3z
						 M598.5,428l-1.5-2.6l0.9-0.5l1.5,2.6L598.5,428z M596,423.5l-1.5-2.6l0.9-0.5l1.5,2.6L596,423.5z M593.4,419.1l-1.5-2.6
						l0.9-0.5l1.5,2.6L593.4,419.1z M590.9,414.8l-1.5-2.6l0.9-0.5l1.5,2.6L590.9,414.8z M588.4,410.4l-1.5-2.6l0.9-0.5l1.5,2.6
						L588.4,410.4z M585.8,405.9l-1.5-2.6l0.9-0.5l1.5,2.6L585.8,405.9z"/>
				</g>
			</g>
		</g>
		<g>
			<g>
				<g>
					<path fill="#DCDBDB" d="M513.7,402.9c0,5.3-0.5,10.1-1.6,14.4c-1.1,4.4-2.7,8-4.8,11.1c-2.1,3-4.7,5.5-7.6,7.2
						c-3,1.7-6.4,2.5-10,2.5c-3.8,0-7.2-0.8-10.1-2.5c-2.9-1.7-5.5-4.1-7.6-7.2c-2.1-3-3.7-6.8-4.8-11.1c-1.1-4.4-1.6-9.1-1.6-14.4
						c0-5.3,0.5-10,1.6-14.4c1.1-4.3,2.6-8,4.8-11.1s4.7-5.5,7.6-7.1c3-1.6,6.4-2.5,10.1-2.5c3.8,0,7.1,0.8,10,2.5
						c2.9,1.6,5.6,4.1,7.6,7.1c2.1,3,3.7,6.8,4.8,11.1C513,392.9,513.7,397.6,513.7,402.9z M501.9,402.9c0-3.5-0.3-6.6-0.8-9.6
						c-0.5-3-1.3-5.6-2.3-7.7c-1-2.1-2.3-3.9-3.9-5.2c-1.5-1.2-3.3-1.9-5.4-1.9c-2,0-3.9,0.6-5.5,1.9c-1.5,1.2-2.8,2.9-3.9,5.2
						c-1,2.1-1.8,4.8-2.3,7.7c-0.5,3-0.7,6.2-0.7,9.6c0,3.5,0.2,6.6,0.7,9.6c0.5,3,1.3,5.6,2.3,7.8c1,2.2,2.3,4,3.9,5.2
						c1.5,1.2,3.3,1.9,5.5,1.9c2.1,0,3.9-0.6,5.5-1.9c1.5-1.2,2.8-2.9,3.9-5.2c1-2.2,1.8-4.8,2.3-7.8
						C501.7,409.5,501.9,406.4,501.9,402.9z"/>
				</g>
			</g>
			<g>
				<g>
					<g>
						<path fill="#010101" d="M489.5,438.7c-3.9,0-7.3-0.9-10.4-2.6l0.5-0.9c2.8,1.6,6.2,2.5,9.8,2.5c3.7,0,6.9-0.8,9.8-2.5
							c2.9-1.6,5.4-4.1,7.4-7l0.8,0.6c-2.1,3.1-4.8,5.6-7.8,7.3C496.8,437.8,493.4,438.7,489.5,438.7z M489.5,427.9
							c-2.2,0-4.2-0.7-5.8-2c-1.6-1.3-2.9-3.1-4.1-5.4c-1-2.2-1.8-4.9-2.3-7.9c-0.5-3-0.8-6.3-0.8-9.6c0-3.5,0.3-6.7,0.8-9.6
							c0.5-3,1.3-5.7,2.3-7.9c1.1-2.2,2.4-4.1,4.1-5.4c1.6-1.3,3.6-2,5.8-2c2.1,0,4.1,0.7,5.7,2l-0.3,0.4l0.3-0.4
							c1.6,1.3,2.9,3.1,4.1,5.4l-0.9,0.4c-1-2.1-2.2-3.8-3.8-5c-1.4-1.2-3.1-1.8-5-1.8c-1.9,0-3.7,0.6-5.1,1.8
							c-1.5,1.2-2.7,2.8-3.8,5c-1,2.1-1.8,4.7-2.2,7.6c-0.5,2.9-0.7,6.2-0.7,9.5c0,3.3,0.2,6.6,0.7,9.5c0.5,2.9,1.2,5.5,2.2,7.7
							c1,2.1,2.2,3.9,3.8,5.1c1.4,1.2,3.1,1.8,5.1,1.8c1.9,0,3.7-0.6,5.1-1.8c1.5-1.2,2.7-2.9,3.8-5.1l0.9,0.4
							c-1.1,2.2-2.4,4.1-4.1,5.4C493.7,427.3,491.7,427.9,489.5,427.9z M512.4,417.4l-1-0.2c1.1-4.3,1.6-9,1.6-14.3
							c0-5.2-0.5-10-1.6-14.2c-1.1-4.3-2.6-7.9-4.7-10.9c-2-3-4.6-5.4-7.4-7c-2.9-1.6-6.2-2.4-9.8-2.4c-3.7,0-7,0.8-9.9,2.4
							c-2.9,1.6-5.4,4-7.4,7s-3.7,6.7-4.7,10.9l-1-0.2c1.1-4.4,2.7-8.1,4.8-11.3c2.1-3.1,4.8-5.6,7.8-7.3s6.6-2.5,10.5-2.5
							c3.8,0,7.3,0.9,10.4,2.5c3,1.7,5.7,4.2,7.8,7.3s3.8,6.9,4.9,11.3c1.1,4.4,1.6,9.2,1.6,14.5
							C514.2,408.2,513.6,413.2,512.4,417.4z"/>
					</g>
				</g>
			</g>
			<g>
				<g>
					<path fill="#414141" d="M489,434.2c-1-0.1-2.1-0.2-3.1-0.5l0.3-1c0.9,0.3,1.9,0.4,2.8,0.5L489,434.2z M491,434.2l-0.1-1
						c0.9-0.1,1.9-0.3,2.8-0.6l0.3,0.9C493.2,433.8,492.1,434.1,491,434.2z M483.9,432.9c-0.9-0.4-1.8-0.9-2.7-1.6l0.6-0.8
						c0.8,0.6,1.7,1.1,2.5,1.5L483.9,432.9z M496.1,432.6l-0.5-0.9c0.8-0.4,1.7-1,2.4-1.6l0.6,0.8
						C497.8,431.5,496.9,432.1,496.1,432.6z M479.6,430.1c-0.7-0.7-1.5-1.4-2.1-2.2l0.8-0.6c0.6,0.8,1.3,1.5,2,2.1L479.6,430.1z
						 M500.3,429.6l-0.7-0.7c0.7-0.7,1.3-1.4,2-2.2l0.8,0.6C501.7,428.1,501,428.9,500.3,429.6z M476.1,426.1
						c-0.6-0.8-1.1-1.7-1.6-2.6l0.9-0.5c0.5,0.9,1,1.7,1.6,2.5L476.1,426.1z M503.6,425.5l-0.8-0.6c0.5-0.8,1-1.6,1.5-2.5l0.9,0.5
						C504.6,423.8,504.1,424.7,503.6,425.5z M473.5,421.8c-0.4-0.9-0.8-1.8-1.2-2.8l0.9-0.4c0.4,0.9,0.8,1.8,1.2,2.7L473.5,421.8z
						 M506,421.1l-0.9-0.4c0.4-0.9,0.8-1.8,1.1-2.7l0.9,0.3C506.9,419.1,506.4,420.2,506,421.1z M471.6,417
						c-0.3-0.9-0.6-1.9-0.8-2.9l1-0.2c0.2,1,0.5,1.9,0.8,2.9L471.6,417z M507.9,416.3l-1-0.3c0.3-0.9,0.5-1.9,0.8-2.9l1,0.2
						C508.5,414.3,508.2,415.3,507.9,416.3z M470.3,412c-0.2-1-0.3-2-0.5-3l1-0.1c0.1,1,0.3,2,0.5,2.9L470.3,412z M509.1,411.2
						l-1-0.2c0.2-1,0.3-1.9,0.4-2.9l1,0.1C509.4,409.2,509.2,410.3,509.1,411.2z M469.6,406.9c-0.1-1-0.1-2-0.1-3h1c0,1,0.1,2,0.1,3
						H469.6z M509.7,406.1l-1-0.1c0.1-1,0.1-2,0.1-3c0-0.8,0-1.6-0.1-2.4l1-0.1c0,0.8,0.1,1.6,0.1,2.5
						C509.8,404.1,509.7,405.1,509.7,406.1z M470.5,401.8h-1c0-1,0.1-2,0.2-3l1,0.1C470.6,399.8,470.5,400.8,470.5,401.8z
						 M508.6,398.6c-0.1-1-0.2-2-0.4-2.9l1-0.2c0.2,1,0.3,2,0.4,3L508.6,398.6z M470.9,396.8l-1-0.1c0.1-1,0.3-2,0.5-3l1,0.2
						C471.2,394.8,471,395.8,470.9,396.8z M507.8,393.7c-0.2-1-0.4-1.9-0.7-2.9l1-0.3c0.3,1,0.5,1.9,0.7,2.9L507.8,393.7z
						 M471.8,391.8l-1-0.2c0.3-1,0.5-2,0.9-2.9l0.9,0.3C472.4,389.9,472.1,390.9,471.8,391.8z M506.4,388.9
						c-0.3-0.9-0.7-1.9-1.1-2.8l0.9-0.4c0.4,0.9,0.8,1.9,1.1,2.8L506.4,388.9z M473.5,387.2l-0.9-0.4c0.4-1,0.8-1.9,1.2-2.8l0.9,0.5
						C474.2,385.2,473.8,386.2,473.5,387.2z M504.5,384.2c-0.5-0.9-0.9-1.8-1.5-2.6l0.8-0.5c0.5,0.8,1,1.7,1.5,2.6L504.5,384.2z
						 M475.6,382.6l-0.9-0.5c0.5-0.9,1.1-1.8,1.7-2.5l0.8,0.6C476.7,380.9,476.1,381.8,475.6,382.6z M501.9,380.1
						c-0.6-0.8-1.3-1.5-1.9-2.2l0.7-0.7c0.7,0.7,1.4,1.5,2,2.3L501.9,380.1z M478.5,378.6l-0.7-0.7c0.7-0.8,1.4-1.5,2.2-2.1l0.6,0.8
						C480,377.1,479.1,377.8,478.5,378.6z M498.5,376.4c-0.8-0.6-1.6-1.2-2.4-1.7l0.5-0.9c0.9,0.5,1.7,1.1,2.5,1.8L498.5,376.4z
						 M482.2,375.3l-0.6-0.8c0.9-0.6,1.8-1.1,2.7-1.5l0.4,0.9C483.9,374.3,483.1,374.8,482.2,375.3z M494.3,373.9
						c-0.9-0.4-1.8-0.6-2.8-0.8l0.2-1c1,0.2,2,0.4,3,0.8L494.3,373.9z M486.7,373.4l-0.2-1c1-0.3,2.1-0.4,3.1-0.4v1
						C488.6,373,487.6,373.1,486.7,373.4z"/>
				</g>
			</g>
		</g>
		<g>
			<g>
				<g>
					<path fill="#DCDBDB" d="M447.6,436.5h-13.1l-9.2-50.3h-0.2l-9.2,50.3h-13.1l-12.8-67h11.6l8.6,52.1h0.4l9-52.1h11.9l9.2,52.1
						h0.2l8.6-52.1h11L447.6,436.5z"/>
				</g>
			</g>
			<g>
				<g>
					<g>
						<path fill="#010101" d="M416.2,437h-13.9l-4.8-25.2l1-0.2l4.7,24.4h12.2l1.4-7.5l1,0.2L416.2,437z M448,436.4h-13.6v-1h12.8
							l12.8-66l1,0.2L448,436.4z M441.3,422.1h-1L431,370H420l-1.4,8.5l-0.5-0.1l0.5,0.1l-3.2,18.4l-1-0.2l4.9-27.7H432l8.9,50
							l5.1-30.4l1,0.2L441.3,422.1z M419.6,418.7l-1-0.2l6.1-32.9h1l5.6,30l-1,0.2l-5.1-27.4L419.6,418.7z M393.4,390l-4-21h12.5
							l3.1,19.1l-1,0.2l-3-18.3h-10.5l3.8,19.8L393.4,390z"/>
					</g>
				</g>
			</g>
			<g>
				<g>
					<path fill="#414141" d="M407,431.7l-0.6-2.9l1-0.2l0.6,2.9L407,431.7z M406,426.8l-0.6-2.9l1-0.2l0.6,2.9L406,426.8z
						 M405,421.8l-0.6-2.9l1-0.2l0.6,2.9L405,421.8z M403.9,416.8l-0.6-2.9l1-0.2l0.6,2.9L403.9,416.8z M402.8,411.8l-0.6-2.9l1-0.2
						l0.6,2.9L402.8,411.8z M401.8,406.9l-0.6-2.9l1-0.2l0.6,2.9L401.8,406.9z M400.8,402l-0.6-2.9l1-0.2l0.6,2.9L400.8,402z
						 M399.8,397l-0.6-2.9l1-0.2l0.6,2.9L399.8,397z M398.8,392l-0.6-2.9l1-0.2l0.6,2.9L398.8,392z M397.7,387.1l-0.6-2.9l1-0.2
						l0.6,2.9L397.7,387.1z M396.7,382.1l-0.6-2.9l1-0.2l0.6,2.9L396.7,382.1z M395.7,377.1l-0.6-2.9l1-0.2l0.6,2.9L395.7,377.1z"/>
				</g>
			</g>
			<g>
				<g>
					<path fill="#414141" d="M411.8,431.9l-1-0.2l0.6-2.9l1,0.2L411.8,431.9z M412.9,427.1l-1-0.2l0.6-2.9l1,0.2L412.9,427.1z
						 M414,422.1l-1-0.2l0.6-2.9l1,0.2L414,422.1z M415.1,417.1l-1-0.2l0.6-2.9l1,0.2L415.1,417.1z M416.2,412.1l-1-0.2l0.6-2.9
						l1,0.2L416.2,412.1z M417.2,407.2l-1-0.2l0.6-2.9l1,0.2L417.2,407.2z M418.4,402.2l-1-0.2l0.6-2.9l1,0.2L418.4,402.2z
						 M419.5,397.3l-1-0.2l0.6-2.9l1,0.2L419.5,397.3z M420.6,392.3l-1-0.2l0.6-2.9l1,0.2L420.6,392.3z M421.7,387.4l-1-0.2l0.6-2.9
						l1,0.2L421.7,387.4z M422.7,382.4l-1-0.2l0.6-2.9l1,0.2L422.7,382.4z M423.8,377.4l-1-0.2l0.6-2.9l1,0.2L423.8,377.4z"/>
				</g>
			</g>
			<g>
				<g>
					<path fill="#414141" d="M438.4,431.7l-0.6-2.9l1-0.2l0.6,2.9L438.4,431.7z M437.4,426.8l-0.6-2.9l1-0.2l0.6,2.9L437.4,426.8z
						 M436.4,421.8l-0.6-2.9l1-0.2l0.6,2.9L436.4,421.8z M435.4,416.8l-0.6-2.9l1-0.2l0.6,2.9L435.4,416.8z M434.4,411.8l-0.6-2.9
						l1-0.2l0.6,2.9L434.4,411.8z M433.4,406.9l-0.6-2.9l1-0.2l0.6,2.9L433.4,406.9z M432.3,401.9l-0.6-2.9l1-0.2l0.6,2.9
						L432.3,401.9z M431.2,397l-0.6-2.9l1-0.2l0.6,2.9L431.2,397z M430.2,392l-0.6-2.9l1-0.2l0.6,2.9L430.2,392z M429.2,387.1
						l-0.6-2.9l1-0.2l0.6,2.9L429.2,387.1z M428.2,382.1l-0.6-2.9l1-0.2l0.6,2.9L428.2,382.1z M427.2,377.1l-0.6-2.9l1-0.2l0.6,2.9
						L427.2,377.1z"/>
				</g>
			</g>
			<g>
				<g>
					<path fill="#414141" d="M443.3,431.5l-1-0.2l0.6-2.9l1,0.2L443.3,431.5z M444.3,426.5l-1-0.2l0.6-2.9l1,0.2L444.3,426.5z
						 M445.3,421.6l-1-0.2l0.6-2.9l1,0.2L445.3,421.6z M446.4,416.6l-1-0.2l0.6-2.9l1,0.2L446.4,416.6z M447.4,411.6l-1-0.2l0.6-2.9
						l1,0.2L447.4,411.6z M448.4,406.7l-1-0.2l0.6-2.9l1,0.2L448.4,406.7z M449.3,401.7l-1-0.2l0.6-2.9l1,0.2L449.3,401.7z
						 M450.3,396.7l-1-0.2l0.6-2.9l1,0.2L450.3,396.7z M451.3,391.7l-1-0.2l0.6-2.9l1,0.2L451.3,391.7z M452.4,386.8l-1-0.2l0.6-2.9
						l1,0.2L452.4,386.8z M453.4,381.8l-1-0.2l0.6-2.9l1,0.2L453.4,381.8z M454.4,376.8l-1-0.2l0.6-2.9l1,0.2L454.4,376.8z"/>
				</g>
			</g>
		</g>
		<g>
			<g>
				<g>
					<path fill="#DCDBDB" d="M550.3,436.5L539.9,408h-6.3v28.5h-11v-67h19.1c2.7,0,5.4,0.4,7.6,1.1c2.3,0.7,4.4,1.8,6,3.5
						c1.6,1.6,2.9,3.6,4,6c0.9,2.4,1.4,5.3,1.4,8.6c0,2.5-0.3,4.9-1,6.9c-0.7,2-1.5,3.7-2.5,5.1c-1,1.4-2.1,2.5-3.3,3.3
						c-1.2,0.8-2.4,1.4-3.7,1.7l12,30.9h-11.9V436.5z M549.6,389.2c0-2-0.3-3.7-0.8-5c-0.6-1.3-1.3-2.3-2.2-3.1
						c-0.9-0.7-1.9-1.3-3-1.6s-2.2-0.5-3.5-0.5h-6.4v20.6h6.4c2.7,0,5.1-0.9,6.9-2.6C548.7,395.3,549.6,392.7,549.6,389.2z"/>
				</g>
			</g>
			<g>
				<g>
					<g>
						<path fill="#010101" d="M563,437h-13l-10.5-28.5h-5.5v7.7h-1v-8.7h7.2l10.5,28.5h10.9l-8.3-21.5l0.9-0.4L563,437z M534.1,437
							h-12v-38.9h1V436h9.9v-8.3h1V437z M540,400.2h-6.9v-21.7h6.9v1h-5.9V399h5.9c2.6,0,4.8-0.8,6.5-2.4c1.7-1.6,2.5-4.2,2.5-7.4h1
							c0,3.6-0.9,6.4-2.8,8.1C545.3,399.1,542.9,400.2,540,400.2z M560.2,395.7l-0.9-0.3c0.6-1.9,1-4.2,1-6.7c0-3.2-0.5-6.1-1.4-8.4
							c-0.9-2.3-2.2-4.3-3.8-5.8c-1.6-1.5-3.6-2.6-5.8-3.3s-4.8-1-7.5-1h-18.6v20.7h-1V369h19.6c2.8,0,5.5,0.4,7.8,1.1
							c2.4,0.7,4.5,1.9,6.2,3.6c1.7,1.6,3,3.7,4.1,6.2c1,2.4,1.4,5.4,1.4,8.8C561.3,391.2,560.8,393.7,560.2,395.7z"/>
					</g>
				</g>
			</g>
			<g>
				<g>
					<path fill="#414141" d="M527.8,433h-1v-3h1V433z M527.8,428h-1v-3h1V428z M527.8,422.9h-1v-3h1V422.9z M527.8,417.8h-1v-3h1
						V417.8z M527.8,412.7h-1v-3h1V412.7z M527.8,407.7h-1v-3h1V407.7z M527.8,402.6h-1v-3h1V402.6z M527.8,397.5h-1v-3h1V397.5z
						 M527.8,392.4h-1v-3h1V392.4z M527.8,387.4h-1v-3h1V387.4z M527.8,382.3h-1v-3h1V382.3z M527.8,377.2h-1v-3h1V377.2z"/>
				</g>
			</g>
			<g>
				<g>
					<path fill="#414141" d="M536.9,403.8H534l-0.1-1h2.9v1H536.9z M539.3,403.8l-0.1-1h0.8c0.7,0,1.4,0,2.2,0l0.1,1
						c-0.8,0-1.5,0-2.2,0H539.3z M544.4,403.6l-0.2-1c1-0.2,1.9-0.4,2.8-0.8l0.4,0.9C546.4,403.1,545.4,403.4,544.4,403.6z
						 M549.3,401.8l-0.5-0.8c0.8-0.5,1.5-1.1,2.2-1.8l0.7,0.7C551,400.6,550.2,401.3,549.3,401.8z M553.1,398.2l-0.8-0.6
						c0.6-0.8,1.1-1.6,1.6-2.4l0.9,0.4C554.4,396.5,553.8,397.4,553.1,398.2z M555.7,393.7l-1-0.3c0.3-0.9,0.5-1.9,0.6-2.8l1,0.1
						C556.2,391.6,556,392.7,555.7,393.7z M555.3,388.5c0-0.9-0.1-1.9-0.3-2.9l1-0.2c0.2,1,0.3,2.1,0.4,3.1H555.3z M554.5,383.7
						c-0.3-0.9-0.6-1.8-1-2.8l0.9-0.4c0.4,1,0.8,1.9,1,2.9L554.5,383.7z M552.6,379.2c-0.5-0.7-1.2-1.4-2-2l0.6-0.8
						c0.9,0.7,1.6,1.4,2.2,2.3L552.6,379.2z M549,376.1c-0.8-0.4-1.7-0.7-2.7-1l0.3-1c1.1,0.3,2,0.7,2.9,1.1L549,376.1z
						 M544.3,374.6c-0.9-0.2-1.9-0.3-2.9-0.4l0.1-1c1.1,0.1,2.1,0.2,3,0.4L544.3,374.6z M531.2,374.1l-0.1-1c0,0,1.2-0.1,3-0.1v1
						C532.4,374,531.2,374.1,531.2,374.1z M539.3,374.1c-1-0.1-2-0.1-3-0.1v-1c0.9,0,2,0,3,0.1V374.1z"/>
				</g>
			</g>
			<g>
				<g>
					<path fill="#414141" d="M554.9,435.1l-0.4-1l0.9-0.4l0.4,1L554.9,435.1z M553.7,432.1l-1.1-2.8l0.9-0.4l1.1,2.8L553.7,432.1z
						 M551.8,427.5l-1.1-2.8l0.9-0.4l1.1,2.8L551.8,427.5z M550,422.7l-1.1-2.8l0.9-0.4l1.1,2.8L550,422.7z M548.2,418l-1.1-2.8
						l0.9-0.4l1.1,2.8L548.2,418z M546.2,413.3l-1.1-2.8l0.9-0.4l1.1,2.8L546.2,413.3z M544.4,408.6l-1.1-2.8l0.9-0.4l1.1,2.8
						L544.4,408.6z"/>
				</g>
			</g>
		</g>
	</g>
	<g>
		<g>
			<g>
				<g>
					<path fill="#DCDBDB" d="M110.7,436.5l-3.3-14.2H89.8l-3.5,14.2H75.1l16.6-67h14.5l16.3,67H110.7z M99,380.2h-0.4l-7.3,33.2H106
						L99,380.2z"/>
				</g>
			</g>
			<g>
				<g>
					<g>
						<path fill="#010101" d="M123.2,437h-12.5v-1h11.2l-2.9-12.2l1-0.2L123.2,437z M86.5,437H74.4l7-28.1l1,0.2L75.7,436h10.7v1
							H86.5z M88.7,429.1l-1-0.2l1.7-7h18v1H90.2L88.7,429.1z M106.7,414h-16l2.3-10.6l1,0.2l-2,9.3h13.5l-0.9-4.1l1-0.2L106.7,414z
							 M102.5,399.6l-3.9-17.9l-1.5,7.1l-1-0.2l1.9-8.8h1.2l4.2,19.7L102.5,399.6z M112.4,396.9l-6.6-26.9H92.2l-1.5,6.2l-1-0.2
							l1.7-6.9h15.2l6.8,27.7L112.4,396.9z"/>
					</g>
				</g>
			</g>
			<g>
				<g>
					<g>
						
							<rect x="80.6" y="431.7" transform="matrix(-0.9721 -0.2345 0.2345 -0.9721 58.4943 871.9055)" fill="#010101" width="1" height="1.5"/>
					</g>
				</g>
				<g>
					<g>
						<path fill="#010101" d="M82.3,429.9l-1-0.2l0.7-2.9l1,0.2L82.3,429.9z M83.5,424.9l-1-0.2l0.7-2.9l1,0.2L83.5,424.9z
							 M84.6,420l-1-0.2l0.7-2.9l1,0.2L84.6,420z M85.9,415l-1-0.2l0.7-2.9l1,0.2L85.9,415z M87.1,410.1l-1-0.2l0.7-2.9l1,0.2
							L87.1,410.1z M88.3,405.1l-1-0.2L88,402l1,0.2L88.3,405.1z M89.5,400.2l-1-0.2l0.7-2.9l1,0.2L89.5,400.2z M90.6,395.2l-1-0.2
							l0.7-2.9l1,0.2L90.6,395.2z M91.9,390.3l-1-0.2l0.7-2.9l1,0.2L91.9,390.3z M93.1,385.3l-1-0.2l0.7-2.9l1,0.2L93.1,385.3z
							 M94.3,380.4l-1-0.2l0.7-2.9l1,0.2L94.3,380.4z"/>
					</g>
				</g>
				<g>
					<g>
						
							<rect x="94.7" y="373.8" transform="matrix(-0.9717 -0.2363 0.2363 -0.9717 99.2152 760.9884)" fill="#010101" width="1" height="1.5"/>
					</g>
				</g>
			</g>
			<g>
				<g>
					<g>
						
							<rect x="101.3" y="374.1" transform="matrix(-0.2379 -0.9713 0.9713 -0.2379 -237.4716 562.9038)" fill="#010101" width="1.5" height="1"/>
					</g>
				</g>
				<g>
					<g>
						<path fill="#010101" d="M115.1,429.9l-0.7-2.9l1-0.2l0.7,2.9L115.1,429.9z M113.9,424.9l-0.7-2.9l1-0.2l0.7,2.9L113.9,424.9z
							 M112.8,420L112,417l1-0.2l0.7,2.9L112.8,420z M111.5,415l-0.7-2.9l1-0.2l0.7,2.9L111.5,415z M110.3,410.1l-0.7-2.9l1-0.2
							l0.7,2.9L110.3,410.1z M109.1,405.1l-0.7-2.9l1-0.2l0.7,2.9L109.1,405.1z M107.9,400.2l-0.7-2.9l1-0.2l0.7,2.9L107.9,400.2z
							 M106.7,395.2l-0.7-2.9l1-0.2l0.7,2.9L106.7,395.2z M105.5,390.3l-0.7-2.9l1-0.2l0.7,2.9L105.5,390.3z M104.2,385.3l-0.7-2.9
							l1-0.2l0.7,2.9L104.2,385.3z M103,380.4l-0.7-2.9l1-0.2l0.7,2.9L103,380.4z"/>
					</g>
				</g>
				<g>
					<g>
						
							<rect x="115.5" y="431.9" transform="matrix(-0.2379 -0.9713 0.9713 -0.2379 -276.034 648.2612)" fill="#010101" width="1.5" height="1"/>
					</g>
				</g>
			</g>
			<g>
				<g>
					<path fill="#010101" d="M103.5,418.8h-3v-1h3V418.8z M98.4,418.8h-3v-1h3V418.8z M93.4,418.8h-3v-1h3V418.8z"/>
				</g>
			</g>
		</g>
		<g>
			<g>
				<g>
					<path fill="#DCDBDB" d="M36.2,436.5v-67h29.9v10H47.1v17.8h17.7v9.2H47.1v19.8h20.1v10.1H36.2z"/>
				</g>
			</g>
			<g>
				<g>
					<g>
						<path fill="#010101" d="M67.6,437h-6v-1h5v-9.1H55v-1h12.7V437H67.6z M47,437H35.7v-6h1v5h10.4v1H47z M47.6,423.7h-1V406h17.7
							v-8.7H47.1v-1h18.2v10.8H47.6V423.7z M36.7,421.7h-1v-47.4h1V421.7z M47.6,387.3h-1v-8.2h19.1v-9H49.4v-1h17.3v11.1H47.6
							V387.3z"/>
					</g>
				</g>
			</g>
			<g>
				<g>
					<path fill="#414141" d="M62.9,434.1h-3v-1h3V434.1z M57.9,434.1h-3v-1h3V434.1z M52.8,434.1h-3v-1h3V434.1z M47.7,434.1h-3v-1
						h3V434.1z M42.9,433.3h-2v-2h1v1h1V433.3z M41.6,430h-1v-3h1V430z M41.6,424.9h-1v-3h1V424.9z M41.6,419.9h-1v-3h1V419.9z
						 M41.6,414.8h-1v-3h1V414.8z M41.6,409.7h-1v-3h1V409.7z M41.6,404.6h-1v-3h1V404.6z M41.6,399.6h-1v-3h1V399.6z M41.6,394.5
						h-1v-3h1V394.5z M41.6,389.4h-1v-3h1V389.4z M41.6,384.3h-1v-3h1V384.3z M41.6,379.3h-1v-3h1V379.3z M63.2,374.5h-1v-1h1V374.5
						z M59.9,375.2h-3v-1h3V375.2z M54.8,375.2h-3v-1h3V375.2z M49.7,375.2h-3v-1h3V375.2z M44.7,375.2h-3v-1h3V375.2z"/>
				</g>
			</g>
			<g>
				<g>
					<path fill="#414141" d="M61.2,401.9h-1v-1h1V401.9z M57.9,402.6h-3v-1h3V402.6z M52.8,402.6h-3v-1h3V402.6z M47.7,402.6h-3v-1
						h3V402.6z"/>
				</g>
			</g>
		</g>
		<g>
			<g>
				<g>
					<path fill="#DCDBDB" d="M273.7,436.5v-67h29.9v10h-19.1v17.8h17.7v9.2h-17.7v19.8h20.1v10.1H273.7z"/>
				</g>
			</g>
			<g>
				<g>
					<g>
						<path fill="#010101" d="M305.1,437h-6v-1h5v-9.1h-11.7v-1h12.7V437z M284.5,437h-11.4v-6h1v5h10.4V437z M285.1,423.7h-1V406
							h17.7v-8.7h-17.2v-1h18.2v10.8h-17.7V423.7z M274.2,421.7h-1v-47.4h1V421.7z M285.1,387.3h-1v-8.2h19.1v-9h-16.2v-1h17.3v11.1
							h-19.1V387.3z"/>
					</g>
				</g>
			</g>
			<g>
				<g>
					<path fill="#414141" d="M300.4,434.1h-3v-1h3V434.1z M295.3,434.1h-3v-1h3V434.1z M290.3,434.1h-3v-1h3V434.1z M285.2,434.1h-3
						v-1h3V434.1z M280.4,433.3h-2v-2h1v1h1V433.3z M279.1,430h-1v-3h1V430z M279.1,424.9h-1v-3h1V424.9z M279.1,419.9h-1v-3h1
						V419.9z M279.1,414.8h-1v-3h1V414.8z M279.1,409.7h-1v-3h1V409.7z M279.1,404.6h-1v-3h1V404.6z M279.1,399.6h-1v-3h1V399.6z
						 M279.1,394.5h-1v-3h1V394.5z M279.1,389.4h-1v-3h1V389.4z M279.1,384.3h-1v-3h1V384.3z M279.1,379.3h-1v-3h1V379.3z
						 M300.7,374.5h-1v-1h1V374.5z M297.4,375.2h-3v-1h3V375.2z M292.3,375.2h-3v-1h3V375.2z M287.2,375.2h-3v-1h3V375.2z
						 M282.1,375.2h-3v-1h3V375.2z"/>
				</g>
			</g>
			<g>
				<g>
					<path fill="#414141" d="M298.7,401.9h-1v-1h1V401.9z M295.3,402.6h-3v-1h3V402.6z M290.3,402.6h-3v-1h3V402.6z M285.2,402.6h-3
						v-1h3V402.6z"/>
				</g>
			</g>
		</g>
		<g>
			<g>
				<g>
					<path fill="#DCDBDB" d="M11.9,379.8v18.4h17.3v9.6H12v28.7H0.5v-67h29.9v10.3C30.4,379.8,11.9,379.8,11.9,379.8z"/>
				</g>
			</g>
			<g>
				<g>
					<g>
						<path fill="#010101" d="M12.5,437H0v-43.7h1V436h10.5v-13.5h1V437z M29.5,408.3H13.3v-1h15.2v-8.6h-5.2v-1h6.2V408.3z
							 M12.4,391h-1v-11.8H30V375h1v5.3H12.4V391z M1,381.9H0V369h26.3v1H1V381.9z"/>
					</g>
				</g>
			</g>
			<g>
				<g>
					<path fill="#414141" d="M6.1,434.1h-1v-3h1V434.1z M6.1,429h-1v-3h1V429z M6.1,423.9h-1v-3h1V423.9z M6.1,418.8h-1v-3h1V418.8z
						 M6.1,413.8h-1v-3h1V413.8z M6.1,408.7h-1v-3h1V408.7z M6.1,403.6h-1v-3h1V403.6z M6.1,398.5h-1v-3h1V398.5z M6.1,393.5h-1v-3
						h1V393.5z M6.1,388.4h-1v-3h1V388.4z M6.1,383.3h-1v-3h1V383.3z M6.1,378.2h-1v-3h1V378.2z M26.4,376.2h-3v-1h3V376.2z
						 M21.3,376.2h-3v-1h3V376.2z M16.2,376.2h-3v-1h3V376.2z M11.2,376.2h-3v-1h3V376.2z"/>
				</g>
			</g>
			<g>
				<g>
					<path fill="#414141" d="M26.4,403.6h-3v-1h3V403.6z M21.3,403.6h-3v-1h3V403.6z M16.2,403.6h-3v-1h3V403.6z M11.5,402.9h-2v-1
						h2V402.9z"/>
				</g>
			</g>
		</g>
		<g>
			<g>
				<g>
					<path fill="#DCDBDB" d="M148.3,379.2v57.3h-11.2v-57.3h-12.6v-9.6h36.3v9.6H148.3z"/>
				</g>
			</g>
			<g>
				<g>
					<g>
						<path fill="#010101" d="M148.8,437h-12.2v-10.8h1v9.7h10.1v-32.6h1V437z M137.6,417.9h-1v-38.8h1V417.9z M148.8,393.1h-1
							v-14.4h12.6V370H139v-1h22.3v10.7h-12.6V393.1z"/>
					</g>
				</g>
			</g>
			<g>
				<g>
					<path fill="#414141" d="M158.6,374.5h-2v-1h2V374.5z M154.3,375.2h-3v-1h3V375.2z M149.2,375.2h-3v-1h3V375.2z M144.1,375.2h-3
						v-1h3V375.2z M139,375.2h-3v-1h3V375.2z M134,375.2h-3v-1h3V375.2z M128.9,375.2h-3v-1h3V375.2z"/>
				</g>
			</g>
			<g>
				<g>
					<path fill="#414141" d="M143.4,433.3h-1v-2h1V433.3z M143.1,430h-1v-3h1V430z M143.1,424.9h-1v-3h1V424.9z M143.1,419.9h-1v-3
						h1V419.9z M143.1,414.8h-1v-3h1V414.8z M143.1,409.7h-1v-3h1V409.7z M143.1,404.6h-1v-3h1V404.6z M143.1,399.6h-1v-3h1V399.6z
						 M143.1,394.5h-1v-3h1V394.5z M143.1,389.4h-1v-3h1V389.4z M143.1,384.3h-1v-3h1V384.3z"/>
				</g>
			</g>
		</g>
		<g>
			<g>
				<g>
					<path fill="#DCDBDB" d="M252.9,436.5L242.6,408h-6.3v28.5h-11v-67h19.1c2.7,0,5.3,0.4,7.6,1.1c2.3,0.7,4.4,1.8,6,3.5
						c1.6,1.6,2.9,3.6,4,6c0.9,2.4,1.4,5.3,1.4,8.6c0,2.5-0.3,4.9-1,6.9c-0.7,2-1.5,3.7-2.5,5.1s-2.1,2.5-3.3,3.3
						c-1.2,0.8-2.4,1.4-3.7,1.7l12,30.9h-11.9V436.5z M252.2,389.2c0-2-0.3-3.7-0.8-5c-0.6-1.3-1.3-2.3-2.2-3.1
						c-0.9-0.7-1.9-1.3-3-1.6s-2.2-0.5-3.5-0.5h-6.4v20.6h6.4c2.7,0,5.1-0.9,6.9-2.6C251.3,395.3,252.2,392.7,252.2,389.2z"/>
				</g>
			</g>
			<g>
				<g>
					<g>
						<path fill="#010101" d="M265.6,437h-13l-10.5-28.5h-5.5v7.7h-1v-8.7h7.2l10.5,28.5h10.9l-8.3-21.5l0.9-0.4L265.6,437z
							 M236.7,437h-12v-38.9h1V436h9.9v-8.3h1V437z M242.7,400.2h-6.9v-21.7h6.9v1h-5.9V399h5.9c2.6,0,4.8-0.8,6.5-2.4
							c1.7-1.6,2.5-4.2,2.5-7.4h1c0,3.6-0.9,6.4-2.8,8.1C247.9,399.1,245.5,400.2,242.7,400.2z M262.9,395.7l-0.9-0.3
							c0.6-1.9,1-4.2,1-6.7c0-3.2-0.5-6.1-1.4-8.4c-0.9-2.3-2.2-4.3-3.8-5.8c-1.6-1.5-3.6-2.6-5.8-3.3s-4.8-1-7.5-1h-18.6v20.7h-1
							V369h19.6c2.8,0,5.5,0.4,7.8,1.1c2.4,0.7,4.5,1.9,6.2,3.6c1.7,1.6,3,3.7,4.1,6.2c1,2.4,1.4,5.4,1.4,8.8
							C263.9,391.2,263.5,393.7,262.9,395.7z"/>
					</g>
				</g>
			</g>
			<g>
				<g>
					<path fill="#414141" d="M230.4,433h-1v-3h1V433z M230.4,428h-1v-3h1V428z M230.4,422.9h-1v-3h1V422.9z M230.4,417.8h-1v-3h1
						V417.8z M230.4,412.7h-1v-3h1V412.7z M230.4,407.7h-1v-3h1V407.7z M230.4,402.6h-1v-3h1V402.6z M230.4,397.5h-1v-3h1V397.5z
						 M230.4,392.4h-1v-3h1V392.4z M230.4,387.4h-1v-3h1V387.4z M230.4,382.3h-1v-3h1V382.3z M230.4,377.2h-1v-3h1V377.2z"/>
				</g>
			</g>
			<g>
				<g>
					<path fill="#414141" d="M239.5,403.8h-2.9l-0.1-1h2.9v1H239.5z M242,403.8l-0.1-1h0.8c0.7,0,1.4,0,2.2,0l0.1,1
						c-0.8,0-1.5,0-2.2,0H242z M247,403.6l-0.2-1c1-0.2,1.9-0.4,2.8-0.8l0.4,0.9C249.1,403.1,248,403.4,247,403.6z M251.9,401.8
						l-0.5-0.8c0.8-0.5,1.5-1.1,2.2-1.8l0.7,0.7C253.6,400.6,252.8,401.3,251.9,401.8z M255.8,398.2l-0.8-0.6
						c0.6-0.8,1.1-1.6,1.6-2.4l0.9,0.4C257,396.5,256.5,397.4,255.8,398.2z M258.3,393.7l-1-0.3c0.3-0.9,0.5-1.9,0.6-2.8l1,0.1
						C258.8,391.6,258.6,392.7,258.3,393.7z M257.9,388.5c0-0.9-0.1-1.9-0.3-2.9l1-0.2c0.2,1,0.3,2.1,0.4,3.1H257.9z M257.1,383.7
						c-0.3-0.9-0.6-1.8-1-2.8l0.9-0.4c0.4,1,0.7,1.9,1,2.9L257.1,383.7z M255.3,379.2c-0.5-0.7-1.2-1.4-2-2l0.6-0.8
						c0.9,0.7,1.6,1.4,2.2,2.3L255.3,379.2z M251.6,376.1c-0.8-0.4-1.7-0.7-2.7-1l0.3-1c1.1,0.3,2,0.7,2.9,1.1L251.6,376.1z
						 M246.9,374.6c-0.9-0.2-1.9-0.3-2.9-0.4l0.1-1c1.1,0.1,2.1,0.2,3,0.4L246.9,374.6z M233.8,374.1l-0.1-1c0,0,1.2-0.1,3-0.1v1
						C235.1,374,233.8,374.1,233.8,374.1z M242,374.1c-1-0.1-2-0.1-3-0.1v-1c0.9,0,2,0,3,0.1V374.1z"/>
				</g>
			</g>
			<g>
				<g>
					<path fill="#414141" d="M257.5,435.1l-0.4-1l0.9-0.4l0.4,1L257.5,435.1z M256.4,432.1l-1.1-2.8l0.9-0.4l1.1,2.8L256.4,432.1z
						 M254.4,427.5l-1.1-2.8l0.9-0.4l1.1,2.8L254.4,427.5z M252.6,422.7l-1.1-2.8l0.9-0.4l1.1,2.8L252.6,422.7z M250.8,418l-1.1-2.8
						l0.9-0.4l1.1,2.8L250.8,418z M248.9,413.3l-1.1-2.8l0.9-0.4l1.1,2.8L248.9,413.3z M247,408.6l-1.1-2.8l0.9-0.4l1.1,2.8
						L247,408.6z"/>
				</g>
			</g>
		</g>
		<g>
			<g>
				<g>
					<path fill="#DCDBDB" d="M211.2,421.9c-0.7,3-2,5.8-3.7,8.1c-1.7,2.3-3.9,4.2-6.6,5.5c-2.6,1.3-6,2-9.7,2c-3.9,0-7.1-0.7-9.7-2
						c-2.6-1.3-4.8-3.1-6.5-5.5c-1.6-2.3-2.8-5-3.6-8.1c-0.7-3-1.1-6.4-1.1-9.9v-43.2h11.4v42.2c0,2.1,0.1,4.1,0.4,6
						c0.3,1.9,0.8,3.7,1.5,5.1s1.7,2.6,2.9,3.5c1.2,0.8,2.8,1.3,4.9,1.3c1.9,0,3.6-0.4,4.9-1.3c1.2-0.8,2.2-2,2.9-3.5
						c0.7-1.4,1.2-3.1,1.5-5.1c0.3-1.9,0.4-4,0.4-6v-42.2h11.3v43.2C212.4,415.4,212,418.7,211.2,421.9z"/>
				</g>
			</g>
			<g>
				<g>
					<g>
						<path fill="#010101" d="M191.2,437.8c-4,0-7.3-0.7-9.9-2l0.4-0.9c2.5,1.3,5.8,1.9,9.5,1.9s7-0.6,9.5-1.9
							c2.6-1.3,4.8-3,6.4-5.3c1.6-2.2,2.8-4.9,3.7-7.9c0.7-3,1.1-6.3,1.1-9.8h1c0,3.6-0.4,6.9-1.1,10c-0.8,3.1-2,5.9-3.8,8.2
							c-1.7,2.3-4.1,4.3-6.8,5.6C198.5,437.2,195.1,437.8,191.2,437.8z M191.4,427.2c-2,0-3.8-0.5-5.1-1.3c-1.3-0.9-2.4-2.1-3.1-3.7
							c-0.7-1.5-1.3-3.2-1.5-5.2c-0.3-1.9-0.4-4-0.4-6.1h1c0,2,0.1,4.1,0.4,5.9s0.8,3.6,1.4,4.9c0.7,1.3,1.6,2.4,2.8,3.2
							s2.7,1.2,4.6,1.2c1.8,0,3.3-0.4,4.6-1.2c1.2-0.8,2.1-1.9,2.8-3.2c0.7-1.4,1.2-3,1.4-4.9c0.3-1.9,0.4-3.9,0.4-5.9v-29h1v28.9
							c0,2.1-0.1,4.2-0.4,6.1c-0.3,1.9-0.8,3.8-1.5,5.2c-0.8,1.5-1.8,2.7-3.1,3.7C195.2,426.8,193.4,427.2,191.4,427.2z
							 M170.8,411.4h-1v-43.2h12.4v32.4h-1v-31.4h-10.4V411.4z M212.9,401.6h-1v-32.4h-10.5v-1h11.5V401.6z"/>
					</g>
				</g>
			</g>
			<g>
				<g>
					<path fill="#414141" d="M189.6,433.6c-0.6,0-1.2,0-1.8-0.1l0.1-1c0.9,0.1,2,0.1,2.9,0.1v1C190.4,433.6,190,433.6,189.6,433.6z
						 M192.9,433.3l-0.1-1c1-0.1,2-0.3,2.8-0.6l0.3,1C195,432.9,194,433.1,192.9,433.3z M185.6,433c-1-0.3-2-0.6-2.9-1.1l0.5-0.9
						c0.8,0.4,1.7,0.8,2.7,1L185.6,433z M197.9,431.9l-0.4-0.9c0.9-0.4,1.7-0.9,2.5-1.4l0.6,0.8C199.7,431,198.8,431.5,197.9,431.9z
						 M181,430.8c-0.8-0.6-1.5-1.4-2.2-2.2l0.8-0.6c0.6,0.8,1.3,1.5,2,2.1L181,430.8z M202.2,429l-0.7-0.7c0.7-0.7,1.3-1.4,1.8-2.2
						l0.8,0.5C203.6,427.5,203,428.3,202.2,429z M177.6,426.8c-0.5-0.9-0.9-1.8-1.3-2.8l0.9-0.3c0.3,1,0.7,1.9,1.2,2.7L177.6,426.8z
						 M205.2,424.7l-0.9-0.4c0.4-0.8,0.8-1.8,1.1-2.7l1,0.3C206,422.8,205.6,423.8,205.2,424.7z M175.7,422c-0.2-0.9-0.4-2-0.6-3
						l1-0.1c0.1,1,0.3,2,0.6,2.9L175.7,422z M206.8,419.9l-1-0.2c0.2-0.9,0.3-1.9,0.4-2.9l1,0.1C207.2,417.8,207,418.8,206.8,419.9z
						 M174.8,416.8c-0.1-0.9-0.2-1.9-0.2-2.9v-0.1h1v0.2c0,0.9,0.1,1.9,0.2,2.8H174.8z M207.1,414.7h-1v-0.2c0-1.1,0-1.3,0-1.3
						l0.1-0.4h0.9v1h0.1c0,0-0.1-0.5-0.1,0.6V414.7z M175.6,412.7h-1v-3h1V412.7z M207,410.7h-1v-3h1V410.7z M175.6,407.7h-1v-3h1
						V407.7z M207,405.6h-1v-3h1V405.6z M175.6,402.6h-1v-3h1V402.6z M207,400.6h-1v-3h1V400.6z M175.6,397.5h-1v-3h1V397.5z
						 M207,395.5h-1v-3h1V395.5z M175.6,392.4h-1v-3h1V392.4z M207,390.4h-1v-3h1V390.4z M175.6,387.4h-1v-3h1V387.4z M207,385.3h-1
						v-3h1V385.3z M175.6,382.3h-1v-3h1V382.3z M207,380.3h-1v-3h1V380.3z M175.6,377.2h-1v-3h1V377.2z M207.3,374.1h-1v-1.9h1
						V374.1z"/>
				</g>
			</g>
		</g>
		<g>
			<g>
				<g>
					<path fill="#DCDBDB" d="M354.1,403.1c0,10.6-2.2,18.8-6.7,24.7c-4.5,5.8-11,8.7-19.6,8.7h-16.7v-67h16.8
						c8.5,0,15.1,2.9,19.5,8.8C352,384.2,354.1,392.5,354.1,403.1z M342.8,403.1c0-4-0.4-7.4-1.1-10.5c-0.7-2.9-1.7-5.4-3-7.4
						s-2.9-3.5-4.8-4.4c-1.8-1-3.9-1.4-6-1.4h-5.4v47.1h5.4c2.1,0,4.2-0.5,6-1.4c1.8-1,3.5-2.4,4.8-4.4c1.3-1.9,2.3-4.4,3-7.3
						C342.4,410.4,342.8,407.1,342.8,403.1z"/>
				</g>
			</g>
			<g>
				<g>
					<g>
						<path fill="#010101" d="M327.8,437h-17.3v-26.3h1V436h16.2V437z M327.9,427.1H322v-7.4h1v6.4h4.9c2,0,4-0.5,5.7-1.4
							c1.7-0.9,3.2-2.3,4.6-4.3c1.3-1.9,2.3-4.3,3-7.2c0.7-2.8,1.1-6.3,1.1-10.1c0-4-0.4-7.4-1.1-10.3l1-0.2
							c0.7,2.9,1.1,6.5,1.1,10.6c0,4-0.4,7.4-1.1,10.4l-0.5-0.1l0.5,0.1c-0.7,2.9-1.8,5.5-3.1,7.5c-1.3,2-3,3.6-4.9,4.6
							C332.3,426.5,330.2,427.1,327.9,427.1z M323.1,407.2h-1v-28.2h5.9c2.2,0,4.3,0.5,6.2,1.5l-0.5,0.9c-1.7-0.9-3.7-1.4-5.7-1.4
							h-4.9V407.2z M354.6,403.1h-1c0-10.5-2.2-18.7-6.6-24.5c-4.4-5.8-10.8-8.6-19.1-8.6h-16.3v12.3h-1V369h17.4
							c8.7,0,15.4,3,19.9,9C352.4,384,354.6,392.4,354.6,403.1z"/>
					</g>
				</g>
			</g>
			<g>
				<g>
					<path fill="#414141" d="M321.7,433.1c-0.8,0-1.6,0-2.2,0v-1c0.9,0,1.9,0.1,3,0v1C322.2,433.1,321.9,433.1,321.7,433.1z
						 M324.6,433l-0.1-1c1-0.1,2-0.1,3-0.3l0.1,1C326.6,432.9,325.6,433,324.6,433z M317.4,432.9c-0.7-0.1-1.1-0.1-1.1-0.1l-0.5-0.1
						V431h1v0.9c1,0,0.4,0,0.6,0V432.9z M329.6,432.5l-0.2-1c1-0.2,2-0.4,2.9-0.6l0.3,1C331.7,432,330.7,432.3,329.6,432.5z
						 M334.6,431.2l-0.3-0.9c1-0.3,1.9-0.7,2.7-1.2l0.5,0.9C336.7,430.4,335.6,430.8,334.6,431.2z M339.3,428.9l-0.6-0.8
						c0.8-0.6,1.6-1.2,2.2-1.8l0.7,0.7C341,427.6,340.2,428.3,339.3,428.9z M316.7,429h-1v-3h1V429z M343,425.2l-0.8-0.6
						c0.5-0.7,1-1.6,1.5-2.5l0.9,0.5C344.2,423.6,343.7,424.5,343,425.2z M316.7,423.9h-1v-3h1V423.9z M345.5,420.8l-0.9-0.4
						c0.4-0.9,0.7-1.8,1-2.8l0.9,0.3C346.3,418.8,345.9,419.9,345.5,420.8z M316.7,418.8h-1v-3h1V418.8z M347.2,415.9l-1-0.3
						c0.3-0.9,0.5-1.9,0.7-2.9l1,0.2C347.7,413.9,347.5,414.9,347.2,415.9z M316.7,413.8h-1v-3h1V413.8z M348.3,410.8l-1-0.2
						c0.2-1,0.3-2,0.4-2.9l1,0.1C348.7,408.9,348.5,409.9,348.3,410.8z M316.7,408.7h-1v-3h1V408.7z M349,405.7l-1-0.1
						c0.1-1,0.1-2,0.2-3h1C349.1,403.7,349.1,404.7,349,405.7z M316.7,403.6h-1v-3h1V403.6z M348.2,400.7c0-1,0-2-0.1-3l1-0.1
						c0.1,1,0.1,2,0.1,3L348.2,400.7z M316.7,398.5h-1v-3h1V398.5z M347.9,395.7c-0.1-1-0.3-2-0.5-2.9l1-0.2c0.2,1,0.3,2,0.5,3
						L347.9,395.7z M316.7,393.5h-1v-3h1V393.5z M347,390.7c-0.2-1-0.5-1.9-0.9-2.8l0.9-0.3c0.3,0.9,0.6,1.9,0.9,2.9L347,390.7z
						 M316.7,388.4h-1v-3h1V388.4z M345.4,386.1c-0.4-0.9-0.9-1.8-1.4-2.6l0.8-0.5c0.5,0.8,1,1.8,1.4,2.7L345.4,386.1z M316.7,383.3
						h-1v-3h1V383.3z M342.8,381.8c-0.6-0.8-1.3-1.5-2-2.1l0.7-0.7c0.7,0.7,1.4,1.4,2.1,2.3L342.8,381.8z M339.3,378.3
						c-0.2-0.1-0.4-0.3-0.6-0.4c-0.6-0.4-1.3-0.8-1.9-1.1l0.5-0.9c0.7,0.4,1.3,0.8,2,1.2c0.2,0.1,0.4,0.3,0.6,0.4L339.3,378.3z
						 M316.7,378.2h-1v-3h1V378.2z M335,375.9c-0.9-0.4-1.8-0.8-2.7-1.1l0.3-1c1,0.3,1.9,0.7,2.8,1.1L335,375.9z M317.6,374.7
						l-0.3-1c0.6-0.2,1.7-0.5,3-0.7l0.2,1C319.2,374.2,318.2,374.5,317.6,374.7z M330.3,374.3c-1-0.2-1.9-0.4-2.9-0.5l0.1-1
						c1,0.1,2,0.3,3,0.5L330.3,374.3z M322.4,373.7l-0.1-1c1-0.1,2-0.1,3.1-0.1v1C324.4,373.6,323.4,373.7,322.4,373.7z"/>
				</g>
			</g>
		</g>
	</g>
</g>
</svg>
