<?xml version="1.0" encoding="utf-8"?>
<!-- Generator: Adobe Illustrator 18.1.1, SVG Export Plug-In . SVG Version: 6.00 Build 0)  -->
<svg version="1.1" id="Layer_1" xmlns="http://www.w3.org/2000/svg" xmlns:xlink="http://www.w3.org/1999/xlink" x="0px" y="0px"
	 viewBox="0 0 871 70.3" enable-background="new 0 0 871 70.3" xml:space="preserve">
<g>
	<g>
		<line fill="none" stroke="#9E9E9E" stroke-width="2" x1="762" y1="29.7" x2="811" y2="29.7"/>
		<line fill="none" stroke="#9E9E9E" stroke-width="2" x1="764" y1="37.7" x2="870" y2="37.7"/>
		<line fill="none" stroke="#9E9E9E" stroke-width="2" x1="819" y1="45.7" x2="871" y2="45.7"/>
	</g>
	<line fill="none" stroke="#9E9E9E" stroke-width="2" x1="109" y1="29.7" x2="60" y2="29.7"/>
	<line fill="none" stroke="#9E9E9E" stroke-width="2" x1="107" y1="37.7" x2="1" y2="37.7"/>
	<line fill="none" stroke="#9E9E9E" stroke-width="2" x1="52" y1="45.7" x2="0" y2="45.7"/>
	<g>
		<g>
			<g>
				<g>
					<path fill="#DCDBDB" d="M714.3,68.2l-17.6-32.1h-0.3v32.1h-11.2v-66h11.2v28.6h0.3l16.8-28.6h12.6l-19.4,30.4l20.6,35.6H714.3z
						"/>
				</g>
			</g>
			<g>
				<g>
					<g>
						<path fill="#010101" d="M728.2,68.7H714l-3.1-5.7l0.9-0.5l2.9,5.2h11.8l-12.1-20.9l0.9-0.5L728.2,68.7z M696.9,68.7h-12.2
							V31.1h1v36.6h10.2V56.8h1V68.7z M707.1,56.3l-10.2-18.8v11.5h-1V35.6h1.1l11,20.2L707.1,56.3z M707.1,32.8l-0.8-0.5l18.9-29.6
							h-11.4l-9.7,16.5l-0.9-0.5l10-17H727L707.1,32.8z M696.9,24.3h-1V2.7h-10.2v11.7h-1V1.7h12.2V24.3z"/>
					</g>
				</g>
			</g>
			<g>
				<g>
					<path fill="#414141" d="M690,64.7h-1v-3h1V64.7z M690,59.7h-1v-3h1V59.7z M690,54.7h-1v-3h1V54.7z M690,49.7h-1v-3h1V49.7z
						 M690,44.7h-1v-3h1V44.7z M690,39.7h-1v-3h1V39.7z M690,34.7h-1v-3h1V34.7z M690,29.7h-1v-3h1V29.7z M690,24.7h-1v-3h1V24.7z
						 M690,19.7h-1v-3h1V19.7z M690,14.7h-1v-3h1V14.7z M690,9.7h-1v-3h1V9.7z"/>
				</g>
			</g>
			<g>
				<g>
					<path fill="#414141" d="M701,32l-0.8-0.5l0.6-0.9l0.8,0.5L701,32z M702.7,29.4l-0.8-0.5l1.6-2.5l0.8,0.5L702.7,29.4z
						 M705.4,25.2l-0.8-0.5l1.6-2.5l0.8,0.5L705.4,25.2z M708.1,21l-0.8-0.5l1.6-2.5l0.8,0.5L708.1,21z M710.8,16.8l-0.8-0.5
						l1.6-2.5l0.8,0.5L710.8,16.8z M713.5,12.6l-0.8-0.5l1.6-2.5l0.8,0.5L713.5,12.6z M716.2,8.4l-0.8-0.5l1.6-2.5l0.8,0.5
						L716.2,8.4z"/>
				</g>
			</g>
			<g>
				<g>
					<path fill="#414141" d="M718.5,66l-0.1-0.2l0.9-0.5l0.1,0.2L718.5,66z M717.4,64.1l-1.5-2.6l0.9-0.5l1.5,2.6L717.4,64.1z
						 M714.9,59.7l-1.5-2.6l0.9-0.5l1.5,2.6L714.9,59.7z M712.3,55.4l-1.5-2.6l0.9-0.5l1.5,2.6L712.3,55.4z M709.8,51.1l-1.5-2.6
						l0.9-0.5l1.5,2.6L709.8,51.1z M707.3,46.7l-1.5-2.6l0.9-0.5l1.5,2.6L707.3,46.7z M704.8,42.4l-1.5-2.6l0.9-0.5l1.5,2.6
						L704.8,42.4z M702.3,38.1l-1.5-2.6l0.9-0.5l1.5,2.6L702.3,38.1z"/>
				</g>
			</g>
		</g>
		<g>
			<g>
				<g>
					<path fill="#DCDBDB" d="M631.2,35.1c0,5.2-0.5,10-1.6,14.2c-1.1,4.3-2.7,7.9-4.7,10.9c-2,3-4.6,5.4-7.5,7.1
						c-3,1.7-6.3,2.5-9.9,2.5c-3.7,0-7.1-0.8-10-2.5c-2.9-1.7-5.4-4-7.5-7.1c-2.1-3-3.6-6.7-4.7-10.9c-1.1-4.3-1.6-9-1.6-14.2
						c0-5.2,0.5-9.9,1.6-14.2c1.1-4.2,2.6-7.9,4.7-10.9c2.1-3,4.6-5.4,7.5-7c3-1.6,6.3-2.5,10-2.5c3.7,0,7,0.8,9.9,2.5
						c3,1.6,5.5,4,7.5,7c2.1,3,3.6,6.7,4.7,10.9C630.7,25.1,631.2,29.9,631.2,35.1z M619.7,35.1c0-3.4-0.3-6.5-0.8-9.5
						c-0.5-3-1.3-5.5-2.3-7.6c-1-2.1-2.3-3.8-3.8-5.1c-1.5-1.2-3.3-1.9-5.3-1.9c-2.1,0-3.8,0.6-5.4,1.9c-1.5,1.2-2.8,2.9-3.8,5.1
						c-1,2.1-1.8,4.7-2.3,7.6c-0.5,3-0.7,6.1-0.7,9.5s0.2,6.5,0.7,9.5c0.5,3,1.3,5.5,2.3,7.7c1,2.2,2.3,3.9,3.8,5.1
						c1.5,1.2,3.3,1.9,5.4,1.9c2.1,0,3.8-0.6,5.4-1.9c1.5-1.2,2.8-2.9,3.8-5.1c1-2.2,1.8-4.7,2.3-7.7
						C619.4,41.6,619.7,38.4,619.7,35.1z"/>
				</g>
			</g>
			<g>
				<g>
					<g>
						<path fill="#010101" d="M607.5,70.3c-3.8,0-7.2-0.9-10.2-2.6l0.5-0.9c2.8,1.6,6.1,2.5,9.7,2.5c3.6,0,6.8-0.8,9.7-2.5
							c2.9-1.6,5.3-4,7.3-6.9l0.8,0.6c-2.1,3.1-4.7,5.5-7.7,7.2C614.6,69.5,611.2,70.3,607.5,70.3z M607.5,59.7
							c-2.2,0-4.1-0.7-5.7-2c-1.6-1.3-2.9-3.1-4-5.3c-1-2.2-1.8-4.8-2.3-7.8c-0.5-3-0.8-6.2-0.8-9.5c0-3.4,0.3-6.6,0.8-9.5
							c0.5-3,1.3-5.6,2.3-7.8c1.1-2.2,2.4-4,4-5.3c1.6-1.3,3.5-2,5.7-2c2.1,0,4,0.7,5.6,2l-0.3,0.4l0.3-0.4c1.6,1.3,2.9,3.1,4,5.3
							l-0.9,0.4c-1-2.1-2.2-3.7-3.7-4.9c-1.4-1.2-3.1-1.8-4.9-1.8c-1.9,0-3.6,0.6-5,1.8c-1.5,1.2-2.7,2.8-3.7,4.9
							c-1,2.1-1.8,4.6-2.2,7.5c-0.5,2.9-0.7,6.1-0.7,9.4c0,3.3,0.2,6.5,0.7,9.4c0.5,2.9,1.2,5.4,2.2,7.6c1,2.1,2.2,3.8,3.7,5
							c1.4,1.2,3.1,1.8,5,1.8c1.9,0,3.6-0.6,5-1.8c1.5-1.2,2.7-2.9,3.7-5l0.9,0.4c-1.1,2.2-2.4,4-4,5.3
							C611.6,59,609.6,59.7,607.5,59.7z M630.1,49.4l-1-0.2c1.1-4.2,1.6-8.9,1.6-14.1c0-5.1-0.5-9.9-1.6-14
							c-1.1-4.2-2.6-7.8-4.6-10.7c-2-3-4.5-5.3-7.3-6.9C614.3,1.8,611,1,607.5,1c-3.6,0-6.9,0.8-9.8,2.4c-2.9,1.6-5.3,3.9-7.3,6.9
							c-2,3-3.6,6.6-4.6,10.7l-1-0.2c1.1-4.3,2.7-8,4.7-11.1c2.1-3.1,4.7-5.5,7.7-7.2c3-1.7,6.5-2.5,10.3-2.5
							c3.7,0,7.2,0.9,10.2,2.5c3,1.7,5.6,4.1,7.7,7.2c2.1,3.1,3.7,6.8,4.8,11.1c1.1,4.3,1.6,9.1,1.6,14.3
							C631.7,40.3,631.2,45.1,630.1,49.4z"/>
					</g>
				</g>
			</g>
			<g>
				<g>
					<path fill="#414141" d="M606.9,65.9c-1-0.1-2.1-0.2-3.1-0.5l0.3-1c0.9,0.3,1.9,0.4,2.8,0.5L606.9,65.9z M609,65.8l-0.1-1
						c0.9-0.1,1.9-0.3,2.8-0.6l0.3,0.9C611,65.5,610,65.7,609,65.8z M601.9,64.7c-0.9-0.4-1.8-0.9-2.7-1.6l0.6-0.8
						c0.8,0.6,1.7,1.1,2.5,1.5L601.9,64.7z M613.9,64.3l-0.5-0.9c0.8-0.4,1.7-1,2.4-1.6l0.6,0.8C615.7,63.3,614.8,63.9,613.9,64.3z
						 M597.7,61.8c-0.7-0.7-1.5-1.4-2.1-2.2l0.8-0.6c0.6,0.8,1.3,1.5,2,2.1L597.7,61.8z M618.1,61.3l-0.7-0.7c0.7-0.7,1.3-1.4,2-2.2
						l0.8,0.6C619.5,59.9,618.8,60.6,618.1,61.3z M594.3,58c-0.6-0.8-1.1-1.7-1.6-2.6l0.9-0.5c0.5,0.9,1,1.7,1.6,2.5L594.3,58z
						 M621.3,57.4l-0.8-0.6c0.5-0.8,1-1.6,1.5-2.5l0.9,0.5C622.4,55.7,621.9,56.6,621.3,57.4z M591.7,53.6c-0.4-0.9-0.8-1.8-1.2-2.8
						l0.9-0.4c0.4,0.9,0.8,1.8,1.2,2.7L591.7,53.6z M623.8,53l-0.9-0.4c0.4-0.9,0.8-1.8,1.1-2.7l0.9,0.3
						C624.6,51.1,624.2,52.1,623.8,53z M589.8,48.9c-0.3-0.9-0.6-1.9-0.8-2.9l1-0.2c0.2,1,0.5,1.9,0.8,2.9L589.8,48.9z M625.6,48.2
						l-1-0.3c0.3-0.9,0.5-1.9,0.7-2.9l1,0.2C626.1,46.3,625.9,47.3,625.6,48.2z M588.6,44c-0.2-1-0.3-2-0.5-3l1-0.1
						c0.1,1,0.3,2,0.5,2.9L588.6,44z M626.7,43.3l-1-0.2c0.2-1,0.3-1.9,0.4-2.9l1,0.1C627,41.3,626.9,42.3,626.7,43.3z M587.9,39
						c-0.1-1-0.1-2-0.1-3l1,0c0,1,0.1,2,0.1,3L587.9,39z M627.3,38.3l-1-0.1c0.1-1,0.1-2,0.1-3c0-0.8,0-1.6-0.1-2.4l1-0.1
						c0,0.8,0.1,1.6,0.1,2.5C627.4,36.3,627.4,37.3,627.3,38.3z M588.8,34l-1,0c0-1,0.1-2,0.2-3l1,0.1C588.9,32,588.8,33,588.8,34z
						 M626.2,30.9c-0.1-1-0.2-2-0.4-2.9l1-0.2c0.2,1,0.3,2,0.4,3L626.2,30.9z M589.2,29.1l-1-0.1c0.1-1,0.3-2,0.5-3l1,0.2
						C589.5,27.1,589.3,28.1,589.2,29.1z M625.5,26c-0.2-1-0.4-1.9-0.7-2.9l1-0.3c0.3,1,0.5,1.9,0.7,2.9L625.5,26z M590.1,24.2
						l-1-0.2c0.3-1,0.5-2,0.9-2.9l0.9,0.3C590.6,22.3,590.4,23.2,590.1,24.2z M624.2,21.2c-0.3-0.9-0.7-1.9-1.1-2.8l0.9-0.4
						c0.4,0.9,0.8,1.9,1.1,2.8L624.2,21.2z M591.6,19.5l-0.9-0.4c0.4-1,0.8-1.9,1.2-2.8l0.9,0.5C592.4,17.7,592,18.6,591.6,19.5z
						 M622.3,16.7c-0.5-0.9-1-1.8-1.5-2.6l0.8-0.5c0.5,0.8,1,1.7,1.5,2.6L622.3,16.7z M593.8,15.1l-0.9-0.5c0.5-0.9,1.1-1.8,1.7-2.5
						l0.8,0.6C594.8,13.4,594.3,14.2,593.8,15.1z M619.7,12.5c-0.6-0.8-1.3-1.5-1.9-2.2l0.7-0.7c0.7,0.7,1.4,1.5,2,2.3L619.7,12.5z
						 M596.6,11.1l-0.7-0.7c0.7-0.8,1.4-1.5,2.2-2.1l0.6,0.8C598,9.7,597.3,10.4,596.6,11.1z M616.3,9c-0.8-0.6-1.6-1.2-2.4-1.7
						l0.5-0.9c0.9,0.5,1.7,1.1,2.5,1.8L616.3,9z M600.3,7.9l-0.6-0.8c0.9-0.6,1.8-1.1,2.7-1.5l0.4,0.9C602,6.9,601.1,7.4,600.3,7.9z
						 M612.2,6.5c-0.9-0.4-1.8-0.6-2.8-0.8l0.2-1c1,0.2,2,0.4,3,0.8L612.2,6.5z M604.7,5.9l-0.2-1c1-0.3,2-0.4,3.1-0.4l0,1
						C606.6,5.6,605.6,5.7,604.7,5.9z"/>
				</g>
			</g>
		</g>
		<g>
			<g>
				<g>
					<path fill="#DCDBDB" d="M566.2,68.2h-12.9l-9.1-49.6H544l-9.1,49.6H522l-12.6-66h11.4l8.5,51.3h0.4l8.9-51.3h11.7l9.1,51.3h0.2
						L568,2.2h10.8L566.2,68.2z"/>
				</g>
			</g>
			<g>
				<g>
					<g>
						<path fill="#010101" d="M535.3,68.7h-13.7l-4.7-24.8l1-0.2l4.6,24h12l1.4-7.4l1,0.2L535.3,68.7z M566.6,68.1h-13.4v-1h12.6
							l12.6-65l1,0.2L566.6,68.1z M560,53.9h-1l-9.1-51.3h-10.9l-1.4,8.4L537,11l0.5,0.1l-3.2,18.1l-1-0.2l4.8-27.3h12.6l8.8,49.3
							l5-30l1,0.2L560,53.9z M538.6,50.7l-1-0.2l6-32.4h1l5.5,29.6l-1,0.2l-5-27L538.6,50.7z M512.7,22.4l-3.9-20.7h12.4l3.1,18.8
							l-1,0.2l-3-18H510l3.7,19.5L512.7,22.4z"/>
					</g>
				</g>
			</g>
			<g>
				<g>
					<path fill="#414141" d="M526.1,63.5l-0.6-2.9l1-0.2l0.6,2.9L526.1,63.5z M525.1,58.6l-0.6-2.9l1-0.2l0.6,2.9L525.1,58.6z
						 M524.1,53.7l-0.6-2.9l1-0.2l0.6,2.9L524.1,53.7z M523.1,48.8l-0.6-2.9l1-0.2l0.6,2.9L523.1,48.8z M522.1,43.9l-0.6-2.9l1-0.2
						l0.6,2.9L522.1,43.9z M521.1,39l-0.6-2.9l1-0.2l0.6,2.9L521.1,39z M520.1,34.1l-0.6-2.9l1-0.2l0.6,2.9L520.1,34.1z M519.1,29.2
						l-0.6-2.9l1-0.2l0.6,2.9L519.1,29.2z M518.1,24.3l-0.6-2.9l1-0.2l0.6,2.9L518.1,24.3z M517.1,19.4l-0.6-2.9l1-0.2l0.6,2.9
						L517.1,19.4z M516,14.5l-0.6-2.9l1-0.2l0.6,2.9L516,14.5z M515,9.6l-0.6-2.9l1-0.2l0.6,2.9L515,9.6z"/>
				</g>
			</g>
			<g>
				<g>
					<path fill="#414141" d="M530.9,63.7l-1-0.2l0.6-2.9l1,0.2L530.9,63.7z M532,58.8l-1-0.2l0.6-2.9l1,0.2L532,58.8z M533.1,53.9
						l-1-0.2l0.6-2.9l1,0.2L533.1,53.9z M534.1,49l-1-0.2l0.6-2.9l1,0.2L534.1,49z M535.2,44.2l-1-0.2l0.6-2.9l1,0.2L535.2,44.2z
						 M536.3,39.3l-1-0.2l0.6-2.9l1,0.2L536.3,39.3z M537.4,34.4l-1-0.2l0.6-2.9l1,0.2L537.4,34.4z M538.5,29.5l-1-0.2l0.6-2.9
						l1,0.2L538.5,29.5z M539.5,24.6l-1-0.2l0.6-2.9l1,0.2L539.5,24.6z M540.6,19.8l-1-0.2l0.6-2.9l1,0.2L540.6,19.8z M541.7,14.9
						l-1-0.2l0.6-2.9l1,0.2L541.7,14.9z M542.8,10l-1-0.2l0.6-2.9l1,0.2L542.8,10z"/>
				</g>
			</g>
			<g>
				<g>
					<path fill="#414141" d="M557.2,63.4l-0.6-2.9l1-0.2l0.6,2.9L557.2,63.4z M556.2,58.6l-0.6-2.9l1-0.2l0.6,2.9L556.2,58.6z
						 M555.2,53.7l-0.6-2.9l1-0.2l0.6,2.9L555.2,53.7z M554.1,48.8l-0.6-2.9l1-0.2l0.6,2.9L554.1,48.8z M553.1,43.9l-0.6-2.9l1-0.2
						l0.6,2.9L553.1,43.9z M552.1,39l-0.6-2.9l1-0.2l0.6,2.9L552.1,39z M551.1,34.1l-0.6-2.9l1-0.2l0.6,2.9L551.1,34.1z M550.1,29.2
						l-0.6-2.9l1-0.2l0.6,2.9L550.1,29.2z M549.1,24.3l-0.6-2.9l1-0.2l0.6,2.9L549.1,24.3z M548.1,19.4l-0.6-2.9l1-0.2l0.6,2.9
						L548.1,19.4z M547,14.5l-0.6-2.9l1-0.2l0.6,2.9L547,14.5z M546,9.6l-0.6-2.9l1-0.2l0.6,2.9L546,9.6z"/>
				</g>
			</g>
			<g>
				<g>
					<path fill="#414141" d="M562,63.3l-1-0.2l0.6-2.9l1,0.2L562,63.3z M563,58.4l-1-0.2l0.6-2.9l1,0.2L563,58.4z M564,53.5l-1-0.2
						l0.6-2.9l1,0.2L564,53.5z M564.9,48.6l-1-0.2l0.6-2.9l1,0.2L564.9,48.6z M565.9,43.7l-1-0.2l0.6-2.9l1,0.2L565.9,43.7z
						 M566.9,38.8l-1-0.2l0.6-2.9l1,0.2L566.9,38.8z M567.9,33.9l-1-0.2l0.6-2.9l1,0.2L567.9,33.9z M568.9,29l-1-0.2l0.6-2.9l1,0.2
						L568.9,29z M569.9,24.1l-1-0.2l0.6-2.9l1,0.2L569.9,24.1z M570.8,19.2l-1-0.2l0.6-2.9l1,0.2L570.8,19.2z M571.8,14.3l-1-0.2
						l0.6-2.9l1,0.2L571.8,14.3z M572.8,9.4l-1-0.2l0.6-2.9l1,0.2L572.8,9.4z"/>
				</g>
			</g>
		</g>
		<g>
			<g>
				<g>
					<path fill="#DCDBDB" d="M667.4,68.2L657.1,40h-6.2v28.1h-10.8v-66h18.8c2.7,0,5.2,0.4,7.5,1.1c2.3,0.7,4.3,1.8,5.9,3.4
						c1.6,1.6,2.9,3.5,3.9,5.9c0.9,2.4,1.4,5.2,1.4,8.5c0,2.5-0.3,4.8-1,6.8c-0.7,2-1.5,3.6-2.5,5c-1,1.4-2.1,2.5-3.3,3.3
						c-1.2,0.8-2.4,1.4-3.6,1.7l11.8,30.4H667.4z M666.6,21.6c0-2-0.3-3.6-0.8-4.9c-0.6-1.3-1.3-2.3-2.2-3.1c-0.9-0.7-1.9-1.3-3-1.6
						c-1.1-0.3-2.2-0.5-3.4-0.5h-6.3v20.3h6.3c2.7,0,5-0.9,6.8-2.6C665.7,27.5,666.6,25,666.6,21.6z"/>
				</g>
			</g>
			<g>
				<g>
					<g>
						<path fill="#010101" d="M679.8,68.7H667l-10.3-28.1h-5.4v7.6h-1v-8.6h7.1l10.3,28.1h10.7l-8.2-21.2l0.9-0.4L679.8,68.7z
							 M651.4,68.7h-11.8V30.3h1v37.3h9.8v-8.2h1V68.7z M657.2,32.3h-6.8V11h6.8v1h-5.8v19.3h5.8c2.6,0,4.7-0.8,6.4-2.4
							c1.7-1.6,2.5-4.1,2.5-7.3h1c0,3.5-0.9,6.3-2.8,8C662.5,31.4,660.1,32.3,657.2,32.3z M677.1,27.9l-0.9-0.3c0.6-1.9,1-4.1,1-6.6
							c0-3.2-0.5-6-1.4-8.3c-0.9-2.3-2.2-4.2-3.7-5.7c-1.6-1.5-3.5-2.6-5.7-3.3c-2.2-0.7-4.7-1-7.4-1h-18.3v20.4h-1V1.7h19.3
							c2.8,0,5.4,0.4,7.7,1.1c2.4,0.7,4.4,1.9,6.1,3.5c1.7,1.6,3,3.6,4,6.1c1,2.4,1.4,5.3,1.4,8.7C678.1,23.6,677.8,25.9,677.1,27.9
							z"/>
					</g>
				</g>
			</g>
			<g>
				<g>
					<path fill="#414141" d="M645,64.7h-1v-3h1V64.7z M645,59.7h-1v-3h1V59.7z M645,54.7h-1v-3h1V54.7z M645,49.7h-1v-3h1V49.7z
						 M645,44.7h-1v-3h1V44.7z M645,39.7h-1v-3h1V39.7z M645,34.7h-1v-3h1V34.7z M645,29.7h-1v-3h1V29.7z M645,24.7h-1v-3h1V24.7z
						 M645,19.7h-1v-3h1V19.7z M645,14.7h-1v-3h1V14.7z M645,9.7h-1v-3h1V9.7z"/>
				</g>
			</g>
			<g>
				<g>
					<path fill="#414141" d="M654,36l-2.8,0l-0.1-1l2.9,0V36z M656.5,36l-0.1-1l0.8,0c0.7,0,1.4,0,2.2,0l0.1,1c-0.8,0-1.5,0-2.2,0
						L656.5,36z M661.5,35.7l-0.2-1c1-0.2,1.9-0.4,2.8-0.8l0.4,0.9C663.6,35.3,662.6,35.6,661.5,35.7z M666.4,34l-0.5-0.8
						c0.8-0.5,1.5-1.1,2.2-1.8l0.7,0.7C668,32.8,667.2,33.5,666.4,34z M670.2,30.5l-0.8-0.6c0.6-0.8,1.1-1.6,1.6-2.4l0.9,0.4
						C671.4,28.8,670.8,29.7,670.2,30.5z M672.6,26l-1-0.3c0.3-0.9,0.5-1.9,0.6-2.8l1,0.1C673.1,24,672.9,25,672.6,26z M672.3,20.9
						c0-0.9-0.1-1.9-0.3-2.9l1-0.2c0.2,1,0.3,2.1,0.4,3.1L672.3,20.9z M671.5,16.1c-0.3-0.9-0.6-1.8-1-2.8l0.9-0.4
						c0.4,1,0.7,1.9,1,2.9L671.5,16.1z M669.7,11.6c-0.5-0.7-1.2-1.4-2-2l0.6-0.8c0.9,0.7,1.6,1.4,2.2,2.3L669.7,11.6z M666.1,8.7
						c-0.8-0.4-1.7-0.7-2.7-1l0.3-1c1.1,0.3,2,0.7,2.9,1.1L666.1,8.7z M661.4,7.2c-0.9-0.2-1.9-0.3-2.9-0.4l0.1-1
						c1.1,0.1,2.1,0.2,3,0.4L661.4,7.2z M648.6,6.7l-0.1-1c0,0,1.2-0.1,3-0.1l0,1C649.8,6.6,648.6,6.7,648.6,6.7z M656.5,6.7
						c-1-0.1-2-0.1-3-0.1l0-1c0.9,0,2,0,3,0.1L656.5,6.7z"/>
				</g>
			</g>
			<g>
				<g>
					<path fill="#414141" d="M671.9,66.8l-0.4-1l0.9-0.4l0.4,1L671.9,66.8z M670.7,63.9l-1.1-2.8l0.9-0.4l1.1,2.8L670.7,63.9z
						 M668.9,59.2l-1.1-2.8l0.9-0.4l1.1,2.8L668.9,59.2z M667.1,54.6l-1.1-2.8l0.9-0.4l1.1,2.8L667.1,54.6z M665.2,49.9l-1.1-2.8
						l0.9-0.4l1.1,2.8L665.2,49.9z M663.4,45.3l-1.1-2.8l0.9-0.4l1.1,2.8L663.4,45.3z M661.6,40.6l-1.1-2.8l0.9-0.4l1.1,2.8
						L661.6,40.6z"/>
				</g>
			</g>
		</g>
	</g>
	<g>
		<g>
			<g>
				<g>
					<path fill="#DCDBDB" d="M234.3,68.2l-3.3-14h-17.3l-3.4,14h-11.2l16.4-66h14.3l16.1,66H234.3z M222.6,12.7h-0.4l-7.2,32.7h14.5
						L222.6,12.7z"/>
				</g>
			</g>
			<g>
				<g>
					<g>
						<path fill="#010101" d="M246.5,68.7h-12.3v-1h11l-2.9-12l1-0.2L246.5,68.7z M210.3,68.7h-11.8l6.9-27.7l1,0.2l-6.6,26.5h10.5
							V68.7z M212.6,60.8l-1-0.2l1.7-6.9H231v1h-16.9L212.6,60.8z M230.2,45.9h-15.8l2.3-10.4l1,0.2l-2,9.2H229l-0.9-4l1-0.2
							L230.2,45.9z M226.2,31.8l-3.8-17.6l-1.5,7l-1-0.2l1.9-8.7h1.2l4.1,19.4L226.2,31.8z M235.9,29.2l-6.5-26.5h-13.5l-1.5,6.1
							l-1-0.2l1.7-6.8h15l6.7,27.3L235.9,29.2z"/>
					</g>
				</g>
			</g>
			<g>
				<g>
					<g>
						
							<rect x="204.6" y="63.4" transform="matrix(0.9721 0.2344 -0.2344 0.9721 20.762 -46.2912)" fill="#010101" width="1" height="1.5"/>
					</g>
				</g>
				<g>
					<g>
						<path fill="#010101" d="M206.2,61.6l-1-0.2l0.7-2.9l1,0.2L206.2,61.6z M207.4,56.7l-1-0.2l0.7-2.9l1,0.2L207.4,56.7z
							 M208.6,51.9l-1-0.2l0.7-2.9l1,0.2L208.6,51.9z M209.8,47l-1-0.2l0.7-2.9l1,0.2L209.8,47z M211,42.1l-1-0.2l0.7-2.9l1,0.2
							L211,42.1z M212.1,37.2l-1-0.2l0.7-2.9l1,0.2L212.1,37.2z M213.3,32.4l-1-0.2l0.7-2.9l1,0.2L213.3,32.4z M214.5,27.5l-1-0.2
							l0.7-2.9l1,0.2L214.5,27.5z M215.7,22.6l-1-0.2l0.7-2.9l1,0.2L215.7,22.6z M216.9,17.7l-1-0.2l0.7-2.9l1,0.2L216.9,17.7z
							 M218,12.9l-1-0.2l0.7-2.9l1,0.2L218,12.9z"/>
					</g>
				</g>
				<g>
					<g>
						
							<rect x="218.4" y="6.4" transform="matrix(0.9717 0.2363 -0.2363 0.9717 7.8872 -51.5244)" fill="#010101" width="1" height="1.5"/>
					</g>
				</g>
			</g>
			<g>
				<g>
					<g>
						
							<rect x="225" y="6.6" transform="matrix(0.238 0.9713 -0.9713 0.238 178.9719 -213.8333)" fill="#010101" width="1.5" height="1"/>
					</g>
				</g>
				<g>
					<g>
						<path fill="#010101" d="M238.6,61.6l-0.7-2.9l1-0.2l0.7,2.9L238.6,61.6z M237.4,56.8l-0.7-2.9l1-0.2l0.7,2.9L237.4,56.8z
							 M236.2,51.9l-0.7-2.9l1-0.2l0.7,2.9L236.2,51.9z M235,47l-0.7-2.9l1-0.2l0.7,2.9L235,47z M233.8,42.1l-0.7-2.9l1-0.2l0.7,2.9
							L233.8,42.1z M232.6,37.2l-0.7-2.9l1-0.2l0.7,2.9L232.6,37.2z M231.4,32.4l-0.7-2.9l1-0.2l0.7,2.9L231.4,32.4z M230.2,27.5
							l-0.7-2.9l1-0.2l0.7,2.9L230.2,27.5z M229,22.6l-0.7-2.9l1-0.2l0.7,2.9L229,22.6z M227.8,17.7l-0.7-2.9l1-0.2l0.7,2.9
							L227.8,17.7z M226.6,12.9l-0.7-2.9l1-0.2l0.7,2.9L226.6,12.9z"/>
					</g>
				</g>
				<g>
					<g>
						
							<rect x="239" y="63.7" transform="matrix(0.238 0.9713 -0.9713 0.238 245.03 -183.9401)" fill="#010101" width="1.5" height="1"/>
					</g>
				</g>
			</g>
			<g>
				<g>
					<path fill="#010101" d="M227,50.7h-3v-1h3V50.7z M222,50.7h-3v-1h3V50.7z M217,50.7h-3v-1h3V50.7z"/>
				</g>
			</g>
		</g>
		<g>
			<g>
				<g>
					<path fill="#DCDBDB" d="M160.8,68.2v-66h29.5v9.9h-18.8v17.5H189v9.1h-17.4v19.5h19.8v10H160.8z"/>
				</g>
			</g>
			<g>
				<g>
					<g>
						<path fill="#010101" d="M191.8,68.7h-5.9v-1h4.9v-9h-11.5v-1h12.5V68.7z M171.5,68.7h-11.2v-5.9h1v4.9h10.2V68.7z M172,55.6
							h-1V38.2h17.4v-8.6h-16.9v-1h17.9v10.6H172V55.6z M161.3,53.6h-1V6.8h1V53.6z M172,19.7h-1v-8.1h18.8V2.7h-16v-1h17v10.9H172
							V19.7z"/>
					</g>
				</g>
			</g>
			<g>
				<g>
					<path fill="#414141" d="M187,65.7h-3v-1h3V65.7z M182,65.7h-3v-1h3V65.7z M177,65.7h-3v-1h3V65.7z M172,65.7h-3v-1h3V65.7z
						 M167.4,65.1h-2v-2h1v1h1V65.1z M166,61.7h-1v-3h1V61.7z M166,56.7h-1v-3h1V56.7z M166,51.7h-1v-3h1V51.7z M166,46.7h-1v-3h1
						V46.7z M166,41.7h-1v-3h1V41.7z M166,36.7h-1v-3h1V36.7z M166,31.7h-1v-3h1V31.7z M166,26.7h-1v-3h1V26.7z M166,21.7h-1v-3h1
						V21.7z M166,16.7h-1v-3h1V16.7z M166,11.7h-1v-3h1V11.7z M187.4,7.1h-1v-1h1V7.1z M184,7.7h-3v-1h3V7.7z M179,7.7h-3v-1h3V7.7z
						 M174,7.7h-3v-1h3V7.7z M169,7.7h-3v-1h3V7.7z"/>
				</g>
			</g>
			<g>
				<g>
					<path fill="#414141" d="M185.4,34.1h-1v-1h1V34.1z M182,34.7h-3v-1h3V34.7z M177,34.7h-3v-1h3V34.7z M172,34.7h-3v-1h3V34.7z"
						/>
				</g>
			</g>
		</g>
		<g>
			<g>
				<g>
					<path fill="#DCDBDB" d="M394.8,68.2v-66h29.5v9.9h-18.8v17.5H423v9.1h-17.4v19.5h19.8v10H394.8z"/>
				</g>
			</g>
			<g>
				<g>
					<g>
						<path fill="#010101" d="M425.8,68.7h-5.9v-1h4.9v-9h-11.5v-1h12.5V68.7z M405.5,68.7h-11.2v-5.9h1v4.9h10.2V68.7z M406,55.6
							h-1V38.2h17.4v-8.6h-16.9v-1h17.9v10.6H406V55.6z M395.3,53.6h-1V6.8h1V53.6z M406,19.7h-1v-8.1h18.8V2.7h-16v-1h17v10.9H406
							V19.7z"/>
					</g>
				</g>
			</g>
			<g>
				<g>
					<path fill="#414141" d="M421,65.7h-3v-1h3V65.7z M416,65.7h-3v-1h3V65.7z M411,65.7h-3v-1h3V65.7z M406,65.7h-3v-1h3V65.7z
						 M401.4,65.1h-2v-2h1v1h1V65.1z M400,61.7h-1v-3h1V61.7z M400,56.7h-1v-3h1V56.7z M400,51.7h-1v-3h1V51.7z M400,46.7h-1v-3h1
						V46.7z M400,41.7h-1v-3h1V41.7z M400,36.7h-1v-3h1V36.7z M400,31.7h-1v-3h1V31.7z M400,26.7h-1v-3h1V26.7z M400,21.7h-1v-3h1
						V21.7z M400,16.7h-1v-3h1V16.7z M400,11.7h-1v-3h1V11.7z M421.4,7.1h-1v-1h1V7.1z M418,7.7h-3v-1h3V7.7z M413,7.7h-3v-1h3V7.7z
						 M408,7.7h-3v-1h3V7.7z M403,7.7h-3v-1h3V7.7z"/>
				</g>
			</g>
			<g>
				<g>
					<path fill="#414141" d="M419.4,34.1h-1v-1h1V34.1z M416,34.7h-3v-1h3V34.7z M411,34.7h-3v-1h3V34.7z M406,34.7h-3v-1h3V34.7z"
						/>
				</g>
			</g>
		</g>
		<g>
			<g>
				<g>
					<path fill="#DCDBDB" d="M136.8,12.2v18.1h17v9.5h-16.9v28.3h-11.3v-66h29.5v10.1H136.8z"/>
				</g>
			</g>
			<g>
				<g>
					<g>
						<path fill="#010101" d="M137.4,68.7h-12.3V25.6h1v42.1h10.3V54.3h1V68.7z M154.3,40.3h-16v-1h15v-8.5h-5.1v-1h6.1V40.3z
							 M137.3,23.3h-1V11.7h18.4V7.6h1v5.2h-18.4V23.3z M126.2,14.3h-1V1.7h25.9v1h-24.9V14.3z"/>
					</g>
				</g>
			</g>
			<g>
				<g>
					<path fill="#414141" d="M131,65.7h-1v-3h1V65.7z M131,60.7h-1v-3h1V60.7z M131,55.7h-1v-3h1V55.7z M131,50.7h-1v-3h1V50.7z
						 M131,45.7h-1v-3h1V45.7z M131,40.7h-1v-3h1V40.7z M131,35.7h-1v-3h1V35.7z M131,30.7h-1v-3h1V30.7z M131,25.7h-1v-3h1V25.7z
						 M131,20.7h-1v-3h1V20.7z M131,15.7h-1v-3h1V15.7z M131,10.7h-1v-3h1V10.7z M151,8.7h-3v-1h3V8.7z M146,8.7h-3v-1h3V8.7z
						 M141,8.7h-3v-1h3V8.7z M136,8.7h-3v-1h3V8.7z"/>
				</g>
			</g>
			<g>
				<g>
					<path fill="#414141" d="M151,35.7h-3v-1h3V35.7z M146,35.7h-3v-1h3V35.7z M141,35.7h-3v-1h3V35.7z M136.4,35.1h-2v-1h2V35.1z"
						/>
				</g>
			</g>
		</g>
		<g>
			<g>
				<g>
					<path fill="#DCDBDB" d="M271.2,11.7v56.5h-11V11.7h-12.4V2.2h35.8v9.5H271.2z"/>
				</g>
			</g>
			<g>
				<g>
					<g>
						<path fill="#010101" d="M271.7,68.7h-12V58.1h1v9.6h10V35.6h1V68.7z M260.7,49.8h-1V11.7h1V49.8z M271.7,25.3h-1V11.2h12.4
							V2.7h-21v-1h22v10.5h-12.4V25.3z"/>
					</g>
				</g>
			</g>
			<g>
				<g>
					<path fill="#414141" d="M281.4,7.1h-2v-1h2V7.1z M277,7.7h-3v-1h3V7.7z M272,7.7h-3v-1h3V7.7z M267,7.7h-3v-1h3V7.7z M262,7.7
						h-3v-1h3V7.7z M257,7.7h-3v-1h3V7.7z M252,7.7h-3v-1h3V7.7z"/>
				</g>
			</g>
			<g>
				<g>
					<path fill="#414141" d="M266.4,65.1h-1v-2h1V65.1z M266,61.7h-1v-3h1V61.7z M266,56.7h-1v-3h1V56.7z M266,51.7h-1v-3h1V51.7z
						 M266,46.7h-1v-3h1V46.7z M266,41.7h-1v-3h1V41.7z M266,36.7h-1v-3h1V36.7z M266,31.7h-1v-3h1V31.7z M266,26.7h-1v-3h1V26.7z
						 M266,21.7h-1v-3h1V21.7z M266,16.7h-1v-3h1V16.7z"/>
				</g>
			</g>
		</g>
		<g>
			<g>
				<g>
					<path fill="#DCDBDB" d="M374.4,68.2L364.1,40h-6.2v28.1h-10.8v-66h18.8c2.7,0,5.2,0.4,7.5,1.1c2.3,0.7,4.3,1.8,5.9,3.4
						c1.6,1.6,2.9,3.5,3.9,5.9c0.9,2.4,1.4,5.2,1.4,8.5c0,2.5-0.3,4.8-1,6.8c-0.7,2-1.5,3.6-2.5,5c-1,1.4-2.1,2.5-3.3,3.3
						c-1.2,0.8-2.4,1.4-3.6,1.7l11.8,30.4H374.4z M373.6,21.6c0-2-0.3-3.6-0.8-4.9c-0.6-1.3-1.3-2.3-2.2-3.1c-0.9-0.7-1.9-1.3-3-1.6
						c-1.1-0.3-2.2-0.5-3.4-0.5h-6.3v20.3h6.3c2.7,0,5-0.9,6.8-2.6C372.7,27.5,373.6,25,373.6,21.6z"/>
				</g>
			</g>
			<g>
				<g>
					<g>
						<path fill="#010101" d="M386.8,68.7H374l-10.3-28.1h-5.4v7.6h-1v-8.6h7.1l10.3,28.1h10.7l-8.2-21.2l0.9-0.4L386.8,68.7z
							 M358.4,68.7h-11.8V30.3h1v37.3h9.8v-8.2h1V68.7z M364.2,32.3h-6.8V11h6.8v1h-5.8v19.3h5.8c2.6,0,4.7-0.8,6.4-2.4
							c1.7-1.6,2.5-4.1,2.5-7.3h1c0,3.5-0.9,6.3-2.8,8C369.5,31.4,367.1,32.3,364.2,32.3z M384.1,27.9l-0.9-0.3c0.6-1.9,1-4.1,1-6.6
							c0-3.2-0.5-6-1.4-8.3c-0.9-2.3-2.2-4.2-3.7-5.7c-1.6-1.5-3.5-2.6-5.7-3.3c-2.2-0.7-4.7-1-7.4-1h-18.3v20.4h-1V1.7h19.3
							c2.8,0,5.4,0.4,7.7,1.1c2.4,0.7,4.4,1.9,6.1,3.5c1.7,1.6,3,3.6,4,6.1c1,2.4,1.4,5.3,1.4,8.7C385.1,23.6,384.8,25.9,384.1,27.9
							z"/>
					</g>
				</g>
			</g>
			<g>
				<g>
					<path fill="#414141" d="M352,64.7h-1v-3h1V64.7z M352,59.7h-1v-3h1V59.7z M352,54.7h-1v-3h1V54.7z M352,49.7h-1v-3h1V49.7z
						 M352,44.7h-1v-3h1V44.7z M352,39.7h-1v-3h1V39.7z M352,34.7h-1v-3h1V34.7z M352,29.7h-1v-3h1V29.7z M352,24.7h-1v-3h1V24.7z
						 M352,19.7h-1v-3h1V19.7z M352,14.7h-1v-3h1V14.7z M352,9.7h-1v-3h1V9.7z"/>
				</g>
			</g>
			<g>
				<g>
					<path fill="#414141" d="M361,36l-2.8,0l-0.1-1l2.9,0V36z M363.5,36l-0.1-1l0.8,0c0.7,0,1.4,0,2.2,0l0.1,1c-0.8,0-1.5,0-2.2,0
						L363.5,36z M368.5,35.7l-0.2-1c1-0.2,1.9-0.4,2.8-0.8l0.4,0.9C370.6,35.3,369.6,35.6,368.5,35.7z M373.4,34l-0.5-0.8
						c0.8-0.5,1.5-1.1,2.2-1.8l0.7,0.7C375,32.8,374.2,33.5,373.4,34z M377.2,30.5l-0.8-0.6c0.6-0.8,1.1-1.6,1.6-2.4l0.9,0.4
						C378.4,28.8,377.8,29.7,377.2,30.5z M379.6,26l-1-0.3c0.3-0.9,0.5-1.9,0.6-2.8l1,0.1C380.1,24,379.9,25,379.6,26z M379.3,20.9
						c0-0.9-0.1-1.9-0.3-2.9l1-0.2c0.2,1,0.3,2.1,0.4,3.1L379.3,20.9z M378.5,16.1c-0.3-0.9-0.6-1.8-1-2.8l0.9-0.4
						c0.4,1,0.7,1.9,1,2.9L378.5,16.1z M376.7,11.6c-0.5-0.7-1.2-1.4-2-2l0.6-0.8c0.9,0.7,1.6,1.4,2.2,2.3L376.7,11.6z M373.1,8.7
						c-0.8-0.4-1.7-0.7-2.7-1l0.3-1c1.1,0.3,2,0.7,2.9,1.1L373.1,8.7z M368.4,7.2c-0.9-0.2-1.9-0.3-2.9-0.4l0.1-1
						c1.1,0.1,2.1,0.2,3,0.4L368.4,7.2z M355.6,6.7l-0.1-1c0,0,1.2-0.1,3-0.1l0,1C356.8,6.6,355.6,6.7,355.6,6.7z M363.5,6.7
						c-1-0.1-2-0.1-3-0.1l0-1c0.9,0,2,0,3,0.1L363.5,6.7z"/>
				</g>
			</g>
			<g>
				<g>
					<path fill="#414141" d="M378.9,66.8l-0.4-1l0.9-0.4l0.4,1L378.9,66.8z M377.7,63.9l-1.1-2.8l0.9-0.4l1.1,2.8L377.7,63.9z
						 M375.9,59.2l-1.1-2.8l0.9-0.4l1.1,2.8L375.9,59.2z M374.1,54.6l-1.1-2.8l0.9-0.4l1.1,2.8L374.1,54.6z M372.2,49.9l-1.1-2.8
						l0.9-0.4l1.1,2.8L372.2,49.9z M370.4,45.3l-1.1-2.8l0.9-0.4l1.1,2.8L370.4,45.3z M368.6,40.6l-1.1-2.8l0.9-0.4l1.1,2.8
						L368.6,40.6z"/>
				</g>
			</g>
		</g>
		<g>
			<g>
				<g>
					<path fill="#DCDBDB" d="M333.3,53.7c-0.7,3-2,5.7-3.6,8c-1.7,2.3-3.8,4.1-6.5,5.4c-2.6,1.3-5.9,2-9.6,2c-3.8,0-7-0.7-9.6-2
						c-2.6-1.3-4.7-3.1-6.4-5.4c-1.6-2.3-2.8-4.9-3.5-8c-0.7-3-1.1-6.3-1.1-9.8V1.3h11.2v41.6c0,2.1,0.1,4,0.4,5.9
						c0.3,1.9,0.8,3.6,1.5,5c0.7,1.4,1.7,2.6,2.9,3.4c1.2,0.8,2.8,1.3,4.8,1.3c1.9,0,3.5-0.4,4.8-1.3c1.2-0.8,2.2-2,2.9-3.4
						c0.7-1.4,1.2-3.1,1.5-5c0.3-1.9,0.4-3.9,0.4-5.9V1.3h11.1v42.6C334.4,47.4,334,50.7,333.3,53.7z"/>
				</g>
			</g>
			<g>
				<g>
					<g>
						<path fill="#010101" d="M313.5,69.5c-3.9,0-7.2-0.7-9.8-2l0.4-0.9c2.5,1.3,5.7,1.9,9.4,1.9c3.7,0,6.9-0.6,9.4-1.9
							c2.6-1.3,4.7-3,6.3-5.2c1.6-2.2,2.8-4.8,3.6-7.8c0.7-3,1.1-6.2,1.1-9.7h1c0,3.5-0.4,6.8-1.1,9.9c-0.8,3.1-2,5.8-3.7,8.1
							c-1.7,2.3-4,4.2-6.7,5.5C320.7,68.8,317.4,69.5,313.5,69.5z M313.7,59c-2,0-3.7-0.5-5-1.3c-1.3-0.9-2.4-2.1-3.1-3.6
							c-0.7-1.5-1.3-3.2-1.5-5.1c-0.3-1.9-0.4-3.9-0.4-6h1c0,2,0.1,4,0.4,5.8c0.3,1.8,0.8,3.5,1.4,4.8c0.7,1.3,1.6,2.4,2.8,3.2
							c1.2,0.8,2.7,1.2,4.5,1.2c1.8,0,3.3-0.4,4.5-1.2c1.2-0.8,2.1-1.9,2.8-3.2c0.7-1.4,1.2-3,1.4-4.8c0.3-1.9,0.4-3.8,0.4-5.8V14.4
							h1v28.5c0,2.1-0.1,4.1-0.4,6c-0.3,1.9-0.8,3.7-1.5,5.1c-0.8,1.5-1.8,2.7-3.1,3.6C317.4,58.5,315.7,59,313.7,59z M293.4,43.5
							h-1V0.8h12.2v31.9h-1V1.8h-10.2V43.5z M334.9,33.8h-1V1.8h-10.3v-1h11.3V33.8z"/>
					</g>
				</g>
			</g>
			<g>
				<g>
					<path fill="#414141" d="M311.9,65.3c-0.6,0-1.2,0-1.8-0.1l0.1-1c0.9,0.1,2,0.1,2.9,0.1l0,1C312.8,65.2,312.4,65.3,311.9,65.3z
						 M315.2,65l-0.1-1c1-0.1,2-0.3,2.8-0.6l0.3,1C317.3,64.7,316.3,64.9,315.2,65z M308.1,64.8c-1-0.3-2-0.6-2.9-1.1l0.5-0.9
						c0.8,0.4,1.7,0.8,2.7,1L308.1,64.8z M320.1,63.7l-0.4-0.9c0.9-0.4,1.7-0.9,2.5-1.4l0.6,0.8C322,62.7,321.1,63.2,320.1,63.7z
						 M303.4,62.5c-0.8-0.6-1.5-1.4-2.2-2.2l0.8-0.6c0.6,0.8,1.3,1.5,2,2.1L303.4,62.5z M324.4,60.8l-0.7-0.7
						c0.7-0.7,1.3-1.4,1.8-2.2l0.8,0.5C325.8,59.2,325.1,60.1,324.4,60.8z M300.1,58.6c-0.5-0.9-0.9-1.8-1.3-2.8l0.9-0.3
						c0.3,1,0.7,1.9,1.2,2.7L300.1,58.6z M327.4,56.6l-0.9-0.4c0.4-0.8,0.8-1.8,1.1-2.7l1,0.3C328.2,54.7,327.8,55.7,327.4,56.6z
						 M298.3,53.8c-0.2-0.9-0.4-2-0.6-3l1-0.1c0.1,1,0.3,2,0.6,2.9L298.3,53.8z M329,51.7l-1-0.2c0.2-0.9,0.3-1.9,0.4-2.9l1,0.1
						C329.3,49.7,329.2,50.7,329,51.7z M297.3,48.8c-0.1-0.9-0.3-1.9-0.3-2.9v-0.2l1,0v0.2c0,0.9,0.1,1.9,0.2,2.8L297.3,48.8z
						 M329,46.6l-1,0v-0.2c0-1.1,0.2-1.3,0.2-1.3l0.2-0.4h0.6v1h0.4c0,0-0.4-0.4-0.4,0.7V46.6z M298,44.7h-1v-3h1V44.7z M329,42.7
						h-1v-3h1V42.7z M298,39.7h-1v-3h1V39.7z M329,37.7h-1v-3h1V37.7z M298,34.7h-1v-3h1V34.7z M329,32.7h-1v-3h1V32.7z M298,29.7
						h-1v-3h1V29.7z M329,27.7h-1v-3h1V27.7z M298,24.7h-1v-3h1V24.7z M329,22.7h-1v-3h1V22.7z M298,19.7h-1v-3h1V19.7z M329,17.7
						h-1v-3h1V17.7z M298,14.7h-1v-3h1V14.7z M329,12.7h-1v-3h1V12.7z M298,9.7h-1v-3h1V9.7z M329.4,6.6h-1V4.8h1V6.6z"/>
				</g>
			</g>
		</g>
		<g>
			<g>
				<g>
					<path fill="#DCDBDB" d="M474.1,35.3c0,10.4-2.2,18.5-6.6,24.3c-4.4,5.7-10.8,8.6-19.3,8.6h-16.5v-66h16.6
						c8.4,0,14.9,2.9,19.2,8.7C471.9,16.7,474.1,24.8,474.1,35.3z M462.9,35.3c0-3.9-0.4-7.3-1.1-10.2c-0.7-2.9-1.7-5.3-3-7.3
						c-1.3-1.9-2.9-3.4-4.7-4.3c-1.8-1-3.8-1.4-5.9-1.4H443v46.4h5.3c2.1,0,4.1-0.5,5.9-1.4c1.8-1,3.4-2.4,4.7-4.3
						c1.3-1.9,2.3-4.3,3-7.2C462.6,42.5,462.9,39.1,462.9,35.3z"/>
				</g>
			</g>
			<g>
				<g>
					<g>
						<path fill="#010101" d="M448.2,68.7h-17V42.7h1v24.9h16V68.7z M448.3,58.9h-5.8v-7.3h1v6.3h4.8c2,0,3.9-0.5,5.6-1.4
							c1.7-0.9,3.2-2.3,4.5-4.2c1.3-1.9,2.3-4.2,3-7.1c0.7-2.8,1.1-6.2,1.1-10c0-3.9-0.4-7.3-1.1-10.1l1-0.2
							c0.7,2.9,1.1,6.4,1.1,10.4c0,3.9-0.4,7.3-1.1,10.2l-0.5-0.1l0.5,0.1c-0.7,2.9-1.8,5.4-3.1,7.4c-1.3,2-3,3.5-4.8,4.5
							C452.5,58.4,450.5,58.9,448.3,58.9z M443.5,39.2h-1V11.5h5.8c2.2,0,4.2,0.5,6.1,1.5l-0.5,0.9c-1.7-0.9-3.6-1.4-5.6-1.4h-4.8
							V39.2z M474.6,35.3h-1c0-10.3-2.2-18.4-6.5-24.1c-4.3-5.7-10.6-8.5-18.8-8.5h-16.1v12.1h-1V1.7h17.1c8.6,0,15.2,3,19.6,8.9
							C472.4,16.5,474.6,24.8,474.6,35.3z"/>
					</g>
				</g>
			</g>
			<g>
				<g>
					<path fill="#414141" d="M442.1,64.9c-0.8,0-1.6,0-2.2,0l0-1c0.9,0,1.9,0.1,3,0l0,1C442.6,64.9,442.4,64.9,442.1,64.9z
						 M444.9,64.8l-0.1-1c1-0.1,2-0.1,3-0.3l0.1,1C447,64.6,446,64.7,444.9,64.8z M437.9,64.7c-0.7-0.1-1.2-0.1-1.2-0.1l-0.6-0.1
						v-1.9h1v1c1,0,0.5,0,0.7,0L437.9,64.7z M450,64.2l-0.2-1c1-0.2,2-0.4,2.9-0.6l0.3,1C452,63.8,451,64,450,64.2z M454.9,62.9
						l-0.3-0.9c1-0.3,1.9-0.7,2.7-1.2l0.5,0.9C456.8,62.2,455.9,62.6,454.9,62.9z M459.5,60.7l-0.6-0.8c0.8-0.6,1.6-1.2,2.2-1.8
						l0.7,0.7C461.1,59.4,460.3,60.1,459.5,60.7z M437,60.7h-1v-3h1V60.7z M463.2,57.1l-0.8-0.6c0.5-0.7,1-1.6,1.5-2.5l0.9,0.5
						C464.2,55.4,463.7,56.3,463.2,57.1z M437,55.7h-1v-3h1V55.7z M465.6,52.6l-0.9-0.4c0.4-0.9,0.7-1.8,1-2.8l0.9,0.3
						C466.3,50.8,466,51.7,465.6,52.6z M437,50.7h-1v-3h1V50.7z M467.3,47.8l-1-0.3c0.3-0.9,0.5-1.9,0.7-2.9l1,0.2
						C467.8,45.9,467.5,46.9,467.3,47.8z M437,45.7h-1v-3h1V45.7z M468.4,42.9l-1-0.2c0.2-1,0.3-2,0.4-2.9l1,0.1
						C468.7,40.9,468.6,41.9,468.4,42.9z M437,40.7h-1v-3h1V40.7z M469.1,37.9l-1-0.1c0.1-1,0.1-2,0.2-3l1,0
						C469.2,35.9,469.1,36.9,469.1,37.9z M437,35.7h-1v-3h1V35.7z M468.3,32.9c0-1,0-2-0.1-3l1-0.1c0.1,1,0.1,2,0.1,3L468.3,32.9z
						 M437,30.7h-1v-3h1V30.7z M468,27.9c-0.1-1-0.3-2-0.5-2.9l1-0.2c0.2,1,0.3,2,0.5,3L468,27.9z M437,25.7h-1v-3h1V25.7z
						 M467.1,23.1c-0.2-1-0.5-1.9-0.9-2.8l0.9-0.3c0.3,0.9,0.6,1.9,0.9,2.9L467.1,23.1z M437,20.7h-1v-3h1V20.7z M465.5,18.4
						c-0.4-0.9-0.9-1.8-1.4-2.6l0.8-0.5c0.5,0.8,1,1.8,1.4,2.7L465.5,18.4z M437,15.7h-1v-3h1V15.7z M463,14.3
						c-0.6-0.8-1.3-1.5-2-2.1l0.7-0.7c0.7,0.7,1.4,1.4,2.1,2.3L463,14.3z M459.5,10.9c-0.2-0.1-0.4-0.3-0.6-0.4
						c-0.6-0.4-1.3-0.8-1.9-1.1l0.5-0.9c0.7,0.4,1.3,0.8,2,1.2c0.2,0.1,0.4,0.3,0.6,0.4L459.5,10.9z M437,10.7h-1v-3h1V10.7z
						 M455.2,8.5c-0.9-0.4-1.8-0.8-2.7-1.1l0.3-1c1,0.3,1.9,0.7,2.8,1.1L455.2,8.5z M438,7.2l-0.3-1c0.6-0.2,1.7-0.5,3-0.7l0.2,1
						C439.6,6.8,438.6,7,438,7.2z M450.6,6.9c-1-0.2-1.9-0.4-2.9-0.5l0.1-1c1,0.1,2,0.3,3,0.5L450.6,6.9z M442.8,6.3l-0.1-1
						c1-0.1,2-0.1,3.1-0.1l0,1C444.7,6.2,443.8,6.2,442.8,6.3z"/>
				</g>
			</g>
		</g>
	</g>
</g>
</svg>
