<?xml version="1.0" encoding="utf-8"?>
<!-- Generator: Adobe Illustrator 18.1.1, SVG Export Plug-In . SVG Version: 6.00 Build 0)  -->
<svg version="1.1" id="Layer_1" xmlns="http://www.w3.org/2000/svg" xmlns:xlink="http://www.w3.org/1999/xlink" x="0px" y="0px"
	 viewBox="0 0 603 173" enable-background="new 0 0 603 173" xml:space="preserve">
<g>
	<g>
		<line fill="none" stroke="#211D1E" stroke-width="2" x1="255" y1="157" x2="491" y2="157"/>
		<line fill="none" stroke="#211D1E" stroke-width="2" x1="326" y1="172" x2="594" y2="172"/>
	</g>
	<g>
		<line fill="none" stroke="#211D1E" stroke-width="2" x1="2" y1="1" x2="232" y2="1"/>
		<line fill="none" stroke="#211D1E" stroke-width="2" x1="73" y1="16" x2="328" y2="16"/>
	</g>
	<g>
		<g>
			<g>
				<g>
					<g>
						<path fill="#DCDBDB" d="M589.2,126.4l-17.6-32.1h-0.3v32.1h-11.2v-66h11.2V89h0.3l16.8-28.6h12.6l-19.4,30.4l20.6,35.6H589.2z
							"/>
					</g>
				</g>
				<g>
					<g>
						<g>
							<path fill="#010101" d="M603,126.9h-14.1l-3.1-5.7l0.9-0.5l2.9,5.2h11.8L589.2,105l0.9-0.5L603,126.9z M571.8,126.9h-12.2
								V89.3h1v36.6h10.2v-10.8h1V126.9z M582,114.6l-10.2-18.8v11.5h-1V93.8h1.1l11,20.2L582,114.6z M582,91.1l-0.8-0.5L600,60.9
								h-11.4l-9.7,16.5l-0.9-0.5l10-17h13.8L582,91.1z M571.8,82.6h-1V60.9h-10.2v11.7h-1V59.9h12.2V82.6z"/>
						</g>
					</g>
				</g>
				<g>
					<g>
						<path fill="#414141" d="M565,123h-1v-3h1V123z M565,118h-1v-3h1V118z M565,113h-1v-3h1V113z M565,108h-1v-3h1V108z M565,103
							h-1v-3h1V103z M565,98h-1v-3h1V98z M565,93h-1v-3h1V93z M565,88h-1v-3h1V88z M565,83h-1v-3h1V83z M565,78h-1v-3h1V78z M565,73
							h-1v-3h1V73z M565,68h-1v-3h1V68z"/>
					</g>
				</g>
				<g>
					<g>
						<path fill="#414141" d="M575.8,90.3l-0.8-0.5l0.6-0.9l0.8,0.5L575.8,90.3z M577.5,87.6l-0.8-0.5l1.6-2.5l0.8,0.5L577.5,87.6z
							 M580.2,83.4l-0.8-0.5l1.6-2.5l0.8,0.5L580.2,83.4z M582.9,79.2l-0.8-0.5l1.6-2.5l0.8,0.5L582.9,79.2z M585.6,75l-0.8-0.5
							l1.6-2.5l0.8,0.5L585.6,75z M588.4,70.8l-0.8-0.5l1.6-2.5l0.8,0.5L588.4,70.8z M591.1,66.6l-0.8-0.5l1.6-2.5l0.8,0.5
							L591.1,66.6z"/>
					</g>
				</g>
				<g>
					<g>
						<path fill="#414141" d="M593.3,124.2l-0.1-0.2l0.9-0.5l0.1,0.2L593.3,124.2z M592.2,122.3l-1.5-2.6l0.9-0.5l1.5,2.6
							L592.2,122.3z M589.7,118l-1.5-2.6l0.9-0.5l1.5,2.6L589.7,118z M587.2,113.6l-1.5-2.6l0.9-0.5l1.5,2.6L587.2,113.6z
							 M584.7,109.3l-1.5-2.6l0.9-0.5l1.5,2.6L584.7,109.3z M582.2,105l-1.5-2.6l0.9-0.5l1.5,2.6L582.2,105z M579.7,100.7l-1.5-2.6
							l0.9-0.5l1.5,2.6L579.7,100.7z M577.2,96.3l-1.5-2.6l0.9-0.5l1.5,2.6L577.2,96.3z"/>
					</g>
				</g>
			</g>
			<g>
				<g>
					<g>
						<path fill="#DCDBDB" d="M506.1,93.3c0,5.2-0.5,10-1.6,14.2c-1.1,4.3-2.7,7.9-4.7,10.9c-2.1,3-4.6,5.4-7.5,7.1
							c-3,1.7-6.3,2.5-9.9,2.5c-3.7,0-7.1-0.8-10-2.5c-2.9-1.7-5.4-4-7.5-7.1c-2.1-3-3.6-6.7-4.7-10.9c-1.1-4.3-1.6-9-1.6-14.2
							c0-5.2,0.5-9.9,1.6-14.2c1.1-4.2,2.6-7.9,4.7-10.9c2.1-3,4.6-5.4,7.5-7c3-1.6,6.3-2.5,10-2.5c3.7,0,7,0.8,9.9,2.5
							c2.9,1.6,5.5,4,7.5,7c2.1,3,3.6,6.7,4.7,10.9C505.5,83.4,506.1,88.1,506.1,93.3z M494.5,93.3c0-3.4-0.3-6.5-0.8-9.5
							c-0.5-3-1.3-5.5-2.3-7.6c-1-2.1-2.3-3.8-3.8-5.1c-1.5-1.2-3.3-1.9-5.3-1.9c-2,0-3.8,0.6-5.4,1.9c-1.5,1.2-2.8,2.9-3.8,5.1
							c-1,2.1-1.8,4.7-2.3,7.6c-0.5,3-0.7,6.1-0.7,9.5s0.2,6.5,0.7,9.5c0.5,3,1.3,5.5,2.3,7.7c1,2.2,2.3,3.9,3.8,5.1
							c1.5,1.2,3.3,1.9,5.4,1.9c2.1,0,3.8-0.6,5.4-1.9c1.5-1.2,2.8-2.9,3.8-5.1c1-2.2,1.8-4.7,2.3-7.7
							C494.3,99.8,494.5,96.7,494.5,93.3z"/>
					</g>
				</g>
				<g>
					<g>
						<g>
							<path fill="#010101" d="M482.3,128.6c-3.8,0-7.2-0.9-10.2-2.6l0.5-0.9c2.8,1.6,6.1,2.5,9.7,2.5c3.6,0,6.8-0.8,9.7-2.5
								c2.9-1.6,5.3-4,7.3-6.9l0.8,0.6c-2.1,3.1-4.7,5.5-7.7,7.2C489.5,127.7,486.1,128.6,482.3,128.6z M482.3,117.9
								c-2.2,0-4.1-0.7-5.7-2c-1.6-1.3-2.9-3.1-4-5.3c-1-2.2-1.8-4.8-2.3-7.8c-0.5-3-0.8-6.2-0.8-9.5c0-3.4,0.3-6.6,0.8-9.5
								c0.5-3,1.3-5.6,2.3-7.8c1.1-2.2,2.4-4,4-5.3c1.6-1.3,3.5-2,5.7-2c2.1,0,4,0.7,5.6,2l-0.3,0.4l0.3-0.4c1.6,1.3,2.9,3.1,4,5.3
								l-0.9,0.4c-1-2.1-2.2-3.7-3.7-4.9c-1.4-1.2-3.1-1.8-4.9-1.8c-1.9,0-3.6,0.6-5,1.8c-1.5,1.2-2.7,2.8-3.7,4.9
								c-1,2.1-1.8,4.6-2.2,7.5c-0.5,2.9-0.7,6.1-0.7,9.4c0,3.3,0.2,6.5,0.7,9.4c0.5,2.9,1.2,5.4,2.2,7.6c1,2.1,2.2,3.8,3.7,5
								c1.4,1.2,3.1,1.8,5,1.8c1.9,0,3.6-0.6,5-1.8c1.5-1.2,2.7-2.9,3.7-5l0.9,0.4c-1.1,2.2-2.4,4-4,5.3
								C486.4,117.3,484.5,117.9,482.3,117.9z M504.9,107.6l-1-0.2c1.1-4.2,1.6-8.9,1.6-14.1c0-5.1-0.5-9.9-1.6-14
								c-1.1-4.2-2.6-7.8-4.6-10.7c-2-3-4.5-5.3-7.3-6.9c-2.9-1.6-6.1-2.4-9.7-2.4c-3.6,0-6.9,0.8-9.8,2.4c-2.9,1.6-5.3,3.9-7.3,6.9
								c-2,3-3.6,6.6-4.6,10.7l-1-0.2c1.1-4.3,2.7-8,4.7-11.1c2.1-3.1,4.7-5.5,7.7-7.2c3-1.7,6.5-2.5,10.3-2.5
								c3.7,0,7.2,0.9,10.2,2.5c3,1.7,5.6,4.1,7.7,7.2c2.1,3.1,3.7,6.8,4.8,11.1c1.1,4.3,1.6,9.1,1.6,14.3
								C506.6,98.5,506,103.4,504.9,107.6z"/>
						</g>
					</g>
				</g>
				<g>
					<g>
						<path fill="#414141" d="M481.8,124.1c-1-0.1-2.1-0.2-3.1-0.5l0.3-1c0.9,0.3,1.9,0.4,2.8,0.5L481.8,124.1z M483.8,124.1l-0.1-1
							c0.9-0.1,1.9-0.3,2.8-0.6l0.3,0.9C485.9,123.7,484.9,124,483.8,124.1z M476.8,122.9c-0.9-0.4-1.8-0.9-2.7-1.6l0.6-0.8
							c0.8,0.6,1.7,1.1,2.5,1.5L476.8,122.9z M488.8,122.6l-0.5-0.9c0.8-0.4,1.7-1,2.4-1.6l0.6,0.8
							C490.5,121.5,489.6,122.1,488.8,122.6z M472.5,120.1c-0.7-0.7-1.5-1.4-2.1-2.2l0.8-0.6c0.6,0.8,1.3,1.5,2,2.1L472.5,120.1z
							 M492.9,119.6l-0.7-0.7c0.7-0.7,1.3-1.4,2-2.2l0.8,0.6C494.3,118.1,493.6,118.9,492.9,119.6z M469.1,116.2
							c-0.6-0.8-1.1-1.7-1.6-2.6l0.9-0.5c0.5,0.9,1,1.7,1.6,2.5L469.1,116.2z M496.2,115.6l-0.8-0.6c0.5-0.8,1-1.6,1.5-2.5l0.9,0.5
							C497.2,113.9,496.7,114.8,496.2,115.6z M466.5,111.9c-0.4-0.9-0.8-1.8-1.2-2.8l0.9-0.4c0.4,0.9,0.8,1.8,1.2,2.7L466.5,111.9z
							 M498.6,111.2l-0.9-0.4c0.4-0.9,0.8-1.8,1.1-2.7l0.9,0.3C499.4,109.3,499,110.3,498.6,111.2z M464.7,107.2
							c-0.3-0.9-0.6-1.9-0.8-2.9l1-0.2c0.2,1,0.5,1.9,0.8,2.9L464.7,107.2z M500.4,106.5l-1-0.3c0.3-0.9,0.5-1.9,0.8-2.9l1,0.2
							C501,104.5,500.7,105.5,500.4,106.5z M463.4,102.3c-0.2-1-0.3-2-0.5-3l1-0.1c0.1,1,0.3,2,0.5,2.9L463.4,102.3z M501.6,101.5
							l-1-0.2c0.2-1,0.3-1.9,0.4-2.9l1,0.1C501.9,99.5,501.7,100.6,501.6,101.5z M462.7,97.2c-0.1-1-0.1-2-0.1-3l1,0
							c0,1,0.1,2,0.1,3L462.7,97.2z M502.2,96.5l-1-0.1c0.1-1,0.1-2,0.1-3c0-0.8,0-1.6-0.1-2.4l1-0.1c0,0.8,0.1,1.6,0.1,2.5
							C502.3,94.5,502.2,95.5,502.2,96.5z M463.6,92.2l-1,0c0-1,0.1-2,0.2-3l1,0.1C463.7,90.2,463.6,91.2,463.6,92.2z M501.1,89.1
							c-0.1-1-0.2-2-0.4-2.9l1-0.2c0.2,1,0.3,2,0.4,3L501.1,89.1z M464,87.3l-1-0.1c0.1-1,0.3-2,0.5-3l1,0.2
							C464.3,85.3,464.1,86.3,464,87.3z M500.3,84.2c-0.2-1-0.4-1.9-0.7-2.9l1-0.3c0.3,1,0.5,1.9,0.7,2.9L500.3,84.2z M464.9,82.4
							l-1-0.2c0.3-1,0.5-2,0.9-2.9l0.9,0.3C465.5,80.5,465.2,81.5,464.9,82.4z M499,79.5c-0.3-0.9-0.7-1.9-1.1-2.8l0.9-0.4
							c0.4,0.9,0.8,1.9,1.1,2.8L499,79.5z M466.5,77.8l-0.9-0.4c0.4-1,0.8-1.9,1.2-2.8l0.9,0.5C467.2,75.9,466.8,76.8,466.5,77.8z
							 M497.1,74.9c-0.5-0.9-0.9-1.8-1.5-2.6l0.8-0.5c0.5,0.8,1,1.7,1.5,2.6L497.1,74.9z M468.6,73.3l-0.9-0.5
							c0.5-0.9,1.1-1.8,1.7-2.5l0.8,0.6C469.7,71.6,469.1,72.5,468.6,73.3z M494.5,70.8c-0.6-0.8-1.3-1.5-1.9-2.2l0.7-0.7
							c0.7,0.7,1.4,1.5,2,2.3L494.5,70.8z M471.5,69.4l-0.7-0.7c0.7-0.8,1.4-1.5,2.2-2.1l0.6,0.8C472.9,67.9,472.1,68.6,471.5,69.4z
							 M491.2,67.2c-0.8-0.6-1.6-1.2-2.4-1.7l0.5-0.9c0.9,0.5,1.7,1.1,2.5,1.8L491.2,67.2z M475.1,66.1l-0.6-0.8
							c0.9-0.6,1.8-1.1,2.7-1.5l0.4,0.9C476.8,65.1,476,65.6,475.1,66.1z M487,64.7c-0.9-0.4-1.8-0.6-2.8-0.8l0.2-1
							c1,0.2,2,0.4,3,0.8L487,64.7z M479.5,64.2l-0.2-1c1-0.3,2.1-0.4,3.1-0.4l0,1C481.4,63.8,480.4,63.9,479.5,64.2z"/>
					</g>
				</g>
			</g>
			<g>
				<g>
					<g>
						<path fill="#DCDBDB" d="M441,126.4h-12.9L419,76.8h-0.2l-9.1,49.6h-12.9l-12.6-66h11.4l8.5,51.3h0.4l8.9-51.3h11.7l9.1,51.3
							h0.2l8.5-51.3h10.8L441,126.4z"/>
					</g>
				</g>
				<g>
					<g>
						<g>
							<path fill="#010101" d="M410.1,126.9h-13.7l-4.7-24.8l1-0.2l4.6,24h12l1.4-7.4l1,0.2L410.1,126.9z M441.4,126.3H428v-1h12.6
								l12.6-65l1,0.2L441.4,126.3z M434.8,112.2h-1l-9.1-51.3h-10.9l-1.4,8.4l-0.5-0.1l0.5,0.1l-3.2,18.1l-1-0.2l4.8-27.3h12.6
								l8.8,49.3l5-30l1,0.2L434.8,112.2z M413.4,108.9l-1-0.2l6-32.4h1l5.5,29.6l-1,0.2l-5-27L413.4,108.9z M387.6,80.6l-3.9-20.7
								H396l3.1,18.8l-1,0.2l-3-18h-10.3l3.7,19.5L387.6,80.6z"/>
						</g>
					</g>
				</g>
				<g>
					<g>
						<path fill="#414141" d="M401,121.7l-0.6-2.9l1-0.2l0.6,2.9L401,121.7z M400,116.8l-0.6-2.9l1-0.2l0.6,2.9L400,116.8z
							 M399,111.9l-0.6-2.9l1-0.2l0.6,2.9L399,111.9z M398,107l-0.6-2.9l1-0.2l0.6,2.9L398,107z M396.9,102.1l-0.6-2.9l1-0.2
							l0.6,2.9L396.9,102.1z M395.9,97.2l-0.6-2.9l1-0.2l0.6,2.9L395.9,97.2z M394.9,92.4l-0.6-2.9l1-0.2l0.6,2.9L394.9,92.4z
							 M393.9,87.5l-0.6-2.9l1-0.2l0.6,2.9L393.9,87.5z M392.9,82.6l-0.6-2.9l1-0.2l0.6,2.9L392.9,82.6z M391.9,77.7l-0.6-2.9l1-0.2
							l0.6,2.9L391.9,77.7z M390.9,72.8l-0.6-2.9l1-0.2l0.6,2.9L390.9,72.8z M389.9,67.9l-0.6-2.9l1-0.2l0.6,2.9L389.9,67.9z"/>
					</g>
				</g>
				<g>
					<g>
						<path fill="#414141" d="M405.7,121.9l-1-0.2l0.6-2.9l1,0.2L405.7,121.9z M406.8,117.1l-1-0.2l0.6-2.9l1,0.2L406.8,117.1z
							 M407.9,112.2l-1-0.2l0.6-2.9l1,0.2L407.9,112.2z M409,107.3l-1-0.2l0.6-2.9l1,0.2L409,107.3z M410.1,102.4l-1-0.2l0.6-2.9
							l1,0.2L410.1,102.4z M411.1,97.5l-1-0.2l0.6-2.9l1,0.2L411.1,97.5z M412.2,92.6l-1-0.2l0.6-2.9l1,0.2L412.2,92.6z M413.3,87.8
							l-1-0.2l0.6-2.9l1,0.2L413.3,87.8z M414.4,82.9l-1-0.2l0.6-2.9l1,0.2L414.4,82.9z M415.5,78l-1-0.2l0.6-2.9l1,0.2L415.5,78z
							 M416.5,73.1l-1-0.2l0.6-2.9l1,0.2L416.5,73.1z M417.6,68.2l-1-0.2l0.6-2.9l1,0.2L417.6,68.2z"/>
					</g>
				</g>
				<g>
					<g>
						<path fill="#414141" d="M432,121.7l-0.6-2.9l1-0.2l0.6,2.9L432,121.7z M431,116.8l-0.6-2.9l1-0.2l0.6,2.9L431,116.8z
							 M430,111.9l-0.6-2.9l1-0.2l0.6,2.9L430,111.9z M429,107l-0.6-2.9l1-0.2l0.6,2.9L429,107z M428,102.1l-0.6-2.9l1-0.2l0.6,2.9
							L428,102.1z M427,97.2l-0.6-2.9l1-0.2l0.6,2.9L427,97.2z M425.9,92.3l-0.6-2.9l1-0.2l0.6,2.9L425.9,92.3z M424.9,87.5
							l-0.6-2.9l1-0.2l0.6,2.9L424.9,87.5z M423.9,82.6l-0.6-2.9l1-0.2l0.6,2.9L423.9,82.6z M422.9,77.7l-0.6-2.9l1-0.2l0.6,2.9
							L422.9,77.7z M421.9,72.8l-0.6-2.9l1-0.2l0.6,2.9L421.9,72.8z M420.9,67.9l-0.6-2.9l1-0.2l0.6,2.9L420.9,67.9z"/>
					</g>
				</g>
				<g>
					<g>
						<path fill="#414141" d="M436.8,121.5l-1-0.2l0.6-2.9l1,0.2L436.8,121.5z M437.8,116.6l-1-0.2l0.6-2.9l1,0.2L437.8,116.6z
							 M438.8,111.7l-1-0.2l0.6-2.9l1,0.2L438.8,111.7z M439.8,106.8l-1-0.2l0.6-2.9l1,0.2L439.8,106.8z M440.8,101.9l-1-0.2
							l0.6-2.9l1,0.2L440.8,101.9z M441.8,97l-1-0.2l0.6-2.9l1,0.2L441.8,97z M442.7,92.1l-1-0.2l0.6-2.9l1,0.2L442.7,92.1z
							 M443.7,87.2l-1-0.2l0.6-2.9l1,0.2L443.7,87.2z M444.7,82.3l-1-0.2l0.6-2.9l1,0.2L444.7,82.3z M445.7,77.4l-1-0.2l0.6-2.9
							l1,0.2L445.7,77.4z M446.7,72.5l-1-0.2l0.6-2.9l1,0.2L446.7,72.5z M447.7,67.6l-1-0.2l0.6-2.9l1,0.2L447.7,67.6z"/>
					</g>
				</g>
			</g>
			<g>
				<g>
					<g>
						<path fill="#DCDBDB" d="M542.2,126.4L532,98.3h-6.2v28.1h-10.8v-66h18.8c2.7,0,5.3,0.4,7.5,1.1c2.3,0.7,4.3,1.8,5.9,3.4
							c1.6,1.6,2.9,3.5,3.9,5.9c0.9,2.4,1.4,5.2,1.4,8.5c0,2.5-0.3,4.8-1,6.8c-0.7,2-1.5,3.6-2.5,5c-1,1.4-2.1,2.5-3.3,3.3
							c-1.2,0.8-2.4,1.4-3.6,1.7l11.8,30.4H542.2z M541.5,79.8c0-2-0.3-3.6-0.8-4.9c-0.6-1.3-1.3-2.3-2.2-3.1
							c-0.9-0.7-1.9-1.3-3-1.6c-1.1-0.3-2.2-0.5-3.4-0.5h-6.3v20.3h6.3c2.7,0,5-0.9,6.8-2.6C540.6,85.8,541.5,83.2,541.5,79.8z"/>
					</g>
				</g>
				<g>
					<g>
						<g>
							<path fill="#010101" d="M554.7,126.9h-12.8l-10.3-28.1h-5.4v7.6h-1v-8.6h7.1l10.3,28.1h10.7l-8.2-21.2l0.9-0.4L554.7,126.9z
								 M526.2,126.9h-11.8V88.6h1v37.3h9.8v-8.2h1V126.9z M532.1,90.6h-6.8V69.2h6.8v1h-5.8v19.3h5.8c2.6,0,4.7-0.8,6.4-2.4
								c1.7-1.6,2.5-4.1,2.5-7.3h1c0,3.5-0.9,6.3-2.8,8C537.3,89.6,534.9,90.6,532.1,90.6z M552,86.2l-0.9-0.3c0.6-1.9,1-4.1,1-6.6
								c0-3.2-0.5-6-1.4-8.3c-0.9-2.3-2.2-4.2-3.7-5.7c-1.6-1.5-3.5-2.6-5.7-3.3c-2.2-0.7-4.7-1-7.4-1h-18.3v20.4h-1V59.9h19.3
								c2.8,0,5.4,0.4,7.7,1.1c2.4,0.7,4.4,1.9,6.1,3.5c1.7,1.6,3,3.6,4,6.1c1,2.4,1.4,5.3,1.4,8.7C553,81.8,552.6,84.2,552,86.2z"
								/>
						</g>
					</g>
				</g>
				<g>
					<g>
						<path fill="#414141" d="M520,123h-1v-3h1V123z M520,118h-1v-3h1V118z M520,113h-1v-3h1V113z M520,108h-1v-3h1V108z M520,103
							h-1v-3h1V103z M520,98h-1v-3h1V98z M520,93h-1v-3h1V93z M520,88h-1v-3h1V88z M520,83h-1v-3h1V83z M520,78h-1v-3h1V78z M520,73
							h-1v-3h1V73z M520,68h-1v-3h1V68z"/>
					</g>
				</g>
				<g>
					<g>
						<path fill="#414141" d="M529,94.2l-2.9,0l-0.1-1l2.9,0V94.2z M531.4,94.2l-0.1-1l0.8,0c0.7,0,1.4,0,2.2,0l0.1,1
							c-0.8,0-1.5,0-2.2,0L531.4,94.2z M536.4,94l-0.2-1c1-0.2,1.9-0.4,2.8-0.8l0.4,0.9C538.4,93.5,537.4,93.8,536.4,94z
							 M541.2,92.2l-0.5-0.8c0.8-0.5,1.5-1.1,2.2-1.8l0.7,0.7C542.9,91,542.1,91.7,541.2,92.2z M545,88.7l-0.8-0.6
							c0.6-0.8,1.1-1.6,1.6-2.4l0.9,0.4C546.2,87,545.7,87.9,545,88.7z M547.5,84.2l-1-0.3c0.3-0.9,0.5-1.9,0.6-2.8l1,0.1
							C548,82.2,547.8,83.2,547.5,84.2z M547.1,79.1c0-0.9-0.1-1.9-0.3-2.9l1-0.2c0.2,1,0.3,2.1,0.4,3.1L547.1,79.1z M546.3,74.4
							c-0.3-0.9-0.6-1.8-1-2.8l0.9-0.4c0.4,1,0.8,1.9,1,2.9L546.3,74.4z M544.5,69.9c-0.5-0.7-1.2-1.4-2-2l0.6-0.8
							c0.9,0.7,1.6,1.4,2.2,2.3L544.5,69.9z M540.9,66.9c-0.8-0.4-1.7-0.7-2.7-1l0.3-1c1.1,0.3,2,0.7,2.9,1.1L540.9,66.9z
							 M536.3,65.4c-0.9-0.2-1.9-0.3-2.9-0.4l0.1-1c1.1,0.1,2.1,0.2,3,0.4L536.3,65.4z M523.4,64.9l-0.1-1c0,0,1.2-0.1,3-0.1l0,1
							C524.6,64.8,523.4,64.9,523.4,64.9z M531.4,64.9c-1-0.1-2-0.1-3-0.1l0-1c0.9,0,2,0,3,0.1L531.4,64.9z"/>
					</g>
				</g>
				<g>
					<g>
						<path fill="#414141" d="M546.7,125l-0.4-1l0.9-0.4l0.4,1L546.7,125z M545.6,122.1l-1.1-2.8l0.9-0.4l1.1,2.8L545.6,122.1z
							 M543.7,117.5l-1.1-2.8l0.9-0.4l1.1,2.8L543.7,117.5z M541.9,112.8l-1.1-2.8l0.9-0.4l1.1,2.8L541.9,112.8z M540.1,108.2
							l-1.1-2.8l0.9-0.4l1.1,2.8L540.1,108.2z M538.2,103.5l-1.1-2.8l0.9-0.4l1.1,2.8L538.2,103.5z M536.4,98.9l-1.1-2.8l0.9-0.4
							l1.1,2.8L536.4,98.9z"/>
					</g>
				</g>
			</g>
		</g>
		<g>
			<g>
				<g>
					<g>
						<path fill="#DCDBDB" d="M109.1,126.4l-3.3-14H88.5l-3.4,14H74l16.4-66h14.3l16.1,66H109.1z M97.5,70.9h-0.4l-7.2,32.7h14.5
							L97.5,70.9z"/>
					</g>
				</g>
				<g>
					<g>
						<g>
							<path fill="#010101" d="M121.4,126.9h-12.3v-1h11l-2.9-12l1-0.2L121.4,126.9z M85.2,126.9H73.3l6.9-27.7l1,0.2l-6.6,26.5
								h10.5V126.9z M87.4,119.1l-1-0.2l1.7-6.9h17.7v1H88.9L87.4,119.1z M105.1,104.2H89.3l2.3-10.4l1,0.2l-2,9.2h13.3l-0.9-4
								l1-0.2L105.1,104.2z M101,90l-3.8-17.6l-1.5,7l-1-0.2l1.9-8.7h1.2l4.1,19.4L101,90z M110.7,87.4l-6.5-26.5H90.8L89.3,67
								l-1-0.2l1.7-6.8h15l6.7,27.3L110.7,87.4z"/>
						</g>
					</g>
				</g>
				<g>
					<g>
						<g>
							
								<rect x="79.4" y="121.7" transform="matrix(0.9721 0.2345 -0.2345 0.9721 30.9375 -15.3316)" fill="#010101" width="1" height="1.5"/>
						</g>
					</g>
					<g>
						<g>
							<path fill="#010101" d="M81.1,119.9l-1-0.2l0.7-2.9l1,0.2L81.1,119.9z M82.3,115l-1-0.2l0.7-2.9l1,0.2L82.3,115z M83.4,110.1
								l-1-0.2l0.7-2.9l1,0.2L83.4,110.1z M84.6,105.2l-1-0.2l0.7-2.9l1,0.2L84.6,105.2z M85.8,100.4l-1-0.2l0.7-2.9l1,0.2
								L85.8,100.4z M87,95.5l-1-0.2l0.7-2.9l1,0.2L87,95.5z M88.2,90.6l-1-0.2l0.7-2.9l1,0.2L88.2,90.6z M89.3,85.7l-1-0.2l0.7-2.9
								l1,0.2L89.3,85.7z M90.5,80.9l-1-0.2l0.7-2.9l1,0.2L90.5,80.9z M91.7,76l-1-0.2l0.7-2.9l1,0.2L91.7,76z M92.9,71.1l-1-0.2
								l0.7-2.9l1,0.2L92.9,71.1z"/>
						</g>
					</g>
					<g>
						<g>
							
								<rect x="93.3" y="64.6" transform="matrix(0.9717 0.2363 -0.2363 0.9717 18.1044 -20.3011)" fill="#010101" width="1" height="1.5"/>
						</g>
					</g>
				</g>
				<g>
					<g>
						<g>
							
								<rect x="99.9" y="64.9" transform="matrix(0.2379 0.9713 -0.9713 0.2379 140.1764 -47.8901)" fill="#010101" width="1.5" height="1"/>
						</g>
					</g>
					<g>
						<g>
							<path fill="#010101" d="M113.4,119.9l-0.7-2.9l1-0.2l0.7,2.9L113.4,119.9z M112.2,115l-0.7-2.9l1-0.2l0.7,2.9L112.2,115z
								 M111.1,110.1l-0.7-2.9l1-0.2l0.7,2.9L111.1,110.1z M109.9,105.2l-0.7-2.9l1-0.2l0.7,2.9L109.9,105.2z M108.7,100.4l-0.7-2.9
								l1-0.2l0.7,2.9L108.7,100.4z M107.5,95.5l-0.7-2.9l1-0.2l0.7,2.9L107.5,95.5z M106.3,90.6l-0.7-2.9l1-0.2l0.7,2.9L106.3,90.6
								z M105.1,85.7l-0.7-2.9l1-0.2l0.7,2.9L105.1,85.7z M103.9,80.9l-0.7-2.9l1-0.2l0.7,2.9L103.9,80.9z M102.7,76l-0.7-2.9l1-0.2
								l0.7,2.9L102.7,76z M101.5,71.1l-0.7-2.9l1-0.2l0.7,2.9L101.5,71.1z"/>
						</g>
					</g>
					<g>
						<g>
							
								<rect x="113.8" y="121.9" transform="matrix(0.2379 0.9713 -0.9713 0.2379 206.2305 -17.9943)" fill="#010101" width="1.5" height="1"/>
						</g>
					</g>
				</g>
				<g>
					<g>
						<path fill="#010101" d="M102,109h-3v-1h3V109z M97,109h-3v-1h3V109z M92,109h-3v-1h3V109z"/>
					</g>
				</g>
			</g>
			<g>
				<g>
					<g>
						<path fill="#DCDBDB" d="M35.7,126.4v-66h29.5v9.9H46.4v17.5h17.4v9.1H46.4v19.5h19.8v10H35.7z"/>
					</g>
				</g>
				<g>
					<g>
						<g>
							<path fill="#010101" d="M66.6,126.9h-5.9v-1h4.9v-9H54.2v-1h12.5V126.9z M46.3,126.9H35.2V121h1v4.9h10.2V126.9z M46.9,113.8
								h-1V96.4h17.4v-8.6H46.4v-1h17.9v10.6H46.9V113.8z M36.2,111.8h-1V65.1h1V111.8z M46.9,77.9h-1v-8.1h18.8v-8.9h-16v-1h17
								v10.9H46.9V77.9z"/>
						</g>
					</g>
				</g>
				<g>
					<g>
						<path fill="#414141" d="M62,124h-3v-1h3V124z M57,124h-3v-1h3V124z M52,124h-3v-1h3V124z M47,124h-3v-1h3V124z M42.3,123.3h-2
							v-2h1v1h1V123.3z M41,120h-1v-3h1V120z M41,115h-1v-3h1V115z M41,110h-1v-3h1V110z M41,105h-1v-3h1V105z M41,100h-1v-3h1V100z
							 M41,95h-1v-3h1V95z M41,90h-1v-3h1V90z M41,85h-1v-3h1V85z M41,80h-1v-3h1V80z M41,75h-1v-3h1V75z M41,70h-1v-3h1V70z
							 M62.3,65.3h-1v-1h1V65.3z M59,66h-3v-1h3V66z M54,66h-3v-1h3V66z M49,66h-3v-1h3V66z M44,66h-3v-1h3V66z"/>
					</g>
				</g>
				<g>
					<g>
						<path fill="#414141" d="M60.3,92.3h-1v-1h1V92.3z M57,93h-3v-1h3V93z M52,93h-3v-1h3V93z M47,93h-3v-1h3V93z"/>
					</g>
				</g>
			</g>
			<g>
				<g>
					<g>
						<path fill="#DCDBDB" d="M269.7,126.4v-66h29.5v9.9h-18.8v17.5h17.4v9.1h-17.4v19.5h19.8v10H269.7z"/>
					</g>
				</g>
				<g>
					<g>
						<g>
							<path fill="#010101" d="M300.6,126.9h-5.9v-1h4.9v-9h-11.5v-1h12.5V126.9z M280.3,126.9h-11.2V121h1v4.9h10.2V126.9z
								 M280.9,113.8h-1V96.4h17.4v-8.6h-16.9v-1h17.9v10.6h-17.4V113.8z M270.2,111.8h-1V65.1h1V111.8z M280.9,77.9h-1v-8.1h18.8
								v-8.9h-16v-1h17v10.9h-18.8V77.9z"/>
						</g>
					</g>
				</g>
				<g>
					<g>
						<path fill="#414141" d="M296,124h-3v-1h3V124z M291,124h-3v-1h3V124z M286,124h-3v-1h3V124z M281,124h-3v-1h3V124z
							 M276.3,123.3h-2v-2h1v1h1V123.3z M275,120h-1v-3h1V120z M275,115h-1v-3h1V115z M275,110h-1v-3h1V110z M275,105h-1v-3h1V105z
							 M275,100h-1v-3h1V100z M275,95h-1v-3h1V95z M275,90h-1v-3h1V90z M275,85h-1v-3h1V85z M275,80h-1v-3h1V80z M275,75h-1v-3h1V75
							z M275,70h-1v-3h1V70z M296.3,65.3h-1v-1h1V65.3z M293,66h-3v-1h3V66z M288,66h-3v-1h3V66z M283,66h-3v-1h3V66z M278,66h-3v-1
							h3V66z"/>
					</g>
				</g>
				<g>
					<g>
						<path fill="#414141" d="M294.3,92.3h-1v-1h1V92.3z M291,93h-3v-1h3V93z M286,93h-3v-1h3V93z M281,93h-3v-1h3V93z"/>
					</g>
				</g>
			</g>
			<g>
				<g>
					<g>
						<path fill="#DCDBDB" d="M11.7,70.5v18.1h17v9.5H11.8v28.3H0.5v-66H30v10.1H11.7z"/>
					</g>
				</g>
				<g>
					<g>
						<g>
							<path fill="#010101" d="M12.3,126.9H0V83.8h1v42.1h10.3v-13.3h1V126.9z M29.1,98.6h-16v-1h15v-8.5H23v-1h6.1V98.6z
								 M12.2,81.6h-1V70h18.4v-4.2h1V71H12.2V81.6z M1,72.6H0V59.9h25.9v1H1V72.6z"/>
						</g>
					</g>
				</g>
				<g>
					<g>
						<path fill="#414141" d="M6,124H5v-3h1V124z M6,119H5v-3h1V119z M6,114H5v-3h1V114z M6,109H5v-3h1V109z M6,104H5v-3h1V104z
							 M6,99H5v-3h1V99z M6,94H5v-3h1V94z M6,89H5v-3h1V89z M6,84H5v-3h1V84z M6,79H5v-3h1V79z M6,74H5v-3h1V74z M6,69H5v-3h1V69z
							 M26,67h-3v-1h3V67z M21,67h-3v-1h3V67z M16,67h-3v-1h3V67z M11,67H8v-1h3V67z"/>
					</g>
				</g>
				<g>
					<g>
						<path fill="#414141" d="M26,94h-3v-1h3V94z M21,94h-3v-1h3V94z M16,94h-3v-1h3V94z M11.3,93.3h-2v-1h2V93.3z"/>
					</g>
				</g>
			</g>
			<g>
				<g>
					<g>
						<path fill="#DCDBDB" d="M146.1,69.9v56.5h-11V69.9h-12.4v-9.5h35.8v9.5H146.1z"/>
					</g>
				</g>
				<g>
					<g>
						<g>
							<path fill="#010101" d="M146.6,126.9h-12v-10.6h1v9.6h10V93.8h1V126.9z M135.6,108.1h-1V69.9h1V108.1z M146.6,83.6h-1V69.4
								H158v-8.5h-21v-1h22v10.5h-12.4V83.6z"/>
						</g>
					</g>
				</g>
				<g>
					<g>
						<path fill="#414141" d="M156.3,65.3h-2v-1h2V65.3z M152,66h-3v-1h3V66z M147,66h-3v-1h3V66z M142,66h-3v-1h3V66z M137,66h-3
							v-1h3V66z M132,66h-3v-1h3V66z M127,66h-3v-1h3V66z"/>
					</g>
				</g>
				<g>
					<g>
						<path fill="#414141" d="M141.3,123.3h-1v-2h1V123.3z M141,120h-1v-3h1V120z M141,115h-1v-3h1V115z M141,110h-1v-3h1V110z
							 M141,105h-1v-3h1V105z M141,100h-1v-3h1V100z M141,95h-1v-3h1V95z M141,90h-1v-3h1V90z M141,85h-1v-3h1V85z M141,80h-1v-3h1
							V80z M141,75h-1v-3h1V75z"/>
					</g>
				</g>
			</g>
			<g>
				<g>
					<g>
						<path fill="#DCDBDB" d="M249.2,126.4L239,98.3h-6.2v28.1h-10.8v-66h18.8c2.7,0,5.2,0.4,7.5,1.1c2.3,0.7,4.3,1.8,5.9,3.4
							c1.6,1.6,2.9,3.5,3.9,5.9c0.9,2.4,1.4,5.2,1.4,8.5c0,2.5-0.3,4.8-1,6.8c-0.7,2-1.5,3.6-2.5,5c-1,1.4-2.1,2.5-3.3,3.3
							c-1.2,0.8-2.4,1.4-3.6,1.7l11.8,30.4H249.2z M248.5,79.8c0-2-0.3-3.6-0.8-4.9c-0.6-1.3-1.3-2.3-2.2-3.1
							c-0.9-0.7-1.9-1.3-3-1.6c-1.1-0.3-2.2-0.5-3.4-0.5h-6.3v20.3h6.3c2.7,0,5-0.9,6.8-2.6C247.6,85.8,248.5,83.2,248.5,79.8z"/>
					</g>
				</g>
				<g>
					<g>
						<g>
							<path fill="#010101" d="M261.7,126.9h-12.8l-10.3-28.1h-5.4v7.6h-1v-8.6h7.1l10.3,28.1h10.7l-8.2-21.2l0.9-0.4L261.7,126.9z
								 M233.2,126.9h-11.8V88.6h1v37.3h9.8v-8.2h1V126.9z M239.1,90.6h-6.8V69.2h6.8v1h-5.8v19.3h5.8c2.6,0,4.7-0.8,6.4-2.4
								c1.7-1.6,2.5-4.1,2.5-7.3h1c0,3.5-0.9,6.3-2.8,8C244.3,89.6,241.9,90.6,239.1,90.6z M259,86.2l-0.9-0.3c0.6-1.9,1-4.1,1-6.6
								c0-3.2-0.5-6-1.4-8.3c-0.9-2.3-2.2-4.2-3.7-5.7c-1.6-1.5-3.5-2.6-5.7-3.3c-2.2-0.7-4.7-1-7.4-1h-18.3v20.4h-1V59.9h19.3
								c2.8,0,5.4,0.4,7.7,1.1c2.4,0.7,4.4,1.9,6.1,3.5c1.7,1.6,3,3.6,4,6.1c1,2.4,1.4,5.3,1.4,8.7C260,81.8,259.6,84.2,259,86.2z"
								/>
						</g>
					</g>
				</g>
				<g>
					<g>
						<path fill="#414141" d="M227,123h-1v-3h1V123z M227,118h-1v-3h1V118z M227,113h-1v-3h1V113z M227,108h-1v-3h1V108z M227,103
							h-1v-3h1V103z M227,98h-1v-3h1V98z M227,93h-1v-3h1V93z M227,88h-1v-3h1V88z M227,83h-1v-3h1V83z M227,78h-1v-3h1V78z M227,73
							h-1v-3h1V73z M227,68h-1v-3h1V68z"/>
					</g>
				</g>
				<g>
					<g>
						<path fill="#414141" d="M236,94.2l-2.9,0l-0.1-1l2.9,0V94.2z M238.4,94.2l-0.1-1l0.8,0c0.7,0,1.4,0,2.2,0l0.1,1
							c-0.8,0-1.5,0-2.2,0L238.4,94.2z M243.4,94l-0.2-1c1-0.2,1.9-0.4,2.8-0.8l0.4,0.9C245.4,93.5,244.4,93.8,243.4,94z
							 M248.2,92.2l-0.5-0.8c0.8-0.5,1.5-1.1,2.2-1.8l0.7,0.7C249.9,91,249.1,91.7,248.2,92.2z M252,88.7l-0.8-0.6
							c0.6-0.8,1.1-1.6,1.6-2.4l0.9,0.4C253.2,87,252.7,87.9,252,88.7z M254.5,84.2l-1-0.3c0.3-0.9,0.5-1.9,0.6-2.8l1,0.1
							C255,82.2,254.8,83.2,254.5,84.2z M254.1,79.1c0-0.9-0.1-1.9-0.3-2.9l1-0.2c0.2,1,0.3,2.1,0.4,3.1L254.1,79.1z M253.3,74.4
							c-0.3-0.9-0.6-1.8-1-2.8l0.9-0.4c0.4,1,0.7,1.9,1,2.9L253.3,74.4z M251.5,69.9c-0.5-0.7-1.2-1.4-2-2l0.6-0.8
							c0.9,0.7,1.6,1.4,2.2,2.3L251.5,69.9z M247.9,66.9c-0.8-0.4-1.7-0.7-2.7-1l0.3-1c1.1,0.3,2,0.7,2.9,1.1L247.9,66.9z
							 M243.3,65.4c-0.9-0.2-1.9-0.3-2.9-0.4l0.1-1c1.1,0.1,2.1,0.2,3,0.4L243.3,65.4z M230.4,64.9l-0.1-1c0,0,1.2-0.1,3-0.1l0,1
							C231.6,64.8,230.4,64.9,230.4,64.9z M238.4,64.9c-1-0.1-2-0.1-3-0.1l0-1c0.9,0,2,0,3,0.1L238.4,64.9z"/>
					</g>
				</g>
				<g>
					<g>
						<path fill="#414141" d="M253.7,125l-0.4-1l0.9-0.4l0.4,1L253.7,125z M252.6,122.1l-1.1-2.8l0.9-0.4l1.1,2.8L252.6,122.1z
							 M250.7,117.5l-1.1-2.8l0.9-0.4l1.1,2.8L250.7,117.5z M248.9,112.8l-1.1-2.8l0.9-0.4l1.1,2.8L248.9,112.8z M247.1,108.2
							l-1.1-2.8l0.9-0.4l1.1,2.8L247.1,108.2z M245.2,103.5l-1.1-2.8l0.9-0.4l1.1,2.8L245.2,103.5z M243.4,98.9l-1.1-2.8l0.9-0.4
							l1.1,2.8L243.4,98.9z"/>
					</g>
				</g>
			</g>
			<g>
				<g>
					<g>
						<path fill="#DCDBDB" d="M208.1,112c-0.7,3-2,5.7-3.6,8c-1.7,2.3-3.8,4.1-6.5,5.4c-2.6,1.3-5.9,2-9.6,2c-3.8,0-7-0.7-9.6-2
							c-2.6-1.3-4.7-3.1-6.4-5.4c-1.6-2.3-2.8-4.9-3.5-8c-0.7-3-1.1-6.3-1.1-9.8V59.6H179v41.6c0,2.1,0.1,4,0.4,5.9
							c0.3,1.9,0.8,3.6,1.5,5c0.7,1.4,1.7,2.6,2.9,3.4c1.2,0.8,2.8,1.3,4.8,1.3c1.9,0,3.5-0.4,4.8-1.3c1.2-0.8,2.2-2,2.9-3.4
							c0.7-1.4,1.2-3.1,1.5-5c0.3-1.9,0.4-3.9,0.4-5.9V59.6h11.1v42.6C209.3,105.6,208.9,108.9,208.1,112z"/>
					</g>
				</g>
				<g>
					<g>
						<g>
							<path fill="#010101" d="M188.4,127.7c-3.9,0-7.2-0.7-9.8-2l0.4-0.9c2.5,1.3,5.7,1.9,9.4,1.9c3.7,0,6.9-0.6,9.4-1.9
								c2.6-1.3,4.7-3,6.3-5.2c1.6-2.2,2.8-4.8,3.6-7.8c0.7-3,1.1-6.2,1.1-9.7h1c0,3.5-0.4,6.8-1.1,9.9c-0.8,3.1-2,5.8-3.7,8.1
								c-1.7,2.3-4,4.2-6.7,5.5C195.6,127.1,192.2,127.7,188.4,127.7z M188.6,117.2c-2,0-3.7-0.5-5-1.3c-1.3-0.9-2.4-2.1-3.1-3.6
								c-0.7-1.5-1.3-3.2-1.5-5.1c-0.3-1.9-0.4-3.9-0.4-6h1c0,2,0.1,4,0.4,5.8c0.3,1.8,0.8,3.5,1.4,4.8c0.7,1.3,1.6,2.4,2.8,3.2
								c1.2,0.8,2.7,1.2,4.5,1.2c1.8,0,3.3-0.4,4.5-1.2c1.2-0.8,2.1-1.9,2.8-3.2c0.7-1.4,1.2-3,1.4-4.8c0.3-1.9,0.4-3.8,0.4-5.8
								V72.6h1v28.5c0,2.1-0.1,4.1-0.4,6c-0.3,1.9-0.8,3.7-1.5,5.1c-0.8,1.5-1.8,2.7-3.1,3.6C192.3,116.8,190.6,117.2,188.6,117.2z
								 M168.3,101.7h-1V59.1h12.2V91h-1V60.1h-10.2V101.7z M209.8,92h-1V60.1h-10.3v-1h11.3V92z"/>
						</g>
					</g>
				</g>
				<g>
					<g>
						<path fill="#414141" d="M186.8,123.5c-0.6,0-1.2,0-1.8-0.1l0.1-1c0.9,0.1,2,0.1,2.9,0.1l0,1
							C187.6,123.5,187.2,123.5,186.8,123.5z M190.1,123.3l-0.1-1c1-0.1,2-0.3,2.8-0.6l0.3,1C192.1,122.9,191.1,123.1,190.1,123.3z
							 M182.9,123c-1-0.3-2-0.6-2.9-1.1l0.5-0.9c0.8,0.4,1.7,0.8,2.7,1L182.9,123z M195,121.9l-0.4-0.9c0.9-0.4,1.7-0.9,2.5-1.4
							l0.6,0.8C196.8,121,195.9,121.5,195,121.9z M178.3,120.8c-0.8-0.6-1.5-1.4-2.2-2.2l0.8-0.6c0.6,0.8,1.3,1.5,2,2.1L178.3,120.8
							z M199.2,119l-0.7-0.7c0.7-0.7,1.3-1.4,1.8-2.2l0.8,0.5C200.6,117.5,200,118.3,199.2,119z M175,116.8
							c-0.5-0.9-0.9-1.8-1.3-2.8l0.9-0.3c0.3,1,0.7,1.9,1.2,2.7L175,116.8z M202.2,114.8l-0.9-0.4c0.4-0.8,0.8-1.8,1.1-2.7l1,0.3
							C203,112.9,202.6,113.9,202.2,114.8z M173.1,112.1c-0.2-0.9-0.4-2-0.6-3l1-0.1c0.1,1,0.3,2,0.6,2.9L173.1,112.1z M203.8,110
							l-1-0.2c0.2-0.9,0.3-1.9,0.4-2.9l1,0.1C204.2,108,204,109,203.8,110z M172.2,107c-0.1-0.9-0.2-1.9-0.2-2.9V104l1,0v0.2
							c0,0.9,0.1,1.9,0.2,2.8L172.2,107z M204.1,104.9l-1,0v-0.2c0-1.1,0-1.3,0-1.3l0.1-0.4h0.9v1h0.1c0,0-0.1-0.5-0.1,0.6V104.9z
							 M173,103h-1v-3h1V103z M204,101h-1v-3h1V101z M173,98h-1v-3h1V98z M204,96h-1v-3h1V96z M173,93h-1v-3h1V93z M204,91h-1v-3h1
							V91z M173,88h-1v-3h1V88z M204,86h-1v-3h1V86z M173,83h-1v-3h1V83z M204,81h-1v-3h1V81z M173,78h-1v-3h1V78z M204,76h-1v-3h1
							V76z M173,73h-1v-3h1V73z M204,71h-1v-3h1V71z M173,68h-1v-3h1V68z M204.3,64.9h-1V63h1V64.9z"/>
					</g>
				</g>
			</g>
			<g>
				<g>
					<g>
						<path fill="#DCDBDB" d="M348.9,93.5c0,10.4-2.2,18.5-6.6,24.3c-4.4,5.7-10.8,8.6-19.3,8.6h-16.5v-66h16.6
							c8.4,0,14.9,2.9,19.2,8.7C346.8,74.9,348.9,83.1,348.9,93.5z M337.8,93.5c0-3.9-0.4-7.3-1.1-10.3c-0.7-2.9-1.7-5.3-3-7.3
							s-2.9-3.4-4.7-4.3c-1.8-1-3.8-1.4-5.9-1.4h-5.3v46.4h5.3c2.1,0,4.1-0.5,5.9-1.4c1.8-1,3.4-2.4,4.7-4.3c1.3-1.9,2.3-4.3,3-7.2
							C337.4,100.7,337.8,97.4,337.8,93.5z"/>
					</g>
				</g>
				<g>
					<g>
						<g>
							<path fill="#010101" d="M323,126.9h-17V101h1v24.9h16V126.9z M323.1,117.1h-5.8v-7.3h1v6.3h4.8c2,0,3.9-0.5,5.6-1.4
								c1.7-0.9,3.2-2.3,4.5-4.2c1.3-1.9,2.3-4.2,3-7.1c0.7-2.8,1.1-6.2,1.1-10c0-3.9-0.4-7.3-1.1-10.1l1-0.2
								c0.7,2.9,1.1,6.4,1.1,10.4c0,3.9-0.4,7.3-1.1,10.2l-0.5-0.1l0.5,0.1c-0.7,2.9-1.8,5.4-3.1,7.4c-1.3,2-3,3.5-4.8,4.5
								C327.4,116.6,325.3,117.1,323.1,117.1z M318.3,97.5h-1V69.7h5.8c2.2,0,4.2,0.5,6.1,1.5l-0.5,0.9c-1.7-0.9-3.6-1.4-5.6-1.4
								h-4.8V97.5z M349.4,93.5h-1c0-10.3-2.2-18.4-6.5-24.1c-4.3-5.7-10.6-8.5-18.8-8.5H307V73h-1V59.9h17.1c8.6,0,15.2,3,19.6,8.9
								C347.2,74.7,349.4,83,349.4,93.5z"/>
						</g>
					</g>
				</g>
				<g>
					<g>
						<path fill="#414141" d="M317,123.1c-0.8,0-1.6,0-2.2,0l0-1c0.9,0,1.9,0.1,3,0l0,1C317.5,123.1,317.2,123.1,317,123.1z
							 M319.8,123l-0.1-1c1-0.1,2-0.1,3-0.3l0.1,1C321.8,122.9,320.8,123,319.8,123z M312.7,122.9c-0.7-0.1-1.1-0.1-1.1-0.1
							l-0.5-0.1V121h1v0.9c1,0,0.4,0,0.6,0L312.7,122.9z M324.8,122.5l-0.2-1c1-0.2,2-0.4,2.9-0.6l0.3,1
							C326.8,122,325.8,122.3,324.8,122.5z M329.7,121.2l-0.3-0.9c1-0.3,1.9-0.7,2.7-1.2l0.5,0.9
							C331.7,120.4,330.7,120.8,329.7,121.2z M334.3,118.9l-0.6-0.8c0.8-0.6,1.6-1.2,2.2-1.8l0.7,0.7
							C336,117.6,335.2,118.3,334.3,118.9z M312,119h-1v-3h1V119z M338,115.3l-0.8-0.6c0.5-0.7,1-1.6,1.5-2.5l0.9,0.5
							C339.1,113.7,338.6,114.6,338,115.3z M312,114h-1v-3h1V114z M340.4,110.9l-0.9-0.4c0.4-0.9,0.7-1.8,1-2.8l0.9,0.3
							C341.2,109,340.8,110,340.4,110.9z M312,109h-1v-3h1V109z M342.1,106.1l-1-0.3c0.3-0.9,0.5-1.9,0.7-2.9l1,0.2
							C342.6,104.1,342.4,105.1,342.1,106.1z M312,104h-1v-3h1V104z M343.2,101.1l-1-0.2c0.2-1,0.3-2,0.4-2.9l1,0.1
							C343.6,99.2,343.4,100.2,343.2,101.1z M312,99h-1v-3h1V99z M343.9,96.1l-1-0.1c0.1-1,0.1-2,0.2-3l1,0
							C344,94.1,344,95.1,343.9,96.1z M312,94h-1v-3h1V94z M343.1,91.1c0-1,0-2-0.1-3l1-0.1c0.1,1,0.1,2,0.1,3L343.1,91.1z M312,89
							h-1v-3h1V89z M342.8,86.2c-0.1-1-0.3-2-0.5-2.9l1-0.2c0.2,1,0.3,2,0.5,3L342.8,86.2z M312,84h-1v-3h1V84z M341.9,81.3
							c-0.2-1-0.5-1.9-0.9-2.8l0.9-0.3c0.3,0.9,0.6,1.9,0.9,2.9L341.9,81.3z M312,79h-1v-3h1V79z M340.3,76.7
							c-0.4-0.9-0.9-1.8-1.4-2.6l0.8-0.5c0.5,0.8,1,1.8,1.4,2.7L340.3,76.7z M312,74h-1v-3h1V74z M337.8,72.5
							c-0.6-0.8-1.3-1.5-2-2.1l0.7-0.7c0.7,0.7,1.4,1.4,2.1,2.3L337.8,72.5z M334.3,69.1c-0.2-0.1-0.4-0.3-0.6-0.4
							c-0.6-0.4-1.3-0.8-1.9-1.1l0.5-0.9c0.7,0.4,1.3,0.8,2,1.2c0.2,0.1,0.4,0.3,0.6,0.4L334.3,69.1z M312,69h-1v-3h1V69z
							 M330.1,66.7c-0.9-0.4-1.8-0.8-2.7-1.1l0.3-1c1,0.3,1.9,0.7,2.8,1.1L330.1,66.7z M312.9,65.5l-0.3-1c0.6-0.2,1.7-0.5,3-0.7
							l0.2,1C314.5,65,313.5,65.3,312.9,65.5z M325.4,65.1c-1-0.2-1.9-0.4-2.9-0.5l0.1-1c1,0.1,2,0.3,3,0.5L325.4,65.1z M317.7,64.5
							l-0.1-1c1-0.1,2-0.1,3.1-0.1l0,1C319.6,64.4,318.6,64.5,317.7,64.5z"/>
					</g>
				</g>
			</g>
		</g>
	</g>
</g>
</svg>
