<?xml version="1.0" encoding="UTF-8"?>
<svg enable-background="new 0 0 603 321" version="1.1" viewBox="0 0 603 321" xml:space="preserve" xmlns="http://www.w3.org/2000/svg">
				<polyline points="309 84 309 2 1 2 1 84" fill="#F5F6F4" opacity=".6"/>
				<line x1="301" x2="92" y1="1.5" y2="1.5" fill="none" stroke="#181919" stroke-width="3"/>
				<polyline points="301 1.5 307.5 1.5 307.5 84.5 1.5 84.5 1.5 60" fill="none" stroke="#181919" stroke-width="3"/>
				<text transform="translate(63.635 64.327)" fill="#010101" font-family="'AvenirNextCondensed-DemiBold'" font-size="55.223">Creative</text>
				<polyline points="230 190 230 134 603 134 603 190" fill="#F5F6F4" opacity=".6"/>
					<rect x="228.5" y="134.5" width="373" height="55" fill="none" opacity=".6" stroke="#010101" stroke-miterlimit="10" stroke-width="3"/>
					<text transform="translate(242.4 171.39)" fill="#010101" font-family="'AvenirNextCondensed-DemiBold'" font-size="30.516">Storyline development</text>
				<polyline points="230 256 230 201 490 201 490 256" fill="#F5F6F4" opacity=".6"/>
					<rect x="228.5" y="201.5" width="260" height="56" fill="none" opacity=".6" stroke="#010101" stroke-miterlimit="10" stroke-width="3"/>
					<text transform="translate(257.61 239.5)" fill="#010101" font-family="'AvenirNextCondensed-DemiBold'" font-size="30.516">Scriptwriting</text>
				<polyline points="230 320 230 265 490 265 490 320" fill="#F5F6F4" opacity=".6"/>
					<rect x="228.5" y="265.5" width="260" height="54" fill="none" opacity=".6" stroke="#010101" stroke-miterlimit="10" stroke-width="3"/>
					<text transform="translate(269.32 303.93)" fill="#010101" font-family="'AvenirNextCondensed-DemiBold'" font-size="30.516">Storyboard</text>
		<polyline points="112.5 87 112.5 295.5 235 295.5" fill="none" stroke="#010101" stroke-dasharray="9.2039" stroke-miterlimit="10" stroke-width="3"/>
			<line x1="230" x2="111" y1="226.5" y2="226.5" fill="none" stroke="#010101" stroke-dasharray="9" stroke-miterlimit="10" stroke-width="3"/>
			<line x1="230" x2="115" y1="159.5" y2="159.5" fill="none" stroke="#010101" stroke-dasharray="9" stroke-miterlimit="10" stroke-width="3"/>
</svg>
="30.5164">Storyboard</text>
			</g>
		</g>
		<polyline fill="none" stroke="#010101" stroke-width="3" stroke-miterlimit="10" stroke-dasharray="9.2039" points="112.5,87 
			112.5,295.5 235,295.5 		"/>
		
			<line fill="none" stroke="#010101" stroke-width="3" stroke-miterlimit="10" stroke-dasharray="9" x1="230" y1="226.5" x2="111" y2="226.5"/>
		
			<line fill="none" stroke="#010101" stroke-width="3" stroke-miterlimit="10" stroke-dasharray="9" x1="230" y1="159.5" x2="115" y2="159.5"/>
	</g>
</g>
</svg>
