<?xml version="1.0" encoding="UTF-8"?>
<svg enable-background="new 0 0 431 501" version="1.1" viewBox="0 0 431 501" xml:space="preserve" xmlns="http://www.w3.org/2000/svg">
			<polyline points="166 366 166 310 429 310 429 366" fill="#F5F6F4" opacity=".6"/>
				<rect x="164.5" y="310.5" width="262" height="54" fill="none" opacity=".6" stroke="#010101" stroke-miterlimit="10" stroke-width="3"/>
				<text transform="translate(162.47 348.5)" fill="#010101" font-family="'AvenirNextCondensed-DemiBold'" font-size="30.516">2D & 3D animation</text>
			<polyline points="164 229 164 173 319 173 319 229" fill="#F5F6F4" opacity=".6"/>
				<rect x="164.5" y="173.5" width="155" height="54" fill="none" opacity=".6" stroke="#010101" stroke-miterlimit="10" stroke-width="3"/>
				<text transform="translate(188.58 213.21)" fill="#010101" font-family="'AvenirNextCondensed-DemiBold'" font-size="30.516">Editing</text>
			<polyline points="166 298 166 242 429 242 429 298" fill="#F5F6F4" opacity=".6"/>
				<rect x="164.5" y="242.5" width="262" height="55" fill="none" opacity=".6" stroke="#010101" stroke-miterlimit="10" stroke-width="3"/>
				<text transform="translate(176 280.86)" fill="#010101" font-family="'AvenirNextCondensed-DemiBold'" font-size="30.516">Graphics design</text>
			<polyline points="166 432 166 376 429 376 429 432" fill="#F5F6F4" opacity=".6"/>
				<rect x="164.5" y="375.5" width="262" height="57" fill="none" opacity=".6" stroke="#010101" stroke-miterlimit="10" stroke-width="3"/>
				<text transform="translate(183.33 416.15)" fill="#010101" font-family="'AvenirNextCondensed-DemiBold'" font-size="30.516">Color-grading</text>
			<polyline points="166 500 166 444 429 444 429 500" fill="#F5F6F4" opacity=".6"/>
				<rect x="164.5" y="444.5" width="262" height="55" fill="none" opacity=".6" stroke="#010101" stroke-miterlimit="10" stroke-width="3"/>
				<text transform="translate(208.73 483.8)" fill="#010101" font-family="'AvenirNextCondensed-DemiBold'" font-size="30.516">Voice-overs</text>
	<polyline points="122.5 143 122.5 474.5 166 474.5" fill="none" stroke="#010101" stroke-dasharray="9.2039" stroke-miterlimit="10" stroke-width="3"/>
		<line x1="122" x2="166" y1="403.5" y2="403.5" fill="none" stroke="#010101" stroke-dasharray="9" stroke-miterlimit="10" stroke-width="3"/>
		<line x1="122" x2="166" y1="340.5" y2="340.5" fill="none" stroke="#010101" stroke-dasharray="9" stroke-miterlimit="10" stroke-width="3"/>
		<line x1="122" x2="166" y1="273.5" y2="273.5" fill="none" stroke="#010101" stroke-dasharray="9" stroke-miterlimit="10" stroke-width="3"/>
		<line x1="122" x2="166" y1="203.5" y2="203.5" fill="none" stroke="#010101" stroke-dasharray="9" stroke-miterlimit="10" stroke-width="3"/>
			<polyline points="419 141 419 1 3 1 3 141" fill="#F5F6F4" opacity=".6"/>
			<line x1="410" x2="130" y1="1.5" y2="1.5" fill="none" stroke="#181919" stroke-width="3"/>
			<polyline points="1.5 96 1.5 141.5 418.5 141.5 418.5 1.5 410 1.5" fill="none" stroke="#181919" stroke-width="3"/>
			<text transform="translate(107.09 67.785)" fill="#010101" font-family="'AvenirNextCondensed-DemiBold'" font-size="55.223"><tspan x="0" y="0">Post</tspan><tspan x="0" y="47.9">production</tspan></text>
		<line x1="222" x2="265" y1="49.5" y2="49.5" fill="none" stroke="#181919" stroke-width="5"/>
</svg>
6F4" points="419,141 419,1 3,1 3,141 			"/>
			<line fill="none" stroke="#181919" stroke-width="3" x1="410" y1="1.5" x2="130" y2="1.5"/>
			<polyline fill="none" stroke="#181919" stroke-width="3" points="1.5,96 1.5,141.5 418.5,141.5 418.5,1.5 410,1.5 			"/>
		</g>
	</g>
	<g>
		<g>
			<text transform="matrix(1 0 0 1 107.0908 67.7852)"><tspan x="0" y="0" fill="#010101" font-family="'AvenirNextCondensed-DemiBold'" font-size="55.2233">Post</tspan><tspan x="0" y="47.9" fill="#010101" font-family="'AvenirNextCondensed-DemiBold'" font-size="55.2233">production</tspan></text>
		</g>
		<line fill="none" stroke="#181919" stroke-width="5" x1="222" y1="49.5" x2="265" y2="49.5"/>
	</g>
</g>
</svg>
