<?xml version="1.0" encoding="UTF-8"?>
<svg enable-background="new 0 0 403 204" version="1.1" viewBox="0 0 403 204" xml:space="preserve" xmlns="http://www.w3.org/2000/svg">
<line x1="394" x2="394" y1="68" y2="204" fill="none" stroke="#010101" stroke-dasharray="5" stroke-miterlimit="10" stroke-width="2"/>
<line x1="287" x2="383" y1="57" y2="57" fill="none" stroke="#010101" stroke-dasharray="5" stroke-miterlimit="10" stroke-width="2"/>
			<polyline points="120 69 120 1 287 1 287 69" fill="#F5F6F4" opacity=".6"/>
			<line x1="124" x2="246" y1="1" y2="1" fill="none" stroke="#181919" stroke-width="2"/>
			<polyline points="287 48 287 69 120 69 120 1 124 1" fill="none" stroke="#181919" stroke-width="2"/>
		<text transform="translate(134.19 32.072)" fill="#010101" font-family="'AvenirNextCondensed-DemiBold'"><tspan x="0" y="0" font-size="30">Sales </tspan><tspan x="85" y="0" font-size="25">&</tspan><tspan x="-12.6" y="26" font-size="30">Project</tspan></text>
			<polyline points="76 124 76 94 160 94 160 124" fill="#F5F6F4" opacity=".6"/>
				<rect x="75" y="94" width="84" height="30" fill="none" opacity=".6" stroke="#010101" stroke-miterlimit="10" stroke-width="2"/>
				<text transform="translate(83.4 114.74)" fill="#010101" font-family="'AvenirNextCondensed-DemiBold'" font-size="16.578">Concept</text>
			<polyline points="2 160 2 130 160 130 160 160" fill="#F5F6F4" opacity=".6"/>
				<rect x="1" y="130" width="158" height="30" fill="none" opacity=".6" stroke="#010101" stroke-miterlimit="10" stroke-width="2"/>
				<text transform="translate(9.6714 150.74)" fill="#010101" font-family="'AvenirNextCondensed-DemiBold'" font-size="16.578">Project planning</text>
			<polyline points="18 196 18 166 160 166 160 196" fill="#F5F6F4" opacity=".6"/>
				<rect x="17" y="166" width="142" height="30" fill="none" opacity=".6" stroke="#010101" stroke-miterlimit="10" stroke-width="2"/>
				<text transform="translate(31.522 186.74)" fill="#010101" font-family="'AvenirNextCondensed-DemiBold'" font-size="16.578">Coordination</text>
	<polyline points="221 69 221 183 159 183" fill="none" stroke="#010101" stroke-dasharray="5" stroke-miterlimit="10" stroke-width="2"/>
		<line x1="158" x2="222" y1="145" y2="145" fill="none" stroke="#010101" stroke-dasharray="5" stroke-miterlimit="10" stroke-width="2"/>
		<line x1="158" x2="220" y1="109" y2="109" fill="none" stroke="#010101" stroke-dasharray="5" stroke-miterlimit="10" stroke-width="2"/>
<circle cx="393.5" cy="58.5" r="8.5" fill="none" stroke="#010101" stroke-miterlimit="10" stroke-width="2"/>
</svg>
dination</text>
		</g>
	</g>
	<polyline fill="none" stroke="#010101" stroke-width="2" stroke-miterlimit="10" stroke-dasharray="5" points="221,69 221,183 
		159,183 	"/>
	
		<line fill="none" stroke="#010101" stroke-width="2" stroke-miterlimit="10" stroke-dasharray="5" x1="158" y1="145" x2="222" y2="145"/>
	
		<line fill="none" stroke="#010101" stroke-width="2" stroke-miterlimit="10" stroke-dasharray="5" x1="158" y1="109" x2="220" y2="109"/>
</g>
<circle fill="none" stroke="#010101" stroke-width="2" stroke-miterlimit="10" cx="393.5" cy="58.5" r="8.5"/>
</svg>
