<?xml version="1.0" encoding="UTF-8"?>
<svg enable-background="new 0 0 531 360" version="1.1" viewBox="0 0 531 360" xml:space="preserve" xmlns="http://www.w3.org/2000/svg">
				<polyline points="222 126 222 1 529 1 529 126" fill="#F5F6F4" opacity=".6"/>
				<line x1="229" x2="454" y1="1.5" y2="1.5" fill="none" stroke="#181919" stroke-width="3"/>
				<polyline points="529.5 87 529.5 126.5 221.5 126.5 221.5 1.5 229 1.5" fill="none" stroke="#181919" stroke-width="3"/>
			<text transform="translate(247.95 58.545)" fill="#010101" font-family="'AvenirNextCondensed-DemiBold'"><tspan x="0" y="0" font-size="55.223">Sales </tspan><tspan x="156.5" y="0" font-size="46.019">&</tspan><tspan x="-23.2" y="47.9" font-size="55.223">Project</tspan></text>
				<polyline points="140 227 140 172 295 172 295 227" fill="#F5F6F4" opacity=".6"/>
					<rect x="138.5" y="171.5" width="155" height="56" fill="none" opacity=".6" stroke="#010101" stroke-miterlimit="10" stroke-width="3"/>
					<text transform="translate(154.47 210.72)" fill="#010101" font-family="'AvenirNextCondensed-DemiBold'" font-size="30.516">Concept</text>
				<polyline points="5 292 5 239 295 239 295 292" fill="#F5F6F4" opacity=".6"/>
					<rect x="1.5" y="238.5" width="292" height="54" fill="none" opacity=".6" stroke="#010101" stroke-miterlimit="10" stroke-width="3"/>
					<text transform="translate(18.753 276.99)" fill="#010101" font-family="'AvenirNextCondensed-DemiBold'" font-size="30.516">Project planning</text>
				<polyline points="33 359 33 304 295 304 295 359" fill="#F5F6F4" opacity=".6"/>
					<rect x="31.5" y="304.5" width="262" height="54" fill="none" opacity=".6" stroke="#010101" stroke-miterlimit="10" stroke-width="3"/>
					<text transform="translate(58.974 343.25)" fill="#010101" font-family="'AvenirNextCondensed-DemiBold'" font-size="30.516">Coordination</text>
		<polyline points="406.5 126 406.5 334.5 294 334.5" fill="none" stroke="#010101" stroke-dasharray="9.2039" stroke-miterlimit="10" stroke-width="3"/>
			<line x1="292" x2="409" y1="266.5" y2="266.5" fill="none" stroke="#010101" stroke-dasharray="9" stroke-miterlimit="10" stroke-width="3"/>
			<line x1="292" x2="405" y1="199.5" y2="199.5" fill="none" stroke="#010101" stroke-dasharray="9" stroke-miterlimit="10" stroke-width="3"/>
</svg>
 transform="matrix(1 0 0 1 58.9741 343.251)" fill="#010101" font-family="'AvenirNextCondensed-DemiBold'" font-size="30.5164">Coordination</text>
			</g>
		</g>
		<polyline fill="none" stroke="#010101" stroke-width="3" stroke-miterlimit="10" stroke-dasharray="9.2039" points="406.5,126 
			406.5,334.5 294,334.5 		"/>
		
			<line fill="none" stroke="#010101" stroke-width="3" stroke-miterlimit="10" stroke-dasharray="9" x1="292" y1="266.5" x2="409" y2="266.5"/>
		
			<line fill="none" stroke="#010101" stroke-width="3" stroke-miterlimit="10" stroke-dasharray="9" x1="292" y1="199.5" x2="405" y2="199.5"/>
	</g>
</g>
</svg>
