<?xml version="1.0" encoding="UTF-8"?>
<svg enable-background="new 0 0 945.6 620.6" version="1.1" viewBox="0 0 945.6 620.6" xml:space="preserve" xmlns="http://www.w3.org/2000/svg">
		<line x1="394" x2="394" y1="96.6" y2="232.6" fill="none" stroke="#010101" stroke-dasharray="5" stroke-miterlimit="10" stroke-width="2"/>
	<path d="m394 96.6" fill="none" stroke="#010101" stroke-dasharray="5" stroke-miterlimit="10" stroke-width="2"/>
	<path d="m383 85.6" fill="none" stroke="#010101" stroke-dasharray="5" stroke-miterlimit="10" stroke-width="2"/>
		<line x1="287" x2="383" y1="85.6" y2="85.6" fill="none" stroke="#010101" stroke-dasharray="5" stroke-miterlimit="10" stroke-width="2"/>
		<line x1="112" x2="112" y1="283.6" y2="402.6" fill="none" stroke="#010101" stroke-dasharray="5" stroke-miterlimit="10" stroke-width="2"/>
		<line x1="310" x2="124" y1="270.6" y2="270.6" fill="none" stroke="#010101" stroke-dasharray="5" stroke-miterlimit="10" stroke-width="2"/>
	<polyline points="553 475.6 553 444.6 711 444.6" fill="none" stroke="#010101" stroke-dasharray="5" stroke-miterlimit="10" stroke-width="2"/>
	<polyline points="217 450.6 217 488.6 540 488.6" fill="none" stroke="#010101" stroke-dasharray="5" stroke-miterlimit="10" stroke-width="2"/>
				<polyline points="30 493.6 30 463.6 172 463.6 172 493.6" fill="#F5F6F4" opacity=".6"/>
					<rect x="29" y="463.6" width="142" height="30" fill="none" opacity=".6" stroke="#010101" stroke-miterlimit="10" stroke-width="2"/>
					<text transform="translate(46.365 484.35)" fill="#010101" font-family="'AvenirNextCondensed-DemiBold'" font-size="16.578">Video filming</text>
				<polyline points="30 530.6 30 500.6 172 500.6 172 530.6" fill="#F5F6F4" opacity=".6"/>
					<rect x="29" y="500.6" width="142" height="30" fill="none" opacity=".6" stroke="#010101" stroke-miterlimit="10" stroke-width="2"/>
					<text transform="translate(34.537 521.02)" fill="#010101" font-family="'AvenirNextCondensed-DemiBold'" font-size="16.578">Drone shooting</text>
				<polyline points="222 548.6 222 518.6 425 518.6 425 548.6" fill="#F5F6F4" opacity=".6"/>
					<rect x="221" y="518.6" width="203" height="30" fill="none" opacity=".6" stroke="#010101" stroke-miterlimit="10" stroke-width="2"/>
					<text transform="translate(222.47 539.68)" fill="#010101" font-family="'AvenirNextCondensed-DemiBold'" font-size="16.578">Corporate photography</text>
				<polyline points="222 585.6 222 555.6 487 555.6 487 585.6" fill="#F5F6F4" opacity=".6"/>
					<rect x="221" y="555.6" width="265" height="30" fill="none" opacity=".6" stroke="#010101" stroke-miterlimit="10" stroke-width="2"/>
					<text transform="translate(224.19 576.35)" fill="#010101" font-family="'AvenirNextCondensed-DemiBold'" font-size="16.578">Event broadcasting & highlight</text>
		<polyline points="196 447.6 196 570.6 218 570.6" fill="none" stroke="#010101" stroke-dasharray="5" stroke-miterlimit="10" stroke-width="2"/>
			<line x1="197" x2="221" y1="534.6" y2="534.6" fill="none" stroke="#010101" stroke-dasharray="5" stroke-miterlimit="10" stroke-width="2"/>
			<line x1="172" x2="196" y1="516.6" y2="516.6" fill="none" stroke="#010101" stroke-dasharray="5" stroke-miterlimit="10" stroke-width="2"/>
			<line x1="172" x2="196" y1="479.6" y2="479.6" fill="none" stroke="#010101" stroke-dasharray="5" stroke-miterlimit="10" stroke-width="2"/>
				<polyline points="71 448.6 71 403.6 238 403.6 238 448.6" fill="#F5F6F4" opacity=".6"/>
				<line x1="75" x2="158" y1="403.6" y2="403.6" fill="none" stroke="#181919" stroke-width="2"/>
				<polyline points="238 434.6 238 448.6 71 448.6 71 403.6 75 403.6" fill="none" stroke="#181919" stroke-width="2"/>
				<text transform="translate(76.9 438.35)" fill="#010101" font-family="'AvenirNextCondensed-DemiBold'" font-size="30">Filming</text>
				<polyline points="478 277.6 478 232.6 311 232.6 311 277.6" fill="#F5F6F4" opacity=".6"/>
				<line x1="474" x2="360" y1="232.6" y2="232.6" fill="none" stroke="#181919" stroke-width="2"/>
				<polyline points="474 232.6 478 232.6 478 277.6 311 277.6 311 263.6" fill="none" stroke="#181919" stroke-width="2"/>
				<text transform="translate(344.82 266.19)" fill="#010101" font-family="'AvenirNextCondensed-DemiBold'" font-size="30">Creative</text>
				<polyline points="435 334.6 435 304.6 638 304.6 638 334.6" fill="#F5F6F4" opacity=".6"/>
					<rect x="434" y="304.6" width="203" height="30" fill="none" opacity=".6" stroke="#010101" stroke-miterlimit="10" stroke-width="2"/>
					<text transform="translate(441.93 324.35)" fill="#010101" font-family="'AvenirNextCondensed-DemiBold'" font-size="16.578">Storyline development</text>
				<polyline points="435 370.6 435 340.6 577 340.6 577 370.6" fill="#F5F6F4" opacity=".6"/>
					<rect x="434" y="340.6" width="142" height="30" fill="none" opacity=".6" stroke="#010101" stroke-miterlimit="10" stroke-width="2"/>
					<text transform="translate(450.2 361.35)" fill="#010101" font-family="'AvenirNextCondensed-DemiBold'" font-size="16.578">Scriptwriting</text>
				<polyline points="435 405.6 435 375.6 577 375.6 577 405.6" fill="#F5F6F4" opacity=".6"/>
					<rect x="434" y="375.6" width="142" height="30" fill="none" opacity=".6" stroke="#010101" stroke-miterlimit="10" stroke-width="2"/>
					<text transform="translate(456.55 396.35)" fill="#010101" font-family="'AvenirNextCondensed-DemiBold'" font-size="16.578">Storyboard</text>
		<polyline points="372 278.6 372 392.6 438 392.6" fill="none" stroke="#010101" stroke-dasharray="5" stroke-miterlimit="10" stroke-width="2"/>
			<line x1="435" x2="371" y1="354.6" y2="354.6" fill="none" stroke="#010101" stroke-dasharray="5" stroke-miterlimit="10" stroke-width="2"/>
			<line x1="435" x2="373" y1="318.6" y2="318.6" fill="none" stroke="#010101" stroke-dasharray="5" stroke-miterlimit="10" stroke-width="2"/>
					<polyline points="612 572.6 612 542.6 754 542.6 754 572.6" fill="#F5F6F4" opacity=".6"/>
						<rect x="611" y="542.6" width="142" height="30" fill="none" opacity=".6" stroke="#010101" stroke-miterlimit="10" stroke-width="2"/>
						<text transform="translate(609.75 563.35)" fill="#010101" font-family="'AvenirNextCondensed-DemiBold'" font-size="16.578">2D & 3D animation</text>
					<polyline points="670 500.6 670 470.6 754 470.6 754 500.6" fill="#F5F6F4" opacity=".6"/>
						<rect x="670" y="470.6" width="84" height="29" fill="none" opacity=".6" stroke="#010101" stroke-miterlimit="10" stroke-width="2"/>
						<text transform="translate(682.93 491.35)" fill="#010101" font-family="'AvenirNextCondensed-DemiBold'" font-size="16.578">Editing</text>
					<polyline points="612 536.6 612 506.6 754 506.6 754 536.6" fill="#F5F6F4" opacity=".6"/>
						<rect x="611" y="506.6" width="142" height="30" fill="none" opacity=".6" stroke="#010101" stroke-miterlimit="10" stroke-width="2"/>
						<text transform="translate(617.1 527.35)" fill="#010101" font-family="'AvenirNextCondensed-DemiBold'" font-size="16.578">Graphics design</text>
					<polyline points="803 583.6 803 553.6 945 553.6 945 583.6" fill="#F5F6F4" opacity=".6"/>
						<rect x="802" y="553.6" width="142" height="30" fill="none" opacity=".6" stroke="#010101" stroke-miterlimit="10" stroke-width="2"/>
						<text transform="translate(812.08 574.35)" fill="#010101" font-family="'AvenirNextCondensed-DemiBold'" font-size="16.578">Color-grading</text>
					<polyline points="803 619.6 803 589.6 945 589.6 945 619.6" fill="#F5F6F4" opacity=".6"/>
						<rect x="802" y="589.6" width="142" height="30" fill="none" opacity=".6" stroke="#010101" stroke-miterlimit="10" stroke-width="2"/>
						<text transform="translate(825.88 610.35)" fill="#010101" font-family="'AvenirNextCondensed-DemiBold'" font-size="16.578">Voice-overs</text>
			<polyline points="778 453.6 778 607.6 802 607.6" fill="none" stroke="#010101" stroke-dasharray="5" stroke-miterlimit="10" stroke-width="2"/>
				<line x1="753" x2="777" y1="485.6" y2="485.6" fill="none" stroke="#010101" stroke-dasharray="5" stroke-miterlimit="10" stroke-width="2"/>
				<line x1="753" x2="777" y1="521.6" y2="521.6" fill="none" stroke="#010101" stroke-dasharray="5" stroke-miterlimit="10" stroke-width="2"/>
				<line x1="753" x2="777" y1="557.6" y2="557.6" fill="none" stroke="#010101" stroke-dasharray="5" stroke-miterlimit="10" stroke-width="2"/>
				<line x1="778" x2="802" y1="570.6" y2="570.6" fill="none" stroke="#010101" stroke-dasharray="5" stroke-miterlimit="10" stroke-width="2"/>
				<polyline points="939 452.6 939 376.6 713 376.6 713 452.6" fill="#F5F6F4" opacity=".6"/>
				<line x1="934" x2="782" y1="376.6" y2="376.6" fill="none" stroke="#181919" stroke-width="2"/>
				<polyline points="713 428.6 713 452.6 939 452.6 939 376.6 934 376.6" fill="none" stroke="#181919" stroke-width="2"/>
				<text transform="translate(769.66 412.35)" fill="#010101" font-family="'AvenirNextCondensed-DemiBold'" font-size="30"><tspan x="0" y="0">Post</tspan><tspan x="0" y="26">production</tspan></text>
			<line x1="832" x2="856" y1="403.1" y2="403.1" fill="none" stroke="#181919" stroke-width="3"/>
				<polyline points="120 97.6 120 29.6 287 29.6 287 97.6" fill="#F5F6F4" opacity=".6"/>
				<line x1="124" x2="246" y1="29.6" y2="29.6" fill="none" stroke="#181919" stroke-width="2"/>
				<polyline points="287 76.6 287 97.6 120 97.6 120 29.6 124 29.6" fill="none" stroke="#181919" stroke-width="2"/>
			<text transform="translate(134.19 60.682)" fill="#010101" font-family="'AvenirNextCondensed-DemiBold'"><tspan x="0" y="0" font-size="30">Sales </tspan><tspan x="85" y="0" font-size="25">&</tspan><tspan x="-12.6" y="26" font-size="30">Project</tspan></text>
				<polyline points="76 152.6 76 122.6 160 122.6 160 152.6" fill="#F5F6F4" opacity=".6"/>
					<rect x="75" y="122.6" width="84" height="30" fill="none" opacity=".6" stroke="#010101" stroke-miterlimit="10" stroke-width="2"/>
					<text transform="translate(83.4 143.35)" fill="#010101" font-family="'AvenirNextCondensed-DemiBold'" font-size="16.578">Concept</text>
				<polyline points="2 188.6 2 158.6 160 158.6 160 188.6" fill="#F5F6F4" opacity=".6"/>
					<rect x="1" y="158.6" width="158" height="30" fill="none" opacity=".6" stroke="#010101" stroke-miterlimit="10" stroke-width="2"/>
					<text transform="translate(9.6714 179.35)" fill="#010101" font-family="'AvenirNextCondensed-DemiBold'" font-size="16.578">Project planning</text>
				<polyline points="18 224.6 18 194.6 160 194.6 160 224.6" fill="#F5F6F4" opacity=".6"/>
					<rect x="17" y="194.6" width="142" height="30" fill="none" opacity=".6" stroke="#010101" stroke-miterlimit="10" stroke-width="2"/>
					<text transform="translate(31.522 215.35)" fill="#010101" font-family="'AvenirNextCondensed-DemiBold'" font-size="16.578">Coordination</text>
		<polyline points="221 97.6 221 211.6 159 211.6" fill="none" stroke="#010101" stroke-dasharray="5" stroke-miterlimit="10" stroke-width="2"/>
			<line x1="158" x2="222" y1="173.6" y2="173.6" fill="none" stroke="#010101" stroke-dasharray="5" stroke-miterlimit="10" stroke-width="2"/>
			<line x1="158" x2="220" y1="137.6" y2="137.6" fill="none" stroke="#010101" stroke-dasharray="5" stroke-miterlimit="10" stroke-width="2"/>
	<path d="m273.6 404.3c-1.5 2.5-3.8 4.3-5.9 6.3-7.5 7-15.9 12.8-25.4 16.8-7.3 3-15 4.6-22.9 4.1-7.1-0.5-13.7-2.5-20.1-5.6-8.9-4.3-16.6-10.1-23.7-16.9l-3-3c-1.6-1.6-1.6-3.7 0-5.3 7.4-7.7 15.6-14.2 25.1-19.1 8-4.1 16.4-6.6 25.4-6.4 8 0.1 15.5 2.3 22.7 5.7 8.8 4.2 16.6 10 23.6 16.8 0.7 0.7 1.5 1.4 2.2 2.2s1.3 1.6 2 2.5c0.4 0.6 0.4 1.1 0 1.9zm-64.5 16.5c-6.1-4.3-9.8-9.9-9.9-17.5 0-7.6 3.8-13.3 9.9-17.6-10.6 3.6-19.4 9.9-27.6 17.6 8.1 7.6 17 14 27.6 17.5zm26.9 0c10.6-3.6 19.4-9.9 27.5-17.5-5.2-6.1-23.4-17.7-27.5-17.5 12.9 8.3 13.2 26.2 0 35zm-23.7-16.5c4.5 0 8.2-3.6 8.2-8.1s-3.6-8.2-8.2-8.2c-4.5 0-8.1 3.6-8.2 8.1 0 4.5 3.7 8.2 8.2 8.2z" clip-rule="evenodd" display="none" fill-rule="evenodd"/>
	<g clip-rule="evenodd" display="none" fill-rule="evenodd">
		<path d="m319.7 209.3c-1.4 0-2.8-0.4-4.1-0.1-1.8 0.4-3.1-0.1-4.5-1-5.7-3.6-8.2-10.7-6.4-18.4 0.4-1.6 0.8-3.3 1.6-4.7 1.1-2 0.9-3.5-0.2-5.4-1.2-2.1-1.9-4.5-2.9-6.9 1.6-0.4 3-0.8 4.3-1.1 1 2.3 1.9 4.6 2.8 6.8 3.1-1.9 3.1-1.9 2.1-4.9-0.6-1.9-1.2-3.8-1.8-6 1.5-0.4 2.8-0.7 4.3-1.1 0.8 2.6 1.6 5.1 2.5 7.8 0.7-0.2 1.3-0.3 2.2-0.6-0.6-2-1.1-3.9-1.7-5.9 1.1-0.6 2.3-1.2 3.9-2 0.8 2.4 1.6 4.7 2.4 7.1 1.5 0 3-0.1 4.8-0.1-0.1 2.7-0.2 5.3-0.2 7.8-11.9 2-16.3 6.8-15.5 16.7 0.4 5.1 1.9 8.4 4 8.4-0.3-1.3-1-2.7-0.9-4 0.1-1.9 0.6-3.7 1.2-5.5 0.5-1.4 1.4-2.7 2-4.1 2.2-5.3 6.5-7.4 12-8 0.2 2.1 0.4 3.9-1.5 5.6-2.8 2.4-3.1 6-2.8 9.5 0.1 1.2 0.4 2.5 0.6 3.7 0.6 3 2 5.2 5.1 6.5 13.4 5.9 19.5 16.5 19.3 31-0.1 4.3 0.1 8.5 0 12.8-0.2 7.1-2.9 10.5-9.9 11.2-12.6 1.4-24.4-1-34.7-8.9-7.7-6-11.8-13.8-9.8-23.8 2.2-11.3 9.5-18 20.1-21.6 0.6-0.2 1.3-0.5 1.9-0.7-0.2 0.1-0.2 0-0.2-0.1z" display="inline"/>
		<path d="m302.3 191.5c-0.1 7.6 1.1 14.7 8.5 19-9.9 5.6-16.4 13.2-15.6 25.6-3.8-4.1-5.6-8.5-5.7-13.5-0.2-7.4 2.2-13.8 7.8-18.9 0.5-0.4 0.8-1.4 0.7-2.1-0.3-3 0.2-5.9 1.9-8.4 0.5-0.7 1.2-1.2 1.8-1.8 0.2 0.1 0.4 0.1 0.6 0.1z" display="inline"/>
		<path d="m337.3 210.1c-2-1.1-4-2.2-5.9-3.3-1.2-0.7-2.2-5-1.5-6.2 0.8-1.4 1.8-0.7 2.7-0.1 2.8 1.6 4.8 5.7 4.7 9.6z" display="inline"/>
	</g>
	<g clip-rule="evenodd" display="none" fill-rule="evenodd">
		<path d="m735 347.4c0.7 3.9-0.8 6-4.4 6.9-1.9 0.5-3.7 0.9-5.6 1.5-0.6 0.2-1.3 0.8-1.6 1.4-1 2.6-1.9 5.2-2.8 7.8-0.5 1.4 0 2.4 1.4 2.6 7.6 1.4 13.5 7.8 14.8 16.3 0.3 1.9 0.4 3.9 0.5 5.9 0.1 1.5 0.7 2.3 1.9 2.3s2-0.9 1.8-2.4c-0.2-2.9-0.5-5.9-0.8-8.9 0.7-0.4 1.5-0.9 2.4-1.5 0.5 0.6 1 1.3 1.6 1.8 2.4 2.2 4.8 2.5 7.4 0.6 1.7-1.2 3.2-2.7 4.5-4.3 1.9-2.2 3.5-4.5 5.4-7v1.5c0 3.1-0.1 6.2-0.1 9.3 0 3.8-1.5 7-4.1 9.7-1.3 1.3-2.6 2.7-3.7 4.1-1.2 1.5-1.6 3.2-1.4 5.3 1.3 9.6 2.5 19.3 3.7 28.9 0.1 0.9 0.2 1.7 0.3 2.7h-44c0.2-2.5 0.4-5 0.7-7.5 0.8-6.6 1.7-13.1 2.4-19.7 0.5-4.1 0.7-8.3-0.8-12.2-0.8-2.1-2-4.2-3.4-6-2-2.8-4.3-5.3-6.6-8-3.1-3.6-3.8-8.1-1.6-12.4 0.9-1.8 1.9-3.6 3-5.3 1.8-2.9 3.7-5.7 5.6-8.6 0.8-1.1 1.7-2.2 2.6-3.1 1.3-1.3 3-1.9 4.9-1.9h14.8c0.6 0.1 0.8 0.2 1.2 0.2z" display="inline"/>
		<path d="m739.1 377.6c-1.4-2.3-2.6-4.3-3.8-6.3 4.9-5.9 8.8-12.7 13-19.2 0.6-0.9 1.4-1.2 2.4-1.1 1.9 0.1 3.2 1.2 4.1 2.8 0.6 1.1 0.3 2.2-0.4 3.2-4.2 6-8.4 11.9-12.6 17.8-0.9 1-1.9 1.8-2.7 2.8z" display="inline"/>
		<path d="m724.8 364.4c0.5-1.5 1.1-3.1 1.7-4.6 0.1-0.3 0.5-0.6 0.8-0.7 1.3-0.4 2.7-0.7 4.1-1 5-1.3 7.5-4.4 7.3-9.7 0-0.8-0.1-1.7-0.3-2.5-0.3-0.9 0.1-1.6 0.7-2.1 1.2-1 2.7-1.4 4.3-0.9 1.5 0.5 2.9 1.6 3.2 3.3 0.2 0.7 0 1.8-0.4 2.4-3.9 6.1-7.9 12.1-11.8 18.1-0.2 0.3-0.4 0.6-0.7 0.8-1.1 1.2-1.3 1.1-2.7 0.3-1.9-1.2-4-2.2-6.2-3.4z" display="inline"/>
		<path d="m761.6 361.8c-0.3 1-0.5 2-1 2.9-2.6 4.7-5.7 9.2-9.6 13-0.3 0.3-0.5 0.5-0.8 0.7-0.7 0.5-1.4 1.3-2.5 0.7-1.2-0.6-2-1.6-2.1-3 0-0.3 0.2-0.7 0.4-1 3.4-4.9 6.8-9.7 10.2-14.6 0.9-1.3 2.8-1.6 4.2-0.8 0.7 0.5 1.2 1.1 1.2 2.1z" display="inline"/>
		<path d="m721.6 343.4c1.6-2 3-4.1 4.6-6 1.2-1.3 2.9-1.8 4.6-1.2 1.3 0.4 2.5 1 3.6 1.9 1.7 1.4 1.7 3.4 0.4 5.2-0.1 0.2-0.5 0.3-0.7 0.3h-12c-0.1 0-0.2 0-0.5-0.2z" display="inline"/>
	</g>
	<g clip-rule="evenodd" display="none" fill-rule="evenodd">
		<path d="m254.2 39.3c0-1 0.6-2 0.7-3 0.2-1.7 0.4-3.5 0.3-5.3-0.4-4.7-2.2-9.7-1.3-14.1 1.7-9.1 8.1-14.6 17.1-16.4 10.4-2.1 18.4 2.3 24.1 10.7 5.2 7.6 5.9 16.2 4.9 25.1-2.3 21.8-16.5 36.7-30.6 51.4-4.2 4.4-9.5 2.8-12.2-2.8-2.9-6-3-12.2-0.4-18.3 1.9-4.5 2-8.5-1.8-10.5-0.4-6.3-0.7-11.6-0.8-16.8zm9.1 18.9c2.4-0.5 5.7-1.6 9.2-1.8 4.9-0.3 5.4 3.6 5.7 7.4 10.7-7.8 18.5-30.1 14.9-42.4-2.5-8.6-10-14.5-18-14.2-6.9 0.2-13.1 5.6-13.8 12-0.7 6.7 4.1 13.8 10.8 15.1 3.3 0.7 4.6 2.2 4.1 5.2-0.5 3.2-2.6 4.9-5.8 4.4-3-0.5-5.9-1.5-8.1-2.2 0.3 5.4 0.7 10.9 1 16.5z" display="inline"/>
		<path d="m282.5 53.5c6.5-6.7 8.3-14.6 6.8-23.1-0.9-5.2-2.7-10.3-4.7-15.2-2.9-7-7.1-8.1-14.5-4.6 1.2 2.8 2.4 5.7 3.7 8.9-2.6 0.2-4.6 0-6.3 0.7-1.4 0.5-2.5 2-3.7 3.1 1.3 1 2.5 2.1 3.9 3 0.5 0.3 1.3 0.1 1.9 0.1 9.1 0.6 14.3 5.6 14.4 14.8 0 4-1 7.9-1.5 12.3z" display="inline"/>
	</g>
	<circle cx="393.5" cy="87.1" r="8.5" fill="none" stroke="#010101" stroke-miterlimit="10" stroke-width="2"/>
	<circle cx="114.5" cy="273.1" r="8.5" fill="none" stroke="#010101" stroke-miterlimit="10" stroke-width="2"/>
	<circle cx="553" cy="488.6" r="8.5" fill="none" stroke="#010101" stroke-miterlimit="10" stroke-width="2"/>
</svg>
1-3.6-3.8-8.1-1.6-12.4c0.9-1.8,1.9-3.6,3-5.3c1.8-2.9,3.7-5.7,5.6-8.6c0.8-1.1,1.7-2.2,2.6-3.1
			c1.3-1.3,3-1.9,4.9-1.9c4.9,0,9.9,0,14.8,0C734.4,347.3,734.6,347.4,735,347.4z"/>
		<path display="inline" fill-rule="evenodd" clip-rule="evenodd" d="M739.1,377.6c-1.4-2.3-2.6-4.3-3.8-6.3
			c4.9-5.9,8.8-12.7,13-19.2c0.6-0.9,1.4-1.2,2.4-1.1c1.9,0.1,3.2,1.2,4.1,2.8c0.6,1.1,0.3,2.2-0.4,3.2c-4.2,6-8.4,11.9-12.6,17.8
			C740.9,375.8,739.9,376.6,739.1,377.6z"/>
		<path display="inline" fill-rule="evenodd" clip-rule="evenodd" d="M724.8,364.4c0.5-1.5,1.1-3.1,1.7-4.6c0.1-0.3,0.5-0.6,0.8-0.7
			c1.3-0.4,2.7-0.7,4.1-1c5-1.3,7.5-4.4,7.3-9.7c0-0.8-0.1-1.7-0.3-2.5c-0.3-0.9,0.1-1.6,0.7-2.1c1.2-1,2.7-1.4,4.3-0.9
			c1.5,0.5,2.9,1.6,3.2,3.3c0.2,0.7,0,1.8-0.4,2.4c-3.9,6.1-7.9,12.1-11.8,18.1c-0.2,0.3-0.4,0.6-0.7,0.8c-1.1,1.2-1.3,1.1-2.7,0.3
			C729.1,366.6,727,365.6,724.8,364.4z"/>
		<path display="inline" fill-rule="evenodd" clip-rule="evenodd" d="M761.6,361.8c-0.3,1-0.5,2-1,2.9c-2.6,4.7-5.7,9.2-9.6,13
			c-0.3,0.3-0.5,0.5-0.8,0.7c-0.7,0.5-1.4,1.3-2.5,0.7c-1.2-0.6-2-1.6-2.1-3c0-0.3,0.2-0.7,0.4-1c3.4-4.9,6.8-9.7,10.2-14.6
			c0.9-1.3,2.8-1.6,4.2-0.8C761.1,360.2,761.6,360.8,761.6,361.8z"/>
		<path display="inline" fill-rule="evenodd" clip-rule="evenodd" d="M721.6,343.4c1.6-2,3-4.1,4.6-6c1.2-1.3,2.9-1.8,4.6-1.2
			c1.3,0.4,2.5,1,3.6,1.9c1.7,1.4,1.7,3.4,0.4,5.2c-0.1,0.2-0.5,0.3-0.7,0.3c-4,0-8,0-12,0C722,343.6,721.9,343.6,721.6,343.4z"/>
	</g>
	<g display="none">
		<path display="inline" fill-rule="evenodd" clip-rule="evenodd" d="M254.2,39.3c0-1,0.6-2,0.7-3c0.2-1.7,0.4-3.5,0.3-5.3
			c-0.4-4.7-2.2-9.7-1.3-14.1c1.7-9.1,8.1-14.6,17.1-16.4c10.4-2.1,18.4,2.3,24.1,10.7c5.2,7.6,5.9,16.2,4.9,25.1
			c-2.3,21.8-16.5,36.7-30.6,51.4c-4.2,4.4-9.5,2.8-12.2-2.8c-2.9-6-3-12.2-0.4-18.3c1.9-4.5,2-8.5-1.8-10.5
			C254.6,49.8,254.3,44.5,254.2,39.3z M263.3,58.2c2.4-0.5,5.7-1.6,9.2-1.8c4.9-0.3,5.4,3.6,5.7,7.4c10.7-7.8,18.5-30.1,14.9-42.4
			c-2.5-8.6-10-14.5-18-14.2c-6.9,0.2-13.1,5.6-13.8,12c-0.7,6.7,4.1,13.8,10.8,15.1c3.3,0.7,4.6,2.2,4.1,5.2
			c-0.5,3.2-2.6,4.9-5.8,4.4c-3-0.5-5.9-1.5-8.1-2.2C262.6,47.1,263,52.6,263.3,58.2z"/>
		<path display="inline" fill-rule="evenodd" clip-rule="evenodd" d="M282.5,53.5c6.5-6.7,8.3-14.6,6.8-23.1
			c-0.9-5.2-2.7-10.3-4.7-15.2c-2.9-7-7.1-8.1-14.5-4.6c1.2,2.8,2.4,5.7,3.7,8.9c-2.6,0.2-4.6,0-6.3,0.7c-1.4,0.5-2.5,2-3.7,3.1
			c1.3,1,2.5,2.1,3.9,3c0.5,0.3,1.3,0.1,1.9,0.1c9.1,0.6,14.3,5.6,14.4,14.8C284,45.2,283,49.1,282.5,53.5z"/>
	</g>
	<circle fill="none" stroke="#010101" stroke-width="2" stroke-miterlimit="10" cx="393.5" cy="87.1" r="8.5"/>
	<circle fill="none" stroke="#010101" stroke-width="2" stroke-miterlimit="10" cx="114.5" cy="273.1" r="8.5"/>
	<circle fill="none" stroke="#010101" stroke-width="2" stroke-miterlimit="10" cx="553" cy="488.6" r="8.5"/>
</g>
</svg>
