<?xml version="1.0" encoding="utf-8"?>
<!-- Generator: Adobe Illustrator 18.1.1, SVG Export Plug-In . SVG Version: 6.00 Build 0)  -->
<svg version="1.1" id="Layer_1" xmlns="http://www.w3.org/2000/svg" xmlns:xlink="http://www.w3.org/1999/xlink" x="0px" y="0px"
	 viewBox="0 0 463.6 60.8" enable-background="new 0 0 463.6 60.8" xml:space="preserve">
<g>
	<g>
		<g>
			<g>
				<path fill="#DCDBDB" d="M386.7,58.3c-2.3,1.4-5.3,2.1-8.8,2.1c-3.2,0-6.1-0.8-8.7-2.3c-2.6-1.5-4.8-3.6-6.6-6.2
					c-1.8-2.7-3.2-5.8-4.2-9.5c-1-3.7-1.5-7.7-1.5-12c0-4.4,0.5-8.4,1.5-12c1-3.7,2.4-6.9,4.2-9.5c1.8-2.7,4-4.7,6.6-6.2
					c2.6-1.5,5.5-2.2,8.7-2.2c3.3,0,6.2,0.6,8.6,1.8c2.5,1.2,4.5,2.9,6,5.2l-5.6,6.8c-2.2-3.2-5.1-4.8-8.5-4.8
					c-1.9,0-3.6,0.6-5.1,1.7c-1.5,1.1-2.7,2.6-3.6,4.5c-1,1.9-1.7,4.1-2.2,6.6c-0.5,2.6-0.7,5.3-0.7,8.2c0,2.8,0.2,5.5,0.7,8.1
					c0.5,2.6,1.2,4.8,2.2,6.7c1,1.9,2.2,3.4,3.7,4.5c1.5,1.1,3.2,1.7,5.2,1.7c1.9,0,3.5-0.5,4.9-1.5c1.4-1,2.5-2.1,3.4-3.5l5.6,6.5
					C390.9,55.1,389,56.9,386.7,58.3z"/>
			</g>
		</g>
		<g>
			<g>
				<g>
					<path fill="#010101" d="M377.9,60.8c-3.3,0-6.3-0.8-9-2.3c-2.7-1.5-4.9-3.7-6.8-6.4c-1.8-2.7-3.2-5.9-4.3-9.6
						c-1-3.7-1.5-7.8-1.5-12.1h0.9c0,4.3,0.5,8.3,1.5,11.9c1,3.6,2.4,6.7,4.1,9.3c1.8,2.6,3.9,4.7,6.5,6.1c2.5,1.5,5.4,2.2,8.5,2.2
						V60.8z M386.9,58.7l-0.4-0.7c2.2-1.3,4-3,5.4-5.1l-5-5.8c-0.9,1.2-2,2.3-3.2,3.2c-1.4,1-3.2,1.5-5.1,1.5
						c-2.1,0-3.9-0.6-5.5-1.7c-1.5-1.1-2.8-2.7-3.8-4.6c-1-1.9-1.7-4.2-2.2-6.8c-0.5-2.6-0.7-5.3-0.7-8.2c0-2.9,0.2-5.7,0.7-8.3
						l0.8,0.2c-0.5,2.5-0.7,5.2-0.7,8.1c0,2.8,0.2,5.5,0.7,8c0.5,2.5,1.2,4.7,2.1,6.5c0.9,1.8,2.1,3.3,3.5,4.3
						c1.4,1,3.1,1.6,4.9,1.6c1.8,0,3.3-0.5,4.6-1.4c1.3-0.9,2.4-2.1,3.3-3.4l0.3-0.5l6.1,7.2l-0.2,0.3
						C391.3,55.4,389.3,57.3,386.9,58.7z M386.9,14.9l-0.3-0.5c-2.1-3.1-4.8-4.6-8.2-4.6V9c3.5,0,6.3,1.5,8.6,4.5l5-6.1
						c-1.5-2.1-3.4-3.7-5.7-4.8c-2.4-1.2-5.2-1.8-8.4-1.8c-3.1,0-5.9,0.7-8.5,2.2L369,2.3c2.7-1.5,5.6-2.3,8.9-2.3
						c3.3,0,6.3,0.6,8.8,1.9c2.5,1.2,4.6,3,6.2,5.3l0.2,0.3L386.9,14.9z"/>
				</g>
			</g>
		</g>
		<g>
			<g>
				<path fill="#414141" d="M378,56.8c-0.2,0-0.4,0-0.6,0l0-0.9c0.9,0,1.7,0,2.5-0.1l0.1,0.9C379.4,56.7,378.7,56.8,378,56.8z
					 M375.6,56.6c-0.8-0.1-1.7-0.3-2.5-0.6l-0.1,0l0.3-0.8l0.1,0c0.8,0.3,1.6,0.5,2.4,0.6L375.6,56.6z M381.8,56.2l-0.3-0.8
					c0.8-0.2,1.6-0.6,2.3-1l0.4,0.8C383.5,55.6,382.7,55.9,381.8,56.2z M371.4,55.1c-0.7-0.4-1.4-1-2.1-1.6l0.6-0.6
					c0.7,0.6,1.3,1.1,2,1.5L371.4,55.1z M385.8,54.1l-0.5-0.7c0.8-0.7,1.4-1.3,1.8-1.7l0.7,0.6C387.3,52.7,386.7,53.4,385.8,54.1z
					 M368.1,52.2c-0.6-0.6-1.1-1.3-1.6-2.1l0.7-0.5c0.5,0.7,1,1.4,1.6,2L368.1,52.2z M365.5,48.7c-0.4-0.7-0.9-1.5-1.3-2.3L365,46
					c0.4,0.8,0.8,1.5,1.2,2.2L365.5,48.7z M363.5,44.8c-0.3-0.8-0.7-1.6-1-2.4l0.8-0.3c0.3,0.8,0.6,1.6,0.9,2.4L363.5,44.8z
					 M362,40.7c-0.2-0.8-0.5-1.7-0.7-2.5l0.8-0.2c0.2,0.8,0.4,1.7,0.6,2.5L362,40.7z M361,36.4c-0.2-0.9-0.3-1.7-0.4-2.6l0.9-0.1
					c0.1,0.8,0.2,1.7,0.3,2.5L361,36.4z M360.5,32.1c0-0.5,0-1,0-1.6c0-0.4,0-0.7,0-1.1l0.9,0c0,0.3,0,0.7,0,1c0,0.5,0,1,0,1.5
					L360.5,32.1z M361.5,27.8l-0.9-0.1c0-0.4,0.1-0.9,0.1-1.3c0.1-0.4,0.1-0.9,0.2-1.3l0.9,0.1c-0.1,0.4-0.1,0.9-0.2,1.3
					C361.5,26.9,361.5,27.3,361.5,27.8z M362.1,23.5l-0.9-0.1c0.1-0.9,0.3-1.7,0.5-2.6l0.8,0.2C362.4,21.8,362.2,22.6,362.1,23.5z
					 M362.9,19.3l-0.8-0.2c0.2-0.9,0.5-1.7,0.7-2.5l0.8,0.3C363.4,17.6,363.1,18.4,362.9,19.3z M364.2,15.3l-0.8-0.3
					c0.4-0.8,0.7-1.6,1.2-2.4l0.8,0.4C365,13.7,364.6,14.4,364.2,15.3z M366.3,11.6l-0.7-0.5c0.5-0.7,1.1-1.4,1.7-2l0.6,0.6
					C367.3,10.2,366.8,10.9,366.3,11.6z M369.2,8.5l-0.5-0.7c0.7-0.5,1.4-1,2.2-1.5l0.4,0.7C370.5,7.5,369.8,8,369.2,8.5z
					 M387.3,7.6c0,0-0.9-0.5-2.3-1.1l0.3-0.8c1.5,0.6,2.4,1.1,2.4,1.2L387.3,7.6z M372.7,6.3l-0.4-0.8c0.8-0.4,1.7-0.7,2.5-0.9
					l0.2,0.8C374.3,5.7,373.5,6,372.7,6.3z M383.4,6c-0.8-0.3-1.7-0.5-2.5-0.6l0.1-0.9c0.9,0.1,1.7,0.3,2.6,0.6L383.4,6z M376.8,5.2
					l-0.1-0.9c0.9-0.1,1.8-0.1,2.7-0.1l-0.1,0.9C378.5,5.1,377.6,5.2,376.8,5.2z"/>
			</g>
		</g>
	</g>
	<g>
		<g>
			<g>
				<path fill="#DCDBDB" d="M213.7,58.9V1.9h25.6v8.5H223v15.2h15.1v7.9H223v16.8h17.1v8.6H213.7z"/>
			</g>
		</g>
		<g>
			<g>
				<g>
					<path fill="#010101" d="M240.5,59.4h-5.1v-0.9h4.2v-7.8h-9.9v-0.9h10.8V59.4z M223,59.4h-9.7v-5.1h0.9v4.2h8.8V59.4z
						 M223.4,48.1h-0.9V33h15.1v-7.5H223v-0.9h15.5v9.2h-15.1V48.1z M214.2,46.3h-0.9V5.9h0.9V46.3z M223.4,17h-0.9v-7h16.3V2.3
						h-13.8V1.4h14.7v9.4h-16.3V17z"/>
				</g>
			</g>
		</g>
		<g>
			<g>
				<path fill="#414141" d="M236.5,56.3h-3v-1h3V56.3z M232.5,56.3h-3v-1h3V56.3z M228.5,56.3h-3v-1h3V56.3z M223.2,56.6h-1.8v-0.9
					h1.8V56.6z M219.4,56.3h-1.7v-1.7h0.9v0.9h0.9V56.3z M218.5,53.3h-1v-3h1V53.3z M218.5,49.3h-1v-3h1V49.3z M218.5,45.3h-1v-3h1
					V45.3z M218.5,41.3h-1v-3h1V41.3z M218.5,36.3h-1v-3h1V36.3z M218.5,31.3h-1v-2h1V31.3z M218.5,27h-0.9v-1.8h0.9V27z
					 M218.5,23.3h-1v-3h1V23.3z M218.5,18.3h-1v-3h1V18.3z M218.5,14.1h-0.9v-1.8h0.9V14.1z M218.5,10.3h-1v-2h1V10.3z M236.7,6.1
					h-0.9V5.3h0.9V6.1z M233.5,7.3h-2v-1h2V7.3z M229.2,6.9h-1.9V6h1.9V6.9z M225,6.7h-1.8V5.8h1.8V6.7z M221.5,7.3h-3v-1h3V7.3z"/>
			</g>
		</g>
		<g>
			<g>
				<path fill="#414141" d="M235,29.5h-0.9v-0.9h0.9V29.5z M232.5,30.3h-3v-1h3V30.3z M228.5,30.3h-3v-1h3V30.3z M223.2,29.8h-1.8
					v-0.9h1.8V29.8z"/>
			</g>
		</g>
	</g>
	<g>
		<g>
			<g>
				<path fill="#DCDBDB" d="M400.6,58.9V1.9h25.6v8.5h-16.3v15.2h15.1v7.9h-15.1v16.8h17.1v8.6H400.6z"/>
			</g>
		</g>
		<g>
			<g>
				<g>
					<path fill="#010101" d="M427.3,59.4h-5.1v-0.9h4.2v-7.8h-9.9v-0.9h10.8V59.4z M409.8,59.4h-9.7v-5.1h0.9v4.2h8.8V59.4z
						 M410.3,48.1h-0.9V33h15.1v-7.5h-14.6v-0.9h15.5v9.2h-15.1V48.1z M401,46.3h-0.9V5.9h0.9V46.3z M410.3,17h-0.9v-7h16.3V2.3
						h-13.8V1.4h14.7v9.4h-16.3V17z"/>
				</g>
			</g>
		</g>
		<g>
			<g>
				<path fill="#414141" d="M423.5,56.3h-3v-1h3V56.3z M418.5,56.3h-3v-1h3V56.3z M414.4,56.6h-1.8v-0.9h1.8V56.6z M410.3,56.5h-1.9
					v-1h1.9V56.5z M406.3,56.3h-1.7v-1.7h0.9v0.9h0.9V56.3z M405.5,53.3h-1v-3h1V53.3z M405.5,49.3h-1v-3h1V49.3z M405.5,45.3h-1v-3
					h1V45.3z M405.5,41.3h-1v-3h1V41.3z M405.5,36.3h-1v-3h1V36.3z M405.5,31.3h-1v-2h1V31.3z M405.2,27h-0.9v-1.8h0.9V27z
					 M405.5,23.3h-1v-3h1V23.3z M405.5,18.3h-1v-3h1V18.3z M405.2,14.1h-0.9v-1.8h0.9V14.1z M405.5,10.3h-1v-2h1V10.3z M423.6,6.1
					h-0.9V5.3h0.9V6.1z M420.5,7.3h-3v-1h3V7.3z M415.5,7.3h-2v-1h2V7.3z M412.2,6.9h-1.9V6h1.9V6.9z M408.5,7.3h-3v-1h3V7.3z"/>
			</g>
		</g>
		<g>
			<g>
				<path fill="#414141" d="M421.8,29.5H421v-0.9h0.9V29.5z M418.5,30.3h-3v-1h3V30.3z M414.4,29.8h-1.8v-0.9h1.8V29.8z M410.3,29.8
					h-1.9v-1h1.9V29.8z"/>
			</g>
		</g>
	</g>
	<g>
		<g>
			<g>
				<path fill="#DCDBDB" d="M336.4,59V1.9h9.7V59H336.4z"/>
			</g>
		</g>
		<g>
			<g>
				<g>
					<path fill="#010101" d="M346.5,59.4h-10.5V24.5h0.9v34h8.8v-10h0.9V59.4z M346.5,31.9h-0.9V2.3h-8.8v12.2h-0.9V1.5h10.5V31.9z"
						/>
				</g>
			</g>
		</g>
		<g>
			<g>
				<path fill="#414141" d="M341.5,56.3h-1v-3h1V56.3z M341.5,52.3h-1v-2h1V52.3z M341.7,47.9h-1V46h1V47.9z M341.5,44.3h-1v-3h1
					V44.3z M341.5,40.3h-1v-3h1V40.3z M341.5,35.3h-1v-3h1V35.3z M341.5,30.3h-1v-2h1V30.3z M341.5,27.3h-1v-3h1V27.3z M341.5,22.3
					h-1v-3h1V22.3z M341.7,17.4h-1v-1.9h1V17.4z M341.4,13.2h-0.9v-1.8h0.9V13.2z M341.5,10.3h-1v-3h1V10.3z"/>
			</g>
		</g>
	</g>
	<g>
		<g>
			<g>
				<path fill="#DCDBDB" d="M41.1,30.3c0,4.5-0.5,8.6-1.4,12.3c-0.9,3.7-2.3,6.8-4.1,9.5c-1.8,2.6-3.9,4.7-6.5,6.1
					c-2.6,1.5-5.4,2.2-8.6,2.2c-3.2,0-6.1-0.7-8.6-2.2c-2.5-1.5-4.7-3.5-6.4-6.1c-1.8-2.6-3.1-5.8-4.1-9.5C0.5,38.9,0,34.8,0,30.3
					c0-4.5,0.5-8.6,1.4-12.3c0.9-3.7,2.3-6.8,4-9.4C7.2,6,9.3,4,11.9,2.6c2.6-1.4,5.4-2.1,8.7-2.1c3.2,0,6,0.7,8.6,2.1
					C31.7,4,33.9,6,35.6,8.7c1.8,2.6,3.1,5.8,4.1,9.4C40.6,21.7,41.1,25.8,41.1,30.3z M31.1,30.3c0-2.9-0.2-5.6-0.7-8.2
					c-0.5-2.6-1.1-4.8-2-6.6c-0.9-1.9-2-3.3-3.3-4.4c-1.3-1.1-2.8-1.6-4.6-1.6c-1.8,0-3.3,0.5-4.6,1.6c-1.3,1.1-2.4,2.5-3.3,4.4
					c-0.9,1.9-1.5,4.1-2,6.6c-0.4,2.6-0.6,5.3-0.6,8.2c0,2.9,0.2,5.6,0.6,8.2c0.4,2.6,1.1,4.8,2,6.7c0.9,1.9,2,3.4,3.3,4.4
					c1.3,1.1,2.9,1.6,4.6,1.6c1.8,0,3.3-0.5,4.6-1.6c1.3-1.1,2.4-2.6,3.3-4.4c0.9-1.9,1.5-4.1,2-6.7C30.9,36,31.1,33.2,31.1,30.3z"
					/>
			</g>
		</g>
		<g>
			<g>
				<g>
					<path fill="#010101" d="M20.6,60.8c-3.3,0-6.3-0.8-8.8-2.2l0.4-0.8c2.4,1.4,5.3,2.1,8.4,2.1c3.1,0,5.9-0.7,8.4-2.1
						c2.5-1.4,4.6-3.4,6.3-6l0.7,0.5c-1.8,2.7-4,4.8-6.6,6.3C26.7,60.1,23.8,60.8,20.6,60.8z M20.6,51.6c-1.9,0-3.5-0.6-4.9-1.7
						c-1.4-1.1-2.5-2.7-3.4-4.6c-0.9-1.9-1.6-4.2-2-6.8c-0.4-2.6-0.7-5.3-0.7-8.3c0-2.9,0.2-5.7,0.7-8.3c0.4-2.6,1.1-4.8,2-6.7
						c0.9-1.9,2.1-3.4,3.4-4.5c1.4-1.1,3-1.7,4.9-1.7c1.8,0,3.4,0.6,4.8,1.7l-0.3,0.3l0.3-0.3c1.4,1.1,2.5,2.6,3.4,4.5L28,15.7
						c-0.9-1.8-1.9-3.2-3.2-4.2c-1.2-1-2.7-1.5-4.3-1.5c-1.7,0-3.1,0.5-4.4,1.5c-1.3,1-2.3,2.5-3.2,4.2c-0.9,1.8-1.5,4-1.9,6.5
						c-0.4,2.5-0.6,5.2-0.6,8.1c0,2.9,0.2,5.6,0.6,8.1c0.4,2.5,1.1,4.7,1.9,6.5c0.9,1.8,1.9,3.3,3.2,4.3c1.2,1,2.7,1.5,4.4,1.5
						c1.7,0,3.1-0.5,4.4-1.5c1.3-1,2.3-2.5,3.2-4.3l0.8,0.4c-0.9,1.9-2.1,3.5-3.4,4.6C24.1,51.1,22.4,51.6,20.6,51.6z M40.1,42.7
						l-0.8-0.2c0.9-3.6,1.4-7.7,1.4-12.2c0-4.5-0.5-8.5-1.4-12.1c-0.9-3.6-2.3-6.7-4-9.3c-1.7-2.6-3.9-4.6-6.3-5.9
						c-2.5-1.4-5.3-2.1-8.4-2.1c-3.1,0-6,0.7-8.5,2.1C9.6,4.3,7.5,6.3,5.8,8.9c-1.7,2.6-3.1,5.7-4,9.3L1,18c0.9-3.7,2.3-6.9,4.1-9.6
						c1.8-2.7,4-4.8,6.6-6.2C14.3,0.7,17.3,0,20.6,0c3.2,0,6.2,0.7,8.8,2.2C32,3.6,34.2,5.7,36,8.4c1.8,2.7,3.2,5.9,4.1,9.6
						c0.9,3.7,1.4,7.8,1.4,12.4C41.5,34.9,41.1,39,40.1,42.7z"/>
				</g>
			</g>
		</g>
		<g>
			<g>
				<path fill="#414141" d="M20.1,57c-0.9,0-1.8-0.2-2.6-0.5l0.2-0.8c0.8,0.2,1.6,0.4,2.4,0.4L20.1,57z M21.9,56.9l-0.1-0.9
					c0.8-0.1,1.6-0.3,2.4-0.6l0.3,0.8C23.6,56.6,22.7,56.8,21.9,56.9z M15.7,55.9c-0.8-0.4-1.6-0.8-2.3-1.3l0.5-0.7
					c0.7,0.5,1.4,0.9,2.2,1.3L15.7,55.9z M26.1,55.6l-0.4-0.8c0.7-0.4,1.4-0.8,2.1-1.4l0.5,0.7C27.6,54.8,26.9,55.2,26.1,55.6z
					 M12,53.5c-0.6-0.6-1.3-1.2-1.8-1.9l0.7-0.6c0.6,0.7,1.2,1.3,1.8,1.8L12,53.5z M29.7,53l-0.6-0.6c0.6-0.6,1.2-1.2,1.7-1.9
					l0.7,0.5C30.9,51.8,30.3,52.4,29.7,53z M9.1,50.2c-0.5-0.7-1-1.4-1.4-2.2l0.8-0.4c0.4,0.8,0.9,1.5,1.4,2.2L9.1,50.2z M32.5,49.6
					l-0.7-0.5c0.5-0.7,0.9-1.4,1.3-2.2l0.8,0.4C33.5,48.2,33,48.9,32.5,49.6z M6.9,46.4c-0.4-0.8-0.7-1.6-1-2.4l0.8-0.3
					c0.3,0.8,0.6,1.6,1,2.3L6.9,46.4z M34.7,45.8l-0.8-0.4c0.3-0.8,0.7-1.6,1-2.4l0.8,0.3C35.3,44.2,35,45,34.7,45.8z M5.3,42.3
					c-0.3-0.8-0.5-1.7-0.7-2.5l0.8-0.2c0.2,0.8,0.4,1.7,0.7,2.5L5.3,42.3z M36.2,41.7l-0.8-0.3c0.2-0.8,0.5-1.6,0.6-2.5l0.8,0.2
					C36.7,40,36.4,40.9,36.2,41.7z M4.2,38.1c-0.2-0.9-0.3-1.7-0.4-2.6l0.9-0.1c0.1,0.8,0.2,1.7,0.4,2.5L4.2,38.1z M37.2,37.4
					l-0.9-0.2c0.1-0.8,0.3-1.7,0.4-2.5l0.9,0.1C37.5,35.7,37.3,36.6,37.2,37.4z M3.6,33.7c-0.1-0.9-0.1-1.7-0.1-2.6l0.9,0
					c0,0.8,0.1,1.7,0.1,2.6L3.6,33.7z M37.7,33.1l-0.9-0.1c0.1-0.8,0.1-1.7,0.1-2.6c0-0.7,0-1.4-0.1-2.1l0.9,0
					c0,0.7,0.1,1.4,0.1,2.1C37.8,31.4,37.8,32.2,37.7,33.1z M4.4,29.4l-0.9,0c0-0.9,0.1-1.8,0.2-2.6l0.9,0.1
					C4.4,27.7,4.4,28.5,4.4,29.4z M36.8,26.7c-0.1-0.9-0.2-1.7-0.3-2.5l0.9-0.1c0.1,0.9,0.3,1.7,0.3,2.6L36.8,26.7z M4.7,25.1
					L3.8,25c0.1-0.9,0.3-1.7,0.4-2.6l0.8,0.2C5,23.4,4.8,24.3,4.7,25.1z M36.1,22.5c-0.2-0.8-0.4-1.7-0.6-2.5l0.8-0.2
					c0.2,0.8,0.4,1.7,0.6,2.5L36.1,22.5z M5.5,20.9l-0.8-0.2c0.2-0.9,0.5-1.7,0.7-2.5l0.8,0.3C6,19.3,5.7,20.1,5.5,20.9z M35,18.3
					c-0.3-0.8-0.6-1.6-0.9-2.4l0.8-0.3c0.3,0.8,0.7,1.6,1,2.5L35,18.3z M6.8,16.9L6,16.6c0.3-0.8,0.7-1.6,1.1-2.4l0.8,0.4
					C7.5,15.3,7.2,16.1,6.8,16.9z M33.3,14.4c-0.4-0.8-0.8-1.5-1.3-2.2l0.7-0.5c0.5,0.7,0.9,1.5,1.3,2.3L33.3,14.4z M8.7,13.1
					L8,12.6c0.5-0.8,0.9-1.5,1.5-2.2l0.7,0.5C9.6,11.6,9.1,12.3,8.7,13.1z M31.1,10.8c-0.5-0.7-1.1-1.3-1.7-1.9l0.6-0.6
					c0.6,0.6,1.2,1.3,1.7,2L31.1,10.8z M11.2,9.6L10.5,9c0.6-0.7,1.2-1.3,1.9-1.9L13,7.8C12.4,8.4,11.8,9,11.2,9.6z M28.2,7.8
					c-0.7-0.6-1.4-1-2.1-1.4l0.4-0.8C27.3,6,28,6.5,28.7,7.1L28.2,7.8z M14.3,6.8l-0.5-0.7c0.8-0.5,1.6-0.9,2.4-1.3l0.3,0.8
					C15.8,6,15,6.4,14.3,6.8z M24.6,5.6c-0.8-0.3-1.6-0.5-2.4-0.7l0.1-0.9c0.9,0.1,1.7,0.4,2.6,0.7L24.6,5.6z M18.1,5.1l-0.2-0.8
					C18.8,4.1,19.7,4,20.6,4l0,0.9C19.7,4.8,18.9,4.9,18.1,5.1z"/>
			</g>
		</g>
	</g>
	<g>
		<g>
			<g>
				<path fill="#DCDBDB" d="M312.8,59h-12.3L286.6,1.9h10.8l9.5,45.8h0.2l9.5-45.8H327L312.8,59z"/>
			</g>
		</g>
		<g>
			<g>
				<g>
					<path fill="#010101" d="M305.7,59.4h-5.5l-4.8-19.5l0.8-0.2l4.6,18.8h4.8V59.4z M319,35.8l-0.8-0.2l8.3-33.3H317l-2.9,13.9
						l-0.8-0.2l3-14.6h11.2L319,35.8z M303.7,34.3l-6.6-32h-9.9l4.3,17.5l-0.8,0.2l-4.5-18.6h11.7l6.8,32.7L303.7,34.3z"/>
				</g>
			</g>
		</g>
		<g>
			<g>
				<path fill="#414141" d="M304.6,56.5l-0.3-1l0.8-0.2l0.3,1L304.6,56.5z M304,53.9l-0.6-2.5l0.8-0.2l0.6,2.5L304,53.9z
					 M302.9,49.7l-0.6-2.5l0.8-0.2l0.6,2.5L302.9,49.7z M301.8,45.5l-0.6-2.5l0.8-0.2l0.6,2.5L301.8,45.5z M300.8,41.3l-0.6-2.5
					l0.8-0.2l0.6,2.5L300.8,41.3z M299.7,37.1l-0.6-2.5l0.8-0.2l0.6,2.5L299.7,37.1z M298.7,32.9l-0.6-2.5l0.8-0.2l0.6,2.5
					L298.7,32.9z M297.6,28.7l-0.6-2.5l0.8-0.2l0.6,2.5L297.6,28.7z M296.5,24.5l-0.6-2.5l0.8-0.2l0.6,2.5L296.5,24.5z M295.5,20.3
					l-0.6-2.5l0.8-0.2l0.6,2.5L295.5,20.3z M294.4,16.1l-0.6-2.5l0.8-0.2l0.6,2.5L294.4,16.1z M293.4,11.9l-0.6-2.5l0.8-0.2l0.6,2.5
					L293.4,11.9z M292.3,7.7l-0.6-2.5l0.8-0.2l0.6,2.5L292.3,7.7z"/>
			</g>
		</g>
		<g>
			<g>
				<path fill="#414141" d="M309.2,56.3l-0.8-0.2l0.2-0.9l0.8,0.2L309.2,56.3z M309.8,53.7l-0.8-0.2l0.6-2.5l0.8,0.2L309.8,53.7z
					 M310.9,49.5l-0.8-0.2l0.6-2.5l0.8,0.2L310.9,49.5z M311.9,45.3l-0.8-0.2l0.6-2.5l0.8,0.2L311.9,45.3z M312.9,41.1l-0.8-0.2
					l0.6-2.5l0.8,0.2L312.9,41.1z M313.9,36.9l-0.8-0.2l0.6-2.5l0.8,0.2L313.9,36.9z M314.9,32.7l-0.8-0.2l0.6-2.5l0.8,0.2
					L314.9,32.7z M315.9,28.5l-0.8-0.2l0.6-2.5l0.8,0.2L315.9,28.5z M317,24.3l-0.8-0.2l0.6-2.5l0.8,0.2L317,24.3z M318,20.1
					l-0.8-0.2l0.6-2.5l0.8,0.2L318,20.1z M319,15.9l-0.8-0.2l0.6-2.5l0.8,0.2L319,15.9z M320,11.7l-0.8-0.2l0.6-2.5l0.8,0.2
					L320,11.7z M321,7.5l-0.8-0.2l0.6-2.5l0.8,0.2L321,7.5z"/>
			</g>
		</g>
	</g>
	<g>
		<g>
			<g>
				<path fill="#DCDBDB" d="M200.8,12.9c-2.1-2.5-4.7-3.8-7.9-3.8c-0.9,0-1.8,0.1-2.7,0.4c-0.9,0.3-1.6,0.8-2.3,1.4
					c-0.7,0.6-1.2,1.5-1.7,2.5c-0.4,1-0.6,2.2-0.6,3.6c0,2.4,0.7,4.3,2.2,5.6c1.5,1.3,3.4,2.6,5.7,3.7c1.4,0.7,2.8,1.5,4.3,2.4
					c1.5,0.9,2.8,2,3.9,3.3c1.2,1.3,2.1,2.8,2.9,4.6c0.8,1.8,1.1,3.9,1.1,6.3c0,2.8-0.4,5.3-1.3,7.4c-0.9,2.2-2.1,4-3.5,5.4
					c-1.5,1.5-3.2,2.6-5.2,3.3c-2,0.8-4.1,1.1-6.3,1.1c-3.2,0-6.1-0.6-8.8-1.9c-2.7-1.2-4.8-2.8-6.4-4.7l5.2-7.1
					c1.2,1.5,2.7,2.7,4.5,3.5c1.7,0.9,3.5,1.3,5.4,1.3c2,0,3.7-0.7,5.1-2.1c1.3-1.4,2-3.4,2-5.9c0-2.5-0.8-4.4-2.4-5.9
					c-1.6-1.5-3.7-2.8-6.1-4c-1.6-0.8-3-1.6-4.4-2.5c-1.4-0.9-2.6-2-3.6-3.3c-1-1.3-1.9-2.7-2.5-4.4c-0.6-1.7-0.9-3.7-0.9-6.1
					c0-3,0.5-5.5,1.4-7.6c0.9-2.1,2.2-3.9,3.7-5.3c1.5-1.4,3.3-2.4,5.2-3.1c1.9-0.7,3.9-1,5.9-1c2.9,0,5.5,0.5,7.8,1.4
					c2.3,0.9,4.2,2.3,5.8,4.2L200.8,12.9z"/>
			</g>
		</g>
		<g>
			<g>
				<g>
					<path fill="#010101" d="M189.4,60.8c-3.2,0-6.2-0.6-9-1.9c-2.7-1.3-5-2.9-6.6-4.8l-0.2-0.3l5.8-7.8l0.4,0.4
						c1.2,1.5,2.6,2.6,4.3,3.4c1.7,0.8,3.4,1.2,5.2,1.2c1.9,0,3.5-0.6,4.8-2c1.3-1.3,1.9-3.2,1.9-5.6c0-2.3-0.8-4.2-2.3-5.6l0.6-0.6
						c1.7,1.5,2.6,3.6,2.6,6.2c0,2.6-0.7,4.7-2.1,6.2c-1.4,1.5-3.2,2.2-5.4,2.2c-1.9,0-3.8-0.4-5.6-1.3c-1.6-0.8-3.1-1.9-4.3-3.2
						l-4.7,6.4c1.5,1.7,3.6,3.2,6.1,4.3c2.6,1.2,5.5,1.8,8.6,1.8c2.1,0,4.2-0.4,6.1-1.1l0.3,0.8C193.9,60.4,191.7,60.8,189.4,60.8z
						 M204.3,37c-0.7-1.7-1.7-3.2-2.8-4.5c-1.1-1.3-2.4-2.3-3.9-3.2c-1.4-0.9-2.9-1.7-4.2-2.4c-2.4-1.2-4.3-2.5-5.8-3.8
						c-1.5-1.4-2.3-3.4-2.3-5.9c0-1.4,0.2-2.7,0.6-3.8c0.4-1.1,1-2,1.8-2.7l0,0c0.7-0.7,1.6-1.2,2.5-1.5c0.9-0.3,1.8-0.5,2.8-0.5
						c3.1,0,5.8,1.2,7.9,3.5l4.8-6.2c-1.5-1.6-3.3-2.9-5.4-3.8c-2.2-0.9-4.8-1.4-7.6-1.4c-1.9,0-3.9,0.3-5.7,1
						c-1.9,0.7-3.6,1.7-5.1,3c-1.5,1.4-2.7,3.1-3.6,5.1c-0.9,2.1-1.4,4.6-1.4,7.4H176c0-3,0.5-5.6,1.4-7.8c1-2.2,2.2-4,3.8-5.4
						c1.6-1.4,3.4-2.5,5.3-3.2c2-0.7,4-1,6-1c2.9,0,5.6,0.5,7.9,1.4c2.3,1,4.3,2.4,5.9,4.3l0.2,0.3l-5.9,7.6l-0.3-0.4
						c-2-2.4-4.5-3.6-7.6-3.6c-0.9,0-1.7,0.1-2.5,0.4c-0.8,0.3-1.5,0.7-2.2,1.3l-0.3-0.3l0.3,0.3c-0.6,0.6-1.2,1.4-1.5,2.3
						c-0.4,1-0.6,2.1-0.6,3.5c0,2.3,0.7,4.1,2,5.3c1.4,1.3,3.3,2.5,5.6,3.7c1.4,0.7,2.9,1.5,4.3,2.4c1.5,0.9,2.8,2.1,4,3.4
						c1.2,1.3,2.2,2.9,3,4.7L204.3,37z"/>
				</g>
			</g>
		</g>
		<g>
			<g>
				<path fill="#414141" d="M188.9,56.7l0-0.9c0.8,0,1.7-0.1,2.5-0.3l0.2,0.8C190.6,56.6,189.8,56.7,188.9,56.7z M187.1,56.7
					c-1-0.1-1.8-0.2-2.6-0.4l0.2-0.8c0.7,0.2,1.6,0.3,2.5,0.4L187.1,56.7z M193.2,56l-0.3-0.8c0.8-0.3,1.6-0.6,2.3-1l0.4,0.8
					C195,55.3,194.1,55.7,193.2,56z M182.8,55.7c-0.8-0.4-1.6-0.9-2.3-1.3l0.5-0.7c0.7,0.4,1.4,0.9,2.2,1.3L182.8,55.7z M197.2,54
					l-0.5-0.7c0.6-0.5,1.2-1.1,1.8-1.7l0.7,0.6C198.5,52.8,197.9,53.4,197.2,54z M179,53.3c-0.9-0.7-0.9-0.8-0.8-1l0.4,0l0.3-0.3
					c0,0,0.2,0.2,0.6,0.5L179,53.3z M200.2,50.7l-0.7-0.5c0.5-0.7,0.9-1.5,1.2-2.2l0.8,0.3C201.1,49.1,200.7,49.9,200.2,50.7z
					 M201.6,46.6l-0.6-0.2c0.2-0.8,0-1.6,0-2.4l0.5-0.1V44C201.5,44.9,201.8,45.7,201.6,46.6z M201.3,42.3c-0.1-0.8-0.4-1.6-0.8-2.4
					l0.8-0.4c0.4,0.8,0.7,1.7,0.8,2.6L201.3,42.3z M199.7,38.5c-0.5-0.7-1-1.4-1.6-2l0.6-0.6c0.6,0.7,1.2,1.4,1.6,2.1L199.7,38.5z
					 M197,35.3c-0.6-0.5-1.3-1.1-2-1.6l0.5-0.7c0.8,0.5,1.4,1.1,2.1,1.6L197,35.3z M193.6,32.8c-0.6-0.4-1.3-0.8-2.2-1.3l0.4-0.7
					c0.9,0.5,1.6,0.9,2.2,1.3L193.6,32.8z M189.9,30.6c-0.8-0.4-1.5-0.9-2.3-1.3l0.4-0.7c0.7,0.4,1.5,0.9,2.2,1.3L189.9,30.6z
					 M186.1,28.4c-0.8-0.5-1.5-1.1-2.1-1.6l0.6-0.7c0.6,0.5,1.2,1,2,1.5L186.1,28.4z M182.7,25.5c-0.2-0.2-0.4-0.5-0.6-0.7
					c-0.4-0.5-0.7-1-1-1.5l0.8-0.4c0.3,0.5,0.5,1,0.9,1.4c0.2,0.2,0.3,0.4,0.5,0.6L182.7,25.5z M180.5,21.6
					c-0.3-0.8-0.5-1.7-0.5-2.6l0.9-0.1c0.1,0.8,0.2,1.7,0.5,2.4L180.5,21.6z M180.8,17.3l-0.9,0c0-0.9,0.2-1.8,0.4-2.6l0.8,0.2
					C181,15.6,180.9,16.4,180.8,17.3z M181.6,13.2l-0.8-0.3c0.3-0.8,0.7-1.7,1.1-2.4l0.8,0.4C182.3,11.6,181.9,12.4,181.6,13.2z
					 M183.6,9.4l-0.7-0.5c0.5-0.7,1.1-1.4,1.8-2l0.6,0.6C184.6,8.1,184.1,8.7,183.6,9.4z M200.9,7.2c0,0-0.9-0.5-2.3-1.1l0.3-0.8
					c1.5,0.6,2.4,1.1,2.4,1.1L200.9,7.2z M186.5,6.5L186,5.8c0.6-0.4,1.2-0.7,1.8-1c0.2-0.1,0.4-0.2,0.6-0.2l0.3,0.8
					c-0.2,0.1-0.4,0.1-0.6,0.2C187.6,5.9,187.1,6.2,186.5,6.5z M197,5.6c-0.8-0.2-1.7-0.4-2.5-0.5l0.1-0.9c0.8,0.1,1.7,0.3,2.6,0.6
					L197,5.6z M190.4,5.1l-0.1-0.9c0.7-0.1,1.4-0.2,2.2-0.2c0.2,0,0.3,0,0.5,0l0,0.9c-0.2,0-0.3,0-0.5,0C191.7,4.9,191,5,190.4,5.1z
					"/>
			</g>
		</g>
	</g>
	<g>
		<g>
			<g>
				<path fill="#DCDBDB" d="M457.7,12.9c-2.1-2.5-4.7-3.8-7.9-3.8c-0.9,0-1.8,0.1-2.7,0.4c-0.9,0.3-1.6,0.8-2.3,1.4
					c-0.7,0.6-1.2,1.5-1.7,2.5c-0.4,1-0.6,2.2-0.6,3.6c0,2.4,0.7,4.3,2.2,5.6c1.5,1.3,3.4,2.6,5.7,3.7c1.4,0.7,2.8,1.5,4.3,2.4
					c1.5,0.9,2.8,2,3.9,3.3c1.2,1.3,2.1,2.8,2.9,4.6c0.8,1.8,1.1,3.9,1.1,6.3c0,2.8-0.4,5.3-1.3,7.4c-0.9,2.2-2.1,4-3.5,5.4
					c-1.5,1.5-3.2,2.6-5.2,3.3c-2,0.8-4.1,1.1-6.3,1.1c-3.2,0-6.1-0.6-8.8-1.9c-2.7-1.2-4.8-2.8-6.4-4.7l5.2-7.1
					c1.2,1.5,2.7,2.7,4.5,3.5c1.7,0.9,3.5,1.3,5.4,1.3c2,0,3.7-0.7,5.1-2.1c1.3-1.4,2-3.4,2-5.9c0-2.5-0.8-4.4-2.4-5.9
					c-1.6-1.5-3.7-2.8-6.1-4c-1.6-0.8-3-1.6-4.4-2.5c-1.4-0.9-2.6-2-3.6-3.3c-1-1.3-1.9-2.7-2.5-4.4c-0.6-1.7-0.9-3.7-0.9-6.1
					c0-3,0.5-5.5,1.4-7.6c0.9-2.1,2.2-3.9,3.7-5.3c1.5-1.4,3.3-2.4,5.2-3.1c1.9-0.7,3.9-1,5.9-1c2.9,0,5.5,0.5,7.8,1.4
					c2.3,0.9,4.2,2.3,5.8,4.2L457.7,12.9z"/>
			</g>
		</g>
		<g>
			<g>
				<g>
					<path fill="#010101" d="M446.3,60.8c-3.2,0-6.2-0.6-9-1.9c-2.7-1.3-5-2.9-6.6-4.8l-0.2-0.3l5.8-7.8l0.4,0.4
						c1.2,1.5,2.6,2.6,4.3,3.4c1.7,0.8,3.4,1.2,5.2,1.2c1.9,0,3.5-0.6,4.8-2c1.3-1.3,1.9-3.2,1.9-5.6c0-2.3-0.8-4.2-2.3-5.6l0.6-0.6
						c1.7,1.5,2.6,3.6,2.6,6.2c0,2.6-0.7,4.7-2.1,6.2c-1.4,1.5-3.2,2.2-5.4,2.2c-1.9,0-3.8-0.4-5.6-1.3c-1.6-0.8-3.1-1.9-4.3-3.2
						l-4.7,6.4c1.5,1.7,3.6,3.2,6.1,4.3c2.6,1.2,5.5,1.8,8.6,1.8c2.1,0,4.2-0.4,6.1-1.1l0.3,0.8C450.7,60.4,448.6,60.8,446.3,60.8z
						 M461.2,37c-0.7-1.7-1.7-3.2-2.8-4.5c-1.1-1.3-2.4-2.3-3.9-3.2c-1.4-0.9-2.9-1.7-4.2-2.4c-2.4-1.2-4.3-2.5-5.8-3.8
						c-1.5-1.4-2.3-3.4-2.3-5.9c0-1.4,0.2-2.7,0.6-3.8c0.4-1.1,1-2,1.8-2.7l0,0c0.7-0.7,1.6-1.2,2.5-1.5c0.9-0.3,1.8-0.5,2.8-0.5
						c3.1,0,5.8,1.2,7.9,3.5l4.8-6.2c-1.5-1.6-3.3-2.9-5.4-3.8c-2.2-0.9-4.8-1.4-7.6-1.4c-1.9,0-3.9,0.3-5.7,1
						c-1.9,0.7-3.6,1.7-5.1,3c-1.5,1.4-2.7,3.1-3.6,5.1c-0.9,2.1-1.4,4.6-1.4,7.4h-0.9c0-3,0.5-5.6,1.4-7.8c1-2.2,2.2-4,3.8-5.4
						c1.6-1.4,3.4-2.5,5.3-3.2c2-0.7,4-1,6-1c2.9,0,5.6,0.5,7.9,1.4c2.3,1,4.3,2.4,5.9,4.3l0.2,0.3l-5.9,7.6l-0.3-0.4
						c-2-2.4-4.5-3.6-7.6-3.6c-0.9,0-1.7,0.1-2.5,0.4c-0.8,0.3-1.5,0.7-2.2,1.3l-0.3-0.3l0.3,0.3c-0.6,0.6-1.2,1.4-1.5,2.3
						c-0.4,1-0.6,2.1-0.6,3.5c0,2.3,0.7,4.1,2,5.3c1.4,1.3,3.3,2.5,5.6,3.7c1.4,0.7,2.9,1.5,4.3,2.4c1.5,0.9,2.8,2.1,4,3.4
						c1.2,1.3,2.2,2.9,3,4.7L461.2,37z"/>
				</g>
			</g>
		</g>
		<g>
			<g>
				<path fill="#414141" d="M445.8,56.7l0-0.9c0.8,0,1.7-0.1,2.5-0.3l0.2,0.8C447.5,56.6,446.6,56.7,445.8,56.7z M444,56.7
					c-1-0.1-1.8-0.2-2.6-0.4l0.2-0.8c0.7,0.2,1.6,0.3,2.5,0.4L444,56.7z M450.1,56l-0.3-0.8c0.8-0.3,1.6-0.6,2.3-1l0.4,0.8
					C451.8,55.3,451,55.7,450.1,56z M439.6,55.7c-0.8-0.4-1.6-0.9-2.3-1.3l0.5-0.7c0.7,0.4,1.4,0.9,2.2,1.3L439.6,55.7z M454.1,54
					l-0.5-0.7c0.6-0.5,1.2-1.1,1.8-1.7l0.7,0.6C455.4,52.8,454.8,53.4,454.1,54z M435.9,53.3c-0.9-0.7-0.9-0.8-0.8-1l0.4,0l0.3-0.3
					c0,0,0.2,0.2,0.6,0.5L435.9,53.3z M457.1,50.7l-0.7-0.5c0.5-0.7,0.9-1.5,1.2-2.2l0.8,0.3C458,49.1,457.6,49.9,457.1,50.7z
					 M458.5,46.6l-0.7-0.2c0.2-0.8,0-1.6,0-2.4l0.6-0.1V44C458.5,44.9,458.8,45.7,458.5,46.6z M458.2,42.3c-0.1-0.8-0.4-1.6-0.8-2.4
					l0.8-0.4c0.4,0.8,0.7,1.7,0.8,2.6L458.2,42.3z M456.6,38.5c-0.5-0.7-1-1.4-1.6-2l0.6-0.6c0.6,0.7,1.2,1.4,1.6,2.1L456.6,38.5z
					 M453.9,35.3c-0.6-0.5-1.3-1.1-2-1.6l0.5-0.7c0.8,0.5,1.4,1.1,2.1,1.6L453.9,35.3z M450.4,32.8c-0.6-0.4-1.3-0.8-2.2-1.3
					l0.4-0.7c0.9,0.5,1.6,0.9,2.2,1.3L450.4,32.8z M446.7,30.6c-0.8-0.4-1.5-0.9-2.3-1.3l0.4-0.7c0.7,0.4,1.5,0.9,2.2,1.3
					L446.7,30.6z M443,28.4c-0.8-0.5-1.5-1.1-2.1-1.6l0.6-0.7c0.6,0.5,1.2,1,2,1.5L443,28.4z M439.6,25.5c-0.2-0.2-0.4-0.5-0.6-0.7
					c-0.4-0.5-0.7-1-1-1.5l0.8-0.4c0.3,0.5,0.5,1,0.9,1.4c0.2,0.2,0.3,0.4,0.5,0.6L439.6,25.5z M437.4,21.6
					c-0.3-0.8-0.5-1.7-0.5-2.6l0.9-0.1c0.1,0.8,0.2,1.7,0.5,2.4L437.4,21.6z M437.7,17.3l-0.9,0c0-0.9,0.2-1.8,0.4-2.6l0.8,0.2
					C437.9,15.6,437.7,16.4,437.7,17.3z M438.5,13.2l-0.8-0.3c0.3-0.8,0.7-1.7,1.1-2.4l0.8,0.4C439.1,11.6,438.8,12.4,438.5,13.2z
					 M440.4,9.4l-0.7-0.5c0.5-0.7,1.1-1.4,1.8-2l0.6,0.6C441.5,8.1,440.9,8.7,440.4,9.4z M457.8,7.2c0,0-0.9-0.5-2.3-1.1l0.3-0.8
					c1.5,0.6,2.4,1.1,2.4,1.1L457.8,7.2z M443.4,6.5l-0.5-0.7c0.6-0.4,1.2-0.7,1.8-1c0.2-0.1,0.4-0.2,0.6-0.2l0.3,0.8
					c-0.2,0.1-0.4,0.1-0.6,0.2C444.5,5.9,443.9,6.2,443.4,6.5z M453.9,5.6c-0.8-0.2-1.7-0.4-2.5-0.5l0.1-0.9
					c0.8,0.1,1.7,0.3,2.6,0.6L453.9,5.6z M447.2,5.1l-0.1-0.9c0.7-0.1,1.4-0.2,2.2-0.2c0.2,0,0.3,0,0.5,0l0,0.9c-0.2,0-0.3,0-0.5,0
					C448.6,4.9,447.9,5,447.2,5.1z"/>
			</g>
		</g>
	</g>
	<g>
		<g>
			<g>
				<path fill="#DCDBDB" d="M115.6,59l-8.9-24.3h-5.4V59H92V1.9h16.3c2.4,0,4.5,0.3,6.5,0.9c2,0.6,3.7,1.6,5.1,2.9
					c1.4,1.3,2.5,3,3.3,5.1c0.8,2,1.2,4.5,1.2,7.3c0,2.2-0.3,4.1-0.8,5.8c-0.6,1.7-1.3,3.1-2.1,4.3c-0.9,1.2-1.8,2.1-2.9,2.9
					c-1,0.7-2.1,1.2-3.1,1.5L125.8,59H115.6z M114.9,18.6c0-1.7-0.2-3.1-0.7-4.3c-0.5-1.1-1.1-2-1.9-2.7c-0.8-0.6-1.7-1.1-2.6-1.4
					c-1-0.3-1.9-0.4-2.9-0.4h-5.5v17.6h5.5c2.4,0,4.3-0.7,5.8-2.2C114.2,23.8,114.9,21.6,114.9,18.6z"/>
			</g>
		</g>
		<g>
			<g>
				<g>
					<path fill="#010101" d="M126.4,59.4h-11.1L106.4,35h-4.7v6.5h-0.9v-7.4h6.1l8.9,24.3h9.2L118,40.2l0.8-0.3L126.4,59.4z
						 M101.8,59.4H91.5V26.2h0.9v32.3h8.5v-7.1h0.9V59.4z M106.8,27.9h-5.9V9.5h5.9v0.9h-5v16.7h5c2.2,0,4.1-0.7,5.5-2.1
						c1.4-1.4,2.2-3.5,2.2-6.3h0.9c0,3.1-0.8,5.4-2.4,7C111.3,27.2,109.3,27.9,106.8,27.9z M124,24.1l-0.8-0.3
						c0.5-1.6,0.8-3.6,0.8-5.7c0-2.8-0.4-5.2-1.2-7.2c-0.8-2-1.9-3.6-3.2-4.9c-1.4-1.3-3-2.2-4.9-2.8c-1.9-0.6-4.1-0.9-6.4-0.9H92.4
						V20h-0.9V1.5h16.7c2.4,0,4.6,0.3,6.7,0.9c2,0.6,3.8,1.7,5.3,3c1.5,1.4,2.6,3.1,3.5,5.2c0.8,2.1,1.2,4.6,1.2,7.5
						C124.9,20.4,124.6,22.4,124,24.1z"/>
				</g>
			</g>
		</g>
		<g>
			<g>
				<path fill="#414141" d="M96.6,55.7h-0.9v-1.8h0.9V55.7z M96.5,51.3h-1v-2h1V51.3z M96.7,47h-1V45h1V47z M96.6,42.8h-0.9v-1.8
					h0.9V42.8z M96.5,39.3h-1v-3h1V39.3z M96.5,34.3h-1v-3h1V34.3z M96.5,30.3h-1v-3h1V30.3z M96.5,26.3h-1v-3h1V26.3z M96.5,21.3
					h-1v-3h1V21.3z M96.7,16.5h-1v-1.9h1V16.5z M96.5,13.3h-1v-3h1V13.3z M96.5,9.3h-1v-3h1V9.3z"/>
			</g>
		</g>
		<g>
			<g>
				<path fill="#414141" d="M104.5,31.1l-2.6,0l0-0.9l2.6,0V31.1z M106.2,31.1l-0.1-0.9l0.7,0c0.6,0,1.2,0,1.9,0l0,0.9
					c-0.7,0-1.3,0-1.9,0L106.2,31.1z M110.5,30.9l-0.1-0.9c0.9-0.1,1.7-0.3,2.4-0.7l0.3,0.8C112.3,30.5,111.5,30.8,110.5,30.9z
					 M114.7,29.4l-0.5-0.7c0.7-0.4,1.3-0.9,1.9-1.6l0.6,0.6C116.2,28.4,115.5,28.9,114.7,29.4z M118,26.4l-0.7-0.5
					c0.5-0.7,1-1.4,1.3-2.1l0.8,0.4C119.1,24.9,118.6,25.7,118,26.4z M120.1,22.5l-0.8-0.3c0.3-0.8,0.4-1.6,0.5-2.4l0.9,0.1
					C120.6,20.7,120.4,21.6,120.1,22.5z M119.9,18.1c0-0.8-0.1-1.6-0.3-2.5l0.8-0.2c0.2,0.9,0.3,1.8,0.3,2.6L119.9,18.1z
					 M119.2,13.9c-0.2-0.8-0.5-1.6-0.9-2.4l0.8-0.3c0.4,0.8,0.6,1.7,0.9,2.5L119.2,13.9z M117.6,10.1c-0.4-0.6-1-1.2-1.7-1.7
					l0.5-0.7c0.8,0.6,1.4,1.2,1.9,2L117.6,10.1z M114.5,7.5c-0.7-0.3-1.5-0.6-2.4-0.9l0.2-0.8c0.9,0.3,1.8,0.6,2.5,0.9L114.5,7.5z
					 M110.5,6.2c-0.8-0.2-1.6-0.3-2.5-0.3L108,5c0.9,0.1,1.8,0.2,2.6,0.4L110.5,6.2z M99.3,5.8l0-0.9c0,0,1.1-0.1,2.6-0.1l0,0.9
					C100.4,5.7,99.4,5.8,99.3,5.8z M106.2,5.8c-0.9,0-1.8-0.1-2.6-0.1l0-0.9c0.8,0,1.7,0,2.6,0.1L106.2,5.8z"/>
			</g>
		</g>
		<g>
			<g>
				<path fill="#414141" d="M119.5,57.7l-0.3-0.9l0.8-0.3l0.3,0.9L119.5,57.7z M118.5,55.3l-1-2.4l0.8-0.3l1,2.4L118.5,55.3z
					 M116.9,51.2l-1-2.4l0.8-0.3l1,2.4L116.9,51.2z M115.3,47.2l-1-2.4l0.8-0.3l1,2.4L115.3,47.2z M113.7,43.2l-1-2.4l0.8-0.3l1,2.4
					L113.7,43.2z M112.2,39.2l-1-2.4l0.8-0.3l1,2.4L112.2,39.2z M110.6,35.1l-1-2.4l0.8-0.3l1,2.4L110.6,35.1z"/>
			</g>
		</g>
	</g>
	<g>
		<g>
			<g>
				<path fill="#DCDBDB" d="M271.3,59l-8.9-24.3H257V59h-9.4V1.9h16.3c2.4,0,4.5,0.3,6.5,0.9c2,0.6,3.7,1.6,5.1,2.9
					c1.4,1.3,2.5,3,3.3,5.1c0.8,2,1.2,4.5,1.2,7.3c0,2.2-0.3,4.1-0.8,5.8c-0.6,1.7-1.3,3.1-2.1,4.3c-0.9,1.2-1.8,2.1-2.9,2.9
					c-1,0.7-2.1,1.2-3.1,1.5L281.4,59H271.3z M270.6,18.6c0-1.7-0.2-3.1-0.7-4.3c-0.5-1.1-1.1-2-1.9-2.7c-0.8-0.6-1.7-1.1-2.6-1.4
					c-1-0.3-1.9-0.4-2.9-0.4H257v17.6h5.5c2.4,0,4.3-0.7,5.8-2.2C269.9,23.8,270.6,21.6,270.6,18.6z"/>
			</g>
		</g>
		<g>
			<g>
				<g>
					<path fill="#010101" d="M282.1,59.4H271L262.1,35h-4.7v6.5h-0.9v-7.4h6.1l8.9,24.3h9.2l-7.1-18.3l0.8-0.3L282.1,59.4z
						 M257.4,59.4h-10.2V26.2h0.9v32.3h8.5v-7.1h0.9V59.4z M262.5,27.9h-5.9V9.5h5.9v0.9h-5v16.7h5c2.2,0,4.1-0.7,5.5-2.1
						c1.4-1.4,2.2-3.5,2.2-6.3h0.9c0,3.1-0.8,5.4-2.4,7C267,27.2,265,27.9,262.5,27.9z M279.7,24.1l-0.8-0.3
						c0.5-1.6,0.8-3.6,0.8-5.7c0-2.8-0.4-5.2-1.2-7.2c-0.8-2-1.9-3.6-3.2-4.9c-1.4-1.3-3-2.2-4.9-2.8c-1.9-0.6-4.1-0.9-6.4-0.9
						h-15.8V20h-0.9V1.5h16.7c2.4,0,4.6,0.3,6.7,0.9c2,0.6,3.8,1.7,5.3,3c1.5,1.4,2.6,3.1,3.5,5.2c0.8,2.1,1.2,4.6,1.2,7.5
						C280.6,20.4,280.3,22.4,279.7,24.1z"/>
				</g>
			</g>
		</g>
		<g>
			<g>
				<path fill="#414141" d="M251.8,55.7h-0.9v-1.8h0.9V55.7z M252.5,51.3h-1v-2h1V51.3z M252.1,47h-1V45h1V47z M251.8,42.8h-0.9
					v-1.8h0.9V42.8z M252.5,39.3h-1v-3h1V39.3z M252.5,34.3h-1v-3h1V34.3z M252.5,30.3h-1v-3h1V30.3z M252.5,26.3h-1v-3h1V26.3z
					 M252.5,21.3h-1v-3h1V21.3z M252.1,16.5h-1v-1.9h1V16.5z M252.5,13.3h-1v-3h1V13.3z M252.5,9.3h-1v-3h1V9.3z"/>
			</g>
		</g>
		<g>
			<g>
				<path fill="#414141" d="M259.5,31.1l-2.3,0l-0.1-0.9l2.4,0V31.1z M261.9,31.1l-0.1-0.9l0.7,0c0.6,0,1.2,0,1.9,0l0,0.9
					c-0.7,0-1.3,0-1.9,0L261.9,31.1z M266.2,30.9l-0.1-0.9c0.9-0.1,1.7-0.3,2.4-0.7l0.3,0.8C268,30.5,267.2,30.8,266.2,30.9z
					 M270.4,29.4l-0.5-0.7c0.7-0.4,1.3-0.9,1.9-1.6l0.6,0.6C271.9,28.4,271.2,28.9,270.4,29.4z M273.7,26.4l-0.7-0.5
					c0.5-0.7,1-1.4,1.3-2.1l0.8,0.4C274.7,24.9,274.3,25.7,273.7,26.4z M275.8,22.5l-0.8-0.3c0.3-0.8,0.4-1.6,0.5-2.4l0.9,0.1
					C276.3,20.7,276.1,21.6,275.8,22.5z M275.6,18.1c0-0.8-0.1-1.6-0.3-2.5l0.8-0.2c0.2,0.9,0.3,1.8,0.3,2.6L275.6,18.1z
					 M274.9,13.9c-0.2-0.8-0.5-1.6-0.9-2.4l0.8-0.3c0.3,0.8,0.6,1.7,0.9,2.5L274.9,13.9z M273.3,10.1c-0.4-0.6-1-1.2-1.7-1.7
					l0.5-0.7c0.8,0.6,1.4,1.2,1.9,2L273.3,10.1z M270.2,7.5c-0.7-0.3-1.5-0.6-2.4-0.9l0.2-0.8c0.9,0.3,1.8,0.6,2.5,0.9L270.2,7.5z
					 M266.1,6.2c-0.8-0.2-1.6-0.3-2.5-0.3l0.1-0.9c0.9,0.1,1.8,0.2,2.6,0.4L266.1,6.2z M255,5.8l0-0.9c0,0,1.1-0.1,2.6-0.1l0,0.9
					C256.1,5.7,255,5.8,255,5.8z M261.9,5.8c-0.9,0-1.8-0.1-2.6-0.1l0-0.9c0.8,0,1.7,0,2.6,0.1L261.9,5.8z"/>
			</g>
		</g>
		<g>
			<g>
				<path fill="#414141" d="M275.2,57.7l-0.3-0.9l0.8-0.3l0.3,0.9L275.2,57.7z M274.2,55.3l-1-2.4l0.8-0.3l1,2.4L274.2,55.3z
					 M272.6,51.2l-1-2.4l0.8-0.3l1,2.4L272.6,51.2z M271,47.2l-1-2.4l0.8-0.3l1,2.4L271,47.2z M269.4,43.2l-1-2.4l0.8-0.3l1,2.4
					L269.4,43.2z M267.8,39.2l-1-2.4l0.8-0.3l1,2.4L267.8,39.2z M266.3,35.1l-1-2.4l0.8-0.3l1,2.4L266.3,35.1z"/>
			</g>
		</g>
	</g>
	<g>
		<g>
			<g>
				<path fill="#DCDBDB" d="M82.7,46.5c-0.6,2.6-1.7,4.9-3.1,6.9c-1.5,2-3.3,3.5-5.6,4.6c-2.3,1.1-5.1,1.7-8.3,1.7
					c-3.3,0-6-0.6-8.3-1.7c-2.3-1.1-4.1-2.7-5.5-4.6c-1.4-2-2.4-4.3-3.1-6.9c-0.6-2.6-0.9-5.5-0.9-8.5V1.2h9.7v35.9
					c0,1.8,0.1,3.5,0.4,5.1c0.2,1.6,0.7,3.1,1.3,4.3c0.6,1.2,1.5,2.2,2.5,2.9c1.1,0.7,2.4,1.1,4.1,1.1c1.7,0,3-0.4,4.1-1.1
					c1.1-0.7,1.9-1.7,2.5-2.9c0.6-1.2,1-2.7,1.3-4.3c0.2-1.6,0.4-3.3,0.4-5.1V1.2h9.6V38C83.6,41,83.3,43.8,82.7,46.5z"/>
			</g>
		</g>
		<g>
			<g>
				<g>
					<path fill="#010101" d="M65.6,60.1c-3.3,0-6.2-0.6-8.5-1.7l0.4-0.8c2.2,1.1,4.9,1.6,8.1,1.6c3.2,0,5.9-0.6,8.2-1.6
						c2.2-1.1,4-2.6,5.4-4.5c1.4-1.9,2.4-4.2,3.1-6.7c0.6-2.6,1-5.4,1-8.4h0.9c0,3-0.3,5.9-1,8.6c-0.7,2.7-1.7,5-3.2,7
						c-1.5,2-3.4,3.6-5.8,4.8C71.8,59.5,68.9,60.1,65.6,60.1z M65.7,51c-1.7,0-3.2-0.4-4.4-1.2c-1.1-0.8-2-1.8-2.7-3.1
						c-0.6-1.3-1.1-2.8-1.3-4.4c-0.2-1.7-0.4-3.4-0.4-5.2h0.9c0,1.7,0.1,3.4,0.4,5.1c0.2,1.6,0.7,3,1.2,4.2c0.6,1.2,1.4,2.1,2.4,2.8
						c1,0.7,2.3,1,3.9,1c1.6,0,2.9-0.3,3.9-1c1-0.7,1.8-1.6,2.4-2.8c0.6-1.2,1-2.6,1.2-4.2c0.2-1.6,0.4-3.3,0.4-5.1V12.4h0.9v24.7
						c0,1.8-0.1,3.5-0.4,5.2c-0.2,1.7-0.7,3.2-1.3,4.4c-0.6,1.3-1.6,2.3-2.7,3.1C69,50.6,67.5,51,65.7,51z M48.2,37.6h-0.9V0.7h10.5
						v27.6H57V1.6h-8.8V37.6z M84.1,29.2h-0.9V1.6h-8.9V0.7h9.7V29.2z"/>
				</g>
			</g>
		</g>
		<g>
			<g>
				<path fill="#414141" d="M64.2,56.4c-0.5,0-1.1,0-1.6-0.1l0.1-0.9c0.8,0.1,1.7,0.1,2.5,0l0,0.9C64.9,56.4,64.5,56.4,64.2,56.4z
					 M67,56.3l-0.1-0.9c0.9-0.1,1.7-0.3,2.5-0.5l0.3,0.8C68.8,55.9,67.9,56.1,67,56.3z M60.9,56c-0.9-0.2-1.7-0.5-2.5-1l0.4-0.8
					c0.7,0.4,1.5,0.7,2.3,0.9L60.9,56z M71.3,55.1l-0.4-0.8c0.8-0.3,1.5-0.8,2.2-1.3l0.5,0.7C72.9,54.2,72.1,54.7,71.3,55.1z
					 M56.8,54.1c-0.7-0.5-1.3-1.2-1.9-1.9l0.7-0.5c0.5,0.7,1.1,1.3,1.7,1.8L56.8,54.1z M75,52.6l-0.6-0.6c0.6-0.6,1.1-1.2,1.6-1.9
					l0.7,0.5C76.2,51.2,75.6,51.9,75,52.6z M54,50.7c-0.4-0.7-0.8-1.6-1.1-2.4l0.8-0.3c0.3,0.8,0.6,1.6,1,2.3L54,50.7z M77.5,48.9
					l-0.8-0.4c0.4-0.7,0.7-1.5,0.9-2.4l0.8,0.2C78.2,47.3,77.9,48.2,77.5,48.9z M52.4,46.5c-0.2-0.8-0.4-1.7-0.5-2.6l0.9-0.1
					c0.1,0.9,0.3,1.7,0.5,2.5L52.4,46.5z M78.9,44.7l-0.8-0.2c0.2-0.8,0.3-1.7,0.4-2.5l0.9,0.1C79.2,43,79.1,43.9,78.9,44.7z
					 M51.1,42.2c-0.1-0.8-0.6-1.6-0.6-2.5v-0.2l1,0v0.2c0,0.8,0.2,1.6,0.3,2.4L51.1,42.2z M78.6,40.3l-1,0v-0.2c0-1,0.4-1.3,0.4-1.3
					l0.4-0.5h0.2v1h0.6c0,0-0.6-0.2-0.6,0.8V40.3z M51.5,38.3h-1v-3h1V38.3z M78.5,36.3h-1v-3h1V36.3z M51.5,33.3h-1v-3h1V33.3z
					 M78.5,31.3h-1v-2h1V31.3z M52.2,28.9h-0.9V27h0.9V28.9z M79,27h-0.9v-1.8H79V27z M51.5,25.3h-1v-3h1V25.3z M78.5,23.3h-1v-3h1
					V23.3z M51.5,20.3h-1v-3h1V20.3z M78.5,18.3h-1v-3h1V18.3z M51.9,15.5h-1v-1.9h1V15.5z M79,14.1h-0.9v-1.8H79V14.1z M51.5,12.3
					h-1v-2h1V12.3z M78.5,10.3h-1v-2h1V10.3z M51.5,8.3h-1v-3h1V8.3z M79.3,5.7h-0.9V4.1h0.9V5.7z"/>
			</g>
		</g>
	</g>
</g>
</svg>
