<?xml version="1.0" encoding="utf-8"?>
<!-- Generator: Adobe Illustrator 18.1.1, SVG Export Plug-In . SVG Version: 6.00 Build 0)  -->
<svg version="1.1" id="Layer_1" xmlns="http://www.w3.org/2000/svg" xmlns:xlink="http://www.w3.org/1999/xlink" x="0px" y="0px"
	 viewBox="0 0 294.9 32.7" enable-background="new 0 0 294.9 32.7" xml:space="preserve">
<path fill="#636566" d="M17.4,10c0,1.6-0.2,3-0.7,4.2c-0.5,1.2-1.1,2.2-1.9,3c-0.8,0.8-1.7,1.4-2.7,1.8c-1,0.4-2.1,0.6-3.2,0.6H5.2
	v12.5H0V0.8h8.6c1,0,2,0.1,3.1,0.4c1.1,0.3,2,0.8,2.8,1.5c0.8,0.7,1.5,1.7,2.1,2.8C17.1,6.8,17.4,8.2,17.4,10z M12.4,10.1
	c0-1.7-0.4-2.9-1.2-3.6c-0.8-0.8-1.8-1.1-3-1.1h-3v9.9h3c1.2,0,2.2-0.4,3-1.3C12,13,12.4,11.7,12.4,10.1z"/>
<path fill="#636566" d="M43.5,31.9l-4.8-13.3h-2.9v13.3h-5.1V0.8h8.9c1.3,0,2.5,0.2,3.6,0.5c1.1,0.3,2,0.9,2.8,1.6
	c0.8,0.7,1.4,1.7,1.8,2.8c0.4,1.1,0.7,2.4,0.7,4c0,1.2-0.2,2.3-0.5,3.2c-0.3,0.9-0.7,1.7-1.2,2.4c-0.5,0.6-1,1.2-1.6,1.6
	c-0.6,0.4-1.1,0.7-1.7,0.8L49,31.9H43.5z M43.1,9.9c0-0.9-0.1-1.7-0.4-2.3c-0.3-0.6-0.6-1.1-1-1.5c-0.4-0.4-0.9-0.6-1.4-0.7
	c-0.5-0.1-1.1-0.2-1.6-0.2h-3v9.6h3c1.3,0,2.4-0.4,3.2-1.2C42.7,12.8,43.1,11.6,43.1,9.9z"/>
<path fill="#636566" d="M83,16.3c0,2.5-0.3,4.7-0.8,6.7c-0.5,2-1.3,3.7-2.2,5.2c-1,1.4-2.1,2.6-3.5,3.3c-1.4,0.8-3,1.2-4.7,1.2
	c-1.8,0-3.3-0.4-4.7-1.2c-1.4-0.8-2.6-1.9-3.5-3.3c-1-1.4-1.7-3.2-2.2-5.2c-0.5-2-0.8-4.2-0.8-6.7c0-2.5,0.2-4.7,0.7-6.7
	c0.5-2,1.2-3.7,2.2-5.1c1-1.4,2.1-2.5,3.5-3.3C68.5,0.4,70,0,71.8,0c1.7,0,3.3,0.4,4.7,1.2c1.4,0.8,2.6,1.9,3.5,3.3
	c1,1.4,1.7,3.2,2.2,5.1C82.8,11.6,83,13.9,83,16.3z M77.6,16.3c0-1.6-0.1-3.1-0.4-4.5c-0.3-1.4-0.6-2.6-1.1-3.6
	c-0.5-1-1.1-1.8-1.8-2.4C73.6,5.3,72.7,5,71.8,5c-1,0-1.8,0.3-2.5,0.9c-0.7,0.6-1.3,1.4-1.8,2.4c-0.5,1-0.8,2.2-1.1,3.6
	c-0.2,1.4-0.4,2.9-0.4,4.5c0,1.6,0.1,3.1,0.4,4.5c0.2,1.4,0.6,2.6,1.1,3.6c0.5,1,1.1,1.8,1.8,2.4c0.7,0.6,1.6,0.9,2.5,0.9
	c1,0,1.8-0.3,2.5-0.9c0.7-0.6,1.3-1.4,1.8-2.4c0.5-1,0.8-2.2,1.1-3.6C77.5,19.4,77.6,17.9,77.6,16.3z"/>
<path fill="#636566" d="M149.2,25.5c-0.4,1.4-0.9,2.7-1.7,3.8c-0.8,1.1-1.8,1.9-3.1,2.5c-1.2,0.6-2.8,0.9-4.6,0.9
	c-1.8,0-3.3-0.3-4.5-0.9c-1.2-0.6-2.2-1.5-3-2.5c-0.8-1.1-1.3-2.3-1.7-3.8c-0.3-1.4-0.5-3-0.5-4.6V0.8h5.3v19.6c0,1,0.1,1.9,0.2,2.8
	c0.1,0.9,0.4,1.7,0.7,2.4c0.3,0.7,0.8,1.2,1.4,1.6c0.6,0.4,1.3,0.6,2.2,0.6c0.9,0,1.7-0.2,2.2-0.6c0.6-0.4,1-0.9,1.4-1.6
	c0.3-0.7,0.6-1.5,0.7-2.4c0.1-0.9,0.2-1.8,0.2-2.8V0.8h5.2v20.1C149.7,22.5,149.5,24.1,149.2,25.5z"/>
<path fill="#636566" d="M179.3,31.6c-1.3,0.8-2.9,1.1-4.8,1.1c-1.8,0-3.4-0.4-4.8-1.2c-1.4-0.8-2.6-2-3.6-3.4
	c-1-1.5-1.7-3.2-2.3-5.2c-0.5-2-0.8-4.2-0.8-6.6s0.3-4.6,0.8-6.6c0.5-2,1.3-3.7,2.3-5.2c1-1.5,2.2-2.6,3.6-3.4
	c1.4-0.8,3-1.2,4.7-1.2c1.8,0,3.4,0.3,4.7,1c1.3,0.7,2.4,1.6,3.3,2.8l-3,3.7c-1.2-1.7-2.8-2.6-4.7-2.6c-1.1,0-2,0.3-2.8,0.9
	c-0.8,0.6-1.5,1.4-2,2.4c-0.5,1-0.9,2.2-1.2,3.6c-0.3,1.4-0.4,2.9-0.4,4.5c0,1.6,0.1,3,0.4,4.4c0.3,1.4,0.7,2.6,1.2,3.6
	c0.5,1,1.2,1.8,2,2.4c0.8,0.6,1.8,0.9,2.8,0.9c1,0,1.9-0.3,2.7-0.8c0.7-0.5,1.4-1.2,1.9-1.9l3,3.6C181.6,29.8,180.5,30.8,179.3,31.6
	z"/>
<path fill="#636566" d="M202.5,5.3v26.7h-5.2V5.3h-5.9V0.8h16.9v4.5H202.5z"/>
<path fill="#636566" d="M220.2,31.9V0.8h5.3v31.2H220.2z"/>
<path fill="#636566" d="M261.7,16.3c0,2.5-0.3,4.7-0.8,6.7c-0.5,2-1.3,3.7-2.2,5.2c-1,1.4-2.1,2.6-3.5,3.3c-1.4,0.8-3,1.2-4.7,1.2
	c-1.8,0-3.3-0.4-4.7-1.2c-1.4-0.8-2.6-1.9-3.5-3.3c-1-1.4-1.7-3.2-2.2-5.2c-0.5-2-0.8-4.2-0.8-6.7c0-2.5,0.2-4.7,0.7-6.7
	c0.5-2,1.2-3.7,2.2-5.1c1-1.4,2.1-2.5,3.5-3.3c1.4-0.8,3-1.2,4.7-1.2c1.7,0,3.3,0.4,4.7,1.2c1.4,0.8,2.6,1.9,3.5,3.3
	c1,1.4,1.7,3.2,2.2,5.1C261.5,11.6,261.7,13.9,261.7,16.3z M256.3,16.3c0-1.6-0.1-3.1-0.4-4.5c-0.3-1.4-0.6-2.6-1.1-3.6
	c-0.5-1-1.1-1.8-1.8-2.4c-0.7-0.6-1.5-0.9-2.5-0.9c-1,0-1.8,0.3-2.5,0.9c-0.7,0.6-1.3,1.4-1.8,2.4c-0.5,1-0.8,2.2-1.1,3.6
	c-0.2,1.4-0.4,2.9-0.4,4.5c0,1.6,0.1,3.1,0.4,4.5c0.2,1.4,0.6,2.6,1.1,3.6c0.5,1,1.1,1.8,1.8,2.4c0.7,0.6,1.6,0.9,2.5,0.9
	c1,0,1.8-0.3,2.5-0.9c0.7-0.6,1.3-1.4,1.8-2.4c0.5-1,0.8-2.2,1.1-3.6C256.1,19.4,256.3,17.9,256.3,16.3z"/>
<path fill="#636566" d="M289.1,31.9l-8.8-22h-0.1l0.1,22h-4.8V0.8h6l8.8,22.1h0.1l0-22.1h4.6v31.2H289.1z"/>
</svg>
