<?xml version="1.0" encoding="utf-8"?>
<!-- Generator: Adobe Illustrator 18.1.1, SVG Export Plug-In . SVG Version: 6.00 Build 0)  -->
<svg version="1.1" id="Layer_1" xmlns="http://www.w3.org/2000/svg" xmlns:xlink="http://www.w3.org/1999/xlink" x="0px" y="0px"
	 viewBox="0 0 506.6 52" enable-background="new 0 0 506.6 52" xml:space="preserve">
<g>
	<line fill="none" stroke="#010101" stroke-width="2" x1="166" y1="16.2" x2="117" y2="16.2"/>
	<line fill="none" stroke="#010101" stroke-width="2" x1="164" y1="24.2" x2="30" y2="24.2"/>
	<line fill="none" stroke="#010101" stroke-width="2" x1="109" y1="32.2" x2="0" y2="32.2"/>
</g>
<g>
	<g>
		<g>
			<path fill="#DCDBDB" d="M501.6,11.1c-1.8-2.2-4-3.2-6.8-3.2c-0.8,0-1.5,0.1-2.3,0.4c-0.7,0.3-1.4,0.7-2,1.2
				c-0.6,0.6-1.1,1.3-1.4,2.1c-0.3,0.9-0.5,1.9-0.5,3.1c0,2.1,0.6,3.7,1.9,4.8c1.2,1.1,2.9,2.2,4.9,3.2c1.2,0.6,2.4,1.3,3.7,2.1
				c1.2,0.8,2.4,1.7,3.4,2.8c1,1.1,1.8,2.4,2.5,3.9c0.6,1.5,1,3.3,1,5.4c0,2.4-0.4,4.5-1.1,6.3c-0.8,1.8-1.8,3.4-3,4.7
				c-1.3,1.3-2.7,2.2-4.4,2.9c-1.7,0.6-3.5,1-5.4,1c-2.7,0-5.2-0.5-7.5-1.6c-2.3-1.1-4.1-2.4-5.5-4l4.5-6.1c1.1,1.3,2.3,2.3,3.8,3
				c1.5,0.7,3,1.1,4.6,1.1c1.7,0,3.2-0.6,4.3-1.8c1.1-1.2,1.7-2.9,1.7-5c0-2.1-0.7-3.8-2.1-5c-1.4-1.2-3.1-2.4-5.2-3.4
				c-1.3-0.6-2.6-1.4-3.8-2.1c-1.2-0.8-2.2-1.7-3.1-2.8c-0.9-1.1-1.6-2.3-2.1-3.8c-0.5-1.4-0.8-3.2-0.8-5.2c0-2.5,0.4-4.7,1.2-6.5
				c0.8-1.8,1.9-3.3,3.2-4.5c1.3-1.2,2.8-2.1,4.4-2.7c1.7-0.6,3.3-0.9,5-0.9c2.5,0,4.7,0.4,6.6,1.2c2,0.8,3.6,2,4.9,3.5L501.6,11.1z
				"/>
		</g>
	</g>
	<g>
		<g>
			<g>
				<path fill="#010101" d="M491.9,52c-2.8,0-5.3-0.5-7.7-1.6c-2.3-1.1-4.2-2.4-5.6-4.1l-0.2-0.2l4.9-6.7l0.3,0.4
					c1,1.2,2.3,2.2,3.7,2.9c1.4,0.7,2.9,1.1,4.4,1.1c1.7,0,3-0.5,4.1-1.7c1.1-1.1,1.6-2.7,1.6-4.8c0-2-0.7-3.6-1.9-4.8L496,32
					c1.5,1.3,2.2,3.1,2.2,5.3c0,2.2-0.6,4-1.8,5.3c-1.2,1.3-2.8,1.9-4.6,1.9c-1.6,0-3.2-0.4-4.7-1.1c-1.4-0.7-2.6-1.6-3.6-2.8
					l-4,5.4c1.3,1.5,3.1,2.7,5.2,3.7c2.2,1,4.7,1.5,7.4,1.5c1.8,0,3.6-0.3,5.2-0.9l0.3,0.7C495.6,51.7,493.8,52,491.9,52z
					 M504.5,31.6c-0.6-1.5-1.4-2.8-2.4-3.8c-1-1.1-2.1-2-3.3-2.8c-1.2-0.8-2.4-1.5-3.6-2c-2-1-3.7-2.1-5-3.3c-1.3-1.2-2-2.9-2-5.1
					c0-1.2,0.2-2.3,0.5-3.2c0.4-0.9,0.9-1.7,1.5-2.3l0,0c0.6-0.6,1.3-1,2.1-1.3c0.8-0.3,1.6-0.4,2.4-0.4c2.7,0,4.9,1,6.7,3l4.1-5.3
					c-1.3-1.4-2.8-2.5-4.6-3.2c-1.9-0.8-4.1-1.2-6.5-1.2c-1.6,0-3.3,0.3-4.9,0.8c-1.6,0.6-3.1,1.4-4.3,2.6c-1.3,1.2-2.3,2.6-3.1,4.4
					c-0.8,1.8-1.2,3.9-1.2,6.4h-0.7c0-2.6,0.4-4.8,1.2-6.7c0.8-1.9,1.9-3.4,3.3-4.6c1.3-1.2,2.9-2.1,4.6-2.7
					c1.7-0.6,3.4-0.9,5.2-0.9c2.5,0,4.8,0.4,6.8,1.2c2,0.8,3.7,2,5.1,3.6l0.2,0.2l-5,6.5l-0.3-0.4c-1.7-2.1-3.9-3.1-6.5-3.1
					c-0.7,0-1.5,0.1-2.2,0.4c-0.7,0.2-1.3,0.6-1.9,1.1l-0.3-0.3l0.3,0.3c-0.6,0.5-1,1.2-1.3,2c-0.3,0.8-0.5,1.8-0.5,3
					c0,1.9,0.6,3.5,1.7,4.5c1.2,1.1,2.8,2.2,4.8,3.1c1.2,0.6,2.4,1.3,3.7,2.1c1.3,0.8,2.4,1.8,3.5,2.9c1,1.1,1.9,2.5,2.5,4
					L504.5,31.6z"/>
			</g>
		</g>
	</g>
	<path fill="none" stroke="#010101" stroke-miterlimit="10" stroke-dasharray="3" d="M502.3,6.1c0,0-5.6-3.8-10.3-2.8
		c-5.4,1.3-8.4,7.5-8.1,12.1c0.5,6.9,8.1,9.4,12.9,12.1c5.8,3.3,9.1,12.7,1.8,18.4c-6.8,5.4-13.2,1.1-15.4-0.7"/>
</g>
<g>
	<g>
		<g>
			<path fill="#DCDBDB" d="M473.8,39.7c-0.6,2.3-1.4,4.2-2.7,5.9c-1.2,1.7-2.8,3-4.8,4c-2,1-4.3,1.4-7.1,1.4c-2.8,0-5.2-0.5-7.1-1.4
				c-1.9-1-3.5-2.3-4.7-4c-1.2-1.7-2.1-3.6-2.6-5.9c-0.5-2.3-0.8-4.7-0.8-7.2V1h8.3v30.7c0,1.5,0.1,3,0.3,4.4
				c0.2,1.4,0.6,2.6,1.1,3.7c0.5,1.1,1.3,1.9,2.2,2.5c0.9,0.6,2.1,0.9,3.5,0.9c1.4,0,2.6-0.3,3.5-0.9c0.9-0.6,1.6-1.5,2.2-2.5
				c0.5-1.1,0.9-2.3,1.1-3.7c0.2-1.4,0.3-2.9,0.3-4.4V1h8.2v31.5C474.6,35.1,474.3,37.5,473.8,39.7z"/>
		</g>
	</g>
	<g>
		<g>
			<g>
				<path fill="#010101" d="M459.2,51.4c-2.8,0-5.3-0.5-7.3-1.5l0.3-0.7c1.9,0.9,4.2,1.4,6.9,1.4c2.7,0,5.1-0.5,7-1.4
					c1.9-0.9,3.5-2.2,4.7-3.9c1.2-1.6,2.1-3.6,2.6-5.8c0.5-2.2,0.8-4.6,0.8-7.1h0.7c0,2.6-0.3,5.1-0.8,7.3c-0.6,2.3-1.5,4.3-2.7,6
					c-1.3,1.7-2.9,3.1-4.9,4.1C464.5,50.9,462,51.4,459.2,51.4z M459.3,43.6c-1.5,0-2.7-0.3-3.7-1c-1-0.7-1.7-1.5-2.3-2.7
					c-0.5-1.1-0.9-2.4-1.1-3.8c-0.2-1.4-0.3-2.9-0.3-4.4h0.7c0,1.5,0.1,2.9,0.3,4.3c0.2,1.4,0.6,2.6,1.1,3.6c0.5,1,1.2,1.8,2,2.4
					c0.9,0.6,2,0.9,3.3,0.9c1.3,0,2.5-0.3,3.3-0.9c0.9-0.6,1.5-1.4,2-2.4c0.5-1,0.9-2.2,1.1-3.6c0.2-1.4,0.3-2.8,0.3-4.3V10.6h0.7
					v21.1c0,1.5-0.1,3-0.3,4.4c-0.2,1.4-0.6,2.7-1.1,3.8c-0.6,1.1-1.3,2-2.3,2.7C462,43.3,460.8,43.6,459.3,43.6z M444.3,32.2h-0.7
					V0.6h9v23.6h-0.7V1.4h-7.5V32.2z M475,25h-0.7V1.4h-7.6V0.6h8.3V25z"/>
			</g>
		</g>
	</g>
	<g>
		<g>
			<path fill="#414141" d="M458,48.3c-0.5,0-0.9,0-1.3-0.1l0.1-0.7c0.7,0.1,1.5,0.1,2.2,0l0,0.7C458.6,48.3,458.3,48.3,458,48.3z
				 M460.4,48.1l-0.1-0.7c0.7-0.1,1.4-0.3,2.1-0.5l0.2,0.7C461.9,47.8,461.2,48,460.4,48.1z M455.1,47.9c-0.8-0.2-1.5-0.5-2.1-0.8
				l0.4-0.7c0.6,0.3,1.3,0.6,2,0.8L455.1,47.9z M464,47.1l-0.3-0.7c0.7-0.3,1.3-0.7,1.8-1.1l0.4,0.6C465.4,46.4,464.8,46.8,464,47.1
				z M451.7,46.3c-0.6-0.5-1.1-1-1.6-1.7l0.6-0.4c0.4,0.6,0.9,1.1,1.5,1.5L451.7,46.3z M467.2,44.9l-0.5-0.5
				c0.5-0.5,0.9-1.1,1.3-1.7l0.6,0.4C468.2,43.8,467.7,44.4,467.2,44.9z M449.3,43.3c-0.4-0.6-0.7-1.3-0.9-2.1L449,41
				c0.3,0.7,0.5,1.4,0.9,2L449.3,43.3z M469.4,41.8l-0.7-0.3c0.3-0.6,0.6-1.3,0.8-2l0.7,0.2C470,40.5,469.7,41.2,469.4,41.8z
				 M447.9,39.8c-0.2-0.7-0.3-1.4-0.4-2.2l0.7-0.1c0.1,0.7,0.3,1.5,0.4,2.1L447.9,39.8z M470.6,38.3l-0.7-0.1
				c0.1-0.7,0.2-1.4,0.3-2.2l0.7,0.1C470.8,36.8,470.7,37.5,470.6,38.3z M447.2,36.1c-0.1-0.7-0.2-1.4-0.2-2.1v-0.1l1,0V34
				c0,0.7-0.1,1.4,0,2.1L447.2,36.1z M471,34.5l-1,0v-0.2c0-0.8,0.1-1.2,0.1-1.2l0.1-0.5h0.8v1h-0.1c0,0,0.1-0.1,0.1,0.8V34.5z
				 M448,32.5h-1v-2h1V32.5z M471,30.5h-1v-2h1V30.5z M448,28.5h-1v-2h1V28.5z M471,27.2h-1v-3h1V27.2z M448,24.5h-1v-2h1V24.5z
				 M471,23.5h-1v-2h1V23.5z M448,21.2h-1v-3h1V21.2z M471,19.5h-1v-2h1V19.5z M448,17.5h-1v-2h1V17.5z M471,16.2h-1v-3h1V16.2z
				 M448,13.5h-1v-2h1V13.5z M471,12.5h-1v-2h1V12.5z M448,10.2h-1v-3h1V10.2z M471,8.5h-1v-2h1V8.5z M448,6.5h-1v-2h1V6.5z
				 M470.9,4.9h-0.7V3.5h0.7V4.9z"/>
		</g>
	</g>
</g>
<g>
	<g>
		<g>
			<g>
				<path fill="#DCDBDB" d="M332.7,50.4l-2.4-10.3h-12.8L315,50.4h-8.3l12.1-48.8h10.5l11.9,48.8H332.7z M324.1,9.4h-0.3l-5.3,24.2
					h10.7L324.1,9.4z"/>
			</g>
		</g>
		<g>
			<g>
				<g>
					<path fill="#010101" d="M341.8,50.8h-9.1V50h8.1l-2.2-8.8l0.7-0.2L341.8,50.8z M315,50.8h-8.7l5.1-20.5l0.7,0.2L307.2,50h7.8
						V50.8z M316.7,45l-0.7-0.2l1.2-5.1h13.1v0.7h-12.5L316.7,45z M329.7,33.9H318l1.7-7.7l0.7,0.2l-1.5,6.8h9.8l-0.6-3l0.7-0.2
						L329.7,33.9z M326.7,23.5l-2.8-13l-1.1,5.1l-0.7-0.2l1.4-6.5h0.9l3.1,14.3L326.7,23.5z M333.9,21.6L329.1,2h-10L318,6.5
						l-0.7-0.2l1.3-5h11.1l4.9,20.2L333.9,21.6z"/>
				</g>
			</g>
		</g>
		<g>
			<g>
				<g>
					
						<rect x="310.8" y="46.9" transform="matrix(0.9715 0.2369 -0.2369 0.9715 20.1007 -72.3609)" fill="#010101" width="0.7" height="1.1"/>
				</g>
			</g>
			<g>
				<g>
					<path fill="#010101" d="M312,45.6l-0.7-0.2l0.5-2.2l0.7,0.2L312,45.6z M312.8,42l-0.7-0.2l0.5-2.2l0.7,0.2L312.8,42z
						 M313.7,38.4l-0.7-0.2l0.5-2.2l0.7,0.2L313.7,38.4z M314.6,34.7l-0.7-0.2l0.5-2.2l0.7,0.2L314.6,34.7z M315.5,31.1l-0.7-0.2
						l0.5-2.2L316,29L315.5,31.1z M316.3,27.5l-0.7-0.2l0.5-2.2l0.7,0.2L316.3,27.5z M317.2,23.9l-0.7-0.2l0.5-2.2l0.7,0.2
						L317.2,23.9z M318.1,20.3l-0.7-0.2l0.5-2.2l0.7,0.2L318.1,20.3z M319,16.7l-0.7-0.2l0.5-2.2l0.7,0.2L319,16.7z M319.8,13.1
						l-0.7-0.2l0.5-2.2l0.7,0.2L319.8,13.1z M320.7,9.5L320,9.3l0.5-2.2l0.7,0.2L320.7,9.5z"/>
				</g>
			</g>
			<g>
				<g>
					
						<rect x="321" y="4.7" transform="matrix(0.9723 0.2337 -0.2337 0.9723 10.1358 -74.9641)" fill="#010101" width="0.7" height="1.1"/>
				</g>
			</g>
		</g>
		<g>
			<g>
				<g>
					
						<rect x="325.9" y="4.9" transform="matrix(0.2378 0.9713 -0.9713 0.2378 253.925 -313.0206)" fill="#010101" width="1.1" height="0.7"/>
				</g>
			</g>
			<g>
				<g>
					<path fill="#010101" d="M335.9,45.6l-0.5-2.2l0.7-0.2l0.5,2.2L335.9,45.6z M335,42l-0.5-2.2l0.7-0.2l0.5,2.2L335,42z
						 M334.1,38.4l-0.5-2.2l0.7-0.2l0.5,2.2L334.1,38.4z M333.2,34.7l-0.5-2.2l0.7-0.2l0.5,2.2L333.2,34.7z M332.4,31.1l-0.5-2.2
						l0.7-0.2l0.5,2.2L332.4,31.1z M331.5,27.5l-0.5-2.2l0.7-0.2l0.5,2.2L331.5,27.5z M330.6,23.9l-0.5-2.2l0.7-0.2l0.5,2.2
						L330.6,23.9z M329.7,20.3l-0.5-2.2l0.7-0.2l0.5,2.2L329.7,20.3z M328.8,16.7l-0.5-2.2l0.7-0.2l0.5,2.2L328.8,16.7z M327.9,13.1
						l-0.5-2.2l0.7-0.2l0.5,2.2L327.9,13.1z M327.1,9.5l-0.5-2.2l0.7-0.2l0.5,2.2L327.1,9.5z"/>
				</g>
			</g>
			<g>
				<g>
					
						<rect x="336.2" y="47.1" transform="matrix(0.2377 0.9713 -0.9713 0.2377 302.7875 -290.9147)" fill="#010101" width="1.1" height="0.7"/>
				</g>
			</g>
		</g>
		<g>
			<g>
				<path fill="#010101" d="M328,36.2h-3v-1h3V36.2z M323.8,36.7h-1.9v-1h1.9V36.7z M319.9,36.7h-2v-1h2V36.7z"/>
			</g>
		</g>
	</g>
	<g>
		<g>
			<g>
				<path fill="#DCDBDB" d="M202.2,49.8c-2,1.2-4.5,1.8-7.5,1.8c-2.8,0-5.2-0.6-7.5-1.9c-2.2-1.3-4.1-3.1-5.6-5.3
					c-1.5-2.3-2.7-5-3.6-8.1c-0.9-3.1-1.3-6.5-1.3-10.3c0-3.7,0.4-7.2,1.3-10.3c0.8-3.1,2.1-5.9,3.6-8.1c1.6-2.3,3.5-4,5.7-5.3
					c2.2-1.3,4.7-1.9,7.4-1.9c2.8,0,5.3,0.5,7.4,1.6c2.1,1,3.8,2.5,5.2,4.4l-4.8,5.8c-1.9-2.7-4.3-4.1-7.3-4.1
					c-1.7,0-3.1,0.5-4.3,1.4c-1.2,0.9-2.3,2.2-3.1,3.8c-0.8,1.6-1.4,3.5-1.9,5.7c-0.4,2.2-0.6,4.5-0.6,7c0,2.4,0.2,4.7,0.6,6.9
					s1,4.1,1.9,5.7c0.8,1.6,1.9,2.9,3.1,3.8c1.3,0.9,2.7,1.4,4.4,1.4c1.6,0,3-0.4,4.2-1.2c1.2-0.8,2.1-1.8,2.9-3l4.8,5.6
					C205.9,47.1,204.2,48.6,202.2,49.8z"/>
			</g>
		</g>
		<g>
			<g>
				<g>
					<path fill="#010101" d="M194.7,52c-2.8,0-5.4-0.7-7.7-2c-2.3-1.3-4.2-3.1-5.8-5.5c-1.6-2.3-2.8-5.1-3.6-8.2
						c-0.9-3.1-1.3-6.6-1.3-10.4h0.7c0,3.7,0.4,7.1,1.3,10.2c0.8,3.1,2,5.8,3.5,8c1.5,2.2,3.4,4,5.5,5.2c2.2,1.2,4.6,1.9,7.3,1.9V52
						z M202.4,50.2l-0.4-0.6c1.9-1.1,3.4-2.6,4.7-4.3l-4.3-5c-0.8,1.1-1.7,2-2.7,2.7c-1.2,0.9-2.7,1.3-4.4,1.3
						c-1.8,0-3.3-0.5-4.7-1.5c-1.3-1-2.4-2.3-3.2-4c-0.8-1.6-1.5-3.6-1.9-5.8c-0.4-2.2-0.6-4.5-0.6-7c0-2.5,0.2-4.9,0.6-7.1l0.7,0.1
						c-0.4,2.1-0.6,4.5-0.6,6.9c0,2.4,0.2,4.7,0.6,6.9c0.4,2.1,1,4,1.8,5.6c0.8,1.6,1.8,2.8,3,3.7c1.2,0.9,2.6,1.3,4.2,1.3
						c1.5,0,2.9-0.4,4-1.2c1.1-0.8,2.1-1.8,2.8-2.9l0.3-0.4l5.3,6.2l-0.2,0.2C206.1,47.3,204.5,48.9,202.4,50.2z M202.4,12.8
						l-0.3-0.4c-1.8-2.6-4.1-3.9-7-3.9V7.7c3,0,5.4,1.3,7.3,3.8l4.3-5.2c-1.3-1.8-2.9-3.1-4.9-4.1c-2.1-1-4.5-1.5-7.2-1.5
						c-2.6,0-5.1,0.6-7.2,1.8l-0.4-0.6c2.3-1.3,4.8-1.9,7.6-1.9c2.8,0,5.4,0.5,7.5,1.6c2.2,1.1,3.9,2.6,5.3,4.6l0.2,0.2L202.4,12.8z
						"/>
				</g>
			</g>
		</g>
		<g>
			<g>
				<path fill="#414141" d="M194.8,48.5c-0.2,0-0.3,0-0.5,0l0-0.7c0.7,0,1.4,0,2.1-0.1l0.1,0.7C196,48.5,195.4,48.5,194.8,48.5z
					 M192.8,48.3c-0.7-0.1-1.4-0.3-2.1-0.5l-0.1,0l0.2-0.7l0.1,0c0.7,0.2,1.4,0.4,2,0.5L192.8,48.3z M198.1,48l-0.2-0.7
					c0.7-0.2,1.3-0.5,2-0.9l0.4,0.6C199.5,47.5,198.8,47.8,198.1,48z M189.2,47.1c-0.6-0.4-1.2-0.8-1.8-1.4l0.5-0.5
					c0.6,0.5,1.1,1,1.7,1.3L189.2,47.1z M201.4,46.2l-0.5-0.6c0.7-0.6,1.2-1.1,1.5-1.5l0.6,0.5C202.8,45.1,202.2,45.7,201.4,46.2z
					 M186.3,44.7c-0.5-0.5-0.9-1.1-1.4-1.8l0.6-0.4c0.4,0.6,0.9,1.2,1.3,1.7L186.3,44.7z M184.1,41.6c-0.4-0.6-0.7-1.3-1.1-2
					l0.7-0.3c0.3,0.7,0.7,1.3,1,1.9L184.1,41.6z M182.4,38.3c-0.3-0.7-0.6-1.4-0.8-2.1l0.7-0.2c0.2,0.7,0.5,1.4,0.8,2L182.4,38.3z
					 M181.1,34.8c-0.2-0.7-0.4-1.4-0.6-2.2l0.7-0.2c0.2,0.7,0.3,1.4,0.6,2.1L181.1,34.8z M180.3,31.1c-0.1-0.7-0.2-1.5-0.3-2.2
					l0.7-0.1c0.1,0.7,0.2,1.4,0.3,2.2L180.3,31.1z M179.8,27.4c0-0.4,0-0.9,0-1.3c0-0.3,0-0.6,0-0.9l0.7,0c0,0.3,0,0.6,0,0.9
					c0,0.4,0,0.9,0,1.3L179.8,27.4z M180.7,23.7l-0.7-0.1c0-0.4,0.1-0.7,0.1-1.1c0.1-0.4,0.1-0.8,0.2-1.1l0.7,0.1
					c-0.1,0.4-0.1,0.7-0.2,1.1C180.7,23,180.7,23.4,180.7,23.7z M181.2,20.1l-0.7-0.1c0.1-0.8,0.3-1.5,0.4-2.2l0.7,0.2
					C181.4,18.6,181.3,19.3,181.2,20.1z M181.9,16.5l-0.7-0.2c0.2-0.8,0.4-1.5,0.6-2.2l0.7,0.2C182.3,15.1,182.1,15.8,181.9,16.5z
					 M183,13l-0.7-0.3c0.3-0.7,0.6-1.4,1-2l0.6,0.4C183.7,11.7,183.3,12.4,183,13z M184.8,9.9l-0.6-0.4c0.4-0.6,0.9-1.2,1.5-1.7
					l0.5,0.5C185.7,8.7,185.2,9.3,184.8,9.9z M187.2,7.3l-0.5-0.6c0.6-0.5,1.2-0.9,1.9-1.3l0.4,0.6C188.4,6.4,187.8,6.9,187.2,7.3z
					 M202.7,6.5c0,0-0.7-0.5-1.9-0.9l0.3-0.7c1.3,0.5,2,1,2.1,1L202.7,6.5z M190.3,5.4L190,4.7c0.7-0.3,1.4-0.6,2.2-0.7l0.2,0.7
					C191.6,4.9,191,5.1,190.3,5.4z M199.4,5.1c-0.7-0.2-1.4-0.4-2.1-0.5l0.1-0.7c0.7,0.1,1.5,0.3,2.2,0.5L199.4,5.1z M193.7,4.5
					l-0.1-0.7c0.7-0.1,1.5-0.1,2.3,0l0,0.7C195.2,4.4,194.4,4.4,193.7,4.5z"/>
			</g>
		</g>
	</g>
	<g>
		<g>
			<g>
				<path fill="#DCDBDB" d="M367.8,49.8c-2,1.2-4.5,1.8-7.5,1.8c-2.8,0-5.2-0.6-7.5-1.9c-2.2-1.3-4.1-3.1-5.6-5.3
					c-1.5-2.3-2.7-5-3.6-8.1c-0.9-3.1-1.3-6.5-1.3-10.3c0-3.7,0.4-7.2,1.3-10.3c0.8-3.1,2.1-5.9,3.6-8.1c1.6-2.3,3.5-4,5.7-5.3
					c2.2-1.3,4.7-1.9,7.4-1.9c2.8,0,5.3,0.5,7.4,1.6c2.1,1,3.8,2.5,5.2,4.4l-4.8,5.8c-1.9-2.7-4.3-4.1-7.3-4.1
					c-1.7,0-3.1,0.5-4.3,1.4c-1.2,0.9-2.3,2.2-3.1,3.8c-0.8,1.6-1.4,3.5-1.9,5.7c-0.4,2.2-0.6,4.5-0.6,7c0,2.4,0.2,4.7,0.6,6.9
					c0.4,2.2,1,4.1,1.9,5.7c0.8,1.6,1.9,2.9,3.1,3.8c1.3,0.9,2.7,1.4,4.4,1.4c1.6,0,3-0.4,4.2-1.2c1.2-0.8,2.1-1.8,2.9-3l4.8,5.6
					C371.5,47.1,369.8,48.6,367.8,49.8z"/>
			</g>
		</g>
		<g>
			<g>
				<g>
					<path fill="#010101" d="M360.3,52c-2.8,0-5.4-0.7-7.7-2c-2.3-1.3-4.2-3.1-5.8-5.5c-1.6-2.3-2.8-5.1-3.6-8.2
						c-0.9-3.1-1.3-6.6-1.3-10.4h0.7c0,3.7,0.4,7.1,1.3,10.2c0.8,3.1,2,5.8,3.5,8c1.5,2.2,3.4,4,5.5,5.2c2.2,1.2,4.6,1.9,7.3,1.9V52
						z M368,50.2l-0.4-0.6c1.9-1.1,3.4-2.6,4.7-4.3l-4.3-5c-0.8,1.1-1.7,2-2.7,2.7c-1.2,0.9-2.7,1.3-4.4,1.3c-1.8,0-3.3-0.5-4.7-1.5
						c-1.3-1-2.4-2.3-3.2-4c-0.8-1.6-1.5-3.6-1.9-5.8c-0.4-2.2-0.6-4.5-0.6-7c0-2.5,0.2-4.9,0.6-7.1l0.7,0.1
						c-0.4,2.1-0.6,4.5-0.6,6.9c0,2.4,0.2,4.7,0.6,6.9c0.4,2.1,1,4,1.8,5.6c0.8,1.6,1.8,2.8,3,3.7c1.2,0.9,2.6,1.3,4.2,1.3
						c1.5,0,2.9-0.4,4-1.2c1.1-0.8,2.1-1.8,2.8-2.9L368,39l5.3,6.2l-0.2,0.2C371.8,47.3,370.1,48.9,368,50.2z M368.1,12.8l-0.3-0.4
						c-1.8-2.6-4.1-3.9-7-3.9V7.7c3,0,5.4,1.3,7.3,3.8l4.3-5.2c-1.3-1.8-2.9-3.1-4.9-4.1c-2.1-1-4.5-1.5-7.2-1.5
						c-2.6,0-5.1,0.6-7.2,1.8l-0.4-0.6c2.3-1.3,4.8-1.9,7.6-1.9c2.8,0,5.4,0.5,7.5,1.6c2.2,1.1,3.9,2.6,5.3,4.6l0.2,0.2L368.1,12.8z
						"/>
				</g>
			</g>
		</g>
		<g>
			<g>
				<path fill="#414141" d="M360.4,48.5c-0.2,0-0.3,0-0.5,0l0-0.7c0.7,0,1.4,0,2.1-0.1l0.1,0.7C361.6,48.5,361,48.5,360.4,48.5z
					 M358.4,48.3c-0.7-0.1-1.4-0.3-2.1-0.5l-0.1,0l0.2-0.7l0.1,0c0.7,0.2,1.4,0.4,2,0.5L358.4,48.3z M363.7,48l-0.2-0.7
					c0.7-0.2,1.3-0.5,2-0.9l0.4,0.6C365.1,47.5,364.4,47.8,363.7,48z M354.8,47.1c-0.6-0.4-1.2-0.8-1.8-1.4l0.5-0.5
					c0.6,0.5,1.1,1,1.7,1.3L354.8,47.1z M367.1,46.2l-0.5-0.6c0.7-0.6,1.2-1.1,1.5-1.5l0.6,0.5C368.4,45.1,367.8,45.7,367.1,46.2z
					 M351.9,44.7c-0.5-0.5-0.9-1.1-1.4-1.8l0.6-0.4c0.4,0.6,0.9,1.2,1.3,1.7L351.9,44.7z M349.7,41.6c-0.4-0.6-0.7-1.3-1.1-2
					l0.7-0.3c0.3,0.7,0.7,1.3,1,1.9L349.7,41.6z M348,38.3c-0.3-0.7-0.6-1.4-0.8-2.1l0.7-0.2c0.2,0.7,0.5,1.4,0.8,2L348,38.3z
					 M346.7,34.8c-0.2-0.7-0.4-1.4-0.6-2.2l0.7-0.2c0.2,0.7,0.3,1.4,0.6,2.1L346.7,34.8z M345.9,31.1c-0.1-0.7-0.2-1.5-0.3-2.2
					l0.7-0.1c0.1,0.7,0.2,1.4,0.3,2.2L345.9,31.1z M345.5,27.4c0-0.4,0-0.9,0-1.3c0-0.3,0-0.6,0-0.9l0.7,0c0,0.3,0,0.6,0,0.9
					c0,0.4,0,0.9,0,1.3L345.5,27.4z M346.3,23.7l-0.7-0.1c0-0.4,0.1-0.7,0.1-1.1c0.1-0.4,0.1-0.8,0.2-1.1l0.7,0.1
					c-0.1,0.4-0.1,0.7-0.2,1.1C346.3,23,346.3,23.4,346.3,23.7z M346.8,20.1l-0.7-0.1c0.1-0.8,0.3-1.5,0.4-2.2l0.7,0.2
					C347,18.6,346.9,19.3,346.8,20.1z M347.5,16.5l-0.7-0.2c0.2-0.8,0.4-1.5,0.6-2.2l0.7,0.2C347.9,15.1,347.7,15.8,347.5,16.5z
					 M348.7,13l-0.7-0.3c0.3-0.7,0.6-1.4,1-2l0.6,0.4C349.3,11.7,348.9,12.4,348.7,13z M350.4,9.9l-0.6-0.4c0.4-0.6,0.9-1.2,1.5-1.7
					l0.5,0.5C351.3,8.7,350.8,9.3,350.4,9.9z M352.8,7.3l-0.5-0.6c0.6-0.5,1.2-0.9,1.9-1.3l0.4,0.6C354,6.4,353.4,6.9,352.8,7.3z
					 M368.3,6.5c0,0-0.7-0.5-1.9-0.9l0.3-0.7c1.3,0.5,2,1,2.1,1L368.3,6.5z M355.9,5.4l-0.3-0.7c0.7-0.3,1.4-0.6,2.2-0.7l0.2,0.7
					C357.2,4.9,356.6,5.1,355.9,5.4z M365,5.1c-0.7-0.2-1.4-0.4-2.1-0.5l0.1-0.7c0.7,0.1,1.5,0.3,2.2,0.5L365,5.1z M359.4,4.5
					l-0.1-0.7c0.7-0.1,1.5-0.1,2.3,0l0,0.7C360.8,4.4,360.1,4.4,359.4,4.5z"/>
			</g>
		</g>
	</g>
	<g>
		<g>
			<g>
				<path fill="#DCDBDB" d="M300.1,8.6v41.8H292V8.6h-9.2v-7h26.5v7H300.1z"/>
			</g>
		</g>
		<g>
			<g>
				<g>
					<path fill="#010101" d="M300.5,50.8h-8.9v-7.8h0.7V50h7.4V26.3h0.7V50.8z M292.4,36.8h-0.7V8.6h0.7V36.8z M300.5,18.7h-0.7V8.3
						h9.2V2h-15.5V1.2h16.2V9h-9.2V18.7z"/>
				</g>
			</g>
		</g>
		<line fill="none" stroke="#414141" stroke-miterlimit="10" stroke-dasharray="2" x1="284" y1="4.7" x2="308" y2="4.7"/>
		<line fill="none" stroke="#414141" stroke-miterlimit="10" stroke-dasharray="3" x1="296.5" y1="7.2" x2="296.5" y2="49.2"/>
	</g>
	<g>
		<g>
			<g>
				<path fill="#DCDBDB" d="M393.3,8.6v41.8h-8.1V8.6H376v-7h26.5v7H393.3z"/>
			</g>
		</g>
		<g>
			<g>
				<g>
					<path fill="#010101" d="M393.7,50.8h-8.9v-7.8h0.7V50h7.4V26.3h0.7V50.8z M385.5,36.8h-0.7V8.6h0.7V36.8z M393.7,18.7h-0.7V8.3
						h9.2V2h-15.5V1.2h16.2V9h-9.2V18.7z"/>
				</g>
			</g>
		</g>
		<line fill="none" stroke="#414141" stroke-miterlimit="10" stroke-dasharray="2" x1="378" y1="4.7" x2="401" y2="4.7"/>
		<line fill="none" stroke="#414141" stroke-miterlimit="10" stroke-dasharray="3" x1="389.5" y1="7.2" x2="389.5" y2="49.2"/>
	</g>
	<g>
		<g>
			<g>
				<path fill="#DCDBDB" d="M270.2,50.4l-13.8-34.4h-0.2l0.1,34.4h-7.4V1.6h9.4L272,36.3h0.2l-0.1-34.7h7.2v48.8H270.2z"/>
			</g>
		</g>
		<g>
			<g>
				<g>
					<path fill="#010101" d="M279.7,50.8H270l-5-12.3l0.7-0.3l4.8,11.9h8.5V2h-6.4l0,10.7l-0.7,0l0-11.4h7.9V50.8z M256.7,50.8h-8.2
						v-8.4h0.7V50h6.7l-0.1-34.4h0.8l3.4,8.4l-0.7,0.3l-2.8-6.9L256.7,50.8z M249.3,30.9h-0.7V1.2h10.1l9.5,23.9l-0.7,0.3L258.1,2
						h-8.8V30.9z"/>
				</g>
			</g>
		</g>
		<line fill="none" stroke="#414141" stroke-miterlimit="10" stroke-dasharray="3" x1="252.5" y1="49.2" x2="252.5" y2="4.2"/>
		<line fill="none" stroke="#414141" stroke-miterlimit="10" stroke-dasharray="3" x1="276.5" y1="49.2" x2="276.5" y2="4.2"/>
		<g>
			<g>
				<line fill="none" stroke="#414141" stroke-miterlimit="10" x1="255.5" y1="5.8" x2="256.1" y2="7.2"/>
				
					<line fill="none" stroke="#414141" stroke-miterlimit="10" stroke-dasharray="2.818,2.818" x1="257.2" y1="9.8" x2="271.9" y2="44.9"/>
				<line fill="none" stroke="#414141" stroke-miterlimit="10" x1="272.4" y1="46.2" x2="273" y2="47.6"/>
			</g>
		</g>
	</g>
	<g>
		<g>
			<g>
				<path fill="#DCDBDB" d="M244,25.9c0,3.9-0.4,7.4-1.2,10.5c-0.8,3.1-2,5.8-3.5,8.1c-1.5,2.3-3.4,4-5.5,5.2
					c-2.2,1.2-4.6,1.9-7.3,1.9c-2.8,0-5.2-0.6-7.4-1.9c-2.2-1.2-4-3-5.5-5.2c-1.5-2.2-2.7-4.9-3.5-8.1c-0.8-3.1-1.2-6.6-1.2-10.5
					c0-3.9,0.4-7.3,1.2-10.5c0.8-3.1,1.9-5.8,3.4-8.1c1.5-2.3,3.4-4,5.5-5.2c2.2-1.2,4.7-1.8,7.4-1.8c2.7,0,5.2,0.6,7.3,1.8
					c2.2,1.2,4,3,5.5,5.2c1.5,2.3,2.7,4.9,3.5,8.1C243.6,18.6,244,22.1,244,25.9z M235.4,25.9c0-2.5-0.2-4.8-0.6-7
					c-0.4-2.2-1-4.1-1.7-5.6c-0.8-1.6-1.7-2.8-2.8-3.8c-1.1-0.9-2.4-1.4-3.9-1.4c-1.5,0-2.8,0.5-4,1.4c-1.1,0.9-2.1,2.2-2.8,3.8
					c-0.8,1.6-1.3,3.5-1.7,5.6c-0.4,2.2-0.5,4.5-0.5,7c0,2.5,0.2,4.8,0.5,7c0.4,2.2,0.9,4.1,1.7,5.7c0.8,1.6,1.7,2.9,2.8,3.8
					c1.1,0.9,2.4,1.4,4,1.4c1.5,0,2.8-0.5,4-1.4c1.1-0.9,2.1-2.2,2.8-3.8c0.8-1.6,1.3-3.5,1.7-5.7C235.2,30.7,235.4,28.4,235.4,25.9
					z"/>
			</g>
		</g>
		<g>
			<g>
				<g>
					<path fill="#010101" d="M226.4,52c-2.8,0-5.4-0.6-7.6-1.9l0.4-0.6c2.1,1.2,4.5,1.8,7.2,1.8c2.6,0,5-0.6,7.2-1.8
						c2.1-1.2,3.9-2.9,5.4-5.1l0.6,0.4c-1.5,2.3-3.4,4.1-5.7,5.4C231.7,51.4,229.2,52,226.4,52z M226.4,44.1c-1.6,0-3-0.5-4.2-1.5
						c-1.2-0.9-2.1-2.3-2.9-3.9c-0.8-1.6-1.3-3.6-1.7-5.8c-0.4-2.2-0.6-4.6-0.6-7.1c0-2.5,0.2-4.9,0.6-7.1c0.4-2.2,0.9-4.1,1.7-5.7
						c0.8-1.6,1.8-2.9,2.9-3.9c1.2-1,2.6-1.5,4.2-1.5c1.6,0,2.9,0.5,4.1,1.5l-0.2,0.3l0.2-0.3c1.2,0.9,2.1,2.3,2.9,3.9l-0.7,0.3
						c-0.7-1.5-1.6-2.7-2.7-3.6c-1.1-0.9-2.3-1.3-3.7-1.3c-1.4,0-2.7,0.4-3.7,1.3c-1.1,0.9-2,2.1-2.7,3.6c-0.7,1.5-1.3,3.4-1.7,5.6
						c-0.4,2.1-0.5,4.5-0.5,6.9c0,2.5,0.2,4.8,0.5,6.9c0.4,2.1,0.9,4,1.7,5.6c0.7,1.6,1.6,2.8,2.7,3.7c1.1,0.9,2.3,1.3,3.7,1.3
						c1.4,0,2.7-0.4,3.7-1.3c1.1-0.9,2-2.1,2.7-3.7l0.7,0.3c-0.8,1.7-1.8,3-2.9,3.9C229.4,43.7,228,44.1,226.4,44.1z M243.1,36.5
						l-0.7-0.2c0.8-3.1,1.2-6.6,1.2-10.4c0-3.8-0.4-7.3-1.2-10.4c-0.8-3.1-1.9-5.7-3.4-7.9c-1.5-2.2-3.3-3.9-5.4-5.1
						c-2.1-1.2-4.5-1.8-7.2-1.8c-2.7,0-5.1,0.6-7.2,1.8c-2.1,1.2-3.9,2.9-5.4,5.1c-1.5,2.2-2.6,4.9-3.4,7.9l-0.7-0.2
						c0.8-3.1,2-5.9,3.5-8.2c1.5-2.3,3.5-4.1,5.7-5.3c2.2-1.2,4.8-1.9,7.6-1.9c2.8,0,5.3,0.6,7.5,1.9c2.2,1.2,4.1,3,5.7,5.3
						c1.5,2.3,2.7,5,3.5,8.2c0.8,3.1,1.2,6.7,1.2,10.6C244.3,29.8,243.9,33.4,243.1,36.5z"/>
				</g>
			</g>
		</g>
		<g>
			<g>
				<path fill="#414141" d="M226,48.7c-0.8,0-1.5-0.2-2.3-0.4l0.2-0.7c0.7,0.2,1.4,0.3,2.1,0.4L226,48.7z M227.5,48.7l-0.1-0.7
					c0.7-0.1,1.4-0.2,2.1-0.5l0.2,0.7C229,48.4,228.3,48.6,227.5,48.7z M222.3,47.8c-0.7-0.3-1.3-0.7-2-1.1l0.4-0.6
					c0.6,0.4,1.2,0.8,1.9,1.1L222.3,47.8z M231.1,47.6l-0.3-0.7c0.6-0.3,1.2-0.7,1.8-1.2l0.5,0.6C232.4,46.8,231.8,47.2,231.1,47.6z
					 M219.1,45.7c-0.5-0.5-1.1-1-1.6-1.6l0.6-0.5c0.5,0.6,1,1.1,1.5,1.6L219.1,45.7z M234.2,45.3l-0.5-0.5c0.5-0.5,1-1,1.5-1.6
					l0.6,0.5C235.2,44.3,234.7,44.8,234.2,45.3z M216.6,42.9c-0.4-0.6-0.8-1.2-1.2-1.9l0.6-0.4c0.4,0.6,0.8,1.3,1.2,1.8L216.6,42.9z
					 M236.6,42.4L236,42c0.4-0.6,0.8-1.2,1.1-1.9l0.7,0.3C237.4,41.2,237,41.8,236.6,42.4z M214.7,39.6c-0.3-0.7-0.6-1.4-0.9-2.1
					l0.7-0.3c0.3,0.7,0.6,1.4,0.9,2L214.7,39.6z M238.4,39.2l-0.7-0.3c0.3-0.7,0.6-1.3,0.8-2l0.7,0.2
					C239,37.8,238.8,38.5,238.4,39.2z M213.3,36.2c-0.2-0.7-0.4-1.4-0.6-2.2l0.7-0.2c0.2,0.7,0.4,1.4,0.6,2.1L213.3,36.2z
					 M239.8,35.6l-0.7-0.2c0.2-0.7,0.4-1.4,0.6-2.1l0.7,0.2C240.2,34.2,240,34.9,239.8,35.6z M212.4,32.5c-0.1-0.7-0.3-1.5-0.3-2.2
					l0.7-0.1c0.1,0.7,0.2,1.5,0.3,2.2L212.4,32.5z M240.6,32l-0.7-0.1c0.1-0.7,0.2-1.4,0.3-2.2l0.7,0.1
					C240.9,30.5,240.7,31.3,240.6,32z M211.9,28.8c-0.1-0.7-0.1-1.5-0.1-2.2l0.7,0c0,0.7,0,1.5,0.1,2.2L211.9,28.8z M241.1,28.3
					l-0.7,0c0-0.7,0.1-1.5,0.1-2.2c0-0.6,0-1.2,0-1.8l0.7,0c0,0.6,0,1.2,0,1.8C241.1,26.8,241.1,27.6,241.1,28.3z M212.6,25.1
					l-0.7,0c0-0.7,0.1-1.5,0.1-2.2l0.7,0.1C212.6,23.7,212.6,24.4,212.6,25.1z M240.2,22.8c-0.1-0.7-0.2-1.5-0.3-2.2l0.7-0.1
					c0.1,0.7,0.2,1.5,0.3,2.2L240.2,22.8z M212.8,21.5l-0.7-0.1c0.1-0.7,0.2-1.5,0.4-2.2l0.7,0.1C213.1,20,212.9,20.8,212.8,21.5z
					 M239.7,19.2c-0.2-0.7-0.3-1.4-0.5-2.1l0.7-0.2c0.2,0.7,0.4,1.4,0.5,2.2L239.7,19.2z M213.5,17.9l-0.7-0.2
					c0.2-0.7,0.4-1.5,0.6-2.2l0.7,0.2C213.9,16.5,213.7,17.2,213.5,17.9z M238.7,15.7c-0.2-0.7-0.5-1.4-0.8-2l0.7-0.3
					c0.3,0.7,0.6,1.4,0.8,2.1L238.7,15.7z M214.7,14.4l-0.7-0.3c0.3-0.7,0.6-1.4,0.9-2.1l0.7,0.3C215.2,13.1,214.9,13.7,214.7,14.4z
					 M237.3,12.3c-0.3-0.7-0.7-1.3-1.1-1.9l0.6-0.4c0.4,0.6,0.8,1.3,1.1,2L237.3,12.3z M216.3,11.2l-0.6-0.4
					c0.4-0.7,0.8-1.3,1.2-1.9l0.6,0.4C217,9.9,216.6,10.5,216.3,11.2z M235.4,9.3c-0.5-0.6-0.9-1.1-1.4-1.6l0.5-0.5
					c0.5,0.5,1,1.1,1.5,1.7L235.4,9.3z M218.4,8.2l-0.6-0.5c0.5-0.6,1.1-1.1,1.6-1.6l0.5,0.6C219.4,7.2,218.9,7.7,218.4,8.2z
					 M232.9,6.6c-0.6-0.5-1.2-0.9-1.8-1.2l0.4-0.6c0.6,0.4,1.3,0.8,1.9,1.3L232.9,6.6z M221.1,5.8l-0.4-0.6c0.7-0.4,1.3-0.8,2-1.1
					l0.3,0.7C222.3,5.1,221.7,5.4,221.1,5.8z M229.9,4.8c-0.7-0.3-1.4-0.5-2.1-0.6l0.1-0.7c0.7,0.1,1.5,0.3,2.2,0.6L229.9,4.8z
					 M224.3,4.4l-0.2-0.7c0.7-0.2,1.5-0.3,2.3-0.3l0,0.7C225.7,4.1,225,4.2,224.3,4.4z"/>
			</g>
		</g>
	</g>
</g>
</svg>
