<?xml version="1.0" encoding="utf-8"?>
<!-- Generator: Adobe Illustrator 18.1.1, SVG Export Plug-In . SVG Version: 6.00 Build 0)  -->
<svg version="1.1" id="Layer_1" xmlns="http://www.w3.org/2000/svg" xmlns:xlink="http://www.w3.org/1999/xlink" x="0px" y="0px"
	 viewBox="0 0 330.3 52" enable-background="new 0 0 330.3 52" xml:space="preserve">
<g>
	<g>
		<g>
			<path fill="#DCDBDB" d="M325.2,11.1c-1.8-2.2-4-3.2-6.8-3.2c-0.8,0-1.5,0.1-2.3,0.4c-0.7,0.3-1.4,0.7-2,1.2
				c-0.6,0.6-1.1,1.3-1.4,2.1c-0.3,0.9-0.5,1.9-0.5,3.1c0,2.1,0.6,3.7,1.9,4.8c1.2,1.1,2.9,2.2,4.9,3.2c1.2,0.6,2.4,1.3,3.7,2.1
				c1.2,0.8,2.4,1.7,3.4,2.8c1,1.1,1.8,2.4,2.5,3.9c0.6,1.5,1,3.3,1,5.4c0,2.4-0.4,4.5-1.1,6.3c-0.8,1.8-1.8,3.4-3,4.7
				c-1.3,1.3-2.7,2.2-4.4,2.9c-1.7,0.6-3.5,1-5.4,1c-2.7,0-5.2-0.5-7.5-1.6c-2.3-1.1-4.1-2.4-5.5-4L307,40c1.1,1.3,2.3,2.3,3.8,3
				c1.5,0.7,3,1.1,4.6,1.1c1.7,0,3.2-0.6,4.3-1.8c1.1-1.2,1.7-2.9,1.7-5c0-2.1-0.7-3.8-2.1-5c-1.4-1.2-3.1-2.4-5.2-3.4
				c-1.3-0.6-2.6-1.4-3.8-2.1c-1.2-0.8-2.2-1.7-3.1-2.8c-0.9-1.1-1.6-2.3-2.1-3.8c-0.5-1.4-0.8-3.2-0.8-5.2c0-2.5,0.4-4.7,1.2-6.5
				c0.8-1.8,1.9-3.3,3.2-4.5c1.3-1.2,2.8-2.1,4.4-2.7c1.7-0.6,3.3-0.9,5-0.9c2.5,0,4.7,0.4,6.6,1.2c2,0.8,3.6,2,4.9,3.5L325.2,11.1z
				"/>
		</g>
	</g>
	<g>
		<g>
			<g>
				<path fill="#010101" d="M315.5,52c-2.8,0-5.3-0.5-7.7-1.6c-2.3-1.1-4.2-2.4-5.6-4.1l-0.2-0.2l4.9-6.7l0.3,0.4
					c1,1.2,2.3,2.2,3.7,2.9c1.4,0.7,2.9,1.1,4.4,1.1c1.7,0,3-0.5,4.1-1.7c1.1-1.1,1.6-2.7,1.6-4.8c0-2-0.7-3.6-1.9-4.8l0.5-0.5
					c1.5,1.3,2.2,3.1,2.2,5.3c0,2.2-0.6,4-1.8,5.3c-1.2,1.3-2.8,1.9-4.6,1.9c-1.6,0-3.2-0.4-4.7-1.1c-1.4-0.7-2.6-1.6-3.6-2.8
					l-4,5.4c1.3,1.5,3.1,2.7,5.2,3.7c2.2,1,4.7,1.5,7.4,1.5c1.8,0,3.6-0.3,5.2-0.9L321,51C319.3,51.7,317.4,52,315.5,52z
					 M328.2,31.6c-0.6-1.5-1.4-2.8-2.4-3.8c-1-1.1-2.1-2-3.3-2.8c-1.2-0.8-2.4-1.5-3.6-2c-2-1-3.7-2.1-5-3.3c-1.3-1.2-2-2.9-2-5.1
					c0-1.2,0.2-2.3,0.5-3.2c0.4-0.9,0.9-1.7,1.5-2.3l0,0c0.6-0.6,1.3-1,2.1-1.3c0.8-0.3,1.6-0.4,2.4-0.4c2.7,0,4.9,1,6.7,3l4.1-5.3
					c-1.3-1.4-2.8-2.5-4.6-3.2c-1.9-0.8-4.1-1.2-6.5-1.2c-1.6,0-3.3,0.3-4.9,0.8c-1.6,0.6-3.1,1.4-4.3,2.6c-1.3,1.2-2.3,2.6-3.1,4.4
					c-0.8,1.8-1.2,3.9-1.2,6.4H304c0-2.6,0.4-4.8,1.2-6.7c0.8-1.9,1.9-3.4,3.3-4.6c1.3-1.2,2.9-2.1,4.6-2.7c1.7-0.6,3.4-0.9,5.2-0.9
					c2.5,0,4.8,0.4,6.8,1.2c2,0.8,3.7,2,5.1,3.6l0.2,0.2l-5,6.5l-0.3-0.4c-1.7-2.1-3.9-3.1-6.5-3.1c-0.7,0-1.5,0.1-2.2,0.4
					c-0.7,0.2-1.3,0.6-1.9,1.1l-0.3-0.3l0.3,0.3c-0.6,0.5-1,1.2-1.3,2c-0.3,0.8-0.5,1.8-0.5,3c0,1.9,0.6,3.5,1.7,4.5
					c1.2,1.1,2.8,2.2,4.8,3.1c1.2,0.6,2.4,1.3,3.7,2.1c1.3,0.8,2.4,1.8,3.5,2.9c1,1.1,1.9,2.5,2.5,4L328.2,31.6z"/>
			</g>
		</g>
	</g>
	<path fill="none" stroke="#010101" stroke-miterlimit="10" stroke-dasharray="3" d="M325.9,6.1c0,0-5.6-3.8-10.3-2.8
		c-5.4,1.3-8.4,7.5-8.1,12.1c0.5,6.9,8.1,9.4,12.9,12.1c5.8,3.3,9.1,12.7,1.8,18.4c-6.8,5.4-13.2,1.1-15.4-0.7"/>
</g>
<g>
	<g>
		<g>
			<path fill="#DCDBDB" d="M297.4,39.7c-0.6,2.3-1.4,4.2-2.7,5.9c-1.2,1.7-2.8,3-4.8,4c-2,1-4.3,1.4-7.1,1.4c-2.8,0-5.2-0.5-7.1-1.4
				c-1.9-1-3.5-2.3-4.7-4c-1.2-1.7-2.1-3.6-2.6-5.9c-0.5-2.3-0.8-4.7-0.8-7.2V1h8.3v30.7c0,1.5,0.1,3,0.3,4.4
				c0.2,1.4,0.6,2.6,1.1,3.7c0.5,1.1,1.3,1.9,2.2,2.5c0.9,0.6,2.1,0.9,3.5,0.9c1.4,0,2.6-0.3,3.5-0.9c0.9-0.6,1.6-1.5,2.2-2.5
				c0.5-1.1,0.9-2.3,1.1-3.7c0.2-1.4,0.3-2.9,0.3-4.4V1h8.2v31.5C298.3,35.1,298,37.5,297.4,39.7z"/>
		</g>
	</g>
	<g>
		<g>
			<g>
				<path fill="#010101" d="M282.8,51.4c-2.8,0-5.3-0.5-7.3-1.5l0.3-0.7c1.9,0.9,4.2,1.4,6.9,1.4c2.7,0,5.1-0.5,7-1.4
					c1.9-0.9,3.5-2.2,4.7-3.9c1.2-1.6,2.1-3.6,2.6-5.8c0.5-2.2,0.8-4.6,0.8-7.1h0.7c0,2.6-0.3,5.1-0.8,7.3c-0.6,2.3-1.5,4.3-2.7,6
					c-1.3,1.7-2.9,3.1-4.9,4.1C288.1,50.9,285.7,51.4,282.8,51.4z M283,43.6c-1.5,0-2.7-0.3-3.7-1c-1-0.7-1.7-1.5-2.3-2.7
					c-0.5-1.1-0.9-2.4-1.1-3.8c-0.2-1.4-0.3-2.9-0.3-4.4h0.7c0,1.5,0.1,2.9,0.3,4.3c0.2,1.4,0.6,2.6,1.1,3.6c0.5,1,1.2,1.8,2,2.4
					c0.9,0.6,2,0.9,3.3,0.9c1.3,0,2.5-0.3,3.3-0.9c0.9-0.6,1.5-1.4,2-2.4c0.5-1,0.9-2.2,1.1-3.6c0.2-1.4,0.3-2.8,0.3-4.3V10.6h0.7
					v21.1c0,1.5-0.1,3-0.3,4.4c-0.2,1.4-0.6,2.7-1.1,3.8c-0.6,1.1-1.3,2-2.3,2.7C285.7,43.3,284.5,43.6,283,43.6z M268,32.2h-0.7
					V0.6h9v23.6h-0.7V1.4H268V32.2z M298.6,25h-0.7V1.4h-7.6V0.6h8.3V25z"/>
			</g>
		</g>
	</g>
	<g>
		<g>
			<path fill="#414141" d="M281.6,48.3c-0.5,0-0.9,0-1.3-0.1l0.1-0.7c0.7,0.1,1.5,0.1,2.2,0l0,0.7C282.3,48.3,282,48.3,281.6,48.3z
				 M284.1,48.1l-0.1-0.7c0.7-0.1,1.4-0.3,2.1-0.5l0.2,0.7C285.6,47.8,284.9,48,284.1,48.1z M278.8,47.9c-0.8-0.2-1.5-0.5-2.1-0.8
				l0.4-0.7c0.6,0.3,1.3,0.6,2,0.8L278.8,47.9z M287.7,47.1l-0.3-0.7c0.7-0.3,1.3-0.7,1.8-1.1l0.4,0.6
				C289.1,46.4,288.4,46.8,287.7,47.1z M275.4,46.3c-0.6-0.5-1.1-1-1.6-1.7l0.6-0.4c0.4,0.6,0.9,1.1,1.5,1.5L275.4,46.3z
				 M290.9,44.9l-0.5-0.5c0.5-0.5,0.9-1.1,1.3-1.7l0.6,0.4C291.9,43.8,291.4,44.4,290.9,44.9z M272.9,43.3c-0.4-0.6-0.7-1.3-0.9-2.1
				l0.7-0.2c0.3,0.7,0.5,1.4,0.9,2L272.9,43.3z M293.1,41.8l-0.7-0.3c0.3-0.6,0.6-1.3,0.8-2l0.7,0.2
				C293.6,40.5,293.4,41.2,293.1,41.8z M271.6,39.8c-0.2-0.7-0.3-1.4-0.4-2.2l0.7-0.1c0.1,0.7,0.3,1.5,0.4,2.1L271.6,39.8z
				 M294.2,38.3l-0.7-0.1c0.1-0.7,0.2-1.4,0.3-2.2l0.7,0.1C294.5,36.8,294.4,37.5,294.2,38.3z M270.8,36.1c-0.1-0.7-0.2-1.4-0.2-2.1
				v-0.1l1,0V34c0,0.7-0.1,1.4,0,2.1L270.8,36.1z M294.7,34.5l-1,0v-0.2c0-0.8,0.1-1.2,0.1-1.2l0.1-0.5h0.8v1h-0.1
				c0,0,0.1-0.1,0.1,0.8V34.5z M271.7,32.5h-1v-2h1V32.5z M294.7,30.5h-1v-2h1V30.5z M271.7,28.5h-1v-2h1V28.5z M294.7,27.2h-1v-3h1
				V27.2z M271.7,24.5h-1v-2h1V24.5z M294.7,23.5h-1v-2h1V23.5z M271.7,21.2h-1v-3h1V21.2z M294.7,19.5h-1v-2h1V19.5z M271.7,17.5
				h-1v-2h1V17.5z M294.7,16.2h-1v-3h1V16.2z M271.7,13.5h-1v-2h1V13.5z M294.7,12.5h-1v-2h1V12.5z M271.7,10.2h-1v-3h1V10.2z
				 M294.7,8.5h-1v-2h1V8.5z M271.7,6.5h-1v-2h1V6.5z M294.6,4.9h-0.7V3.5h0.7V4.9z"/>
		</g>
	</g>
</g>
<g>
	<g>
		<g>
			<g>
				<path fill="#DCDBDB" d="M156.4,50.4L154,40.1h-12.8l-2.5,10.3h-8.3l12.1-48.8h10.5L165,50.4H156.4z M147.8,9.4h-0.3l-5.3,24.2
					h10.7L147.8,9.4z"/>
			</g>
		</g>
		<g>
			<g>
				<g>
					<path fill="#010101" d="M165.4,50.8h-9.1V50h8.1l-2.2-8.8l0.7-0.2L165.4,50.8z M138.7,50.8h-8.7l5.1-20.5l0.7,0.2L130.9,50h7.8
						V50.8z M140.3,45l-0.7-0.2l1.2-5.1H154v0.7h-12.5L140.3,45z M153.4,33.9h-11.7l1.7-7.7l0.7,0.2l-1.5,6.8h9.8l-0.6-3l0.7-0.2
						L153.4,33.9z M150.4,23.5l-2.8-13l-1.1,5.1l-0.7-0.2l1.4-6.5h0.9l3.1,14.3L150.4,23.5z M157.6,21.6L152.8,2h-10l-1.1,4.5
						L141,6.3l1.3-5h11.1l4.9,20.2L157.6,21.6z"/>
				</g>
			</g>
		</g>
		<g>
			<g>
				<g>
					
						<rect x="134.4" y="46.9" transform="matrix(0.9715 0.2369 -0.2369 0.9715 15.0805 -30.585)" fill="#010101" width="0.7" height="1.1"/>
				</g>
			</g>
			<g>
				<g>
					<path fill="#010101" d="M135.6,45.6l-0.7-0.2l0.5-2.2l0.7,0.2L135.6,45.6z M136.5,42l-0.7-0.2l0.5-2.2l0.7,0.2L136.5,42z
						 M137.4,38.4l-0.7-0.2l0.5-2.2l0.7,0.2L137.4,38.4z M138.3,34.7l-0.7-0.2l0.5-2.2l0.7,0.2L138.3,34.7z M139.1,31.1l-0.7-0.2
						l0.5-2.2l0.7,0.2L139.1,31.1z M140,27.5l-0.7-0.2l0.5-2.2l0.7,0.2L140,27.5z M140.9,23.9l-0.7-0.2l0.5-2.2l0.7,0.2L140.9,23.9z
						 M141.7,20.3l-0.7-0.2l0.5-2.2l0.7,0.2L141.7,20.3z M142.6,16.7l-0.7-0.2l0.5-2.2l0.7,0.2L142.6,16.7z M143.5,13.1l-0.7-0.2
						l0.5-2.2L144,11L143.5,13.1z M144.4,9.5l-0.7-0.2l0.5-2.2l0.7,0.2L144.4,9.5z"/>
				</g>
			</g>
			<g>
				<g>
					
						<rect x="144.6" y="4.7" transform="matrix(0.9723 0.2337 -0.2337 0.9723 5.2513 -33.7485)" fill="#010101" width="0.7" height="1.1"/>
				</g>
			</g>
		</g>
		<g>
			<g>
				<g>
					
						<rect x="149.5" y="4.9" transform="matrix(0.2378 0.9713 -0.9713 0.2378 119.5228 -141.7478)" fill="#010101" width="1.1" height="0.7"/>
				</g>
			</g>
			<g>
				<g>
					<path fill="#010101" d="M159.6,45.6l-0.5-2.2l0.7-0.2l0.5,2.2L159.6,45.6z M158.7,42l-0.5-2.2l0.7-0.2l0.5,2.2L158.7,42z
						 M157.8,38.4l-0.5-2.2L158,36l0.5,2.2L157.8,38.4z M156.9,34.7l-0.5-2.2l0.7-0.2l0.5,2.2L156.9,34.7z M156,31.1l-0.5-2.2
						l0.7-0.2l0.5,2.2L156,31.1z M155.2,27.5l-0.5-2.2l0.7-0.2l0.5,2.2L155.2,27.5z M154.3,23.9l-0.5-2.2l0.7-0.2l0.5,2.2
						L154.3,23.9z M153.4,20.3l-0.5-2.2l0.7-0.2l0.5,2.2L153.4,20.3z M152.5,16.7l-0.5-2.2l0.7-0.2l0.5,2.2L152.5,16.7z M151.6,13.1
						l-0.5-2.2l0.7-0.2l0.5,2.2L151.6,13.1z M150.7,9.5l-0.5-2.2l0.7-0.2l0.5,2.2L150.7,9.5z"/>
				</g>
			</g>
			<g>
				<g>
					
						<rect x="159.9" y="47.1" transform="matrix(0.2377 0.9713 -0.9713 0.2377 168.3739 -119.6391)" fill="#010101" width="1.1" height="0.7"/>
				</g>
			</g>
		</g>
		<g>
			<g>
				<path fill="#010101" d="M151.7,36.2h-3v-1h3V36.2z M147.4,36.7h-1.9v-1h1.9V36.7z M143.5,36.7h-2v-1h2V36.7z"/>
			</g>
		</g>
	</g>
	<g>
		<g>
			<g>
				<path fill="#DCDBDB" d="M25.9,49.8c-2,1.2-4.5,1.8-7.5,1.8c-2.8,0-5.2-0.6-7.5-1.9c-2.2-1.3-4.1-3.1-5.6-5.3
					c-1.5-2.3-2.7-5-3.6-8.1C0.8,33.1,0.4,29.7,0.4,26c0-3.7,0.4-7.2,1.3-10.3c0.8-3.1,2.1-5.9,3.6-8.1c1.6-2.3,3.5-4,5.7-5.3
					c2.2-1.3,4.7-1.9,7.4-1.9c2.8,0,5.3,0.5,7.4,1.6c2.1,1,3.8,2.5,5.2,4.4l-4.8,5.8c-1.9-2.7-4.3-4.1-7.3-4.1
					c-1.7,0-3.1,0.5-4.3,1.4c-1.2,0.9-2.3,2.2-3.1,3.8c-0.8,1.6-1.4,3.5-1.9,5.7c-0.4,2.2-0.6,4.5-0.6,7c0,2.4,0.2,4.7,0.6,6.9
					s1,4.1,1.9,5.7c0.8,1.6,1.9,2.9,3.1,3.8c1.3,0.9,2.7,1.4,4.4,1.4c1.6,0,3-0.4,4.2-1.2c1.2-0.8,2.1-1.8,2.9-3l4.8,5.6
					C29.5,47.1,27.9,48.6,25.9,49.8z"/>
			</g>
		</g>
		<g>
			<g>
				<g>
					<path fill="#010101" d="M18.4,52c-2.8,0-5.4-0.7-7.7-2c-2.3-1.3-4.2-3.1-5.8-5.5c-1.6-2.3-2.8-5.1-3.6-8.2
						C0.4,33.2,0,29.7,0,26h0.7c0,3.7,0.4,7.1,1.3,10.2c0.8,3.1,2,5.8,3.5,8c1.5,2.2,3.4,4,5.5,5.2c2.2,1.2,4.6,1.9,7.3,1.9V52z
						 M26.1,50.2l-0.4-0.6c1.9-1.1,3.4-2.6,4.7-4.3l-4.3-5c-0.8,1.1-1.7,2-2.7,2.7c-1.2,0.9-2.7,1.3-4.4,1.3c-1.8,0-3.3-0.5-4.7-1.5
						c-1.3-1-2.4-2.3-3.2-4c-0.8-1.6-1.5-3.6-1.9-5.8c-0.4-2.2-0.6-4.5-0.6-7c0-2.5,0.2-4.9,0.6-7.1l0.7,0.1
						c-0.4,2.1-0.6,4.5-0.6,6.9c0,2.4,0.2,4.7,0.6,6.9c0.4,2.1,1,4,1.8,5.6c0.8,1.6,1.8,2.8,3,3.7c1.2,0.9,2.6,1.3,4.2,1.3
						c1.5,0,2.9-0.4,4-1.2c1.1-0.8,2.1-1.8,2.8-2.9L26,39l5.3,6.2l-0.2,0.2C29.8,47.3,28.1,48.9,26.1,50.2z M26.1,12.8l-0.3-0.4
						c-1.8-2.6-4.1-3.9-7-3.9V7.7c3,0,5.4,1.3,7.3,3.8l4.3-5.2c-1.3-1.8-2.9-3.1-4.9-4.1c-2.1-1-4.5-1.5-7.2-1.5
						c-2.6,0-5.1,0.6-7.2,1.8l-0.4-0.6C13,0.7,15.6,0,18.4,0c2.8,0,5.4,0.5,7.5,1.6c2.2,1.1,3.9,2.6,5.3,4.6l0.2,0.2L26.1,12.8z"/>
				</g>
			</g>
		</g>
		<g>
			<g>
				<path fill="#414141" d="M18.5,48.5c-0.2,0-0.3,0-0.5,0l0-0.7c0.7,0,1.4,0,2.1-0.1l0.1,0.7C19.7,48.5,19.1,48.5,18.5,48.5z
					 M16.5,48.3c-0.7-0.1-1.4-0.3-2.1-0.5l-0.1,0l0.2-0.7l0.1,0c0.7,0.2,1.4,0.4,2,0.5L16.5,48.3z M21.7,48l-0.2-0.7
					c0.7-0.2,1.3-0.5,2-0.9l0.4,0.6C23.2,47.5,22.5,47.8,21.7,48z M12.8,47.1c-0.6-0.4-1.2-0.8-1.8-1.4l0.5-0.5
					c0.6,0.5,1.1,1,1.7,1.3L12.8,47.1z M25.1,46.2l-0.5-0.6c0.7-0.6,1.2-1.1,1.5-1.5l0.6,0.5C26.4,45.1,25.9,45.7,25.1,46.2z
					 M10,44.7c-0.5-0.5-0.9-1.1-1.4-1.8l0.6-0.4c0.4,0.6,0.9,1.2,1.3,1.7L10,44.7z M7.8,41.6c-0.4-0.6-0.7-1.3-1.1-2l0.7-0.3
					c0.3,0.7,0.7,1.3,1,1.9L7.8,41.6z M6.1,38.3c-0.3-0.7-0.6-1.4-0.8-2.1l0.7-0.2c0.2,0.7,0.5,1.4,0.8,2L6.1,38.3z M4.8,34.8
					c-0.2-0.7-0.4-1.4-0.6-2.2l0.7-0.2c0.2,0.7,0.3,1.4,0.6,2.1L4.8,34.8z M3.9,31.1c-0.1-0.7-0.2-1.5-0.3-2.2l0.7-0.1
					c0.1,0.7,0.2,1.4,0.3,2.2L3.9,31.1z M3.5,27.4c0-0.4,0-0.9,0-1.3c0-0.3,0-0.6,0-0.9l0.7,0c0,0.3,0,0.6,0,0.9c0,0.4,0,0.9,0,1.3
					L3.5,27.4z M4.3,23.7l-0.7-0.1c0-0.4,0.1-0.7,0.1-1.1c0.1-0.4,0.1-0.8,0.2-1.1l0.7,0.1c-0.1,0.4-0.1,0.7-0.2,1.1
					C4.4,23,4.4,23.4,4.3,23.7z M4.8,20.1L4.1,20c0.1-0.8,0.3-1.5,0.4-2.2l0.7,0.2C5.1,18.6,5,19.3,4.8,20.1z M5.6,16.5l-0.7-0.2
					c0.2-0.8,0.4-1.5,0.6-2.2l0.7,0.2C6,15.1,5.8,15.8,5.6,16.5z M6.7,13L6,12.8c0.3-0.7,0.6-1.4,1-2l0.6,0.4
					C7.3,11.7,7,12.4,6.7,13z M8.4,9.9L7.8,9.5c0.4-0.6,0.9-1.2,1.5-1.7l0.5,0.5C9.3,8.7,8.9,9.3,8.4,9.9z M10.9,7.3l-0.5-0.6
					c0.6-0.5,1.2-0.9,1.9-1.3l0.4,0.6C12.1,6.4,11.5,6.9,10.9,7.3z M26.4,6.5c0,0-0.7-0.5-1.9-0.9l0.3-0.7c1.3,0.5,2,1,2.1,1
					L26.4,6.5z M14,5.4l-0.3-0.7c0.7-0.3,1.4-0.6,2.2-0.7L16,4.7C15.3,4.9,14.6,5.1,14,5.4z M23.1,5.1c-0.7-0.2-1.4-0.4-2.1-0.5
					l0.1-0.7c0.7,0.1,1.5,0.3,2.2,0.5L23.1,5.1z M17.4,4.5l-0.1-0.7c0.7-0.1,1.5-0.1,2.3,0l0,0.7C18.9,4.4,18.1,4.4,17.4,4.5z"/>
			</g>
		</g>
	</g>
	<g>
		<g>
			<g>
				<path fill="#DCDBDB" d="M191.5,49.8c-2,1.2-4.5,1.8-7.5,1.8c-2.8,0-5.2-0.6-7.5-1.9c-2.2-1.3-4.1-3.1-5.6-5.3
					c-1.5-2.3-2.7-5-3.6-8.1c-0.9-3.1-1.3-6.5-1.3-10.3c0-3.7,0.4-7.2,1.3-10.3c0.8-3.1,2.1-5.9,3.6-8.1c1.6-2.3,3.5-4,5.7-5.3
					c2.2-1.3,4.7-1.9,7.4-1.9c2.8,0,5.3,0.5,7.4,1.6c2.1,1,3.8,2.5,5.2,4.4l-4.8,5.8c-1.9-2.7-4.3-4.1-7.3-4.1
					c-1.7,0-3.1,0.5-4.3,1.4c-1.2,0.9-2.3,2.2-3.1,3.8c-0.8,1.6-1.4,3.5-1.9,5.7c-0.4,2.2-0.6,4.5-0.6,7c0,2.4,0.2,4.7,0.6,6.9
					c0.4,2.2,1,4.1,1.9,5.7c0.8,1.6,1.9,2.9,3.1,3.8c1.3,0.9,2.7,1.4,4.4,1.4c1.6,0,3-0.4,4.2-1.2c1.2-0.8,2.1-1.8,2.9-3l4.8,5.6
					C195.1,47.1,193.5,48.6,191.5,49.8z"/>
			</g>
		</g>
		<g>
			<g>
				<g>
					<path fill="#010101" d="M184,52c-2.8,0-5.4-0.7-7.7-2c-2.3-1.3-4.2-3.1-5.8-5.5c-1.6-2.3-2.8-5.1-3.6-8.2
						c-0.9-3.1-1.3-6.6-1.3-10.4h0.7c0,3.7,0.4,7.1,1.3,10.2c0.8,3.1,2,5.8,3.5,8c1.5,2.2,3.4,4,5.5,5.2c2.2,1.2,4.6,1.9,7.3,1.9V52
						z M191.7,50.2l-0.4-0.6c1.9-1.1,3.4-2.6,4.7-4.3l-4.3-5c-0.8,1.1-1.7,2-2.7,2.7c-1.2,0.9-2.7,1.3-4.4,1.3
						c-1.8,0-3.3-0.5-4.7-1.5c-1.3-1-2.4-2.3-3.2-4c-0.8-1.6-1.5-3.6-1.9-5.8c-0.4-2.2-0.6-4.5-0.6-7c0-2.5,0.2-4.9,0.6-7.1l0.7,0.1
						c-0.4,2.1-0.6,4.5-0.6,6.9c0,2.4,0.2,4.7,0.6,6.9c0.4,2.1,1,4,1.8,5.6c0.8,1.6,1.8,2.8,3,3.7c1.2,0.9,2.6,1.3,4.2,1.3
						c1.5,0,2.9-0.4,4-1.2c1.1-0.8,2.1-1.8,2.8-2.9l0.3-0.4l5.3,6.2l-0.2,0.2C195.4,47.3,193.7,48.9,191.7,50.2z M191.7,12.8
						l-0.3-0.4c-1.8-2.6-4.1-3.9-7-3.9V7.7c3,0,5.4,1.3,7.3,3.8l4.3-5.2c-1.3-1.8-2.9-3.1-4.9-4.1c-2.1-1-4.5-1.5-7.2-1.5
						c-2.6,0-5.1,0.6-7.2,1.8l-0.4-0.6c2.3-1.3,4.8-1.9,7.6-1.9c2.8,0,5.4,0.5,7.5,1.6c2.2,1.1,3.9,2.6,5.3,4.6l0.2,0.2L191.7,12.8z
						"/>
				</g>
			</g>
		</g>
		<g>
			<g>
				<path fill="#414141" d="M184.1,48.5c-0.2,0-0.3,0-0.5,0l0-0.7c0.7,0,1.4,0,2.1-0.1l0.1,0.7C185.3,48.5,184.7,48.5,184.1,48.5z
					 M182.1,48.3c-0.7-0.1-1.4-0.3-2.1-0.5l-0.1,0l0.2-0.7l0.1,0c0.7,0.2,1.4,0.4,2,0.5L182.1,48.3z M187.4,48l-0.2-0.7
					c0.7-0.2,1.3-0.5,2-0.9l0.4,0.6C188.8,47.5,188.1,47.8,187.4,48z M178.4,47.1c-0.6-0.4-1.2-0.8-1.8-1.4l0.5-0.5
					c0.6,0.5,1.1,1,1.7,1.3L178.4,47.1z M190.7,46.2l-0.5-0.6c0.7-0.6,1.2-1.1,1.5-1.5l0.6,0.5C192,45.1,191.5,45.7,190.7,46.2z
					 M175.6,44.7c-0.5-0.5-0.9-1.1-1.4-1.8l0.6-0.4c0.4,0.6,0.9,1.2,1.3,1.7L175.6,44.7z M173.4,41.6c-0.4-0.6-0.7-1.3-1.1-2
					l0.7-0.3c0.3,0.7,0.7,1.3,1,1.9L173.4,41.6z M171.7,38.3c-0.3-0.7-0.6-1.4-0.8-2.1l0.7-0.2c0.2,0.7,0.5,1.4,0.8,2L171.7,38.3z
					 M170.4,34.8c-0.2-0.7-0.4-1.4-0.6-2.2l0.7-0.2c0.2,0.7,0.3,1.4,0.6,2.1L170.4,34.8z M169.5,31.1c-0.1-0.7-0.2-1.5-0.3-2.2
					l0.7-0.1c0.1,0.7,0.2,1.4,0.3,2.2L169.5,31.1z M169.1,27.4c0-0.4,0-0.9,0-1.3c0-0.3,0-0.6,0-0.9l0.7,0c0,0.3,0,0.6,0,0.9
					c0,0.4,0,0.9,0,1.3L169.1,27.4z M169.9,23.7l-0.7-0.1c0-0.4,0.1-0.7,0.1-1.1c0.1-0.4,0.1-0.8,0.2-1.1l0.7,0.1
					c-0.1,0.4-0.1,0.7-0.2,1.1C170,23,170,23.4,169.9,23.7z M170.4,20.1l-0.7-0.1c0.1-0.8,0.3-1.5,0.4-2.2l0.7,0.2
					C170.7,18.6,170.6,19.3,170.4,20.1z M171.2,16.5l-0.7-0.2c0.2-0.8,0.4-1.5,0.6-2.2l0.7,0.2C171.6,15.1,171.4,15.8,171.2,16.5z
					 M172.3,13l-0.7-0.3c0.3-0.7,0.6-1.4,1-2l0.6,0.4C172.9,11.7,172.6,12.4,172.3,13z M174.1,9.9l-0.6-0.4c0.4-0.6,0.9-1.2,1.5-1.7
					l0.5,0.5C174.9,8.7,174.5,9.3,174.1,9.9z M176.5,7.3l-0.5-0.6c0.6-0.5,1.2-0.9,1.9-1.3l0.4,0.6C177.7,6.4,177.1,6.9,176.5,7.3z
					 M192,6.5c0,0-0.7-0.5-1.9-0.9l0.3-0.7c1.3,0.5,2,1,2.1,1L192,6.5z M179.6,5.4l-0.3-0.7c0.7-0.3,1.4-0.6,2.2-0.7l0.2,0.7
					C180.9,4.9,180.2,5.1,179.6,5.4z M188.7,5.1c-0.7-0.2-1.4-0.4-2.1-0.5l0.1-0.7c0.7,0.1,1.5,0.3,2.2,0.5L188.7,5.1z M183,4.5
					l-0.1-0.7c0.7-0.1,1.5-0.1,2.3,0l0,0.7C184.5,4.4,183.7,4.4,183,4.5z"/>
			</g>
		</g>
	</g>
	<g>
		<g>
			<g>
				<path fill="#DCDBDB" d="M123.8,8.6v41.8h-8.1V8.6h-9.2v-7H133v7H123.8z"/>
			</g>
		</g>
		<g>
			<g>
				<g>
					<path fill="#010101" d="M124.2,50.8h-8.9v-7.8h0.7V50h7.4V26.3h0.7V50.8z M116.1,36.8h-0.7V8.6h0.7V36.8z M124.2,18.7h-0.7V8.3
						h9.2V2h-15.5V1.2h16.2V9h-9.2V18.7z"/>
				</g>
			</g>
		</g>
		<line fill="none" stroke="#414141" stroke-miterlimit="10" stroke-dasharray="2" x1="107.7" y1="4.7" x2="131.7" y2="4.7"/>
		<line fill="none" stroke="#414141" stroke-miterlimit="10" stroke-dasharray="3" x1="120.2" y1="7.2" x2="120.2" y2="49.2"/>
	</g>
	<g>
		<g>
			<g>
				<path fill="#DCDBDB" d="M217,8.6v41.8h-8.1V8.6h-9.2v-7h26.5v7H217z"/>
			</g>
		</g>
		<g>
			<g>
				<g>
					<path fill="#010101" d="M217.3,50.8h-8.9v-7.8h0.7V50h7.4V26.3h0.7V50.8z M209.2,36.8h-0.7V8.6h0.7V36.8z M217.3,18.7h-0.7V8.3
						h9.2V2h-15.5V1.2h16.2V9h-9.2V18.7z"/>
				</g>
			</g>
		</g>
		<line fill="none" stroke="#414141" stroke-miterlimit="10" stroke-dasharray="2" x1="201.7" y1="4.7" x2="224.7" y2="4.7"/>
		<line fill="none" stroke="#414141" stroke-miterlimit="10" stroke-dasharray="3" x1="213.2" y1="7.2" x2="213.2" y2="49.2"/>
	</g>
	<g>
		<g>
			<g>
				<path fill="#DCDBDB" d="M93.9,50.4L80.1,15.9h-0.2L80,50.4h-7.4V1.6H82l13.7,34.7h0.2L95.8,1.6h7.2v48.8H93.9z"/>
			</g>
		</g>
		<g>
			<g>
				<g>
					<path fill="#010101" d="M103.4,50.8h-9.7l-5-12.3l0.7-0.3L94.2,50h8.5V2h-6.4l0,10.7l-0.7,0l0-11.4h7.9V50.8z M80.4,50.8h-8.2
						v-8.4h0.7V50h6.7l-0.1-34.4h0.8l3.4,8.4L83,24.2l-2.8-6.9L80.4,50.8z M72.9,30.9h-0.7V1.2h10.1l9.5,23.9L91,25.4L81.7,2h-8.8
						V30.9z"/>
				</g>
			</g>
		</g>
		<line fill="none" stroke="#414141" stroke-miterlimit="10" stroke-dasharray="3" x1="76.2" y1="49.2" x2="76.2" y2="4.2"/>
		<line fill="none" stroke="#414141" stroke-miterlimit="10" stroke-dasharray="3" x1="100.2" y1="49.2" x2="100.2" y2="4.2"/>
		<g>
			<g>
				<line fill="none" stroke="#414141" stroke-miterlimit="10" x1="79.2" y1="5.8" x2="79.7" y2="7.2"/>
				
					<line fill="none" stroke="#414141" stroke-miterlimit="10" stroke-dasharray="2.818,2.818" x1="80.8" y1="9.8" x2="95.5" y2="44.9"/>
				<line fill="none" stroke="#414141" stroke-miterlimit="10" x1="96.1" y1="46.2" x2="96.7" y2="47.6"/>
			</g>
		</g>
	</g>
	<g>
		<g>
			<g>
				<path fill="#DCDBDB" d="M67.6,25.9c0,3.9-0.4,7.4-1.2,10.5c-0.8,3.1-2,5.8-3.5,8.1c-1.5,2.3-3.4,4-5.5,5.2
					c-2.2,1.2-4.6,1.9-7.3,1.9c-2.8,0-5.2-0.6-7.4-1.9c-2.2-1.2-4-3-5.5-5.2c-1.5-2.2-2.7-4.9-3.5-8.1c-0.8-3.1-1.2-6.6-1.2-10.5
					c0-3.9,0.4-7.3,1.2-10.5c0.8-3.1,1.9-5.8,3.4-8.1c1.5-2.3,3.4-4,5.5-5.2c2.2-1.2,4.7-1.8,7.4-1.8c2.7,0,5.2,0.6,7.3,1.8
					c2.2,1.2,4,3,5.5,5.2c1.5,2.3,2.7,4.9,3.5,8.1C67.2,18.6,67.6,22.1,67.6,25.9z M59.1,25.9c0-2.5-0.2-4.8-0.6-7
					c-0.4-2.2-1-4.1-1.7-5.6c-0.8-1.6-1.7-2.8-2.8-3.8c-1.1-0.9-2.4-1.4-3.9-1.4c-1.5,0-2.8,0.5-4,1.4c-1.1,0.9-2.1,2.2-2.8,3.8
					c-0.8,1.6-1.3,3.5-1.7,5.6c-0.4,2.2-0.5,4.5-0.5,7c0,2.5,0.2,4.8,0.5,7c0.4,2.2,0.9,4.1,1.7,5.7c0.8,1.6,1.7,2.9,2.8,3.8
					c1.1,0.9,2.4,1.4,4,1.4c1.5,0,2.8-0.5,4-1.4c1.1-0.9,2.1-2.2,2.8-3.8c0.8-1.6,1.3-3.5,1.7-5.7C58.9,30.7,59.1,28.4,59.1,25.9z"
					/>
			</g>
		</g>
		<g>
			<g>
				<g>
					<path fill="#010101" d="M50.1,52c-2.8,0-5.4-0.6-7.6-1.9l0.4-0.6c2.1,1.2,4.5,1.8,7.2,1.8c2.6,0,5-0.6,7.2-1.8
						c2.1-1.2,3.9-2.9,5.4-5.1l0.6,0.4c-1.5,2.3-3.4,4.1-5.7,5.4C55.4,51.4,52.8,52,50.1,52z M50.1,44.1c-1.6,0-3-0.5-4.2-1.5
						c-1.2-0.9-2.1-2.3-2.9-3.9c-0.8-1.6-1.3-3.6-1.7-5.8c-0.4-2.2-0.6-4.6-0.6-7.1c0-2.5,0.2-4.9,0.6-7.1c0.4-2.2,0.9-4.1,1.7-5.7
						c0.8-1.6,1.8-2.9,2.9-3.9c1.2-1,2.6-1.5,4.2-1.5c1.6,0,2.9,0.5,4.1,1.5L54,9.5l0.2-0.3c1.2,0.9,2.1,2.3,2.9,3.9l-0.7,0.3
						c-0.7-1.5-1.6-2.7-2.7-3.6c-1.1-0.9-2.3-1.3-3.7-1.3c-1.4,0-2.7,0.4-3.7,1.3c-1.1,0.9-2,2.1-2.7,3.6C42.9,15,42.3,16.9,42,19
						c-0.4,2.1-0.5,4.5-0.5,6.9c0,2.5,0.2,4.8,0.5,6.9c0.4,2.1,0.9,4,1.7,5.6c0.7,1.6,1.6,2.8,2.7,3.7c1.1,0.9,2.3,1.3,3.7,1.3
						c1.4,0,2.7-0.4,3.7-1.3c1.1-0.9,2-2.1,2.7-3.7l0.7,0.3c-0.8,1.7-1.8,3-2.9,3.9C53.1,43.7,51.7,44.1,50.1,44.1z M66.8,36.5
						l-0.7-0.2c0.8-3.1,1.2-6.6,1.2-10.4c0-3.8-0.4-7.3-1.2-10.4c-0.8-3.1-1.9-5.7-3.4-7.9c-1.5-2.2-3.3-3.9-5.4-5.1
						c-2.1-1.2-4.5-1.8-7.2-1.8c-2.7,0-5.1,0.6-7.2,1.8c-2.1,1.2-3.9,2.9-5.4,5.1c-1.5,2.2-2.6,4.9-3.4,7.9l-0.7-0.2
						c0.8-3.1,2-5.9,3.5-8.2c1.5-2.3,3.5-4.1,5.7-5.3C44.7,0.6,47.3,0,50.1,0c2.8,0,5.3,0.6,7.5,1.9c2.2,1.2,4.1,3,5.7,5.3
						c1.5,2.3,2.7,5,3.5,8.2c0.8,3.1,1.2,6.7,1.2,10.6C68,29.8,67.6,33.4,66.8,36.5z"/>
				</g>
			</g>
		</g>
		<g>
			<g>
				<path fill="#414141" d="M49.6,48.7c-0.8,0-1.5-0.2-2.3-0.4l0.2-0.7c0.7,0.2,1.4,0.3,2.1,0.4L49.6,48.7z M51.2,48.7l-0.1-0.7
					c0.7-0.1,1.4-0.2,2.1-0.5l0.2,0.7C52.7,48.4,51.9,48.6,51.2,48.7z M46,47.8c-0.7-0.3-1.3-0.7-2-1.1l0.4-0.6
					c0.6,0.4,1.2,0.8,1.9,1.1L46,47.8z M54.8,47.6l-0.3-0.7c0.6-0.3,1.2-0.7,1.8-1.2l0.5,0.6C56.1,46.8,55.5,47.2,54.8,47.6z
					 M42.8,45.7c-0.5-0.5-1.1-1-1.6-1.6l0.6-0.5c0.5,0.6,1,1.1,1.5,1.6L42.8,45.7z M57.9,45.3l-0.5-0.5c0.5-0.5,1-1,1.5-1.6l0.6,0.5
					C58.9,44.3,58.4,44.8,57.9,45.3z M40.3,42.9c-0.4-0.6-0.8-1.2-1.2-1.9l0.6-0.4c0.4,0.6,0.8,1.3,1.2,1.8L40.3,42.9z M60.3,42.4
					L59.7,42c0.4-0.6,0.8-1.2,1.1-1.9l0.7,0.3C61.1,41.2,60.7,41.8,60.3,42.4z M38.4,39.6c-0.3-0.7-0.6-1.4-0.9-2.1l0.7-0.3
					c0.3,0.7,0.6,1.4,0.9,2L38.4,39.6z M62.1,39.2l-0.7-0.3c0.3-0.7,0.6-1.3,0.8-2l0.7,0.2C62.7,37.8,62.4,38.5,62.1,39.2z M37,36.2
					c-0.2-0.7-0.4-1.4-0.6-2.2l0.7-0.2c0.2,0.7,0.4,1.4,0.6,2.1L37,36.2z M63.4,35.6l-0.7-0.2c0.2-0.7,0.4-1.4,0.6-2.1l0.7,0.2
					C63.8,34.2,63.6,34.9,63.4,35.6z M36.1,32.5c-0.1-0.7-0.3-1.5-0.3-2.2l0.7-0.1c0.1,0.7,0.2,1.5,0.3,2.2L36.1,32.5z M64.3,32
					l-0.7-0.1c0.1-0.7,0.2-1.4,0.3-2.2l0.7,0.1C64.5,30.5,64.4,31.3,64.3,32z M35.6,28.8c-0.1-0.7-0.1-1.5-0.1-2.2l0.7,0
					c0,0.7,0,1.5,0.1,2.2L35.6,28.8z M64.7,28.3l-0.7,0c0-0.7,0.1-1.5,0.1-2.2c0-0.6,0-1.2,0-1.8l0.7,0c0,0.6,0,1.2,0,1.8
					C64.8,26.8,64.8,27.6,64.7,28.3z M36.2,25.1l-0.7,0c0-0.7,0.1-1.5,0.1-2.2l0.7,0.1C36.3,23.7,36.2,24.4,36.2,25.1z M63.9,22.8
					c-0.1-0.7-0.2-1.5-0.3-2.2l0.7-0.1c0.1,0.7,0.2,1.5,0.3,2.2L63.9,22.8z M36.5,21.5l-0.7-0.1c0.1-0.7,0.2-1.5,0.4-2.2l0.7,0.1
					C36.7,20,36.6,20.8,36.5,21.5z M63.4,19.2c-0.2-0.7-0.3-1.4-0.5-2.1l0.7-0.2c0.2,0.7,0.4,1.4,0.5,2.2L63.4,19.2z M37.2,17.9
					l-0.7-0.2c0.2-0.7,0.4-1.5,0.6-2.2l0.7,0.2C37.6,16.5,37.4,17.2,37.2,17.9z M62.4,15.7c-0.2-0.7-0.5-1.4-0.8-2l0.7-0.3
					c0.3,0.7,0.6,1.4,0.8,2.1L62.4,15.7z M38.3,14.4l-0.7-0.3c0.3-0.7,0.6-1.4,0.9-2.1l0.7,0.3C38.9,13.1,38.6,13.7,38.3,14.4z
					 M61,12.3c-0.3-0.7-0.7-1.3-1.1-1.9l0.6-0.4c0.4,0.6,0.8,1.3,1.1,2L61,12.3z M39.9,11.2l-0.6-0.4c0.4-0.7,0.8-1.3,1.2-1.9
					l0.6,0.4C40.7,9.9,40.3,10.5,39.9,11.2z M59.1,9.3c-0.5-0.6-0.9-1.1-1.4-1.6l0.5-0.5c0.5,0.5,1,1.1,1.5,1.7L59.1,9.3z M42,8.2
					l-0.6-0.5c0.5-0.6,1.1-1.1,1.6-1.6l0.5,0.6C43.1,7.2,42.5,7.7,42,8.2z M56.6,6.6c-0.6-0.5-1.2-0.9-1.8-1.2l0.4-0.6
					c0.6,0.4,1.3,0.8,1.9,1.3L56.6,6.6z M44.7,5.8l-0.4-0.6c0.7-0.4,1.3-0.8,2-1.1l0.3,0.7C46,5.1,45.3,5.4,44.7,5.8z M53.5,4.8
					c-0.7-0.3-1.4-0.5-2.1-0.6l0.1-0.7c0.7,0.1,1.5,0.3,2.2,0.6L53.5,4.8z M48,4.4l-0.2-0.7c0.7-0.2,1.5-0.3,2.3-0.3l0,0.7
					C49.4,4.1,48.7,4.2,48,4.4z"/>
			</g>
		</g>
	</g>
</g>
</svg>
