<?xml version="1.0" encoding="UTF-8"?>
<svg enable-background="new 0 0 25.5 17.5" version="1.1" viewBox="0 0 25.5 17.5" xml:space="preserve" xmlns="http://www.w3.org/2000/svg">
		<polygon points="22.2 0.9 11.9 15.9 1.7 0.9" fill="#F6F6F6"/>
		<path d="M23.9,0L11.9,17.5L0,0H23.9z M11.9,14.3l8.5-12.5h-17L11.9,14.3z" fill="#5F6364"/>
	<polygon points="13.6 14.4 14.8 17.2 25.5 1.4 22.9 0.8" fill="#333636" opacity=".7"/>
		<path d="M23.9,0L11.9,17.5L0,0H23.9z M11.9,14.3l8.5-12.5h-17L11.9,14.3z" fill="#333536"/>
</svg>
>
	<polygon opacity="0.7" fill="#333636" points="13.6,14.4 14.8,17.2 25.5,1.4 22.9,0.8 	"/>
	<g>
		<path fill="#333536" d="M23.9,0L11.9,17.5L0,0H23.9z M11.9,14.3l8.5-12.5h-17L11.9,14.3z"/>
	</g>
</g>
</svg>
