<?xml version="1.0" encoding="UTF-8"?>
<svg enable-background="new 0 0 25.8 18.7" version="1.1" viewBox="0 0 25.8 18.7" xml:space="preserve" xmlns="http://www.w3.org/2000/svg">
			<polygon points="1.7 16.6 11.9 1.6 22.2 16.6" fill="#F6F6F6"/>
			<path d="M0,17.5L11.9,0l11.9,17.5H0z M11.9,3.2L3.4,15.7h17L11.9,3.2z" fill="#5F6364"/>
			<path d="M0,17.5L11.9,0l11.9,17.5H0z M11.9,3.2L3.4,15.7h17L11.9,3.2z" fill="#333536"/>
	<polygon points="13.8 1.2 13.1 2.2 23.5 17.5 2.6 17.5 1.9 18.7 25.8 18.7" fill="#333636" opacity=".7"/>
</svg>
>
			<path fill="#333536" d="M0,17.5L11.9,0l11.9,17.5H0z M11.9,3.2L3.4,15.7h17L11.9,3.2z"/>
		</g>
	</g>
	<polygon opacity="0.7" fill="#333636" points="13.8,1.2 13.1,2.2 23.5,17.5 2.6,17.5 1.9,18.7 25.8,18.7 	"/>
</g>
</svg>
