<?xml version="1.0" encoding="UTF-8"?>
<svg enable-background="new 0 0 17.5 25.5" version="1.1" viewBox="0 0 17.5 25.5" xml:space="preserve" xmlns="http://www.w3.org/2000/svg">
		<polygon points="16.6 22.2 1.6 11.9 16.6 1.7" fill="#F6F6F6"/>
		<path d="M17.5,23.9L0,11.9L17.5,0V23.9z M3.2,11.9l12.5,8.5v-17L3.2,11.9z" fill="#5F6364"/>
		<polygon points="3.1 13.6 0.3 14.8 16.1 25.5 16.7 22.9" fill="#333636" opacity=".7"/>
		<path d="M17.5,23.9L0,11.9L17.5,0V23.9z M3.2,11.9l12.5,8.5v-17L3.2,11.9z" fill="#333536"/>
</svg>

	<polygon opacity="0.7" fill="#333636" points="3.1,13.6 0.3,14.8 16.1,25.5 16.7,22.9 	"/>
	<g>
		<path fill="#333536" d="M17.5,23.9L0,11.9L17.5,0V23.9z M3.2,11.9l12.5,8.5v-17L3.2,11.9z"/>
	</g>
</g>
</svg>
