<?xml version="1.0" encoding="UTF-8"?>
<svg enable-background="new 0 0 17.7 17.7" version="1.1" viewBox="0 0 17.7 17.7" xml:space="preserve" xmlns="http://www.w3.org/2000/svg">
                                    <path d="m8.9 1.6c2.4 0 2.6 0 3.6 0.1 0.9 0 1.3 0.2 1.6 0.3 0.4 0.2 0.7 0.4 1 0.7s0.5 0.6 0.7 1c0.1 0.3 0.3 0.8 0.3 1.6 0 0.9 0.1 1.2 0.1 3.6s0 2.6-0.1 3.6c0 0.9-0.2 1.3-0.3 1.6-0.2 0.4-0.4 0.7-0.7 1s-0.6 0.5-1 0.7c-0.3 0.1-0.8 0.3-1.6 0.3-0.9 0-1.2 0.1-3.6 0.1s-2.6 0-3.6-0.1c-0.9 0-1.3-0.2-1.6-0.3-0.4-0.2-0.7-0.4-1-0.7s-0.5-0.6-0.7-1c-0.1-0.3-0.3-0.8-0.3-1.6 0-0.9-0.1-1.2-0.1-3.6s0-2.6 0.1-3.6c0-0.9 0.2-1.3 0.3-1.6 0.2-0.4 0.4-0.7 0.7-1s0.6-0.5 1-0.7c0.3-0.1 0.8-0.3 1.6-0.3 0.9-0.1 1.2-0.1 3.6-0.1m0-1.6c-2.4 0-2.7 0-3.7 0.1-0.9 0-1.6 0.2-2.2 0.4-0.5 0.2-1 0.5-1.5 1s-0.8 1-1 1.6c-0.3 0.5-0.4 1.2-0.4 2.1-0.1 1-0.1 1.3-0.1 3.7s0 2.7 0.1 3.7c0 0.9 0.2 1.6 0.4 2.2s0.5 1.1 1 1.6 1 0.8 1.6 1 1.2 0.4 2.2 0.4c0.9 0 1.2 0.1 3.7 0.1 2.4 0 2.7 0 3.7-0.1 0.9 0 1.6-0.2 2.2-0.4s1.1-0.5 1.6-1 0.8-1 1-1.6 0.4-1.2 0.4-2.2c0-0.9 0.1-1.2 0.1-3.7 0-2.4 0-2.7-0.1-3.7 0-0.9-0.2-1.6-0.4-2.2s-0.5-1.1-1-1.6-1-0.8-1.6-1-1.2-0.4-2.2-0.4h-3.8"/>
                                    <path d="m8.9 4.3c-2.5 0-4.6 2-4.6 4.6 0 2.5 2 4.6 4.6 4.6 2.5 0 4.6-2 4.6-4.6-0.1-2.5-2.1-4.6-4.6-4.6m0 7.5c-1.6 0-3-1.3-3-3 0-1.6 1.3-3 3-3s3 1.3 3 3c-0.1 1.7-1.4 3-3 3" fill="#333636"/>
                                    <path d="m14.7 4.1c0 0.6-0.5 1.1-1.1 1.1s-1.1-0.5-1.1-1.1 0.5-1.1 1.1-1.1c0.6 0.1 1.1 0.5 1.1 1.1" fill="#333636"/>
                            </svg>
3,3,3C11.8,10.5,10.5,11.8,8.9,11.8"/>
	<path id="XMLID_3_" fill="#333636" d="M14.7,4.1c0,0.6-0.5,1.1-1.1,1.1c-0.6,0-1.1-0.5-1.1-1.1c0-0.6,0.5-1.1,1.1-1.1
		C14.2,3.1,14.7,3.5,14.7,4.1"/>
</g>
</svg>
33636" d="M14.7,4.1c0,0.6-0.5,1.1-1.1,1.1c-0.6,0-1.1-0.5-1.1-1.1c0-0.6,0.5-1.1,1.1-1.1
		C14.2,3.1,14.7,3.5,14.7,4.1"/>
</g>
</svg>
