<?xml version="1.0" encoding="UTF-8"?>
<svg enable-background="new 0 0 19.9 19.9" version="1.1" viewBox="0 0 19.9 19.9" xml:space="preserve" xmlns="http://www.w3.org/2000/svg">
                                            <path d="m10 0c-5.5 0-10 4.5-10 10 0 1.9 0.5 3.8 1.6 5.4l-1.5 3.3c-0.2 0.3-0.1 0.7 0.1 0.9s0.4 0.3 0.7 0.3h0.2l4.2-1.1c1.4 0.8 3.1 1.2 4.7 1.2 5.5 0 10-4.5 10-10-0.1-5.5-4.5-10-10-10zm0 18.2c-1.5 0-2.9-0.4-4.1-1.1-0.2-0.1-0.4-0.1-0.5-0.1h-0.2l-2.7 0.7 0.9-2.1c0.1-0.3 0.1-0.6-0.1-0.9-1-1.4-1.6-3.1-1.6-4.8 0-4.5 3.7-8.2 8.2-8.2s8.2 3.7 8.2 8.2c0.1 4.6-3.6 8.3-8.1 8.3z" clip-rule="evenodd" fill-rule="evenodd"/>
                                            <path d="m13.8 11.5c-0.4-0.2-1-0.5-1.5-0.3-0.4 0.2-0.6 0.7-0.9 1-0.1 0.2-0.3 0.2-0.5 0.1-1.4-0.6-2.5-1.5-3.3-2.8 0-0.2 0-0.4 0.2-0.6 0.2-0.3 0.5-0.6 0.6-1s-0.1-0.8-0.3-1.1c-0.2-0.4-0.4-1-0.8-1.3-0.4-0.2-0.9-0.1-1.3 0.2-0.6 0.5-0.9 1.3-0.9 2 0 0.2 0 0.4 0.1 0.6 0.1 0.5 0.4 1 0.6 1.4 0.2 0.3 0.4 0.7 0.6 1 0.8 1 1.7 1.9 2.8 2.6 0.5 0.3 1.1 0.6 1.7 0.8 0.7 0.2 1.3 0.5 2 0.3 0.8-0.1 1.5-0.6 1.8-1.4 0.1-0.2 0.1-0.5 0.1-0.7 0-0.3-0.6-0.6-1-0.8z" clip-rule="evenodd" fill-rule="evenodd"/>
                            </svg>
-0.1,1.5-0.6,1.8-1.4
				c0.1-0.2,0.1-0.5,0.1-0.7C14.8,12,14.2,11.7,13.8,11.5z"/>
		</g>
	</g>
</g>
</svg>
7,0.2,1.3,0.5,2,0.3c0.8-0.1,1.5-0.6,1.8-1.4
				c0.1-0.2,0.1-0.5,0.1-0.7C14.8,12,14.2,11.7,13.8,11.5z"/>
		</g>
	</g>
</g>
</svg>
