<?xml version="1.0" encoding="UTF-8"?>
<svg enable-background="new 0 0 21 18.3" version="1.1" viewBox="0 0 21 18.3" xml:space="preserve" xmlns="http://www.w3.org/2000/svg">
                                 <path d="m17.9 0c-2.9-0.1-4.9 1.6-5.9 5 0.5-0.2 1.1-0.4 1.6-0.4 1.1 0 1.6 0.6 1.4 1.8-0.1 0.7-0.5 1.8-1.4 3.2s-1.5 2.1-2 2.1c-0.6 0-1.1-1.1-1.6-3.2-0.1-0.6-0.4-2.2-0.8-4.8-0.4-2.4-1.4-3.5-3.1-3.3-0.7 0.1-1.7 0.7-3.1 2l-3 2.7 1 1.3c0.9-0.7 1.5-1 1.6-1 0.7 0 1.4 1.1 2.1 3.4 0.6 2.1 1.2 4.1 1.8 6.2 0.9 2.3 1.9 3.4 3.2 3.4 2 0 4.4-1.9 7.2-5.7 2.7-3.7 4.1-6.5 4.1-8.5 0.1-2.8-0.9-4.2-3.1-4.2z"/>
                            </svg>
1,0,17.9,0z"/>
</svg>
2.1,3.4c0.6,2.1,1.2,4.1,1.8,6.2
	c0.9,2.3,1.9,3.4,3.2,3.4c2,0,4.4-1.9,7.2-5.7C19.6,9,21,6.2,21,4.2C21.1,1.4,20.1,0,17.9,0z"/>
</svg>
