<?xml version="1.0" encoding="utf-8"?>
<!-- Generator: Adobe Illustrator 18.1.1, SVG Export Plug-In . SVG Version: 6.00 Build 0)  -->
<svg version="1.1" id="Layer_1" xmlns="http://www.w3.org/2000/svg" xmlns:xlink="http://www.w3.org/1999/xlink" x="0px" y="0px"
	 viewBox="0 0 452.9 70.3" enable-background="new 0 0 452.9 70.3" xml:space="preserve">
<g>
	<g>
		<g>
			<g>
				<g>
					<path fill="#DCDBDB" d="M212,67.4c-2.7,1.6-6.1,2.4-10.2,2.4c-3.7,0-7.1-0.9-10.1-2.6c-3-1.7-5.6-4.1-7.6-7.2
						c-2.1-3.1-3.7-6.7-4.8-11c-1.2-4.2-1.7-8.9-1.7-13.9c0-5,0.6-9.7,1.7-13.9c1.1-4.3,2.8-7.9,4.9-11c2.1-3.1,4.7-5.5,7.7-7.2
						c3-1.7,6.4-2.6,10-2.6c3.8,0,7.1,0.7,10,2.1c2.9,1.4,5.2,3.4,7,6l-6.4,7.8c-2.5-3.7-5.8-5.5-9.9-5.5c-2.2,0-4.2,0.6-5.9,1.9
						c-1.7,1.3-3.1,3-4.2,5.2c-1.1,2.2-2,4.7-2.5,7.7c-0.6,3-0.8,6.1-0.8,9.5c0,3.3,0.3,6.4,0.8,9.4c0.6,3,1.4,5.5,2.5,7.7
						c1.1,2.2,2.5,3.9,4.2,5.2c1.7,1.3,3.7,1.9,6,1.9c2.2,0,4.1-0.6,5.6-1.7c1.6-1.1,2.9-2.5,4-4.1l6.4,7.5
						C217,63.7,214.7,65.8,212,67.4z"/>
				</g>
			</g>
			<g>
				<g>
					<g>
						<path fill="#010101" d="M201.8,70.3c-3.8,0-7.3-0.9-10.4-2.7c-3.1-1.8-5.7-4.2-7.8-7.4c-2.1-3.1-3.8-6.8-4.9-11.1
							c-1.2-4.2-1.7-9-1.7-14h1c0,5,0.6,9.6,1.7,13.8c1.1,4.2,2.7,7.8,4.8,10.8c2,3,4.5,5.4,7.5,7.1c2.9,1.7,6.2,2.5,9.9,2.5V70.3z
							 M212.3,67.8l-0.5-0.9c2.5-1.5,4.6-3.5,6.3-5.9l-5.8-6.8c-1,1.4-2.3,2.7-3.7,3.7c-1.7,1.2-3.7,1.8-5.9,1.8
							c-2.4,0-4.5-0.7-6.3-2c-1.8-1.3-3.2-3.1-4.4-5.3c-1.1-2.2-2-4.8-2.6-7.8c-0.6-3-0.8-6.2-0.8-9.5c0-3.4,0.3-6.6,0.8-9.6l1,0.2
							c-0.6,2.9-0.8,6.1-0.8,9.4c0,3.2,0.3,6.4,0.8,9.3c0.5,2.9,1.4,5.4,2.5,7.6c1.1,2.1,2.5,3.8,4.1,5c1.6,1.2,3.5,1.8,5.7,1.8
							c2.1,0,3.9-0.5,5.3-1.6c1.5-1.1,2.8-2.4,3.8-4l0.4-0.6l7.1,8.3l-0.2,0.3C217.3,64,215,66.2,212.3,67.8z M212.3,17.3l-0.4-0.5
							c-2.5-3.6-5.6-5.3-9.5-5.3v-1c4,0,7.3,1.7,9.9,5.2l5.8-7c-1.7-2.4-3.9-4.2-6.6-5.5c-2.8-1.4-6.1-2-9.8-2
							c-3.6,0-6.8,0.8-9.8,2.5l-0.5-0.9c3.1-1.7,6.5-2.6,10.3-2.6c3.8,0,7.3,0.7,10.2,2.1c2.9,1.4,5.3,3.5,7.2,6.2l0.2,0.3
							L212.3,17.3z"/>
					</g>
				</g>
			</g>
			<g>
				<g>
					<path fill="#414141" d="M202,65.6c-0.2,0-0.5,0-0.7,0l0-1c1,0,2,0,2.9-0.2l0.2,1C203.6,65.6,202.8,65.6,202,65.6z M199.3,65.4
						c-0.9-0.2-1.9-0.4-2.9-0.7l-0.1,0l0.3-1l0.1,0c0.9,0.3,1.8,0.5,2.7,0.7L199.3,65.4z M206.4,65l-0.3-1c0.9-0.3,1.8-0.7,2.6-1.2
						l0.5,0.9C208.3,64.2,207.4,64.6,206.4,65z M194.4,63.8c-0.8-0.5-1.7-1.1-2.5-1.9l0.7-0.7c0.8,0.7,1.5,1.3,2.3,1.8L194.4,63.8z
						 M211,62.6l-0.6-0.8c1-0.8,1.7-1.5,2.1-2l0.8,0.6C212.8,60.9,212,61.7,211,62.6z M190.5,60.4c-0.6-0.7-1.3-1.5-1.9-2.4l0.8-0.6
						c0.6,0.8,1.2,1.6,1.8,2.3L190.5,60.4z M187.5,56.3c-0.5-0.8-1-1.7-1.5-2.7l0.9-0.4c0.4,0.9,0.9,1.8,1.4,2.6L187.5,56.3z
						 M185.2,51.8c-0.4-0.9-0.8-1.9-1.1-2.8l0.9-0.3c0.3,0.9,0.7,1.9,1.1,2.8L185.2,51.8z M183.5,47c-0.3-1-0.5-2-0.8-2.9l1-0.2
						c0.2,1,0.5,1.9,0.7,2.9L183.5,47z M182.3,42.1c-0.2-1-0.3-2-0.4-3l1-0.1c0.1,1,0.2,2,0.4,2.9L182.3,42.1z M181.8,37.1
						c0-0.6,0-1.2,0-1.8c0-0.4,0-0.8,0-1.2l1,0c0,0.4,0,0.8,0,1.2c0,0.6,0,1.2,0,1.7L181.8,37.1z M182.9,32.1l-1-0.1
						c0-0.5,0.1-1,0.2-1.5c0.1-0.5,0.1-1,0.2-1.5l1,0.1c-0.1,0.5-0.1,1-0.2,1.5C183,31.1,182.9,31.6,182.9,32.1z M183.5,27.2l-1-0.2
						c0.2-1,0.4-2,0.6-3l1,0.2C183.9,25.2,183.7,26.2,183.5,27.2z M184.6,22.3l-1-0.2c0.3-1,0.5-2,0.9-2.9l0.9,0.3
						C185.1,20.4,184.8,21.3,184.6,22.3z M186.1,17.6l-0.9-0.4c0.4-1,0.9-1.9,1.3-2.7l0.9,0.5C186.9,15.8,186.5,16.7,186.1,17.6z
						 M188.4,13.4l-0.8-0.6c0.6-0.8,1.3-1.6,2-2.3l0.7,0.7C189.6,11.8,189,12.6,188.4,13.4z M191.8,9.9l-0.6-0.8
						c0.8-0.6,1.6-1.2,2.5-1.7l0.5,0.9C193.3,8.7,192.5,9.3,191.8,9.9z M212.7,8.8c0,0-1-0.6-2.6-1.3l0.4-0.9
						c1.7,0.7,2.7,1.3,2.8,1.4L212.7,8.8z M195.9,7.3l-0.4-0.9c0.9-0.4,1.9-0.8,2.9-1l0.2,1C197.7,6.6,196.8,6.9,195.9,7.3z
						 M208.3,6.9c-1-0.3-1.9-0.5-2.9-0.7l0.2-1c1,0.2,2,0.4,3,0.7L208.3,6.9z M200.6,6.1l-0.1-1c1-0.1,2.1-0.1,3.1-0.1l-0.1,1
						C202.5,5.9,201.5,6,200.6,6.1z"/>
				</g>
			</g>
		</g>
		<g>
			<g>
				<g>
					<path fill="#DCDBDB" d="M287.1,68.2v-66h29.5v9.9h-18.8v17.5h17.4v9.1h-17.4v19.5h19.8v10H287.1z"/>
				</g>
			</g>
			<g>
				<g>
					<g>
						<path fill="#010101" d="M318,68.7h-5.9v-1h4.9v-9h-11.5v-1H318V68.7z M297.7,68.7h-11.2v-5.9h1v4.9h10.2V68.7z M298.3,55.6h-1
							V38.2h17.4v-8.6h-16.9v-1h17.9v10.6h-17.4V55.6z M287.6,53.6h-1V6.8h1V53.6z M298.3,19.7h-1v-8.1h18.8V2.7h-16v-1h17v10.9
							h-18.8V19.7z"/>
					</g>
				</g>
			</g>
			<g>
				<g>
					<path fill="#414141" d="M313.1,64.9h-3v-1h3V64.9z M308.1,64.9h-3v-1h3V64.9z M303.1,64.9h-3v-1h3V64.9z M298.1,64.9h-3v-1h3
						V64.9z M293.6,64.8h-2v-2h1v1h1V64.8z M292.1,60.9h-1v-3h1V60.9z M292.1,55.9h-1v-3h1V55.9z M292.1,50.9h-1v-3h1V50.9z
						 M292.1,45.9h-1v-3h1V45.9z M292.1,40.9h-1v-3h1V40.9z M292.1,35.9h-1v-3h1V35.9z M292.1,30.9h-1v-3h1V30.9z M292.1,25.9h-1v-3
						h1V25.9z M292.1,20.9h-1v-3h1V20.9z M292.1,15.9h-1v-3h1V15.9z M292.1,10.9h-1v-3h1V10.9z M313.6,6.8h-1v-1h1V6.8z M310.1,6.9
						h-3v-1h3V6.9z M305.1,6.9h-3v-1h3V6.9z M300.1,6.9h-3v-1h3V6.9z M295.1,6.9h-3v-1h3V6.9z"/>
				</g>
			</g>
			<g>
				<g>
					<path fill="#414141" d="M311.6,33.8h-1v-1h1V33.8z M308.1,33.9h-3v-1h3V33.9z M303.1,33.9h-3v-1h3V33.9z M298.1,33.9h-3v-1h3
						V33.9z"/>
				</g>
			</g>
		</g>
		<g>
			<g>
				<g>
					<path fill="#DCDBDB" d="M264.8,68.2v-66H276v66H264.8z"/>
				</g>
			</g>
			<g>
				<g>
					<g>
						<path fill="#010101" d="M276.5,68.7h-12.2V28.3h1v39.3h10.2V56.1h1V68.7z M276.5,36.8h-1V2.7h-10.2v14.2h-1V1.7h12.2V36.8z"/>
					</g>
				</g>
			</g>
			<g>
				<g>
					<path fill="#414141" d="M270.1,64.9h-1v-3h1V64.9z M270.1,59.9h-1v-3h1V59.9z M270.1,54.9h-1v-3h1V54.9z M270.1,49.9h-1v-3h1
						V49.9z M270.1,44.9h-1v-3h1V44.9z M270.1,39.9h-1v-3h1V39.9z M270.1,34.9h-1v-3h1V34.9z M270.1,29.9h-1v-3h1V29.9z M270.1,24.9
						h-1v-3h1V24.9z M270.1,19.9h-1v-3h1V19.9z M270.1,14.9h-1v-3h1V14.9z M270.1,9.9h-1v-3h1V9.9z"/>
				</g>
			</g>
		</g>
		<g>
			<g>
				<g>
					<path fill="#DCDBDB" d="M397.5,11.7v56.5h-11V11.7h-12.4V2.2h35.8v9.5H397.5z"/>
				</g>
			</g>
			<g>
				<g>
					<g>
						<path fill="#010101" d="M398,68.7h-12V58.1h1v9.6h10V35.6h1V68.7z M387,49.8h-1V11.7h1V49.8z M398,25.3h-1V11.2h12.4V2.7h-21
							v-1h22v10.5H398V25.3z"/>
					</g>
				</g>
			</g>
			<g>
				<g>
					<path fill="#414141" d="M407.6,7.1h-2v-1h2V7.1z M403.1,6.9h-3v-1h3V6.9z M398.1,6.9h-3v-1h3V6.9z M393.1,6.9h-3v-1h3V6.9z
						 M388.1,6.9h-3v-1h3V6.9z M383.1,6.9h-3v-1h3V6.9z M378.1,6.9h-3v-1h3V6.9z"/>
				</g>
			</g>
			<g>
				<g>
					<path fill="#414141" d="M392.6,65.1h-1v-2h1V65.1z M392.1,60.9h-1v-3h1V60.9z M392.1,55.9h-1v-3h1V55.9z M392.1,50.9h-1v-3h1
						V50.9z M392.1,45.9h-1v-3h1V45.9z M392.1,40.9h-1v-3h1V40.9z M392.1,35.9h-1v-3h1V35.9z M392.1,30.9h-1v-3h1V30.9z M392.1,25.9
						h-1v-3h1V25.9z M392.1,20.9h-1v-3h1V20.9z M392.1,15.9h-1v-3h1V15.9z"/>
				</g>
			</g>
		</g>
		<g>
			<g>
				<g>
					<path fill="#DCDBDB" d="M354,68.2l-18.7-46.6H335l0.2,46.6h-10.1v-66h12.8l18.5,46.9h0.3l-0.1-46.9h9.7v66H354z"/>
				</g>
			</g>
			<g>
				<g>
					<g>
						<path fill="#010101" d="M366.8,68.7h-13.1L347,52l0.9-0.4l6.4,16h11.5v-65h-8.7l0,14.4l-1,0l0-15.4h10.7V68.7z M335.7,68.7
							h-11.1V57.3h1v10.3h9.1l-0.2-46.6h1.1l4.5,11.3l-0.9,0.4l-3.7-9.3L335.7,68.7z M325.6,41.8h-1V1.7h13.6L351,34l-0.9,0.4
							L337.6,2.7h-11.9V41.8z"/>
					</g>
				</g>
			</g>
			<g>
				<g>
					<path fill="#414141" d="M330.1,63.9h-1v-3h1V63.9z M330.1,58.9h-1v-3h1V58.9z M330.1,53.9h-1v-3h1V53.9z M330.1,48.9h-1v-3h1
						V48.9z M330.1,43.9h-1v-3h1V43.9z M330.1,38.9h-1v-3h1V38.9z M330.1,33.9h-1v-3h1V33.9z M330.1,28.9h-1v-3h1V28.9z M330.1,23.9
						h-1v-3h1V23.9z M330.1,18.9h-1v-3h1V18.9z M330.1,13.9h-1v-3h1V13.9z M330.6,8.8h-1v-2h1V8.8z"/>
				</g>
			</g>
			<g>
				<g>
					<path fill="#414141" d="M361.1,63.9h-1v-3h1V63.9z M361.1,58.9h-1v-3h1V58.9z M361.1,53.9h-1v-3h1V53.9z M361.1,48.9h-1v-3h1
						V48.9z M361.1,43.9h-1v-3h1V43.9z M361.1,38.9h-1v-3h1V38.9z M361.1,33.9h-1v-3h1V33.9z M361.1,28.9h-1v-3h1V28.9z M361.1,23.9
						h-1v-3h1V23.9z M361.1,18.9h-1v-3h1V18.9z M361.1,13.9h-1v-3h1V13.9z M361.6,8.8h-1v-2h1V8.8z"/>
				</g>
			</g>
			<g>
				<g>
					<path fill="#414141" d="M357.2,63.5l-0.7-1.7l0.9-0.4l0.7,1.7L357.2,63.5z M355.7,60l-1.2-2.8l0.9-0.4l1.2,2.8L355.7,60z
						 M353.7,55.4l-1.2-2.8l0.9-0.4l1.2,2.8L353.7,55.4z M351.7,50.8l-1.2-2.8l0.9-0.4l1.2,2.8L351.7,50.8z M349.7,46.2l-1.2-2.8
						l0.9-0.4l1.2,2.8L349.7,46.2z M347.8,41.6l-1.2-2.8l0.9-0.4l1.2,2.8L347.8,41.6z M345.8,37l-1.2-2.8l0.9-0.4l1.2,2.8L345.8,37z
						 M343.8,32.5l-1.2-2.8l0.9-0.4l1.2,2.8L343.8,32.5z M341.8,27.9l-1.2-2.8l0.9-0.4l1.2,2.8L341.8,27.9z M339.8,23.3l-1.2-2.8
						l0.9-0.4l1.2,2.8L339.8,23.3z M337.8,18.7l-1.2-2.8l0.9-0.4l1.2,2.8L337.8,18.7z M335.9,14.1l-1.2-2.8l0.9-0.4l1.2,2.8
						L335.9,14.1z M333.9,9.5l-1.2-2.8l0.9-0.4l1.2,2.8L333.9,9.5z"/>
				</g>
			</g>
		</g>
		<g>
			<g>
				<g>
					<path fill="#DCDBDB" d="M226.3,68.2v-66h11.3v55.6h18.2v10.3H226.3z"/>
				</g>
			</g>
			<g>
				<g>
					<g>
						<path fill="#010101" d="M256.3,68.7h-30.4v-7.6h1v6.6h28.4v-9.3h-18.2V32.7h1v24.6h18.2V68.7z M226.8,40.1h-1V1.7h12.3v16.4
							h-1V2.7h-10.3V40.1z"/>
					</g>
				</g>
			</g>
			<g>
				<g>
					<path fill="#414141" d="M251.1,63.9h-3v-1h3V63.9z M246.1,63.9h-3v-1h3V63.9z M241.1,63.9h-3v-1h3V63.9z M236.1,63.9h-3v-1h3
						V63.9z M231.1,63.9h-1v-3h1V63.9z M231.1,58.9h-1v-3h1V58.9z M231.1,53.9h-1v-3h1V53.9z M231.1,48.9h-1v-3h1V48.9z M231.1,43.9
						h-1v-3h1V43.9z M231.1,38.9h-1v-3h1V38.9z M231.1,33.9h-1v-3h1V33.9z M231.1,28.9h-1v-3h1V28.9z M231.1,23.9h-1v-3h1V23.9z
						 M231.1,18.9h-1v-3h1V18.9z M231.1,13.9h-1v-3h1V13.9z M231.1,8.9h-1v-3h1V8.9z"/>
				</g>
			</g>
		</g>
		<g>
			<g>
				<g>
					<path fill="#DCDBDB" d="M446.1,14.9c-2.4-2.9-5.5-4.4-9.1-4.4c-1.1,0-2.1,0.2-3.1,0.5c-1,0.3-1.9,0.9-2.7,1.6
						c-0.8,0.7-1.4,1.7-1.9,2.9c-0.5,1.2-0.7,2.6-0.7,4.2c0,2.8,0.8,5,2.5,6.5c1.7,1.5,3.9,3,6.6,4.3c1.6,0.8,3.3,1.7,4.9,2.8
						c1.7,1.1,3.2,2.3,4.6,3.8c1.4,1.5,2.5,3.3,3.4,5.3c0.9,2.1,1.3,4.5,1.3,7.3c0,3.2-0.5,6.1-1.5,8.6c-1,2.5-2.4,4.6-4.1,6.3
						c-1.7,1.7-3.7,3-6,3.9c-2.3,0.9-4.7,1.3-7.3,1.3c-3.7,0-7.1-0.7-10.2-2.1c-3.1-1.4-5.6-3.2-7.5-5.4l6.1-8.2
						c1.4,1.7,3.2,3.1,5.2,4.1c2,1,4.1,1.5,6.2,1.5c2.4,0,4.3-0.8,5.9-2.4c1.6-1.6,2.3-3.9,2.3-6.8c0-2.9-0.9-5.1-2.8-6.8
						c-1.9-1.7-4.2-3.2-7.1-4.7c-1.8-0.9-3.5-1.8-5.1-2.9c-1.6-1.1-3-2.3-4.2-3.8c-1.2-1.5-2.2-3.2-2.9-5.1c-0.7-2-1.1-4.3-1.1-7
						c0-3.4,0.5-6.4,1.6-8.8c1.1-2.5,2.5-4.5,4.3-6.1c1.8-1.6,3.8-2.8,6-3.6c2.2-0.8,4.5-1.2,6.8-1.2c3.4,0,6.4,0.5,9,1.6
						c2.6,1.1,4.9,2.7,6.7,4.8L446.1,14.9z"/>
				</g>
			</g>
			<g>
				<g>
					<g>
						<path fill="#010101" d="M433,70.3c-3.7,0-7.2-0.7-10.4-2.2c-3.2-1.5-5.7-3.3-7.6-5.5l-0.3-0.3l6.7-9l0.4,0.5
							c1.4,1.7,3.1,3,5,4c1.9,1,4,1.4,6,1.4c2.2,0,4-0.7,5.5-2.3c1.5-1.5,2.2-3.7,2.2-6.5c0-2.7-0.9-4.9-2.6-6.4l0.7-0.7
							c2,1.8,3,4.2,3,7.2c0,3-0.8,5.4-2.5,7.1c-1.6,1.7-3.7,2.6-6.2,2.6c-2.2,0-4.3-0.5-6.4-1.5c-1.9-0.9-3.5-2.2-4.9-3.7l-5.4,7.4
							c1.8,2,4.1,3.7,7,5c3,1.4,6.4,2.1,9.9,2.1c2.5,0,4.9-0.4,7.1-1.3l0.4,0.9C438.1,69.9,435.6,70.3,433,70.3z M450.1,42.7
							c-0.8-2-1.9-3.7-3.3-5.2c-1.3-1.5-2.8-2.7-4.5-3.7c-1.7-1-3.3-2-4.9-2.8c-2.8-1.4-5-2.9-6.7-4.4c-1.8-1.6-2.7-3.9-2.7-6.8
							c0-1.7,0.2-3.1,0.7-4.4c0.5-1.2,1.2-2.3,2-3.1l0,0c0.9-0.8,1.8-1.4,2.9-1.7c1-0.4,2.1-0.5,3.2-0.5c3.6,0,6.7,1.4,9.1,4.1
							l5.5-7.2c-1.7-1.9-3.8-3.4-6.2-4.4c-2.6-1.1-5.5-1.6-8.8-1.6c-2.2,0-4.5,0.4-6.6,1.1c-2.2,0.8-4.1,1.9-5.8,3.5
							c-1.7,1.6-3.1,3.6-4.2,5.9c-1.1,2.4-1.6,5.3-1.6,8.6h-1c0-3.5,0.6-6.5,1.7-9c1.1-2.5,2.6-4.6,4.4-6.3c1.8-1.7,3.9-2.9,6.2-3.7
							c2.3-0.8,4.6-1.2,7-1.2c3.4,0,6.5,0.6,9.2,1.7c2.7,1.1,5,2.8,6.9,4.9l0.3,0.3l-6.8,8.8l-0.4-0.5c-2.3-2.8-5.3-4.2-8.7-4.2
							c-1,0-2,0.2-2.9,0.5c-0.9,0.3-1.8,0.8-2.5,1.5l-0.3-0.4l0.3,0.4c-0.7,0.7-1.3,1.6-1.8,2.7c-0.4,1.1-0.7,2.5-0.7,4
							c0,2.6,0.8,4.7,2.4,6.1c1.6,1.5,3.8,2.9,6.5,4.3c1.6,0.8,3.3,1.8,5,2.8c1.7,1.1,3.3,2.4,4.7,3.9c1.4,1.5,2.6,3.4,3.4,5.5
							L450.1,42.7z"/>
					</g>
				</g>
			</g>
			<g>
				<g>
					<path fill="#414141" d="M432.3,65.6l0-1c1,0,1.9-0.2,2.9-0.4l0.2,1C434.4,65.4,433.3,65.6,432.3,65.6z M430.3,65.6
						c-1.1-0.1-2.1-0.2-3.1-0.5l0.3-1c0.9,0.2,1.8,0.4,2.9,0.4L430.3,65.6z M437.4,64.7l-0.3-1c1-0.3,1.9-0.7,2.7-1.1l0.5,0.9
						C439.4,64,438.4,64.4,437.4,64.7z M425.2,64.4c-0.9-0.5-1.8-1-2.6-1.5l0.5-0.8c0.8,0.5,1.6,1,2.6,1.5L425.2,64.4z M442,62.4
						l-0.6-0.8c0.7-0.6,1.4-1.2,2.1-2l0.8,0.7C443.5,61,442.7,61.8,442,62.4z M420.9,61.7c-1-0.8-1-0.9-1-1.1l0.5,0.1l0.4-0.3
						c0,0,0.3,0.3,0.7,0.6L420.9,61.7z M445.4,58.6l-0.8-0.6c0.5-0.8,1-1.7,1.4-2.6l0.9,0.4C446.5,56.8,446,57.7,445.4,58.6z
						 M447.1,53.9l-0.8-0.2c0.2-0.9,0-1.9,0-2.8l0.7-0.1v0.1C447.1,51.9,447.4,52.9,447.1,53.9z M446.7,48.9
						c-0.2-0.9-0.5-1.8-0.9-2.7l0.9-0.4c0.5,1,0.8,2,1,3L446.7,48.9z M444.9,44.5c-0.5-0.8-1.1-1.6-1.8-2.3l0.7-0.7
						c0.7,0.8,1.3,1.6,1.9,2.4L444.9,44.5z M441.7,40.9c-0.7-0.6-1.5-1.2-2.3-1.8l0.6-0.8c0.9,0.6,1.7,1.3,2.4,1.9L441.7,40.9z
						 M437.7,37.9c-0.7-0.5-1.5-1-2.6-1.5l0.5-0.9c1,0.6,1.8,1.1,2.6,1.6L437.7,37.9z M433.5,35.4c-0.9-0.5-1.8-1-2.6-1.5l0.5-0.9
						c0.8,0.5,1.7,1,2.6,1.5L433.5,35.4z M429.1,32.8c-0.9-0.6-1.7-1.2-2.4-1.8l0.7-0.8c0.7,0.6,1.4,1.2,2.3,1.8L429.1,32.8z
						 M425.2,29.5c-0.2-0.3-0.4-0.5-0.6-0.8c-0.4-0.6-0.8-1.2-1.1-1.8l0.9-0.5c0.3,0.6,0.6,1.1,1,1.6c0.2,0.3,0.4,0.5,0.6,0.7
						L425.2,29.5z M422.7,25c-0.3-1-0.5-2-0.6-3l1-0.1c0.1,1,0.3,1.9,0.6,2.8L422.7,25z M423,20l-1,0c0-1,0.2-2,0.4-3.1l1,0.2
						C423.2,18,423,19,423,20z M423.9,15.2l-0.9-0.3c0.3-1,0.8-1.9,1.3-2.8l0.9,0.5C424.7,13.4,424.3,14.3,423.9,15.2z M426.2,10.9
						l-0.8-0.6c0.6-0.9,1.3-1.6,2-2.3l0.7,0.7C427.4,9.4,426.8,10.1,426.2,10.9z M446.2,8.3c0,0-1-0.6-2.7-1.2l0.4-0.9
						c1.7,0.7,2.8,1.3,2.8,1.3L446.2,8.3z M429.6,7.6L429,6.7c0.7-0.5,1.4-0.8,2.1-1.1c0.2-0.1,0.5-0.2,0.7-0.3l0.3,1
						c-0.2,0.1-0.4,0.2-0.7,0.2C430.9,6.8,430.2,7.1,429.6,7.6z M441.7,6.5c-1-0.3-1.9-0.5-2.9-0.6l0.1-1c1,0.1,2,0.4,3,0.7
						L441.7,6.5z M434,5.9l-0.2-1c0.8-0.1,1.6-0.2,2.5-0.2c0.2,0,0.4,0,0.6,0l0,1c-0.2,0-0.4,0-0.6,0C435.6,5.7,434.8,5.7,434,5.9z"
						/>
				</g>
			</g>
		</g>
	</g>
	<g>
		<g>
			<g>
				<g>
					<path fill="#DCDBDB" d="M47.5,35.1c0,5.2-0.5,10-1.6,14.2c-1.1,4.3-2.7,7.9-4.7,11c-2.1,3-4.6,5.4-7.5,7.1
						c-3,1.7-6.3,2.5-9.9,2.5c-3.7,0-7.1-0.8-10-2.5c-2.9-1.7-5.4-4-7.5-7.1c-2.1-3-3.6-6.7-4.7-11C0.5,45,0,40.3,0,35.1
						c0-5.2,0.5-9.9,1.6-14.2c1.1-4.2,2.6-7.9,4.7-10.9c2.1-3,4.6-5.4,7.5-7c3-1.6,6.3-2.5,10-2.5c3.7,0,7,0.8,9.9,2.5
						c2.9,1.6,5.5,4,7.5,7c2,3,3.6,6.7,4.7,10.9C47,25.1,47.5,29.9,47.5,35.1z M36,35.1c0-3.4-0.3-6.5-0.8-9.5
						c-0.5-2.9-1.3-5.5-2.3-7.6c-1-2.1-2.3-3.8-3.8-5.1c-1.5-1.2-3.3-1.9-5.3-1.9c-2,0-3.8,0.6-5.4,1.9c-1.5,1.2-2.8,2.9-3.8,5.1
						c-1,2.1-1.8,4.7-2.3,7.6c-0.5,3-0.7,6.1-0.7,9.5c0,3.4,0.2,6.5,0.7,9.5c0.5,3,1.3,5.5,2.3,7.7c1,2.2,2.3,3.9,3.8,5.1
						c1.5,1.2,3.3,1.9,5.4,1.9c2.1,0,3.8-0.6,5.4-1.9c1.5-1.2,2.8-3,3.8-5.1c1-2.2,1.8-4.7,2.3-7.7C35.7,41.6,36,38.4,36,35.1z"/>
				</g>
			</g>
			<g>
				<g>
					<g>
						<path fill="#010101" d="M23.8,70.3c-3.8,0-7.2-0.9-10.2-2.6l0.5-0.9c2.8,1.6,6.1,2.4,9.7,2.4c3.6,0,6.8-0.8,9.7-2.5
							c2.9-1.6,5.3-4,7.3-6.9l0.8,0.6c-2.1,3.1-4.7,5.5-7.7,7.2C30.9,69.5,27.5,70.3,23.8,70.3z M23.8,59.7c-2.2,0-4.1-0.7-5.7-2
							c-1.6-1.3-2.9-3.1-4-5.3c-1-2.2-1.8-4.8-2.3-7.8c-0.5-3-0.8-6.2-0.8-9.5c0-3.4,0.3-6.6,0.8-9.5c0.5-3,1.3-5.6,2.3-7.8
							c1.1-2.2,2.4-4,4-5.2c1.6-1.3,3.5-2,5.7-2c2.1,0,4,0.7,5.6,2L29,12.9l0.3-0.4c1.6,1.3,2.9,3.1,4,5.2l-0.9,0.4
							c-1-2.1-2.2-3.7-3.7-4.9c-1.4-1.2-3.1-1.8-4.9-1.8c-1.9,0-3.6,0.6-5,1.8c-1.5,1.2-2.7,2.8-3.7,4.9c-1,2.1-1.8,4.6-2.2,7.5
							c-0.5,2.9-0.7,6.1-0.7,9.4c0,3.3,0.2,6.5,0.7,9.4c0.5,2.9,1.2,5.4,2.2,7.6c1,2.1,2.2,3.8,3.7,5c1.4,1.2,3.1,1.8,5,1.8
							c1.9,0,3.6-0.6,5-1.8c1.5-1.2,2.7-2.9,3.7-5l0.9,0.4c-1.1,2.2-2.4,4-4,5.3C27.8,59,25.9,59.7,23.8,59.7z M46.4,49.4l-1-0.2
							C46.5,45,47,40.2,47,35.1c0-5.1-0.5-9.9-1.6-14c-1.1-4.1-2.6-7.8-4.6-10.7c-2-3-4.5-5.3-7.3-6.9C30.6,1.8,27.3,1,23.8,1
							c-3.6,0-6.9,0.8-9.8,2.4C11.1,5,8.7,7.3,6.7,10.3c-2,3-3.6,6.6-4.6,10.7l-1-0.2c1.1-4.3,2.7-8,4.7-11.1
							c2.1-3.1,4.7-5.5,7.7-7.2C16.5,0.9,20,0,23.8,0c3.7,0,7.2,0.9,10.2,2.5c3,1.7,5.6,4.1,7.7,7.2c2.1,3.1,3.7,6.8,4.8,11.1
							C47.5,25,48,29.8,48,35.1C48,40.3,47.5,45.1,46.4,49.4z"/>
					</g>
				</g>
			</g>
			<g>
				<g>
					<path fill="#414141" d="M23.2,66.1c-1-0.1-2.1-0.2-3.1-0.5l0.3-1c0.9,0.3,1.9,0.4,2.8,0.5L23.2,66.1z M25.3,66.1l-0.1-1
						c0.9-0.1,1.9-0.3,2.8-0.6l0.3,0.9C27.3,65.7,26.3,66,25.3,66.1z M18.2,64.9c-0.9-0.4-1.8-0.9-2.7-1.6l0.6-0.8
						c0.8,0.6,1.7,1.1,2.5,1.5L18.2,64.9z M30.2,64.5l-0.5-0.9c0.8-0.4,1.7-1,2.4-1.6l0.6,0.8C32,63.5,31.1,64.1,30.2,64.5z
						 M13.9,62c-0.7-0.7-1.5-1.4-2.1-2.2l0.8-0.6c0.6,0.8,1.3,1.5,2,2.1L13.9,62z M34.3,61.5l-0.7-0.7c0.7-0.7,1.3-1.4,2-2.2
						l0.8,0.6C35.7,60.1,35,60.9,34.3,61.5z M10.5,58.2c-0.6-0.8-1.1-1.7-1.6-2.6l0.9-0.5c0.5,0.9,1,1.7,1.6,2.5L10.5,58.2z
						 M37.6,57.6l-0.8-0.6c0.5-0.8,1-1.6,1.5-2.5l0.9,0.5C38.7,55.9,38.2,56.8,37.6,57.6z M8,53.8C7.5,53,7.1,52,6.8,51.1l0.9-0.4
						c0.4,0.9,0.8,1.9,1.2,2.7L8,53.8z M40.1,53.2l-0.9-0.4c0.4-0.9,0.8-1.8,1.1-2.7l0.9,0.3C40.9,51.3,40.5,52.3,40.1,53.2z
						 M6.1,49.1c-0.3-0.9-0.6-1.9-0.8-2.9l1-0.2c0.2,1,0.5,1.9,0.8,2.9L6.1,49.1z M41.8,48.4l-1-0.3c0.3-0.9,0.5-1.9,0.7-2.9l1,0.2
						C42.4,46.5,42.1,47.5,41.8,48.4z M4.8,44.2c-0.2-1-0.3-2-0.5-3l1-0.1c0.1,1,0.3,2,0.5,2.9L4.8,44.2z M43,43.5l-1-0.2
						c0.2-1,0.3-2,0.4-2.9l1,0.1C43.3,41.5,43.2,42.5,43,43.5z M4.2,39.2c-0.1-1-0.1-2-0.1-3l1,0c0,1,0.1,2,0.1,3L4.2,39.2z
						 M43.6,38.5l-1-0.1c0.1-1,0.1-2,0.1-3c0-0.8,0-1.6-0.1-2.4l1-0.1c0,0.8,0.1,1.6,0.1,2.5C43.7,36.5,43.7,37.5,43.6,38.5z
						 M5,34.2l-1,0c0-1,0.1-2,0.2-3l1,0.1C5.1,32.2,5.1,33.2,5,34.2z M42.5,31.1c-0.1-1-0.2-2-0.4-2.9l1-0.2c0.2,1,0.3,2,0.4,3
						L42.5,31.1z M5.4,29.3l-1-0.1c0.1-1,0.3-2,0.5-3l1,0.2C5.7,27.3,5.6,28.3,5.4,29.3z M41.8,26.2c-0.2-1-0.4-1.9-0.7-2.9l1-0.3
						c0.3,1,0.5,1.9,0.7,2.9L41.8,26.2z M6.4,24.4l-1-0.2c0.3-1,0.5-2,0.9-2.9l0.9,0.3C6.9,22.5,6.6,23.5,6.4,24.4z M40.5,21.4
						c-0.3-0.9-0.7-1.9-1.1-2.8l0.9-0.4c0.4,0.9,0.8,1.9,1.1,2.8L40.5,21.4z M7.9,19.7L7,19.4c0.4-1,0.8-1.9,1.2-2.8L9.1,17
						C8.7,17.9,8.3,18.8,7.9,19.7z M38.5,16.9c-0.5-0.9-0.9-1.8-1.5-2.6l0.8-0.5c0.5,0.8,1,1.7,1.5,2.6L38.5,16.9z M10.1,15.3
						l-0.9-0.5c0.5-0.9,1.1-1.8,1.7-2.5l0.8,0.6C11.1,13.6,10.6,14.4,10.1,15.3z M35.9,12.7c-0.6-0.8-1.3-1.5-1.9-2.2l0.7-0.7
						c0.7,0.7,1.4,1.5,2,2.3L35.9,12.7z M12.9,11.3l-0.7-0.7c0.7-0.8,1.4-1.5,2.2-2.1L15,9.3C14.3,9.9,13.6,10.6,12.9,11.3z
						 M32.6,9.2C31.8,8.6,31,8,30.2,7.5l0.5-0.9c0.9,0.5,1.7,1.1,2.5,1.8L32.6,9.2z M16.6,8.1L16,7.3c0.9-0.6,1.8-1.1,2.7-1.5
						l0.4,0.9C18.2,7.1,17.4,7.6,16.6,8.1z M28.5,6.7c-0.9-0.4-1.8-0.6-2.8-0.8l0.2-1c1,0.2,2,0.4,3,0.8L28.5,6.7z M20.9,6.2l-0.2-1
						c1-0.3,2.1-0.4,3.1-0.4l0,1C22.8,5.8,21.9,5.9,20.9,6.2z"/>
				</g>
			</g>
		</g>
		<g>
			<g>
				<g>
					<path fill="#DCDBDB" d="M133.6,68.2L123.4,40h-6.2v28.1h-10.8v-66h18.8c2.7,0,5.2,0.4,7.5,1.1c2.3,0.7,4.3,1.8,5.9,3.4
						c1.6,1.6,2.9,3.5,3.9,5.9c0.9,2.4,1.4,5.2,1.4,8.5c0,2.5-0.3,4.8-1,6.8c-0.7,2-1.5,3.6-2.5,5c-1,1.4-2.1,2.5-3.3,3.3
						c-1.2,0.8-2.4,1.4-3.6,1.7l11.8,30.4H133.6z M132.9,21.6c0-2-0.3-3.6-0.8-4.9c-0.6-1.3-1.3-2.3-2.2-3.1c-0.9-0.7-1.9-1.3-3-1.6
						c-1.1-0.3-2.2-0.5-3.4-0.5h-6.3v20.3h6.3c2.7,0,5-0.9,6.8-2.6C132,27.5,132.9,25,132.9,21.6z"/>
				</g>
			</g>
			<g>
				<g>
					<g>
						<path fill="#010101" d="M146.1,68.7h-12.8L123,40.5h-5.4v7.6h-1v-8.6h7.1L134,67.7h10.7l-8.2-21.2l0.9-0.4L146.1,68.7z
							 M117.7,68.7h-11.8V30.3h1v37.3h9.8v-8.2h1V68.7z M123.5,32.3h-6.8V11h6.8v1h-5.8v19.3h5.8c2.6,0,4.7-0.8,6.4-2.4
							c1.7-1.6,2.5-4.1,2.5-7.3h1c0,3.5-0.9,6.3-2.8,8C128.7,31.4,126.3,32.3,123.5,32.3z M143.4,27.9l-0.9-0.3c0.6-1.9,1-4.1,1-6.6
							c0-3.2-0.5-6-1.4-8.3c-0.9-2.3-2.2-4.2-3.7-5.7c-1.6-1.5-3.5-2.6-5.7-3.3c-2.2-0.7-4.7-1-7.4-1h-18.3v20.4h-1V1.7h19.3
							c2.8,0,5.4,0.4,7.7,1.1c2.4,0.7,4.4,1.9,6.1,3.5c1.7,1.6,3,3.6,4,6.1c1,2.4,1.4,5.3,1.4,8.7C144.4,23.6,144.1,25.9,143.4,27.9
							z"/>
					</g>
				</g>
			</g>
			<g>
				<g>
					<path fill="#414141" d="M111.1,64.9h-1v-3h1V64.9z M111.1,59.9h-1v-3h1V59.9z M111.1,54.9h-1v-3h1V54.9z M111.1,49.9h-1v-3h1
						V49.9z M111.1,44.9h-1v-3h1V44.9z M111.1,39.9h-1v-3h1V39.9z M111.1,34.9h-1v-3h1V34.9z M111.1,29.9h-1v-3h1V29.9z M111.1,24.9
						h-1v-3h1V24.9z M111.1,19.9h-1v-3h1V19.9z M111.1,14.9h-1v-3h1V14.9z M111.1,9.9h-1v-3h1V9.9z"/>
				</g>
			</g>
			<g>
				<g>
					<path fill="#414141" d="M120.1,36l-2.7,0l-0.2-1l2.8,0V36z M122.8,36l-0.1-1l0.8,0c0.7,0,1.4,0,2.2,0l0.1,1c-0.8,0-1.5,0-2.2,0
						L122.8,36z M127.8,35.7l-0.2-1c1-0.2,1.9-0.4,2.8-0.8l0.4,0.9C129.9,35.3,128.9,35.6,127.8,35.7z M132.7,34l-0.5-0.8
						c0.8-0.5,1.5-1.1,2.2-1.8l0.7,0.7C134.3,32.8,133.5,33.5,132.7,34z M136.4,30.5l-0.8-0.6c0.6-0.8,1.1-1.6,1.6-2.4l0.9,0.4
						C137.7,28.8,137.1,29.7,136.4,30.5z M138.9,26l-1-0.3c0.3-0.9,0.5-1.9,0.6-2.8l1,0.1C139.4,24,139.2,25,138.9,26z M138.6,20.9
						c0-0.9-0.1-1.9-0.3-2.9l1-0.2c0.2,1,0.3,2.1,0.4,3.1L138.6,20.9z M137.8,16.1c-0.3-0.9-0.6-1.8-1-2.8l0.9-0.4
						c0.4,1,0.7,1.9,1,2.9L137.8,16.1z M135.9,11.6c-0.5-0.7-1.2-1.4-2-2l0.6-0.8c0.9,0.7,1.6,1.4,2.2,2.3L135.9,11.6z M132.3,8.7
						c-0.8-0.4-1.7-0.7-2.7-1l0.3-1c1.1,0.3,2,0.7,2.9,1.1L132.3,8.7z M127.7,7.2c-0.9-0.2-1.9-0.3-2.9-0.4l0.1-1
						c1.1,0.1,2.1,0.2,3,0.4L127.7,7.2z M114.9,6.7l-0.1-1c0,0,1.2-0.1,3-0.1l0,1C116.1,6.6,114.9,6.7,114.9,6.7z M122.8,6.7
						c-1-0.1-2-0.1-3-0.1l0-1c0.9,0,2,0,3,0.1L122.8,6.7z"/>
				</g>
			</g>
			<g>
				<g>
					<path fill="#414141" d="M138.1,66.8l-0.4-1l0.9-0.4l0.4,1L138.1,66.8z M137,63.9l-1.1-2.8l0.9-0.4l1.1,2.8L137,63.9z
						 M135.2,59.2l-1.1-2.8l0.9-0.4l1.1,2.8L135.2,59.2z M133.3,54.6l-1.1-2.8l0.9-0.4l1.1,2.8L133.3,54.6z M131.5,49.9l-1.1-2.8
						l0.9-0.4l1.1,2.8L131.5,49.9z M129.7,45.3l-1.1-2.8l0.9-0.4l1.1,2.8L129.7,45.3z M127.8,40.6l-1.1-2.8l0.9-0.4l1.1,2.8
						L127.8,40.6z"/>
				</g>
			</g>
		</g>
		<g>
			<g>
				<g>
					<path fill="#DCDBDB" d="M95.6,53.7c-0.7,3-2,5.7-3.6,8c-1.7,2.3-3.8,4.1-6.5,5.4c-2.6,1.3-5.9,2-9.6,2c-3.8,0-7-0.7-9.6-2
						c-2.6-1.3-4.7-3.1-6.4-5.4c-1.6-2.3-2.8-4.9-3.5-8c-0.7-3-1.1-6.3-1.1-9.8V1.3h11.2v41.6c0,2.1,0.1,4,0.4,5.9
						c0.3,1.9,0.8,3.6,1.5,5c0.7,1.4,1.7,2.6,2.9,3.4c1.2,0.8,2.8,1.3,4.8,1.3c1.9,0,3.5-0.4,4.8-1.3c1.2-0.8,2.2-2,2.9-3.4
						c0.7-1.4,1.2-3.1,1.5-5c0.3-1.9,0.4-3.9,0.4-5.9V1.3h11.1v42.6C96.7,47.4,96.3,50.7,95.6,53.7z"/>
				</g>
			</g>
			<g>
				<g>
					<g>
						<path fill="#010101" d="M75.8,69.5c-3.9,0-7.2-0.7-9.8-2l0.4-0.9c2.5,1.3,5.7,1.9,9.4,1.9c3.7,0,6.9-0.6,9.4-1.9
							c2.6-1.3,4.7-3,6.3-5.2c1.6-2.2,2.8-4.8,3.6-7.8c0.7-3,1.1-6.2,1.1-9.7h1c0,3.5-0.4,6.8-1.1,9.9c-0.8,3.1-2,5.8-3.7,8.1
							c-1.7,2.3-4,4.2-6.7,5.5C83,68.8,79.7,69.5,75.8,69.5z M76,59c-2,0-3.7-0.5-5-1.3c-1.3-0.9-2.4-2.1-3.1-3.6
							c-0.7-1.5-1.3-3.2-1.5-5.1c-0.3-1.9-0.4-3.9-0.4-6h1c0,2,0.1,4,0.4,5.8c0.3,1.8,0.8,3.5,1.4,4.8c0.7,1.3,1.6,2.4,2.8,3.2
							c1.2,0.8,2.7,1.2,4.5,1.2c1.8,0,3.3-0.4,4.5-1.2c1.2-0.8,2.1-1.9,2.8-3.2c0.7-1.4,1.2-3,1.4-4.8c0.3-1.9,0.4-3.8,0.4-5.8V14.4
							h1v28.5c0,2.1-0.1,4.1-0.4,6c-0.3,1.9-0.8,3.7-1.5,5.1c-0.8,1.5-1.8,2.7-3.1,3.6C79.7,58.5,78,59,76,59z M55.7,43.5h-1V0.8
							h12.2v31.9h-1V1.8H55.7V43.5z M97.2,33.8h-1V1.8H85.9v-1h11.3V33.8z"/>
					</g>
				</g>
			</g>
			<g>
				<g>
					<path fill="#414141" d="M74.2,65.3c-0.6,0-1.2,0-1.8-0.1l0.1-1c0.9,0.1,2,0.1,2.9,0.1l0,1C75.1,65.2,74.6,65.3,74.2,65.3z
						 M77.5,65l-0.1-1c1-0.1,2-0.3,2.8-0.6l0.3,1C79.6,64.7,78.5,64.9,77.5,65z M70.4,64.8c-1-0.3-2-0.6-2.9-1.1l0.5-0.9
						c0.8,0.4,1.7,0.8,2.7,1L70.4,64.8z M82.4,63.7L82,62.8c0.9-0.4,1.7-0.9,2.5-1.4l0.6,0.8C84.3,62.7,83.4,63.2,82.4,63.7z
						 M65.7,62.5c-0.8-0.6-1.5-1.4-2.2-2.2l0.8-0.6c0.6,0.8,1.3,1.5,2,2.1L65.7,62.5z M86.7,60.8L86,60.1c0.7-0.7,1.3-1.4,1.8-2.2
						l0.8,0.5C88,59.2,87.4,60.1,86.7,60.8z M62.4,58.6c-0.5-0.9-0.9-1.8-1.3-2.8l0.9-0.3c0.3,1,0.7,1.9,1.2,2.7L62.4,58.6z
						 M89.6,56.6l-0.9-0.4c0.4-0.8,0.8-1.8,1.1-2.7l1,0.3C90.4,54.7,90.1,55.7,89.6,56.6z M60.6,53.8c-0.2-0.9-0.4-2-0.6-3l1-0.1
						c0.1,1,0.3,2,0.6,2.9L60.6,53.8z M91.3,51.7l-1-0.2c0.2-0.9,0.3-1.9,0.4-2.9l1,0.1C91.6,49.7,91.4,50.7,91.3,51.7z M59.5,48.8
						c-0.1-0.9-0.4-1.9-0.4-2.9v-0.2l1,0v0.2c0,0.9,0.2,1.9,0.2,2.8L59.5,48.8z M91.1,46.6l-1,0v-0.2c0-1.1,0.3-1.7,0.3-1.7l0.3-0.8
						h0.4v1h0.6c0,0-0.6,0.3-0.6,1.5V46.6z M60.1,43.9h-1v-3h1V43.9z M91.1,41.9h-1v-3h1V41.9z M60.1,38.9h-1v-3h1V38.9z M91.1,36.9
						h-1v-3h1V36.9z M60.1,33.9h-1v-3h1V33.9z M91.1,31.9h-1v-3h1V31.9z M60.1,28.9h-1v-3h1V28.9z M91.1,26.9h-1v-3h1V26.9z
						 M60.1,23.9h-1v-3h1V23.9z M91.1,21.9h-1v-3h1V21.9z M60.1,18.9h-1v-3h1V18.9z M91.1,16.9h-1v-3h1V16.9z M60.1,13.9h-1v-3h1
						V13.9z M91.1,11.9h-1v-3h1V11.9z M60.1,8.9h-1v-3h1V8.9z M91.7,6.6h-1V4.8h1V6.6z"/>
				</g>
			</g>
		</g>
	</g>
</g>
</svg>
