<?xml version="1.0" encoding="utf-8"?>
<!-- Generator: Adobe Illustrator 18.1.1, SVG Export Plug-In . SVG Version: 6.00 Build 0)  -->
<svg version="1.1" id="Layer_1" xmlns="http://www.w3.org/2000/svg" xmlns:xlink="http://www.w3.org/1999/xlink" x="0px" y="0px"
	 viewBox="0 0 371.7 170.8" enable-background="new 0 0 371.7 170.8" xml:space="preserve">
<g>
	<g>
		<line fill="none" stroke="#3C3A3A" stroke-width="2" x1="165.9" y1="27.9" x2="249.9" y2="27.9"/>
		<line fill="none" stroke="#3C3A3A" stroke-width="2" x1="167.9" y1="35.9" x2="341.9" y2="35.9"/>
		<line fill="none" stroke="#3C3A3A" stroke-width="2" x1="222.9" y1="43.9" x2="311.9" y2="43.9"/>
	</g>
	
		<rect x="359.9" y="30.7" transform="matrix(0.7071 0.7071 -0.7071 0.7071 131.4311 -247.2744)" fill="none" stroke="#3C3A3A" stroke-width="2" width="8.6" height="8.6"/>
	<g>
		<g>
			<g>
				<g>
					<path fill="#DCDBDB" d="M35,167.9c-2.7,1.6-6.1,2.4-10.2,2.4c-3.7,0-7.1-0.9-10.1-2.6c-3-1.7-5.6-4.1-7.6-7.2
						c-2.1-3.1-3.7-6.7-4.8-11c-1.2-4.2-1.7-8.9-1.7-13.9c0-5,0.6-9.7,1.7-13.9c1.1-4.3,2.8-7.9,4.9-11c2.1-3.1,4.7-5.5,7.7-7.2
						c3-1.7,6.4-2.6,10-2.6c3.8,0,7.1,0.7,10,2.1c2.9,1.4,5.2,3.4,7,6l-6.4,7.8c-2.5-3.7-5.8-5.5-9.9-5.5c-2.2,0-4.2,0.6-5.9,1.9
						c-1.7,1.3-3.1,3-4.2,5.2c-1.1,2.2-2,4.7-2.5,7.7c-0.6,3-0.8,6.1-0.8,9.5c0,3.3,0.3,6.4,0.8,9.4c0.6,3,1.4,5.5,2.5,7.7
						c1.1,2.2,2.5,3.9,4.2,5.2c1.7,1.3,3.7,1.9,6,1.9c2.2,0,4.1-0.6,5.6-1.7c1.6-1.1,2.9-2.5,4-4.1l6.4,7.5
						C40,164.2,37.7,166.3,35,167.9z"/>
				</g>
			</g>
			<g>
				<g>
					<g>
						<path fill="#010101" d="M24.8,170.8c-3.8,0-7.3-0.9-10.4-2.7c-3.1-1.8-5.7-4.2-7.8-7.4c-2.1-3.1-3.8-6.8-4.9-11.1
							c-1.2-4.2-1.7-9-1.7-14h1c0,5,0.6,9.6,1.7,13.8c1.1,4.2,2.7,7.8,4.8,10.8c2,3,4.5,5.4,7.5,7.1c2.9,1.7,6.2,2.5,9.9,2.5V170.8z
							 M35.3,168.3l-0.5-0.9c2.5-1.5,4.6-3.5,6.3-5.9l-5.8-6.8c-1,1.4-2.3,2.7-3.7,3.7c-1.7,1.2-3.7,1.8-5.9,1.8
							c-2.4,0-4.5-0.7-6.3-2c-1.8-1.3-3.2-3.1-4.4-5.3c-1.1-2.2-2-4.8-2.6-7.8c-0.6-3-0.8-6.2-0.8-9.5c0-3.4,0.3-6.6,0.8-9.6l1,0.2
							c-0.6,2.9-0.8,6.1-0.8,9.4c0,3.2,0.3,6.4,0.8,9.3c0.5,2.9,1.4,5.4,2.5,7.6c1.1,2.1,2.5,3.8,4.1,5c1.6,1.2,3.5,1.8,5.7,1.8
							c2.1,0,3.9-0.5,5.3-1.6c1.5-1.1,2.8-2.4,3.8-4l0.4-0.6l7.1,8.3l-0.2,0.3C40.3,164.5,38,166.7,35.3,168.3z M35.3,117.8
							l-0.4-0.5c-2.5-3.6-5.6-5.3-9.5-5.3v-1c4,0,7.3,1.7,9.9,5.2l5.8-7c-1.7-2.4-3.9-4.2-6.6-5.5c-2.8-1.4-6.1-2-9.8-2
							c-3.6,0-6.8,0.8-9.8,2.5l-0.5-0.9c3.1-1.7,6.5-2.6,10.3-2.6c3.8,0,7.3,0.7,10.2,2.1c2.9,1.4,5.3,3.5,7.2,6.2l0.2,0.3
							L35.3,117.8z"/>
					</g>
				</g>
			</g>
			<g>
				<g>
					<path fill="#414141" d="M25,166.1c-0.2,0-0.5,0-0.7,0l0-1c1,0,2,0,2.9-0.2l0.2,1C26.6,166.1,25.8,166.1,25,166.1z M22.3,165.9
						c-0.9-0.2-1.9-0.4-2.9-0.7l-0.1,0l0.3-1l0.1,0c0.9,0.3,1.8,0.5,2.7,0.7L22.3,165.9z M29.4,165.5l-0.3-1
						c0.9-0.3,1.8-0.7,2.6-1.2l0.5,0.9C31.3,164.7,30.4,165.2,29.4,165.5z M17.4,164.3c-0.8-0.5-1.7-1.1-2.5-1.9l0.7-0.7
						c0.8,0.7,1.5,1.3,2.3,1.8L17.4,164.3z M34,163.1l-0.6-0.8c1-0.8,1.7-1.5,2.1-2l0.8,0.6C35.8,161.5,35,162.3,34,163.1z
						 M13.5,160.9c-0.6-0.7-1.3-1.5-1.9-2.4l0.8-0.6c0.6,0.8,1.2,1.6,1.8,2.3L13.5,160.9z M10.5,156.8c-0.5-0.8-1-1.7-1.5-2.7
						l0.9-0.4c0.4,0.9,0.9,1.8,1.4,2.6L10.5,156.8z M8.2,152.3c-0.4-0.9-0.8-1.9-1.1-2.8l0.9-0.3c0.3,0.9,0.7,1.9,1.1,2.8L8.2,152.3
						z M6.5,147.5c-0.3-1-0.5-2-0.8-2.9l1-0.2c0.2,1,0.5,1.9,0.7,2.9L6.5,147.5z M5.3,142.6c-0.2-1-0.3-2-0.4-3l1-0.1
						c0.1,1,0.2,2,0.4,2.9L5.3,142.6z M4.8,137.6c0-0.6,0-1.2,0-1.8c0-0.4,0-0.8,0-1.2l1,0c0,0.4,0,0.8,0,1.2c0,0.6,0,1.2,0,1.7
						L4.8,137.6z M5.9,132.6l-1-0.1c0-0.5,0.1-1,0.2-1.5c0.1-0.5,0.1-1,0.2-1.5l1,0.1c-0.1,0.5-0.1,1-0.2,1.5
						C6,131.6,5.9,132.1,5.9,132.6z M6.5,127.7l-1-0.2c0.2-1,0.4-2,0.6-3l1,0.2C6.9,125.7,6.7,126.7,6.5,127.7z M7.6,122.8l-1-0.2
						c0.3-1,0.5-2,0.9-2.9l0.9,0.3C8.1,120.9,7.8,121.8,7.6,122.8z M9.1,118.2l-0.9-0.4c0.4-1,0.9-1.9,1.3-2.7l0.9,0.5
						C9.9,116.3,9.5,117.2,9.1,118.2z M11.4,113.9l-0.8-0.6c0.6-0.8,1.3-1.6,2-2.3l0.7,0.7C12.6,112.3,12,113.1,11.4,113.9z
						 M14.8,110.4l-0.6-0.8c0.8-0.6,1.6-1.2,2.5-1.7l0.5,0.9C16.3,109.2,15.5,109.8,14.8,110.4z M35.7,109.3c0,0-1-0.6-2.6-1.3
						l0.4-0.9c1.7,0.7,2.7,1.3,2.8,1.4L35.7,109.3z M18.9,107.8l-0.4-0.9c0.9-0.4,1.9-0.8,2.9-1l0.2,1
						C20.7,107.1,19.8,107.4,18.9,107.8z M31.3,107.4c-1-0.3-1.9-0.5-2.9-0.7l0.2-1c1,0.2,2,0.4,3,0.7L31.3,107.4z M23.6,106.6
						l-0.1-1c1-0.1,2.1-0.1,3.1-0.1l-0.1,1C25.5,106.4,24.5,106.5,23.6,106.6z"/>
				</g>
			</g>
		</g>
		<g>
			<g>
				<g>
					<path fill="#DCDBDB" d="M110.1,168.7v-66h29.5v9.9h-18.8v17.5h17.4v9.1h-17.4v19.5h19.8v10H110.1z"/>
				</g>
			</g>
			<g>
				<g>
					<g>
						<path fill="#010101" d="M141,169.2h-5.9v-1h4.9v-9h-11.5v-1H141V169.2z M120.7,169.2h-11.2v-5.9h1v4.9h10.2V169.2z
							 M121.3,156.1h-1v-17.4h17.4v-8.6h-16.9v-1h17.9v10.6h-17.4V156.1z M110.6,154.1h-1v-46.7h1V154.1z M121.3,120.2h-1v-8.1h18.8
							v-8.9h-16v-1h17v10.9h-18.8V120.2z"/>
					</g>
				</g>
			</g>
			<g>
				<g>
					<path fill="#414141" d="M135.9,165.9h-3v-1h3V165.9z M130.9,165.9h-3v-1h3V165.9z M125.9,165.9h-3v-1h3V165.9z M120.9,165.9h-3
						v-1h3V165.9z M116.6,165.3h-2v-2h1v1h1V165.3z M114.9,161.9h-1v-3h1V161.9z M114.9,156.9h-1v-3h1V156.9z M114.9,151.9h-1v-3h1
						V151.9z M114.9,146.9h-1v-3h1V146.9z M114.9,141.9h-1v-3h1V141.9z M114.9,136.9h-1v-3h1V136.9z M114.9,131.9h-1v-3h1V131.9z
						 M114.9,126.9h-1v-3h1V126.9z M114.9,121.9h-1v-3h1V121.9z M114.9,116.9h-1v-3h1V116.9z M114.9,111.9h-1v-3h1V111.9z
						 M136.6,107.3h-1v-1h1V107.3z M132.9,107.9h-3v-1h3V107.9z M127.9,107.9h-3v-1h3V107.9z M122.9,107.9h-3v-1h3V107.9z
						 M117.9,107.9h-3v-1h3V107.9z"/>
				</g>
			</g>
			<g>
				<g>
					<path fill="#414141" d="M134.6,134.3h-1v-1h1V134.3z M130.9,134.9h-3v-1h3V134.9z M125.9,134.9h-3v-1h3V134.9z M120.9,134.9h-3
						v-1h3V134.9z"/>
				</g>
			</g>
		</g>
		<g>
			<g>
				<g>
					<path fill="#DCDBDB" d="M87.8,168.7v-66H99v66H87.8z"/>
				</g>
			</g>
			<g>
				<g>
					<g>
						<path fill="#010101" d="M99.5,169.2H87.3v-40.3h1v39.3h10.2v-11.6h1V169.2z M99.5,137.3h-1v-34.2H88.3v14.2h-1v-15.2h12.2
							V137.3z"/>
					</g>
				</g>
			</g>
			<g>
				<g>
					<path fill="#414141" d="M92.9,165.9h-1v-3h1V165.9z M92.9,160.9h-1v-3h1V160.9z M92.9,155.9h-1v-3h1V155.9z M92.9,150.9h-1v-3
						h1V150.9z M92.9,145.9h-1v-3h1V145.9z M92.9,140.9h-1v-3h1V140.9z M92.9,135.9h-1v-3h1V135.9z M92.9,130.9h-1v-3h1V130.9z
						 M92.9,125.9h-1v-3h1V125.9z M92.9,120.9h-1v-3h1V120.9z M92.9,115.9h-1v-3h1V115.9z M92.9,110.9h-1v-3h1V110.9z"/>
				</g>
			</g>
		</g>
		<g>
			<g>
				<g>
					<path fill="#DCDBDB" d="M220.5,112.2v56.5h-11v-56.5h-12.4v-9.5h35.8v9.5H220.5z"/>
				</g>
			</g>
			<g>
				<g>
					<g>
						<path fill="#010101" d="M221,169.2h-12v-10.6h1v9.6h10v-32.1h1V169.2z M210,150.3h-1v-38.1h1V150.3z M221,125.8h-1v-14.1h12.4
							v-8.5h-21v-1h22v10.5H221V125.8z"/>
					</g>
				</g>
			</g>
			<g>
				<g>
					<path fill="#414141" d="M230.6,107.6h-2v-1h2V107.6z M225.9,107.9h-3v-1h3V107.9z M220.9,107.9h-3v-1h3V107.9z M215.9,107.9h-3
						v-1h3V107.9z M210.9,107.9h-3v-1h3V107.9z M205.9,107.9h-3v-1h3V107.9z M200.9,107.9h-3v-1h3V107.9z"/>
				</g>
			</g>
			<g>
				<g>
					<path fill="#414141" d="M215.6,165.6h-1v-2h1V165.6z M214.9,161.9h-1v-3h1V161.9z M214.9,156.9h-1v-3h1V156.9z M214.9,151.9h-1
						v-3h1V151.9z M214.9,146.9h-1v-3h1V146.9z M214.9,141.9h-1v-3h1V141.9z M214.9,136.9h-1v-3h1V136.9z M214.9,131.9h-1v-3h1
						V131.9z M214.9,126.9h-1v-3h1V126.9z M214.9,121.9h-1v-3h1V121.9z M214.9,116.9h-1v-3h1V116.9z"/>
				</g>
			</g>
		</g>
		<g>
			<g>
				<g>
					<path fill="#DCDBDB" d="M177,168.7l-18.7-46.6H158l0.2,46.6h-10.1v-66h12.8l18.5,46.9h0.3l-0.1-46.9h9.7v66H177z"/>
				</g>
			</g>
			<g>
				<g>
					<g>
						<path fill="#010101" d="M189.8,169.2h-13.1l-6.7-16.7l0.9-0.4l6.4,16h11.5v-65h-8.7l0,14.4l-1,0l0-15.4h10.7V169.2z
							 M158.7,169.2h-11.1v-11.3h1v10.3h9.1l-0.2-46.6h1.1l4.5,11.3l-0.9,0.4l-3.7-9.3L158.7,169.2z M148.6,142.3h-1v-40.2h13.6
							l12.8,32.3l-0.9,0.4l-12.5-31.7h-11.9V142.3z"/>
					</g>
				</g>
			</g>
			<g>
				<g>
					<path fill="#414141" d="M152.9,164.9h-1v-3h1V164.9z M152.9,159.9h-1v-3h1V159.9z M152.9,154.9h-1v-3h1V154.9z M152.9,149.9h-1
						v-3h1V149.9z M152.9,144.9h-1v-3h1V144.9z M152.9,139.9h-1v-3h1V139.9z M152.9,134.9h-1v-3h1V134.9z M152.9,129.9h-1v-3h1
						V129.9z M152.9,124.9h-1v-3h1V124.9z M152.9,119.9h-1v-3h1V119.9z M152.9,114.9h-1v-3h1V114.9z M153.6,109.3h-1v-2h1V109.3z"/>
				</g>
			</g>
			<g>
				<g>
					<path fill="#414141" d="M183.9,164.9h-1v-3h1V164.9z M183.9,159.9h-1v-3h1V159.9z M183.9,154.9h-1v-3h1V154.9z M183.9,149.9h-1
						v-3h1V149.9z M183.9,144.9h-1v-3h1V144.9z M183.9,139.9h-1v-3h1V139.9z M183.9,134.9h-1v-3h1V134.9z M183.9,129.9h-1v-3h1
						V129.9z M183.9,124.9h-1v-3h1V124.9z M183.9,119.9h-1v-3h1V119.9z M183.9,114.9h-1v-3h1V114.9z M184.6,109.3h-1v-2h1V109.3z"/>
				</g>
			</g>
			<g>
				<g>
					<path fill="#414141" d="M180.2,164l-0.7-1.7l0.9-0.4l0.7,1.7L180.2,164z M178.7,160.5l-1.2-2.8l0.9-0.4l1.2,2.8L178.7,160.5z
						 M176.7,155.9l-1.2-2.8l0.9-0.4l1.2,2.8L176.7,155.9z M174.7,151.3l-1.2-2.8l0.9-0.4l1.2,2.8L174.7,151.3z M172.7,146.7
						l-1.2-2.8l0.9-0.4l1.2,2.8L172.7,146.7z M170.8,142.1l-1.2-2.8l0.9-0.4l1.2,2.8L170.8,142.1z M168.8,137.6l-1.2-2.8l0.9-0.4
						l1.2,2.8L168.8,137.6z M166.8,133l-1.2-2.8l0.9-0.4l1.2,2.8L166.8,133z M164.8,128.4l-1.2-2.8l0.9-0.4l1.2,2.8L164.8,128.4z
						 M162.8,123.8l-1.2-2.8l0.9-0.4l1.2,2.8L162.8,123.8z M160.8,119.2l-1.2-2.8l0.9-0.4l1.2,2.8L160.8,119.2z M158.9,114.6
						l-1.2-2.8l0.9-0.4l1.2,2.8L158.9,114.6z M156.9,110l-1.2-2.8l0.9-0.4l1.2,2.8L156.9,110z"/>
				</g>
			</g>
		</g>
		<g>
			<g>
				<g>
					<path fill="#DCDBDB" d="M49.3,168.7v-66h11.3v55.6h18.2v10.3H49.3z"/>
				</g>
			</g>
			<g>
				<g>
					<g>
						<path fill="#010101" d="M79.3,169.2H48.8v-7.6h1v6.6h28.4v-9.3H60.1v-25.6h1v24.6h18.2V169.2z M49.8,140.6h-1v-38.4h12.3v16.4
							h-1v-15.4H49.8V140.6z"/>
					</g>
				</g>
			</g>
			<g>
				<g>
					<path fill="#414141" d="M73.9,164.9h-3v-1h3V164.9z M68.9,164.9h-3v-1h3V164.9z M63.9,164.9h-3v-1h3V164.9z M58.9,164.9h-3v-1
						h3V164.9z M53.9,164.9h-1v-3h1V164.9z M53.9,159.9h-1v-3h1V159.9z M53.9,154.9h-1v-3h1V154.9z M53.9,149.9h-1v-3h1V149.9z
						 M53.9,144.9h-1v-3h1V144.9z M53.9,139.9h-1v-3h1V139.9z M53.9,134.9h-1v-3h1V134.9z M53.9,129.9h-1v-3h1V129.9z M53.9,124.9
						h-1v-3h1V124.9z M53.9,119.9h-1v-3h1V119.9z M53.9,114.9h-1v-3h1V114.9z M53.9,109.9h-1v-3h1V109.9z"/>
				</g>
			</g>
		</g>
		<g>
			<g>
				<g>
					<path fill="#DCDBDB" d="M269.1,115.5c-2.4-2.9-5.5-4.4-9.1-4.4c-1.1,0-2.1,0.2-3.1,0.5c-1,0.3-1.9,0.9-2.7,1.6
						c-0.8,0.7-1.4,1.7-1.9,2.9c-0.5,1.2-0.7,2.6-0.7,4.2c0,2.8,0.8,5,2.5,6.5c1.7,1.5,3.9,3,6.6,4.3c1.6,0.8,3.3,1.7,4.9,2.8
						c1.7,1.1,3.2,2.3,4.6,3.8c1.4,1.5,2.5,3.3,3.4,5.3c0.9,2.1,1.3,4.5,1.3,7.3c0,3.2-0.5,6.1-1.5,8.6c-1,2.5-2.4,4.6-4.1,6.3
						c-1.7,1.7-3.7,3-6,3.9c-2.3,0.9-4.7,1.3-7.3,1.3c-3.7,0-7.1-0.7-10.2-2.1c-3.1-1.4-5.6-3.2-7.5-5.4l6.1-8.2
						c1.4,1.7,3.2,3.1,5.2,4.1c2,1,4.1,1.5,6.2,1.5c2.4,0,4.3-0.8,5.9-2.4c1.6-1.6,2.3-3.9,2.3-6.8c0-2.9-0.9-5.1-2.8-6.8
						c-1.9-1.7-4.2-3.2-7.1-4.7c-1.8-0.9-3.5-1.8-5.1-2.9c-1.6-1.1-3-2.3-4.2-3.8c-1.2-1.5-2.2-3.2-2.9-5.1c-0.7-2-1.1-4.3-1.1-7
						c0-3.4,0.5-6.4,1.6-8.8c1.1-2.5,2.5-4.5,4.3-6.1c1.8-1.6,3.8-2.8,6-3.6c2.2-0.8,4.5-1.2,6.8-1.2c3.4,0,6.4,0.5,9,1.6
						c2.6,1.1,4.9,2.7,6.7,4.8L269.1,115.5z"/>
				</g>
			</g>
			<g>
				<g>
					<g>
						<path fill="#010101" d="M256,170.8c-3.7,0-7.2-0.7-10.4-2.2c-3.2-1.5-5.7-3.3-7.6-5.5l-0.3-0.3l6.7-9l0.4,0.5
							c1.4,1.7,3.1,3,5,4c1.9,1,4,1.4,6,1.4c2.2,0,4-0.7,5.5-2.3c1.5-1.5,2.2-3.7,2.2-6.5c0-2.7-0.9-4.9-2.6-6.4l0.7-0.7
							c2,1.8,3,4.2,3,7.2c0,3-0.8,5.4-2.5,7.1c-1.6,1.7-3.7,2.6-6.2,2.6c-2.2,0-4.3-0.5-6.4-1.5c-1.9-0.9-3.5-2.2-4.9-3.7l-5.4,7.4
							c1.8,2,4.1,3.7,7,5c3,1.4,6.4,2.1,9.9,2.1c2.5,0,4.9-0.4,7.1-1.3l0.4,0.9C261.1,170.4,258.6,170.8,256,170.8z M273.1,143.2
							c-0.8-2-1.9-3.7-3.3-5.2c-1.3-1.5-2.8-2.7-4.5-3.7c-1.7-1-3.3-2-4.9-2.8c-2.8-1.4-5-2.9-6.7-4.4c-1.8-1.6-2.7-3.9-2.7-6.8
							c0-1.7,0.2-3.1,0.7-4.4c0.5-1.2,1.2-2.3,2-3.1l0,0c0.9-0.8,1.8-1.4,2.9-1.7c1-0.4,2.1-0.5,3.2-0.5c3.6,0,6.7,1.4,9.1,4.1
							l5.5-7.2c-1.7-1.9-3.8-3.4-6.2-4.4c-2.6-1.1-5.5-1.6-8.8-1.6c-2.2,0-4.5,0.4-6.6,1.1c-2.2,0.8-4.1,1.9-5.8,3.5
							c-1.7,1.6-3.1,3.6-4.2,5.9c-1.1,2.4-1.6,5.3-1.6,8.6h-1c0-3.5,0.6-6.5,1.7-9c1.1-2.5,2.6-4.6,4.4-6.3c1.8-1.7,3.9-2.9,6.2-3.7
							c2.3-0.8,4.6-1.2,7-1.2c3.4,0,6.5,0.6,9.2,1.7c2.7,1.1,5,2.8,6.9,4.9l0.3,0.3l-6.8,8.8l-0.4-0.5c-2.3-2.8-5.3-4.2-8.7-4.2
							c-1,0-2,0.2-2.9,0.5c-0.9,0.3-1.8,0.8-2.5,1.5l-0.3-0.4l0.3,0.4c-0.7,0.7-1.3,1.6-1.8,2.7c-0.4,1.1-0.7,2.5-0.7,4
							c0,2.6,0.8,4.7,2.4,6.1c1.6,1.5,3.8,2.9,6.5,4.3c1.6,0.8,3.3,1.8,5,2.8c1.7,1.1,3.3,2.4,4.7,3.9c1.4,1.5,2.6,3.4,3.4,5.5
							L273.1,143.2z"/>
					</g>
				</g>
			</g>
			<g>
				<g>
					<path fill="#414141" d="M255.3,166.1l0-1c1,0,1.9-0.2,2.9-0.4l0.2,1C257.4,165.9,256.3,166.1,255.3,166.1z M253.3,166.1
						c-1.1-0.1-2.1-0.2-3.1-0.5l0.3-1c0.9,0.2,1.8,0.4,2.9,0.4L253.3,166.1z M260.4,165.2l-0.3-1c1-0.3,1.9-0.7,2.7-1.1l0.5,0.9
						C262.4,164.5,261.4,164.9,260.4,165.2z M248.2,164.9c-0.9-0.5-1.8-1-2.6-1.5l0.5-0.8c0.8,0.5,1.6,1,2.6,1.5L248.2,164.9z
						 M265,162.9l-0.6-0.8c0.7-0.6,1.4-1.2,2.1-2l0.8,0.7C266.5,161.6,265.7,162.3,265,162.9z M243.9,162.2c-1-0.8-1-0.9-1-1.1
						l0.5,0.1l0.4-0.3c0,0,0.3,0.3,0.7,0.6L243.9,162.2z M268.4,159.1l-0.8-0.6c0.5-0.8,1-1.7,1.4-2.6l0.9,0.4
						C269.5,157.3,269,158.2,268.4,159.1z M270,154.4l-0.7-0.2c0.2-0.9,0-1.9,0-2.8l0.6-0.1v0.1C269.9,152.4,270.3,153.4,270,154.4z
						 M269.7,149.4c-0.2-0.9-0.5-1.8-0.9-2.7l0.9-0.4c0.5,1,0.8,2,1,3L269.7,149.4z M267.9,145c-0.5-0.8-1.1-1.6-1.8-2.3l0.7-0.7
						c0.7,0.8,1.3,1.6,1.9,2.4L267.9,145z M264.7,141.4c-0.7-0.6-1.5-1.2-2.3-1.8l0.6-0.8c0.9,0.6,1.7,1.3,2.4,1.9L264.7,141.4z
						 M260.7,138.4c-0.7-0.5-1.5-1-2.6-1.5l0.5-0.9c1,0.6,1.8,1.1,2.6,1.6L260.7,138.4z M256.5,135.9c-0.9-0.5-1.8-1-2.6-1.5
						l0.5-0.9c0.8,0.5,1.7,1,2.6,1.5L256.5,135.9z M252.1,133.3c-0.9-0.6-1.7-1.2-2.4-1.8l0.7-0.8c0.7,0.6,1.4,1.2,2.3,1.8
						L252.1,133.3z M248.2,130c-0.2-0.3-0.4-0.5-0.6-0.8c-0.4-0.6-0.8-1.2-1.1-1.8l0.9-0.5c0.3,0.6,0.6,1.1,1,1.6
						c0.2,0.3,0.4,0.5,0.6,0.7L248.2,130z M245.7,125.5c-0.3-1-0.5-2-0.6-3l1-0.1c0.1,1,0.3,1.9,0.6,2.8L245.7,125.5z M246,120.5
						l-1,0c0-1,0.2-2,0.4-3.1l1,0.2C246.2,118.5,246,119.5,246,120.5z M246.9,115.7l-0.9-0.3c0.3-1,0.8-1.9,1.3-2.8l0.9,0.5
						C247.7,113.9,247.3,114.8,246.9,115.7z M249.2,111.4l-0.8-0.6c0.6-0.9,1.3-1.6,2-2.3l0.7,0.7
						C250.4,109.9,249.8,110.6,249.2,111.4z M269.2,108.9c0,0-1-0.6-2.7-1.2l0.4-0.9c1.7,0.7,2.8,1.3,2.8,1.3L269.2,108.9z
						 M252.6,108.1l-0.6-0.8c0.7-0.5,1.4-0.8,2.1-1.1c0.2-0.1,0.5-0.2,0.7-0.3l0.3,1c-0.2,0.1-0.4,0.2-0.7,0.2
						C253.9,107.3,253.2,107.6,252.6,108.1z M264.7,107c-1-0.3-1.9-0.5-2.9-0.6l0.1-1c1,0.1,2,0.4,3,0.7L264.7,107z M257,106.4
						l-0.2-1c0.8-0.1,1.6-0.2,2.5-0.2c0.2,0,0.4,0,0.6,0l0,1c-0.2,0-0.4,0-0.6,0C258.6,106.2,257.8,106.2,257,106.4z"/>
				</g>
			</g>
		</g>
	</g>
	<g>
		<g>
			<g>
				<g>
					<path fill="#DCDBDB" d="M47.5,35.1c0,5.2-0.5,10-1.6,14.2c-1.1,4.3-2.7,7.9-4.7,11c-2.1,3-4.6,5.4-7.5,7.1
						c-3,1.7-6.3,2.5-9.9,2.5c-3.7,0-7.1-0.8-10-2.5c-2.9-1.7-5.4-4-7.5-7.1c-2.1-3-3.6-6.7-4.7-11C0.5,45,0,40.3,0,35.1
						c0-5.2,0.5-9.9,1.6-14.2c1.1-4.2,2.6-7.9,4.7-10.9c2.1-3,4.6-5.4,7.5-7c3-1.6,6.3-2.5,10-2.5c3.7,0,7,0.8,9.9,2.5
						c2.9,1.6,5.5,4,7.5,7c2,3,3.6,6.7,4.7,10.9C47,25.1,47.5,29.9,47.5,35.1z M36,35.1c0-3.4-0.3-6.5-0.8-9.5
						c-0.5-2.9-1.3-5.5-2.3-7.6c-1-2.1-2.3-3.8-3.8-5.1c-1.5-1.2-3.3-1.9-5.3-1.9c-2,0-3.8,0.6-5.4,1.9c-1.5,1.2-2.8,2.9-3.8,5.1
						c-1,2.1-1.8,4.7-2.3,7.6c-0.5,3-0.7,6.1-0.7,9.5s0.2,6.5,0.7,9.5c0.5,3,1.3,5.5,2.3,7.7c1,2.2,2.3,3.9,3.8,5.1
						c1.5,1.2,3.3,1.9,5.4,1.9c2.1,0,3.8-0.6,5.4-1.9c1.5-1.2,2.8-3,3.8-5.1c1-2.2,1.8-4.7,2.3-7.7C35.7,41.6,36,38.4,36,35.1z"/>
				</g>
			</g>
			<g>
				<g>
					<g>
						<path fill="#010101" d="M23.8,70.3c-3.8,0-7.2-0.9-10.2-2.6l0.5-0.9c2.8,1.6,6.1,2.4,9.7,2.4c3.6,0,6.8-0.8,9.7-2.5
							c2.9-1.6,5.3-4,7.3-6.9l0.8,0.6c-2.1,3.1-4.7,5.5-7.7,7.2C30.9,69.5,27.5,70.3,23.8,70.3z M23.8,59.7c-2.2,0-4.1-0.7-5.7-2
							c-1.6-1.3-2.9-3.1-4-5.3c-1-2.2-1.8-4.8-2.3-7.8c-0.5-3-0.8-6.2-0.8-9.5c0-3.4,0.3-6.6,0.8-9.5c0.5-3,1.3-5.6,2.3-7.8
							c1.1-2.2,2.4-4,4-5.2c1.6-1.3,3.5-2,5.7-2c2.1,0,4,0.7,5.6,2L29,12.9l0.3-0.4c1.6,1.3,2.9,3.1,4,5.2l-0.9,0.4
							c-1-2.1-2.2-3.7-3.7-4.9c-1.4-1.2-3.1-1.8-4.9-1.8c-1.9,0-3.6,0.6-5,1.8c-1.5,1.2-2.7,2.8-3.7,4.9c-1,2.1-1.8,4.6-2.2,7.5
							c-0.5,2.9-0.7,6.1-0.7,9.4c0,3.3,0.2,6.5,0.7,9.4c0.5,2.9,1.2,5.4,2.2,7.6c1,2.1,2.2,3.8,3.7,5c1.4,1.2,3.1,1.8,5,1.8
							c1.9,0,3.6-0.6,5-1.8c1.5-1.2,2.7-2.9,3.7-5l0.9,0.4c-1.1,2.2-2.4,4-4,5.3C27.8,59,25.9,59.7,23.8,59.7z M46.4,49.4l-1-0.2
							C46.5,45,47,40.2,47,35.1c0-5.1-0.5-9.9-1.6-14c-1.1-4.1-2.6-7.8-4.6-10.7c-2-3-4.5-5.3-7.3-6.9C30.6,1.8,27.3,1,23.8,1
							c-3.6,0-6.9,0.8-9.8,2.4C11.1,5,8.7,7.3,6.7,10.3c-2,3-3.6,6.6-4.6,10.7l-1-0.2c1.1-4.3,2.7-8,4.7-11.1
							c2.1-3.1,4.7-5.5,7.7-7.2C16.5,0.9,20,0,23.8,0c3.7,0,7.2,0.9,10.2,2.5c3,1.7,5.6,4.1,7.7,7.2c2.1,3.1,3.7,6.8,4.8,11.1
							C47.5,25,48,29.8,48,35.1C48,40.3,47.5,45.1,46.4,49.4z"/>
					</g>
				</g>
			</g>
			<g>
				<g>
					<path fill="#414141" d="M23.2,66.1c-1-0.1-2.1-0.2-3.1-0.5l0.3-1c0.9,0.3,1.9,0.4,2.8,0.5L23.2,66.1z M25.3,66.1l-0.1-1
						c0.9-0.1,1.9-0.3,2.8-0.6l0.3,0.9C27.3,65.7,26.3,66,25.3,66.1z M18.2,64.9c-0.9-0.4-1.8-0.9-2.7-1.6l0.6-0.8
						c0.8,0.6,1.7,1.1,2.5,1.5L18.2,64.9z M30.2,64.5l-0.5-0.9c0.8-0.4,1.7-1,2.4-1.6l0.6,0.8C32,63.5,31.1,64.1,30.2,64.5z
						 M13.9,62c-0.7-0.7-1.5-1.4-2.1-2.2l0.8-0.6c0.6,0.8,1.3,1.5,2,2.1L13.9,62z M34.3,61.5l-0.7-0.7c0.7-0.7,1.3-1.4,2-2.2
						l0.8,0.6C35.7,60.1,35,60.9,34.3,61.5z M10.5,58.2c-0.6-0.8-1.1-1.7-1.6-2.6l0.9-0.5c0.5,0.9,1,1.7,1.6,2.5L10.5,58.2z
						 M37.6,57.6l-0.8-0.6c0.5-0.8,1-1.6,1.5-2.5l0.9,0.5C38.7,55.9,38.2,56.8,37.6,57.6z M8,53.8C7.5,53,7.1,52,6.8,51.1l0.9-0.4
						c0.4,0.9,0.8,1.9,1.2,2.7L8,53.8z M40.1,53.2l-0.9-0.4c0.4-0.9,0.8-1.8,1.1-2.7l0.9,0.3C40.9,51.3,40.5,52.3,40.1,53.2z
						 M6.1,49.1c-0.3-0.9-0.6-1.9-0.8-2.9l1-0.2c0.2,1,0.5,1.9,0.8,2.9L6.1,49.1z M41.8,48.4l-1-0.3c0.3-0.9,0.5-1.9,0.7-2.9l1,0.2
						C42.4,46.5,42.1,47.5,41.8,48.4z M4.8,44.2c-0.2-1-0.3-2-0.5-3l1-0.1c0.1,1,0.3,2,0.5,2.9L4.8,44.2z M43,43.5l-1-0.2
						c0.2-1,0.3-2,0.4-2.9l1,0.1C43.3,41.5,43.2,42.5,43,43.5z M4.2,39.2c-0.1-1-0.1-2-0.1-3l1,0c0,1,0.1,2,0.1,3L4.2,39.2z
						 M43.6,38.5l-1-0.1c0.1-1,0.1-2,0.1-3c0-0.8,0-1.6-0.1-2.4l1-0.1c0,0.8,0.1,1.6,0.1,2.5C43.7,36.5,43.7,37.5,43.6,38.5z
						 M5,34.2l-1,0c0-1,0.1-2,0.2-3l1,0.1C5.1,32.2,5.1,33.2,5,34.2z M42.5,31.1c-0.1-1-0.2-2-0.4-2.9l1-0.2c0.2,1,0.3,2,0.4,3
						L42.5,31.1z M5.4,29.3l-1-0.1c0.1-1,0.3-2,0.5-3l1,0.2C5.7,27.3,5.6,28.3,5.4,29.3z M41.8,26.2c-0.2-1-0.4-1.9-0.7-2.9l1-0.3
						c0.3,1,0.5,1.9,0.7,2.9L41.8,26.2z M6.4,24.4l-1-0.2c0.3-1,0.5-2,0.9-2.9l0.9,0.3C6.9,22.5,6.6,23.5,6.4,24.4z M40.5,21.4
						c-0.3-0.9-0.7-1.9-1.1-2.8l0.9-0.4c0.4,0.9,0.8,1.9,1.1,2.8L40.5,21.4z M7.9,19.7L7,19.4c0.4-1,0.8-1.9,1.2-2.8L9.1,17
						C8.7,17.9,8.3,18.8,7.9,19.7z M38.5,16.9c-0.5-0.9-0.9-1.8-1.5-2.6l0.8-0.5c0.5,0.8,1,1.7,1.5,2.6L38.5,16.9z M10.1,15.3
						l-0.9-0.5c0.5-0.9,1.1-1.8,1.7-2.5l0.8,0.6C11.1,13.6,10.6,14.4,10.1,15.3z M35.9,12.7c-0.6-0.8-1.3-1.5-1.9-2.2l0.7-0.7
						c0.7,0.7,1.4,1.5,2,2.3L35.9,12.7z M12.9,11.3l-0.7-0.7c0.7-0.8,1.4-1.5,2.2-2.1L15,9.3C14.3,9.9,13.6,10.6,12.9,11.3z
						 M32.6,9.2C31.8,8.6,31,8,30.2,7.5l0.5-0.9c0.9,0.5,1.7,1.1,2.5,1.8L32.6,9.2z M16.6,8.1L16,7.3c0.9-0.6,1.8-1.1,2.7-1.5
						l0.4,0.9C18.2,7.1,17.4,7.6,16.6,8.1z M28.5,6.7c-0.9-0.4-1.8-0.6-2.8-0.8l0.2-1c1,0.2,2,0.4,3,0.8L28.5,6.7z M20.9,6.2l-0.2-1
						c1-0.3,2.1-0.4,3.1-0.4l0,1C22.8,5.8,21.9,5.9,20.9,6.2z"/>
				</g>
			</g>
		</g>
		<g>
			<g>
				<g>
					<path fill="#DCDBDB" d="M133.6,68.2L123.4,40h-6.2v28.1h-10.8v-66h18.8c2.7,0,5.2,0.4,7.5,1.1c2.3,0.7,4.3,1.8,5.9,3.4
						c1.6,1.6,2.9,3.5,3.9,5.9c0.9,2.4,1.4,5.2,1.4,8.5c0,2.5-0.3,4.8-1,6.8c-0.7,2-1.5,3.6-2.5,5c-1,1.4-2.1,2.5-3.3,3.3
						c-1.2,0.8-2.4,1.4-3.6,1.7l11.8,30.4H133.6z M132.9,21.6c0-2-0.3-3.6-0.8-4.9c-0.6-1.3-1.3-2.3-2.2-3.1c-0.9-0.7-1.9-1.3-3-1.6
						c-1.1-0.3-2.2-0.5-3.4-0.5h-6.3v20.3h6.3c2.7,0,5-0.9,6.8-2.6C132,27.5,132.9,25,132.9,21.6z"/>
				</g>
			</g>
			<g>
				<g>
					<g>
						<path fill="#010101" d="M146.1,68.7h-12.8L123,40.5h-5.4v7.6h-1v-8.6h7.1L134,67.7h10.7l-8.2-21.2l0.9-0.4L146.1,68.7z
							 M117.7,68.7h-11.8V30.3h1v37.3h9.8v-8.2h1V68.7z M123.5,32.3h-6.8V11h6.8v1h-5.8v19.3h5.8c2.6,0,4.7-0.8,6.4-2.4
							c1.7-1.6,2.5-4.1,2.5-7.3h1c0,3.5-0.9,6.3-2.8,8C128.7,31.4,126.3,32.3,123.5,32.3z M143.4,27.9l-0.9-0.3c0.6-1.9,1-4.1,1-6.6
							c0-3.2-0.5-6-1.4-8.3c-0.9-2.3-2.2-4.2-3.7-5.7c-1.6-1.5-3.5-2.6-5.7-3.3c-2.2-0.7-4.7-1-7.4-1h-18.3v20.4h-1V1.7h19.3
							c2.8,0,5.4,0.4,7.7,1.1c2.4,0.7,4.4,1.9,6.1,3.5c1.7,1.6,3,3.6,4,6.1c1,2.4,1.4,5.3,1.4,8.7C144.4,23.6,144.1,25.9,143.4,27.9
							z"/>
					</g>
				</g>
			</g>
			<g>
				<g>
					<path fill="#414141" d="M110.9,64.9h-1v-3h1V64.9z M110.9,59.9h-1v-3h1V59.9z M110.9,54.9h-1v-3h1V54.9z M110.9,49.9h-1v-3h1
						V49.9z M110.9,44.9h-1v-3h1V44.9z M110.9,39.9h-1v-3h1V39.9z M110.9,34.9h-1v-3h1V34.9z M110.9,29.9h-1v-3h1V29.9z M110.9,24.9
						h-1v-3h1V24.9z M110.9,19.9h-1v-3h1V19.9z M110.9,14.9h-1v-3h1V14.9z M110.9,9.9h-1v-3h1V9.9z"/>
				</g>
			</g>
			<g>
				<g>
					<path fill="#414141" d="M119.9,36l-2.6,0l-0.2-1l2.8,0V36z M122.8,36l-0.1-1l0.8,0c0.7,0,1.4,0,2.2,0l0.1,1c-0.8,0-1.5,0-2.2,0
						L122.8,36z M127.8,35.7l-0.2-1c1-0.2,1.9-0.4,2.8-0.8l0.4,0.9C129.9,35.3,128.9,35.6,127.8,35.7z M132.7,34l-0.5-0.8
						c0.8-0.5,1.5-1.1,2.2-1.8l0.7,0.7C134.3,32.8,133.5,33.5,132.7,34z M136.4,30.5l-0.8-0.6c0.6-0.8,1.1-1.6,1.6-2.4l0.9,0.4
						C137.7,28.8,137.1,29.7,136.4,30.5z M138.9,26l-1-0.3c0.3-0.9,0.5-1.9,0.6-2.8l1,0.1C139.4,24,139.2,25,138.9,26z M138.6,20.9
						c0-0.9-0.1-1.9-0.3-2.9l1-0.2c0.2,1,0.3,2.1,0.4,3.1L138.6,20.9z M137.8,16.1c-0.3-0.9-0.6-1.8-1-2.8l0.9-0.4
						c0.4,1,0.7,1.9,1,2.9L137.8,16.1z M135.9,11.6c-0.5-0.7-1.2-1.4-2-2l0.6-0.8c0.9,0.7,1.6,1.4,2.2,2.3L135.9,11.6z M132.3,8.7
						c-0.8-0.4-1.7-0.7-2.7-1l0.3-1c1.1,0.3,2,0.7,2.9,1.1L132.3,8.7z M127.7,7.2c-0.9-0.2-1.9-0.3-2.9-0.4l0.1-1
						c1.1,0.1,2.1,0.2,3,0.4L127.7,7.2z M114.9,6.7l-0.1-1c0,0,1.2-0.1,3-0.1l0,1C116.1,6.6,114.9,6.7,114.9,6.7z M122.8,6.7
						c-1-0.1-2-0.1-3-0.1l0-1c0.9,0,2,0,3,0.1L122.8,6.7z"/>
				</g>
			</g>
			<g>
				<g>
					<path fill="#414141" d="M138.1,66.8l-0.4-1l0.9-0.4l0.4,1L138.1,66.8z M137,63.9l-1.1-2.8l0.9-0.4l1.1,2.8L137,63.9z
						 M135.2,59.2l-1.1-2.8l0.9-0.4l1.1,2.8L135.2,59.2z M133.3,54.6l-1.1-2.8l0.9-0.4l1.1,2.8L133.3,54.6z M131.5,49.9l-1.1-2.8
						l0.9-0.4l1.1,2.8L131.5,49.9z M129.7,45.3l-1.1-2.8l0.9-0.4l1.1,2.8L129.7,45.3z M127.8,40.6l-1.1-2.8l0.9-0.4l1.1,2.8
						L127.8,40.6z"/>
				</g>
			</g>
		</g>
		<g>
			<g>
				<g>
					<path fill="#DCDBDB" d="M95.6,53.7c-0.7,3-2,5.7-3.6,8c-1.7,2.3-3.8,4.1-6.5,5.4c-2.6,1.3-5.9,2-9.6,2c-3.8,0-7-0.7-9.6-2
						c-2.6-1.3-4.7-3.1-6.4-5.4c-1.6-2.3-2.8-4.9-3.5-8c-0.7-3-1.1-6.3-1.1-9.8V1.3h11.2v41.6c0,2.1,0.1,4,0.4,5.9
						c0.3,1.9,0.8,3.6,1.5,5c0.7,1.4,1.7,2.6,2.9,3.4c1.2,0.8,2.8,1.3,4.8,1.3c1.9,0,3.5-0.4,4.8-1.3c1.2-0.8,2.2-2,2.9-3.4
						c0.7-1.4,1.2-3.1,1.5-5c0.3-1.9,0.4-3.9,0.4-5.9V1.3h11.1v42.6C96.7,47.4,96.3,50.7,95.6,53.7z"/>
				</g>
			</g>
			<g>
				<g>
					<g>
						<path fill="#010101" d="M75.8,69.5c-3.9,0-7.2-0.7-9.8-2l0.4-0.9c2.5,1.3,5.7,1.9,9.4,1.9c3.7,0,6.9-0.6,9.4-1.9
							c2.6-1.3,4.7-3,6.3-5.2c1.6-2.2,2.8-4.8,3.6-7.8c0.7-3,1.1-6.2,1.1-9.7h1c0,3.5-0.4,6.8-1.1,9.9c-0.8,3.1-2,5.8-3.7,8.1
							c-1.7,2.3-4,4.2-6.7,5.5C83,68.8,79.7,69.5,75.8,69.5z M76,59c-2,0-3.7-0.5-5-1.3c-1.3-0.9-2.4-2.1-3.1-3.6
							c-0.7-1.5-1.3-3.2-1.5-5.1c-0.3-1.9-0.4-3.9-0.4-6h1c0,2,0.1,4,0.4,5.8c0.3,1.8,0.8,3.5,1.4,4.8c0.7,1.3,1.6,2.4,2.8,3.2
							c1.2,0.8,2.7,1.2,4.5,1.2c1.8,0,3.3-0.4,4.5-1.2c1.2-0.8,2.1-1.9,2.8-3.2c0.7-1.4,1.2-3,1.4-4.8c0.3-1.9,0.4-3.8,0.4-5.8V14.4
							h1v28.5c0,2.1-0.1,4.1-0.4,6c-0.3,1.9-0.8,3.7-1.5,5.1c-0.8,1.5-1.8,2.7-3.1,3.6C79.7,58.5,78,59,76,59z M55.7,43.5h-1V0.8
							h12.2v31.9h-1V1.8H55.7V43.5z M97.2,33.8h-1V1.8H85.9v-1h11.3V33.8z"/>
					</g>
				</g>
			</g>
			<g>
				<g>
					<path fill="#414141" d="M74.2,65.3c-0.6,0-1.2,0-1.8-0.1l0.1-1c0.9,0.1,2,0.1,2.9,0.1l0,1C75.1,65.2,74.6,65.3,74.2,65.3z
						 M77.5,65l-0.1-1c1-0.1,2-0.3,2.8-0.6l0.3,1C79.6,64.7,78.5,64.9,77.5,65z M70.4,64.8c-1-0.3-2-0.6-2.9-1.1l0.5-0.9
						c0.8,0.4,1.7,0.8,2.7,1L70.4,64.8z M82.4,63.7L82,62.8c0.9-0.4,1.7-0.9,2.5-1.4l0.6,0.8C84.3,62.7,83.4,63.2,82.4,63.7z
						 M65.7,62.5c-0.8-0.6-1.5-1.4-2.2-2.2l0.8-0.6c0.6,0.8,1.3,1.5,2,2.1L65.7,62.5z M86.7,60.8L86,60.1c0.7-0.7,1.3-1.4,1.8-2.2
						l0.8,0.5C88,59.2,87.4,60.1,86.7,60.8z M62.4,58.6c-0.5-0.9-0.9-1.8-1.3-2.8l0.9-0.3c0.3,1,0.7,1.9,1.2,2.7L62.4,58.6z
						 M89.6,56.6l-0.9-0.4c0.4-0.8,0.8-1.8,1.1-2.7l1,0.3C90.4,54.7,90.1,55.7,89.6,56.6z M60.6,53.8c-0.2-0.9-0.4-2-0.6-3l1-0.1
						c0.1,1,0.3,2,0.6,2.9L60.6,53.8z M91.3,51.7l-1-0.2c0.2-0.9,0.3-1.9,0.4-2.9l1,0.1C91.6,49.7,91.4,50.7,91.3,51.7z M59.4,48.8
						c-0.1-0.9-0.5-1.9-0.5-2.9v-0.2l1,0v0.2c0,0.9,0.2,1.9,0.3,2.8L59.4,48.8z M90.9,46.6l-1,0v-0.2c0-1.1,0.4-1.7,0.4-1.7l0.5-0.8
						h0.2v1h0.8c0,0-0.8,0.3-0.8,1.5V46.6z M59.9,43.9h-1v-3h1V43.9z M90.9,41.9h-1v-3h1V41.9z M59.9,38.9h-1v-3h1V38.9z M90.9,36.9
						h-1v-3h1V36.9z M59.9,33.9h-1v-3h1V33.9z M90.9,31.9h-1v-3h1V31.9z M59.9,28.9h-1v-3h1V28.9z M90.9,26.9h-1v-3h1V26.9z
						 M59.9,23.9h-1v-3h1V23.9z M90.9,21.9h-1v-3h1V21.9z M59.9,18.9h-1v-3h1V18.9z M90.9,16.9h-1v-3h1V16.9z M59.9,13.9h-1v-3h1
						V13.9z M90.9,11.9h-1v-3h1V11.9z M59.9,8.9h-1v-3h1V8.9z M91.7,6.6h-1V4.8h1V6.6z"/>
				</g>
			</g>
		</g>
	</g>
</g>
</svg>
