<?xml version="1.0" encoding="utf-8"?>
<!-- Generator: Adobe Illustrator 18.1.1, SVG Export Plug-In . SVG Version: 6.00 Build 0)  -->
<svg version="1.1" id="Layer_1" xmlns="http://www.w3.org/2000/svg" xmlns:xlink="http://www.w3.org/1999/xlink" x="0px" y="0px"
	 viewBox="0 0 366.1 60.8" enable-background="new 0 0 366.1 60.8" xml:space="preserve">
<g>
	<g>
		<g>
			<g>
				<g>
					<path fill="#DCDBDB" d="M30.9,59l-2.8-12.1h-15L10.2,59H0.6L14.7,1.9h12.3L41,59H30.9z M20.9,11h-0.3l-6.2,28.3h12.6L20.9,11z"
						/>
				</g>
			</g>
			<g>
				<g>
					<g>
						<path fill="#010101" d="M41.6,59.4H30.9v-0.9h9.5l-2.5-10.4l0.8-0.2L41.6,59.4z M10.2,59.4H0l6-24l0.8,0.2L1.1,58.5h9.1V59.4z
							 M12.2,52.6l-0.8-0.2l1.4-6h15.3v0.9H13.5L12.2,52.6z M27.5,39.7H13.8l2-9l0.8,0.2l-1.7,8h11.5l-0.7-3.5l0.8-0.2L27.5,39.7z
							 M24,27.5l-3.2-15.2l-1.3,6l-0.8-0.2l1.7-7.6h1l3.6,16.8L24,27.5z M32.3,25.3L26.7,2.3H15.1l-1.3,5.2l-0.8-0.2l1.5-5.9h13
							L33.2,25L32.3,25.3z"/>
					</g>
				</g>
			</g>
			<g>
				<g>
					<g>
						
							<rect x="5.3" y="55.1" transform="matrix(0.9721 0.2347 -0.2347 0.9721 13.2381 0.2154)" fill="#010101" width="0.9" height="1.3"/>
					</g>
				</g>
				<g>
					<g>
						<path fill="#010101" d="M6.7,53.5l-0.8-0.2l0.6-2.5L7.3,51L6.7,53.5z M7.7,49.3l-0.8-0.2l0.6-2.5l0.8,0.2L7.7,49.3z M8.7,45.1
							l-0.8-0.2l0.6-2.5l0.8,0.2L8.7,45.1z M9.8,40.9l-0.8-0.2l0.6-2.5l0.8,0.2L9.8,40.9z M10.8,36.6l-0.8-0.2l0.6-2.5l0.8,0.2
							L10.8,36.6z M11.8,32.4L11,32.2l0.6-2.5l0.8,0.2L11.8,32.4z M12.8,28.2L12,28l0.6-2.5l0.8,0.2L12.8,28.2z M13.8,24L13,23.8
							l0.6-2.5l0.8,0.2L13.8,24z M14.9,19.8L14,19.6l0.6-2.5l0.8,0.2L14.9,19.8z M15.9,15.6L15,15.3l0.6-2.5l0.8,0.2L15.9,15.6z
							 M16.9,11.3l-0.8-0.2l0.6-2.5l0.8,0.2L16.9,11.3z"/>
					</g>
				</g>
				<g>
					<g>
						
							<rect x="17.2" y="5.7" transform="matrix(0.9718 0.2359 -0.2359 0.9718 2.0042 -3.9868)" fill="#010101" width="0.9" height="1.3"/>
					</g>
				</g>
			</g>
			<g>
				<g>
					<g>
						
							<rect x="22.9" y="5.9" transform="matrix(0.2378 0.9713 -0.9713 0.2378 24.1835 -18.0536)" fill="#010101" width="1.3" height="0.9"/>
					</g>
				</g>
				<g>
					<g>
						<path fill="#010101" d="M34.7,53.5L34.1,51l0.8-0.2l0.6,2.5L34.7,53.5z M33.7,49.3L33,46.8l0.8-0.2l0.6,2.5L33.7,49.3z
							 M32.6,45.1L32,42.5l0.8-0.2l0.6,2.5L32.6,45.1z M31.6,40.9L31,38.3l0.8-0.2l0.6,2.5L31.6,40.9z M30.6,36.6l-0.6-2.5l0.8-0.2
							l0.6,2.5L30.6,36.6z M29.5,32.4l-0.6-2.5l0.8-0.2l0.6,2.5L29.5,32.4z M28.5,28.2l-0.6-2.5l0.8-0.2l0.6,2.5L28.5,28.2z
							 M27.5,24l-0.6-2.5l0.8-0.2l0.6,2.5L27.5,24z M26.4,19.8l-0.6-2.5l0.8-0.2l0.6,2.5L26.4,19.8z M25.4,15.6L24.8,13l0.8-0.2
							l0.6,2.5L25.4,15.6z M24.4,11.3l-0.6-2.5l0.8-0.2l0.6,2.5L24.4,11.3z"/>
					</g>
				</g>
				<g>
					<g>
						
							<rect x="35" y="55.3" transform="matrix(0.2376 0.9714 -0.9714 0.2376 81.3446 7.828)" fill="#010101" width="1.3" height="0.9"/>
					</g>
				</g>
			</g>
			<g>
				<g>
					<path fill="#010101" d="M24.8,43.1h-2v-1h2V43.1z M20.8,43.1h-3v-1h3V43.1z M15.8,43.1h-2v-1h2V43.1z"/>
				</g>
			</g>
		</g>
		<g>
			<path fill="#DCDBDB" d="M54.2,39.8v-7.1h6.3c1.1,0,2.1,0.2,3.2,0.5c1.1,0.3,2.1,0.9,3,1.7c0.9,0.8,1.6,1.8,2.2,3
				c0.6,1.2,0.8,2.7,0.8,4.4c0,1.6-0.2,2.9-0.7,4c-0.5,1.1-1.1,2.1-1.9,2.8l-0.3-0.3l0,0C66,49.5,65.1,50,64,50.4
				c-1,0.4-2.1,0.5-3.3,0.5h-6.1V39.8H54.2 M54.2,26.3V9.5H60v0.4c1,0,2,0.1,3,0.4c1,0.3,1.8,0.7,2.5,1.3c0.7,0.6,1.3,1.4,1.8,2.4
				c0.5,1,0.7,2.2,0.7,3.7c0,1.5-0.2,2.7-0.7,3.7l0.4,0.2c-0.5,1.1-1.1,2-1.9,2.6c-0.8,0.7-1.7,1.2-2.6,1.5c-1,0.3-2,0.5-3,0.5H54.2
				 M60.7,2.3H46V16h-0.4v26.4H46v16.2h16.5V59c1.8,0,3.7-0.3,5.6-0.8c1.9-0.5,3.6-1.4,5.2-2.7c1.5-1.3,2.8-2.9,3.8-4.9l0,0
				l-0.4-0.2c1-1.9,1.4-4.4,1.4-7.3c0-2.1-0.3-4-0.9-5.5c-0.6-1.6-1.3-3-2.2-4.1c-0.9-1.1-1.9-2-2.9-2.6c-1.1-0.6-2.1-1.1-3.2-1.3
				l-0.3-0.1v-0.8l0.3-0.1c1.9-0.8,3.6-2.2,5.1-4.1l0.3,0.3c1.5-2,2.3-4.8,2.3-8.4c0-3-0.5-5.4-1.5-7.2l0,0l-0.4,0.2
				C73.7,7.4,72.4,6,71,5c-1.5-1-3.2-1.7-5-2.1C64.1,2.5,62.3,2.3,60.7,2.3"/>
			<path fill="#010101" d="M45.6,42.4h-0.4v17h17.4V59l0,0H45.6V42.4 M60.5,33.1h-5.9v6.7h0.4v-6.2h5.4c1,0,1.9,0.2,2.9,0.5
				c1,0.3,1.8,0.8,2.7,1.5c0.8,0.7,1.5,1.6,2,2.7c0.5,1.1,0.8,2.5,0.8,4.1c0,1.4-0.2,2.7-0.6,3.7c-0.4,1-1,1.9-1.7,2.6l0.3,0.3
				c0.8-0.7,1.4-1.6,1.8-2.7c0.5-1.1,0.7-2.4,0.7-3.9c0-1.7-0.3-3.1-0.8-4.2c-0.5-1.2-1.2-2.1-2.1-2.8c-0.9-0.7-1.8-1.2-2.8-1.6
				C62.6,33.2,61.5,33.1,60.5,33.1 M74.3,24.6L74.3,24.6c-1.5,2-3.3,3.5-5.2,4.3v0.2c1.1,0.3,2.2,0.7,3.3,1.4c1.1,0.6,2.1,1.5,3,2.7
				c0.9,1.2,1.7,2.6,2.3,4.2c0.6,1.6,0.9,3.5,0.9,5.7c0,3-0.5,5.5-1.5,7.5l0.4,0.2c1-2.1,1.5-4.7,1.5-7.7c0-2.2-0.3-4.2-0.9-5.8
				c-0.6-1.7-1.4-3.1-2.3-4.3c-0.9-1.2-2-2.1-3.1-2.8c-0.8-0.5-1.7-0.9-2.5-1.1c1.7-0.9,3.2-2.2,4.6-4L74.3,24.6 M60,9.9h-5.3v15.9
				h5.4c1,0,1.9-0.1,2.8-0.4c0.9-0.3,1.8-0.8,2.5-1.4c0.7-0.6,1.3-1.5,1.8-2.5l0,0l-0.4-0.2c-0.4,1-1,1.8-1.7,2.4
				c-0.7,0.6-1.5,1-2.3,1.3c-0.9,0.3-1.8,0.4-2.7,0.4h-5v-15H60V9.9L60,9.9 M60.7,1.5H45.1V16h0.4V1.9h15.2c1.7,0,3.4,0.2,5.3,0.6
				c1.9,0.4,3.6,1.1,5.2,2.2c1.6,1,2.8,2.5,3.9,4.4l0.4-0.2c-1.1-1.9-2.4-3.4-4-4.5c-1.6-1.1-3.4-1.8-5.3-2.2
				C64.2,1.7,62.4,1.5,60.7,1.5"/>
			<path fill="#010101" d="M46,42.4h-0.4V59h16.9l0,0v-0.4H46V42.4 M60.5,32.7h-6.3v7.1h0.4v-6.7h5.9c1,0,2,0.2,3,0.5
				c1,0.3,2,0.8,2.8,1.6c0.9,0.7,1.6,1.7,2.1,2.8c0.5,1.2,0.8,2.6,0.8,4.2c0,1.5-0.2,2.8-0.7,3.9c-0.5,1.1-1.1,2-1.8,2.7l0.3,0.3
				c0.8-0.8,1.5-1.7,1.9-2.8c0.5-1.1,0.7-2.5,0.7-4c0-1.7-0.3-3.2-0.8-4.4c-0.6-1.2-1.3-2.2-2.2-3c-0.9-0.8-1.9-1.3-3-1.7
				C62.6,32.8,61.6,32.7,60.5,32.7 M74,24.4c-1.4,2-3.1,3.4-5.1,4.1l-0.3,0.1v0.8l0.3,0.1c1,0.3,2.1,0.7,3.2,1.3
				c1,0.6,2,1.5,2.9,2.6c0.9,1.1,1.6,2.5,2.2,4.1c0.6,1.6,0.9,3.5,0.9,5.5c0,2.9-0.5,5.4-1.4,7.3l0.4,0.2c1-2,1.5-4.5,1.5-7.5
				c0-2.1-0.3-4-0.9-5.7c-0.6-1.6-1.3-3-2.3-4.2c-0.9-1.2-1.9-2.1-3-2.7c-1.1-0.6-2.2-1.1-3.3-1.4v-0.2c2-0.8,3.7-2.2,5.2-4.3l0,0
				L74,24.4 M60,9.5h-5.7v16.7h5.9c1,0,2-0.2,3-0.5c1-0.3,1.9-0.8,2.6-1.5c0.8-0.7,1.4-1.6,1.9-2.6l-0.4-0.2l0,0
				c-0.5,1-1,1.9-1.8,2.5c-0.7,0.6-1.5,1.1-2.5,1.4c-0.9,0.3-1.9,0.4-2.8,0.4h-5.4V9.9H60l0,0V9.5 M60.7,1.9H45.6V16H46V2.3h14.7
				c1.6,0,3.4,0.2,5.2,0.6C67.8,3.3,69.4,4,71,5c1.5,1,2.7,2.4,3.7,4.2L75.1,9c-1-1.9-2.3-3.3-3.9-4.4c-1.6-1-3.3-1.8-5.2-2.2
				C64.2,2.1,62.4,1.9,60.7,1.9"/>
			<path fill="#414141" d="M51,56.3h-0.9v-2.6H51V56.3z M51,52h-0.9v-2.6H51V52z M51,47.7h-0.9v-2.6H51V47.7z M51,43.3h-0.9v-2.6H51
				V43.3z M51,39h-0.9v-2.6H51V39z M51,34.7h-0.9v-2.6H51V34.7z M51,30.4h-0.9v-2.6H51V30.4z M51,26h-0.9v-2.6H51V26z M51,21.7h-0.9
				v-2.6H51V21.7z M51,17.4h-0.9v-2.6H51V17.4z M51,13h-0.9v-2.6H51V13z M51,8.7h-0.9V6.1H51V8.7z"/>
			<path fill="#414141" d="M60.5,55.1c-0.9,0-1.9,0-2.6,0l0-0.9c0.8,0,1.7,0,2.6,0V55.1z M56.1,55.1c-1.8,0-2.6,0-2.6,0l0-0.9
				c0,0,0.8,0,2.6,0L56.1,55.1z M62.2,55.1l0-0.9c0.9,0,1.7-0.1,2.5-0.3l0.1,0.9C64,54.9,63.1,55,62.2,55.1z M66.6,54.4l-0.2-0.8
				c0.8-0.2,1.6-0.6,2.3-0.9l0.4,0.8C68.3,53.8,67.4,54.2,66.6,54.4z M70.6,52.4L70,51.8c0.7-0.5,1.2-1.1,1.7-1.8l0.7,0.5
				C71.9,51.2,71.3,51.9,70.6,52.4z M73.4,48.9l-0.8-0.4c0.3-0.7,0.6-1.5,0.8-2.4l0.8,0.2C74,47.3,73.7,48.2,73.4,48.9z M74.5,44.6
				l-0.9-0.1c0.1-0.6,0.1-1.3,0.1-1.9c0-0.2,0-0.4,0-0.6l0.9,0c0,0.2,0,0.4,0,0.6C74.6,43.3,74.6,44,74.5,44.6z M73.5,40.4
				c-0.2-0.8-0.5-1.6-0.8-2.3l0.8-0.4c0.4,0.8,0.7,1.7,0.9,2.5L73.5,40.4z M71.9,36.6c-0.5-0.7-1-1.3-1.6-1.9l0.6-0.6
				c0.6,0.6,1.2,1.3,1.7,2.1L71.9,36.6z M69,33.6c-0.3-0.2-0.5-0.4-0.5-0.4l0.4-0.7c0,0,0.2,0.1,0.6,0.4L69,33.6z"/>
			<path fill="#414141" d="M54.5,29.7l0-0.9l1.3,0l0,0.9C55.1,29.7,54.5,29.7,54.5,29.7z M57.6,29.6l0-0.9c0.7,0,1.3-0.1,1.7-0.1
				c0.3,0,0.6,0,0.8-0.1l0.1,0.9c-0.3,0-0.6,0.1-0.9,0.1C58.9,29.5,58.3,29.5,57.6,29.6z M61.9,29.1l-0.2-0.8
				c0.8-0.2,1.6-0.4,2.4-0.7l0.3,0.8C63.7,28.6,62.8,28.9,61.9,29.1z M66.1,27.6l-0.4-0.8c0.7-0.4,1.5-0.8,2.2-1.3l0.5,0.7
				C67.6,26.7,66.9,27.2,66.1,27.6z M69.8,25.1l-0.6-0.6c0.6-0.6,1-1.2,1.4-2l0.8,0.4C70.9,23.7,70.4,24.4,69.8,25.1z M71.9,21.1
				l-0.8-0.2c0.2-0.8,0.3-1.6,0.4-2.5l0.9,0C72.3,19.4,72.2,20.3,71.9,21.1z M71.5,16.8c-0.1-0.8-0.2-1.7-0.3-2.5l0.8-0.2
				c0.2,0.9,0.3,1.8,0.4,2.6L71.5,16.8z M70.7,12.6c-0.2-0.7-0.5-1.4-0.8-2.1c0-0.1-0.1-0.2-0.1-0.3l0.8-0.4c0,0.1,0.1,0.2,0.1,0.3
				c0.3,0.7,0.6,1.5,0.8,2.2L70.7,12.6z M68.9,9c-0.5-0.5-1.2-1-2-1.3l0.3-0.8c0.9,0.4,1.7,0.9,2.3,1.5L68.9,9z M65.3,7.2
				c-0.7-0.2-1.6-0.3-2.5-0.5l0.1-0.9c1,0.1,1.8,0.3,2.6,0.5L65.3,7.2z M61.1,6.5c-0.8-0.1-1.7-0.1-2.6-0.1l0-0.9
				c0.9,0,1.8,0.1,2.6,0.1L61.1,6.5z M54.2,6.5l-0.1-0.9c0,0,1.1-0.1,2.6-0.1l0,0.9C55.3,6.4,54.2,6.5,54.2,6.5z"/>
		</g>
		<g>
			<g>
				<g>
					<path fill="#DCDBDB" d="M189.3,10.1V59h-9.5V10.1H169V1.9h31v8.2H189.3z"/>
				</g>
			</g>
			<g>
				<g>
					<g>
						<path fill="#010101" d="M189.7,59.4h-10.4v-9.2h0.9v8.3h8.6V30.8h0.9V59.4z M180.2,43.1h-0.9v-33h0.9V43.1z M189.7,21.9h-0.9
							V9.7h10.7V2.3h-18.1V1.5h19v9.1h-10.7V21.9z"/>
					</g>
				</g>
			</g>
			<g>
				<g>
					<path fill="#414141" d="M198.1,6.1h-1.7V5.3h1.7V6.1z M194.8,6.1h-3v-1h3V6.1z M189.8,6.1h-2v-1h2V6.1z M185.8,6.1h-3v-1h3V6.1
						z M181.8,6.1h-3v-1h3V6.1z M176.8,6.1h-2v-1h2V6.1z M172.8,6.1h-3v-1h3V6.1z"/>
				</g>
			</g>
			<g>
				<g>
					<path fill="#414141" d="M185.1,56.3h-0.9v-1.7h0.9V56.3z M184.8,53.1h-1v-3h1V53.1z M184.8,48.1h-1v-2h1V48.1z M184.8,44.1h-1
						v-2h1V44.1z M184.8,40.1h-1v-3h1V40.1z M184.8,35.1h-1v-2h1V35.1z M184.8,31.1h-1v-2h1V31.1z M184.8,27.1h-1v-3h1V27.1z
						 M184.8,22.1h-1v-2h1V22.1z M184.8,18.1h-1v-2h1V18.1z M184.8,14.1h-1v-3h1V14.1z"/>
				</g>
			</g>
		</g>
		<g>
			<g>
				<g>
					<path fill="#DCDBDB" d="M122.6,30.3c0,4.5-0.5,8.6-1.4,12.3c-0.9,3.7-2.3,6.8-4.1,9.5c-1.8,2.6-3.9,4.7-6.5,6.1
						c-2.6,1.5-5.4,2.2-8.6,2.2c-3.2,0-6.1-0.7-8.6-2.2c-2.5-1.5-4.7-3.5-6.4-6.1c-1.8-2.6-3.1-5.8-4.1-9.5
						c-0.9-3.7-1.4-7.8-1.4-12.3c0-4.5,0.5-8.6,1.4-12.3c0.9-3.7,2.3-6.8,4-9.4C88.7,6,90.9,4,93.4,2.6c2.6-1.4,5.4-2.1,8.7-2.1
						c3.2,0,6,0.7,8.6,2.1c2.6,1.4,4.7,3.5,6.5,6.1c1.8,2.6,3.1,5.8,4.1,9.4C122.2,21.7,122.6,25.8,122.6,30.3z M112.6,30.3
						c0-2.9-0.2-5.6-0.7-8.2c-0.5-2.6-1.1-4.8-2-6.6c-0.9-1.9-2-3.3-3.3-4.4c-1.3-1.1-2.8-1.6-4.6-1.6c-1.8,0-3.3,0.5-4.6,1.6
						c-1.3,1.1-2.4,2.5-3.3,4.4c-0.9,1.9-1.5,4.1-2,6.6c-0.4,2.6-0.6,5.3-0.6,8.2c0,2.9,0.2,5.6,0.6,8.2c0.4,2.6,1.1,4.8,2,6.7
						c0.9,1.9,2,3.4,3.3,4.4c1.3,1.1,2.9,1.6,4.6,1.6c1.8,0,3.3-0.5,4.6-1.6c1.3-1.1,2.4-2.6,3.3-4.4c0.9-1.9,1.5-4.1,2-6.7
						C112.4,36,112.6,33.2,112.6,30.3z"/>
				</g>
			</g>
			<g>
				<g>
					<g>
						<path fill="#010101" d="M102.1,60.8c-3.3,0-6.3-0.8-8.8-2.2l0.4-0.8c2.4,1.4,5.3,2.1,8.4,2.1c3.1,0,5.9-0.7,8.4-2.1
							c2.5-1.4,4.6-3.4,6.3-6l0.7,0.5c-1.8,2.7-4,4.8-6.6,6.3C108.3,60.1,105.3,60.8,102.1,60.8z M102.1,51.7
							c-1.9,0-3.5-0.6-4.9-1.7c-1.4-1.1-2.5-2.7-3.4-4.6c-0.9-1.9-1.6-4.2-2-6.8c-0.4-2.6-0.7-5.3-0.7-8.3c0-2.9,0.2-5.7,0.7-8.3
							c0.4-2.6,1.1-4.8,2-6.7c0.9-1.9,2.1-3.4,3.4-4.5c1.4-1.1,3-1.7,4.9-1.7c1.8,0,3.4,0.6,4.8,1.7l-0.3,0.3l0.3-0.3
							c1.4,1.1,2.5,2.6,3.4,4.5l-0.8,0.4c-0.9-1.8-1.9-3.2-3.2-4.2c-1.2-1-2.7-1.5-4.3-1.5c-1.7,0-3.1,0.5-4.4,1.5
							c-1.3,1-2.3,2.5-3.2,4.2c-0.9,1.8-1.5,4-1.9,6.5c-0.4,2.5-0.6,5.2-0.6,8.1c0,2.9,0.2,5.6,0.6,8.1c0.4,2.5,1.1,4.7,1.9,6.5
							c0.9,1.8,1.9,3.3,3.2,4.3c1.2,1,2.7,1.5,4.4,1.5c1.7,0,3.1-0.5,4.4-1.5c1.3-1,2.3-2.5,3.2-4.3l0.8,0.4
							c-0.9,1.9-2.1,3.5-3.4,4.6C105.6,51.1,104,51.7,102.1,51.7z M121.6,42.7l-0.8-0.2c0.9-3.6,1.4-7.7,1.4-12.2
							c0-4.5-0.5-8.5-1.4-12.1c-0.9-3.6-2.3-6.7-4-9.3c-1.7-2.6-3.9-4.6-6.3-6c-2.5-1.4-5.3-2.1-8.4-2.1c-3.1,0-6,0.7-8.5,2.1
							c-2.5,1.4-4.6,3.4-6.3,6c-1.7,2.6-3.1,5.7-4,9.3L82.5,18c0.9-3.7,2.3-6.9,4.1-9.6c1.8-2.7,4-4.8,6.6-6.2
							c2.6-1.5,5.6-2.2,8.9-2.2c3.2,0,6.2,0.7,8.8,2.2c2.6,1.5,4.8,3.5,6.6,6.2c1.8,2.7,3.2,5.9,4.1,9.6c0.9,3.7,1.4,7.8,1.4,12.4
							S122.6,39,121.6,42.7z"/>
					</g>
				</g>
			</g>
			<g>
				<g>
					<path fill="#414141" d="M101.6,57c-0.9,0-1.8-0.2-2.6-0.5l0.2-0.8c0.8,0.2,1.6,0.4,2.4,0.4L101.6,57z M103.4,57l-0.1-0.9
						c0.8-0.1,1.6-0.3,2.4-0.6l0.3,0.8C105.1,56.7,104.3,56.9,103.4,57z M97.3,55.9c-0.8-0.4-1.6-0.8-2.3-1.3l0.5-0.7
						c0.7,0.5,1.4,0.9,2.2,1.3L97.3,55.9z M107.6,55.7l-0.4-0.8c0.7-0.4,1.4-0.8,2.1-1.4l0.5,0.7C109.2,54.8,108.4,55.3,107.6,55.7z
						 M93.6,53.5c-0.6-0.6-1.3-1.2-1.8-1.9l0.7-0.6c0.6,0.7,1.2,1.3,1.8,1.8L93.6,53.5z M111.2,53l-0.6-0.6c0.6-0.6,1.2-1.2,1.7-1.9
						l0.7,0.5C112.4,51.8,111.8,52.5,111.2,53z M90.6,50.2c-0.5-0.7-1-1.4-1.4-2.2l0.8-0.4c0.4,0.8,0.9,1.5,1.4,2.2L90.6,50.2z
						 M114,49.7l-0.7-0.5c0.5-0.7,0.9-1.4,1.3-2.2l0.8,0.4C115,48.2,114.5,48.9,114,49.7z M88.4,46.4c-0.4-0.8-0.7-1.6-1-2.4
						l0.8-0.3c0.3,0.8,0.6,1.6,1,2.3L88.4,46.4z M116.2,45.8l-0.8-0.4c0.3-0.8,0.7-1.6,1-2.4l0.8,0.3
						C116.9,44.2,116.5,45,116.2,45.8z M86.8,42.3c-0.3-0.8-0.5-1.7-0.7-2.5l0.8-0.2c0.2,0.8,0.4,1.7,0.7,2.5L86.8,42.3z
						 M117.7,41.7l-0.8-0.3c0.2-0.8,0.5-1.6,0.6-2.5l0.8,0.2C118.2,40,118,40.9,117.7,41.7z M85.7,38.1c-0.2-0.9-0.3-1.7-0.4-2.6
						l0.9-0.1c0.1,0.8,0.2,1.7,0.4,2.5L85.7,38.1z M118.7,37.5l-0.9-0.1c0.1-0.8,0.3-1.7,0.4-2.5l0.9,0.1
						C119,35.7,118.9,36.6,118.7,37.5z M85.1,33.7C85.1,32.9,85,32,85,31.1l0.9,0c0,0.9,0.1,1.7,0.1,2.6L85.1,33.7z M119.2,33.1
						l-0.9-0.1c0.1-0.8,0.1-1.7,0.1-2.6c0-0.7,0-1.4-0.1-2.1l0.9,0c0,0.7,0.1,1.4,0.1,2.1C119.3,31.4,119.3,32.3,119.2,33.1z
						 M85.9,29.4l-0.9,0c0-0.9,0.1-1.8,0.2-2.6l0.9,0.1C86,27.7,85.9,28.5,85.9,29.4z M118.3,26.7c-0.1-0.9-0.2-1.7-0.3-2.5l0.9-0.1
						c0.1,0.9,0.3,1.7,0.3,2.6L118.3,26.7z M86.2,25.1L85.4,25c0.1-0.9,0.3-1.7,0.4-2.6l0.8,0.2C86.5,23.4,86.3,24.3,86.2,25.1z
						 M117.6,22.5c-0.2-0.8-0.4-1.7-0.6-2.5l0.8-0.2c0.2,0.8,0.4,1.7,0.6,2.5L117.6,22.5z M87,20.9l-0.8-0.2
						c0.2-0.9,0.5-1.7,0.7-2.5l0.8,0.3C87.5,19.3,87.3,20.1,87,20.9z M116.5,18.4c-0.3-0.8-0.6-1.6-0.9-2.4l0.8-0.3
						c0.3,0.8,0.7,1.6,1,2.5L116.5,18.4z M88.4,16.9l-0.8-0.3c0.3-0.8,0.7-1.6,1.1-2.4l0.8,0.4C89,15.3,88.7,16.1,88.4,16.9z
						 M114.9,14.4c-0.4-0.8-0.8-1.5-1.3-2.2l0.7-0.5c0.5,0.7,0.9,1.5,1.3,2.3L114.9,14.4z M90.2,13.1l-0.7-0.4
						c0.5-0.8,0.9-1.5,1.5-2.2l0.7,0.5C91.1,11.6,90.7,12.3,90.2,13.1z M112.6,10.8c-0.5-0.7-1.1-1.3-1.7-1.9l0.6-0.6
						c0.6,0.6,1.2,1.3,1.7,2L112.6,10.8z M92.7,9.6L92.1,9c0.6-0.7,1.2-1.3,1.9-1.9l0.6,0.7C93.9,8.4,93.3,9,92.7,9.6z M109.7,7.8
						c-0.7-0.6-1.4-1-2.1-1.4l0.4-0.8c0.7,0.4,1.5,0.9,2.2,1.5L109.7,7.8z M95.8,6.8l-0.5-0.7c0.8-0.5,1.6-0.9,2.4-1.3l0.3,0.8
						C97.3,6,96.6,6.4,95.8,6.8z M106.2,5.6c-0.8-0.3-1.6-0.5-2.4-0.7l0.1-0.9c0.9,0.1,1.7,0.4,2.6,0.7L106.2,5.6z M99.6,5.1
						l-0.2-0.8c0.9-0.2,1.8-0.3,2.7-0.3l0,0.9C101.3,4.8,100.4,4.9,99.6,5.1z"/>
				</g>
			</g>
		</g>
		<g>
			<g>
				<g>
					<path fill="#DCDBDB" d="M163.3,46.5c-0.6,2.6-1.7,4.9-3.1,6.9c-1.5,2-3.3,3.5-5.6,4.6c-2.3,1.1-5.1,1.7-8.3,1.7
						c-3.3,0-6-0.6-8.3-1.7c-2.3-1.1-4.1-2.7-5.5-4.6c-1.4-2-2.4-4.3-3.1-6.9c-0.6-2.6-0.9-5.5-0.9-8.5V1.2h9.7v36
						c0,1.8,0.1,3.5,0.4,5.1c0.2,1.6,0.7,3.1,1.3,4.3c0.6,1.2,1.5,2.2,2.5,2.9c1.1,0.7,2.4,1.1,4.1,1.1c1.7,0,3-0.4,4.1-1.1
						c1.1-0.7,1.9-1.7,2.5-2.9c0.6-1.2,1-2.7,1.3-4.3c0.2-1.6,0.4-3.3,0.4-5.1v-36h9.6V38C164.3,41,164,43.8,163.3,46.5z"/>
				</g>
			</g>
			<g>
				<g>
					<g>
						<path fill="#010101" d="M146.3,60.1c-3.3,0-6.2-0.6-8.5-1.7l0.4-0.8c2.2,1.1,4.9,1.6,8.1,1.6c3.2,0,5.9-0.6,8.2-1.6
							c2.2-1.1,4-2.6,5.4-4.5c1.4-1.9,2.4-4.2,3.1-6.7c0.6-2.6,1-5.4,1-8.4h0.9c0,3-0.3,5.9-1,8.6c-0.7,2.7-1.7,5-3.2,7
							c-1.5,2-3.4,3.6-5.8,4.8C152.5,59.5,149.6,60.1,146.3,60.1z M146.4,51c-1.7,0-3.2-0.4-4.4-1.2c-1.1-0.8-2-1.8-2.7-3.1
							c-0.6-1.3-1.1-2.8-1.3-4.4c-0.2-1.7-0.4-3.4-0.4-5.2h0.9c0,1.7,0.1,3.4,0.4,5.1c0.2,1.6,0.7,3,1.2,4.2
							c0.6,1.2,1.4,2.1,2.4,2.8c1,0.7,2.3,1,3.9,1c1.6,0,2.9-0.3,3.9-1c1-0.7,1.8-1.6,2.4-2.8c0.6-1.2,1-2.6,1.2-4.2
							c0.2-1.6,0.4-3.3,0.4-5.1V12.4h0.9v24.7c0,1.8-0.1,3.5-0.4,5.2c-0.2,1.7-0.7,3.2-1.3,4.4c-0.6,1.3-1.6,2.3-2.7,3.1
							C149.6,50.6,148.2,51,146.4,51z M128.9,37.6H128V0.7h10.5v27.6h-0.9V1.6h-8.8V37.6z M164.7,29.2h-0.9V1.6H155V0.7h9.7V29.2z"
							/>
					</g>
				</g>
			</g>
			<g>
				<g>
					<path fill="#414141" d="M144.8,56.4c-0.5,0-1.1,0-1.6-0.1l0.1-0.9c0.8,0.1,1.7,0.1,2.5,0l0,0.9
						C145.6,56.4,145.2,56.4,144.8,56.4z M147.7,56.3l-0.1-0.9c0.9-0.1,1.7-0.3,2.5-0.5l0.3,0.8C149.5,56,148.6,56.1,147.7,56.3z
						 M141.5,56.1c-0.9-0.2-1.7-0.5-2.5-1l0.4-0.8c0.7,0.4,1.5,0.7,2.3,0.9L141.5,56.1z M152,55.1l-0.4-0.8c0.8-0.3,1.5-0.8,2.2-1.3
						l0.5,0.7C153.6,54.3,152.8,54.7,152,55.1z M137.5,54.1c-0.7-0.5-1.3-1.2-1.9-1.9l0.7-0.5c0.5,0.7,1.1,1.3,1.7,1.8L137.5,54.1z
						 M155.6,52.6L155,52c0.6-0.6,1.1-1.2,1.6-1.9l0.7,0.5C156.8,51.3,156.3,52,155.6,52.6z M134.7,50.7c-0.4-0.7-0.8-1.6-1.1-2.4
						l0.8-0.3c0.3,0.8,0.6,1.6,1,2.3L134.7,50.7z M158.2,48.9l-0.8-0.4c0.4-0.7,0.7-1.5,0.9-2.4l0.8,0.3
						C158.9,47.3,158.6,48.2,158.2,48.9z M133,46.6c-0.2-0.8-0.4-1.7-0.5-2.6l0.9-0.1c0.1,0.9,0.3,1.7,0.5,2.5L133,46.6z
						 M159.6,44.7l-0.8-0.2c0.2-0.8,0.3-1.7,0.4-2.5l0.9,0.1C159.9,43,159.8,43.9,159.6,44.7z M132.6,42.2c-0.1-0.8,0.2-1.6,0.2-2.5
						v-0.2l1,0v0.2c0,0.8-0.2,1.6-0.1,2.4L132.6,42.2z M159.8,40.3l-1,0v-0.2c0-1,0.1-1.9,0.1-2l0.2-1.1h0.7v1h0.1
						c0,0-0.1,1.1-0.1,2.1V40.3z M132.8,37.1h-1v-2h1V37.1z M159.8,35.1h-1v-2h1V35.1z M132.8,33.1h-1v-3h1V33.1z M159.8,31.1h-1v-2
						h1V31.1z M132.8,29.1h-1v-3h1V29.1z M159.8,27.1h-1v-3h1V27.1z M132.8,24.1h-1v-2h1V24.1z M159.8,22.1h-1v-2h1V22.1z
						 M132.8,20.1h-1v-3h1V20.1z M159.8,18.1h-1v-2h1V18.1z M132.8,16.1h-1v-3h1V16.1z M159.8,14.1h-1v-3h1V14.1z M132.8,11.1h-1v-2
						h1V11.1z M159.8,10.1h-1v-3h1V10.1z M132.8,7.1h-1v-3h1V7.1z M160,5.7h-0.9V4.1h0.9V5.7z"/>
				</g>
			</g>
		</g>
	</g>
	<g>
		<g>
			<g>
				<g>
					<path fill="#DCDBDB" d="M248.1,59l-2.8-12.1h-15L227.4,59h-9.7l14.2-57.1h12.3L258.2,59H248.1z M238,11h-0.3l-6.2,28.3h12.6
						L238,11z"/>
				</g>
			</g>
			<g>
				<g>
					<g>
						<path fill="#010101" d="M258.7,59.4h-10.6v-0.9h9.5l-2.5-10.4l0.8-0.2L258.7,59.4z M227.4,59.4h-10.2l6-24l0.8,0.2l-5.7,22.9
							h9.1V59.4z M229.3,52.6l-0.8-0.2l1.4-6h15.3v0.9h-14.7L229.3,52.6z M244.6,39.7H231l2-9l0.8,0.2l-1.7,8h11.5l-0.7-3.5l0.8-0.2
							L244.6,39.7z M241.1,27.5l-3.2-15.2l-1.3,6l-0.8-0.2l1.7-7.6h1l3.6,16.8L241.1,27.5z M249.5,25.2l-5.6-22.9h-11.7l-1.3,5.2
							l-0.8-0.2l1.5-5.9h13l5.8,23.6L249.5,25.2z"/>
					</g>
				</g>
			</g>
			<g>
				<g>
					<g>
						
							<rect x="222.4" y="54.9" transform="matrix(0.9723 0.2337 -0.2337 0.9723 19.1493 -50.5475)" fill="#010101" width="0.9" height="1.3"/>
					</g>
				</g>
				<g>
					<g>
						<path fill="#010101" d="M223.8,53.3l-0.8-0.2l0.6-2.5l0.8,0.2L223.8,53.3z M224.9,49.1l-0.8-0.2l0.6-2.5l0.8,0.2L224.9,49.1z
							 M225.9,44.9l-0.8-0.2l0.6-2.5l0.8,0.2L225.9,44.9z M226.9,40.7l-0.8-0.2l0.6-2.5l0.8,0.2L226.9,40.7z M227.9,36.4l-0.8-0.2
							l0.6-2.5l0.8,0.2L227.9,36.4z M229,32.2l-0.8-0.2l0.6-2.5l0.8,0.2L229,32.2z M230,28l-0.8-0.2l0.6-2.5l0.8,0.2L230,28z
							 M231,23.8l-0.8-0.2l0.6-2.5l0.8,0.2L231,23.8z M232,19.6l-0.8-0.2l0.6-2.5l0.8,0.2L232,19.6z M233,15.3l-0.8-0.2l0.6-2.5
							l0.8,0.2L233,15.3z M234.1,11.1l-0.8-0.2l0.6-2.5l0.8,0.2L234.1,11.1z"/>
					</g>
				</g>
				<g>
					<g>
						
							<rect x="234.4" y="5.5" transform="matrix(0.972 0.2348 -0.2348 0.972 8.0158 -54.962)" fill="#010101" width="0.9" height="1.3"/>
					</g>
				</g>
			</g>
			<g>
				<g>
					<g>
						
							<rect x="240.1" y="5.7" transform="matrix(0.2379 0.9713 -0.9713 0.2379 189.4665 -229.1224)" fill="#010101" width="1.3" height="0.9"/>
					</g>
				</g>
				<g>
					<g>
						<path fill="#010101" d="M251.8,53.3l-0.6-2.5l0.8-0.2l0.6,2.5L251.8,53.3z M250.8,49.1l-0.6-2.5l0.8-0.2l0.6,2.5L250.8,49.1z
							 M249.8,44.9l-0.6-2.5l0.8-0.2l0.6,2.5L249.8,44.9z M248.7,40.7l-0.6-2.5l0.8-0.2l0.6,2.5L248.7,40.7z M247.7,36.4l-0.6-2.5
							l0.8-0.2l0.6,2.5L247.7,36.4z M246.7,32.2l-0.6-2.5l0.8-0.2l0.6,2.5L246.7,32.2z M245.6,28l-0.6-2.5l0.8-0.2l0.6,2.5L245.6,28
							z M244.6,23.8l-0.6-2.5l0.8-0.2l0.6,2.5L244.6,23.8z M243.6,19.6L243,17l0.8-0.2l0.6,2.5L243.6,19.6z M242.5,15.3l-0.6-2.5
							l0.8-0.2l0.6,2.5L242.5,15.3z M241.5,11.1l-0.6-2.5l0.8-0.2l0.6,2.5L241.5,11.1z"/>
					</g>
				</g>
				<g>
					<g>
						
							<rect x="252.2" y="55.1" transform="matrix(0.2377 0.9713 -0.9713 0.2377 246.6614 -203.2591)" fill="#010101" width="1.3" height="0.9"/>
					</g>
				</g>
			</g>
			<g>
				<g>
					<path fill="#010101" d="M241.8,43.1h-2v-1h2V43.1z M237.8,43.1h-3v-1h3V43.1z M233.8,43.1h-3v-1h3V43.1z"/>
				</g>
			</g>
		</g>
		<g>
			<g>
				<g>
					<path fill="#DCDBDB" d="M302.2,59V1.9h25.6v8.5h-16.3v15.2h15.1v7.9h-15.1v16.9h17.1V59H302.2z"/>
				</g>
			</g>
			<g>
				<g>
					<g>
						<path fill="#010101" d="M329,59.4h-5.1v-0.9h4.2v-7.8h-9.9v-0.9H329V59.4z M311.5,59.4h-9.7v-5.1h0.9v4.2h8.8V59.4z
							 M311.9,48.1h-0.9v-15h15.1v-7.5h-14.7v-0.9H327v9.2h-15.1V48.1z M302.7,46.4h-0.9V5.9h0.9V46.4z M311.9,17h-0.9v-7h16.3V2.3
							h-13.8V1.4h14.7v9.4h-16.3V17z"/>
					</g>
				</g>
			</g>
			<g>
				<g>
					<path fill="#414141" d="M324.8,55.1h-2v-1h2V55.1z M320.8,55.1h-3v-1h3V55.1z M316.8,55.1h-3v-1h3V55.1z M311.8,55.1h-2v-1h2
						V55.1z M307.9,56.3h-1.7v-1.7h0.9v0.9h0.9V56.3z M306.8,52.1h-1v-3h1V52.1z M306.8,48.1h-1v-3h1V48.1z M306.8,43.1h-1v-2h1
						V43.1z M306.8,39.1h-1v-3h1V39.1z M306.8,35.1h-1v-3h1V35.1z M306.8,30.1h-1v-2h1V30.1z M306.8,26.1h-1v-3h1V26.1z M306.8,22.1
						h-1v-3h1V22.1z M306.8,17.1h-1v-2h1V17.1z M306.8,13.1h-1v-3h1V13.1z M306.8,9.1h-1v-3h1V9.1z M325.2,6.1h-0.9V5.3h0.9V6.1z
						 M322.8,5.1h-3v-1h3V5.1z M317.8,5.1h-2v-1h2V5.1z M313.8,5.1h-3v-1h3V5.1z M309.8,5.1h-3v-1h3V5.1z"/>
				</g>
			</g>
			<g>
				<g>
					<path fill="#414141" d="M323.5,29.5h-0.9v-0.9h0.9V29.5z M320.8,29.1h-3v-1h3V29.1z M316.8,29.1h-3v-1h3V29.1z M311.8,29.1h-2
						v-1h2V29.1z"/>
				</g>
			</g>
		</g>
		<g>
			<g>
				<g>
					<path fill="#DCDBDB" d="M360.2,12.9c-2.1-2.5-4.7-3.8-7.9-3.8c-0.9,0-1.8,0.1-2.7,0.4c-0.9,0.3-1.6,0.8-2.3,1.4
						c-0.7,0.6-1.2,1.5-1.7,2.5c-0.4,1-0.6,2.2-0.6,3.6c0,2.4,0.7,4.3,2.2,5.6c1.5,1.3,3.4,2.6,5.7,3.7c1.4,0.7,2.8,1.5,4.3,2.4
						c1.5,0.9,2.8,2,4,3.3c1.2,1.3,2.1,2.8,2.9,4.6c0.8,1.8,1.1,3.9,1.1,6.3c0,2.8-0.4,5.3-1.3,7.4c-0.9,2.2-2.1,4-3.5,5.4
						c-1.5,1.5-3.2,2.6-5.2,3.3c-2,0.8-4.1,1.1-6.3,1.1c-3.2,0-6.1-0.6-8.8-1.9c-2.7-1.2-4.8-2.8-6.5-4.7l5.2-7.1
						c1.2,1.5,2.7,2.7,4.5,3.5c1.7,0.9,3.5,1.3,5.4,1.3c2,0,3.7-0.7,5.1-2.1c1.3-1.4,2-3.4,2-5.9c0-2.5-0.8-4.4-2.4-5.9
						c-1.6-1.5-3.7-2.8-6.1-4c-1.6-0.8-3-1.6-4.4-2.5c-1.4-0.9-2.6-2-3.6-3.3c-1-1.3-1.9-2.7-2.5-4.4c-0.6-1.7-0.9-3.7-0.9-6.1
						c0-3,0.5-5.5,1.4-7.6c0.9-2.1,2.2-3.9,3.7-5.3c1.5-1.4,3.3-2.4,5.2-3.1c1.9-0.7,3.9-1,5.9-1c2.9,0,5.5,0.5,7.8,1.4
						c2.3,0.9,4.2,2.3,5.8,4.2L360.2,12.9z"/>
				</g>
			</g>
			<g>
				<g>
					<g>
						<path fill="#010101" d="M348.9,60.8c-3.2,0-6.2-0.6-9-1.9c-2.7-1.3-5-2.9-6.6-4.8l-0.2-0.3l5.8-7.8l0.4,0.4
							c1.2,1.5,2.6,2.6,4.3,3.4c1.7,0.8,3.4,1.2,5.2,1.2c1.9,0,3.5-0.6,4.8-2c1.3-1.3,1.9-3.2,1.9-5.6c0-2.3-0.8-4.2-2.3-5.6
							l0.6-0.6c1.7,1.5,2.6,3.6,2.6,6.2c0,2.6-0.7,4.7-2.1,6.2c-1.4,1.5-3.2,2.2-5.4,2.2c-1.9,0-3.8-0.4-5.6-1.3
							c-1.6-0.8-3.1-1.9-4.3-3.2l-4.7,6.4c1.5,1.7,3.6,3.2,6.1,4.3c2.6,1.2,5.5,1.8,8.6,1.8c2.1,0,4.2-0.4,6.1-1.1l0.3,0.8
							C353.3,60.5,351.1,60.8,348.9,60.8z M363.7,37c-0.7-1.7-1.7-3.2-2.8-4.5c-1.1-1.3-2.4-2.3-3.9-3.2c-1.4-0.9-2.9-1.7-4.2-2.4
							c-2.4-1.2-4.3-2.5-5.8-3.8c-1.5-1.4-2.3-3.4-2.3-5.9c0-1.4,0.2-2.7,0.6-3.8c0.4-1.1,1-2,1.8-2.7l0,0c0.7-0.7,1.6-1.2,2.5-1.5
							c0.9-0.3,1.8-0.5,2.8-0.5c3.1,0,5.8,1.2,7.9,3.5L365,6c-1.5-1.6-3.3-2.9-5.4-3.8c-2.2-0.9-4.8-1.4-7.6-1.4
							c-1.9,0-3.9,0.3-5.7,1c-1.9,0.7-3.6,1.7-5.1,3c-1.5,1.4-2.7,3.1-3.6,5.1c-0.9,2.1-1.4,4.6-1.4,7.4h-0.9c0-3,0.5-5.6,1.4-7.8
							c1-2.2,2.2-4,3.8-5.4c1.6-1.4,3.4-2.5,5.4-3.2c2-0.7,4-1,6-1c2.9,0,5.6,0.5,7.9,1.4c2.3,1,4.3,2.4,5.9,4.3l0.2,0.3l-5.9,7.6
							l-0.3-0.4c-2-2.4-4.5-3.6-7.6-3.6c-0.9,0-1.7,0.1-2.5,0.4c-0.8,0.3-1.5,0.7-2.2,1.3l-0.3-0.3l0.3,0.3
							c-0.6,0.6-1.2,1.4-1.5,2.3c-0.4,1-0.6,2.1-0.6,3.5c0,2.3,0.7,4.1,2,5.3c1.4,1.3,3.3,2.5,5.6,3.7c1.4,0.7,2.9,1.5,4.3,2.4
							c1.5,0.9,2.8,2.1,4,3.4c1.2,1.3,2.2,2.9,3,4.7L363.7,37z"/>
					</g>
				</g>
			</g>
			<g>
				<g>
					<path fill="#414141" d="M348.3,56.8l0-0.9c0.8,0,1.7-0.1,2.5-0.3l0.2,0.8C350.1,56.6,349.2,56.7,348.3,56.8z M346.5,56.7
						c-1-0.1-1.8-0.2-2.6-0.4l0.2-0.8c0.7,0.2,1.6,0.3,2.5,0.4L346.5,56.7z M352.7,56l-0.3-0.8c0.8-0.3,1.6-0.6,2.3-1l0.4,0.8
						C354.4,55.4,353.6,55.7,352.7,56z M342.2,55.7c-0.8-0.4-1.6-0.9-2.3-1.3l0.5-0.7c0.7,0.4,1.4,0.9,2.2,1.3L342.2,55.7z
						 M356.6,54l-0.5-0.7c0.6-0.5,1.2-1.1,1.8-1.7l0.7,0.6C358,52.8,357.3,53.4,356.6,54z M338.5,53.3c-0.9-0.7-0.9-0.8-0.8-1l0.4,0
						l0.3-0.3c0,0,0.2,0.2,0.6,0.5L338.5,53.3z M359.6,50.7l-0.7-0.5c0.5-0.7,0.9-1.5,1.2-2.2l0.8,0.3
						C360.6,49.1,360.1,49.9,359.6,50.7z M361,46.6l-0.6-0.2c0.2-0.8-0.1-1.6-0.1-2.4l0.5-0.1V44C360.8,44.9,361.2,45.7,361,46.6z
						 M360.8,42.3c-0.2-0.8-0.4-1.6-0.8-2.4l0.8-0.4c0.4,0.8,0.7,1.7,0.8,2.6L360.8,42.3z M359.2,38.5c-0.5-0.7-1-1.4-1.6-2l0.6-0.6
						c0.6,0.7,1.2,1.4,1.6,2.1L359.2,38.5z M356.4,35.3c-0.6-0.5-1.3-1.1-2-1.6l0.5-0.7c0.8,0.5,1.4,1.1,2.1,1.6L356.4,35.3z
						 M353,32.8c-0.6-0.4-1.3-0.8-2.2-1.3l0.4-0.7c0.9,0.5,1.6,0.9,2.2,1.3L353,32.8z M349.3,30.6c-0.8-0.4-1.5-0.9-2.3-1.3l0.4-0.7
						c0.7,0.4,1.5,0.9,2.2,1.3L349.3,30.6z M345.5,28.4c-0.8-0.5-1.5-1.1-2.1-1.6l0.6-0.7c0.6,0.5,1.2,1,2,1.5L345.5,28.4z
						 M342.2,25.5c-0.2-0.2-0.4-0.5-0.6-0.7c-0.4-0.5-0.7-1-1-1.5l0.8-0.4c0.3,0.5,0.5,1,0.9,1.4c0.2,0.2,0.3,0.4,0.5,0.6
						L342.2,25.5z M340,21.6c-0.3-0.8-0.5-1.7-0.5-2.6l0.9-0.1c0.1,0.8,0.2,1.7,0.5,2.4L340,21.6z M340.2,17.3l-0.9,0
						c0-0.9,0.2-1.8,0.4-2.6l0.8,0.2C340.4,15.6,340.3,16.4,340.2,17.3z M341.1,13.2l-0.8-0.3c0.3-0.8,0.7-1.7,1.1-2.4l0.8,0.4
						C341.7,11.6,341.3,12.4,341.1,13.2z M343,9.4l-0.7-0.5c0.5-0.7,1.1-1.4,1.8-2l0.6,0.6C344.1,8.1,343.5,8.7,343,9.4z M360.3,7.2
						c0,0-0.9-0.5-2.3-1.1l0.3-0.8c1.5,0.6,2.4,1.1,2.4,1.1L360.3,7.2z M345.9,6.5l-0.5-0.7c0.6-0.4,1.2-0.7,1.8-1
						c0.2-0.1,0.4-0.2,0.6-0.2l0.3,0.8c-0.2,0.1-0.4,0.1-0.6,0.2C347,5.9,346.5,6.2,345.9,6.5z M356.4,5.6c-0.8-0.2-1.7-0.4-2.5-0.5
						l0.1-0.9c0.8,0.1,1.7,0.3,2.6,0.6L356.4,5.6z M349.8,5.1l-0.1-0.9c0.7-0.1,1.4-0.2,2.2-0.2c0.2,0,0.3,0,0.5,0l0,0.9
						c-0.2,0-0.3,0-0.5,0C351.1,4.9,350.4,5,349.8,5.1z"/>
				</g>
			</g>
		</g>
		<g>
			<g>
				<g>
					<path fill="#DCDBDB" d="M297,18.7c0,2.9-0.4,5.4-1.3,7.6c-0.9,2.2-2,4-3.5,5.4c-1.4,1.5-3.1,2.5-5,3.2c-1.9,0.7-3.8,1-5.8,1
						h-6.7V59h-9.5V1.9H281c1.8,0,3.7,0.3,5.6,0.8c1.9,0.5,3.7,1.5,5.2,2.8c1.5,1.3,2.8,3.1,3.8,5.2C296.5,12.8,297,15.5,297,18.7z
						 M287.9,18.9c0-3-0.7-5.3-2.2-6.7c-1.5-1.4-3.3-2.1-5.6-2.1h-5.5v18.1h5.5c2.3,0,4.1-0.8,5.6-2.4
						C287.2,24.2,287.9,21.9,287.9,18.9z"/>
				</g>
			</g>
			<g>
				<g>
					<g>
						<path fill="#010101" d="M275.1,59.4h-10.4V22.7h0.9v35.8h8.6V51h0.9V59.4z M275.1,40.9h-0.9v-5.2h7.2v0.9h-6.3V40.9z
							 M280.2,28.6h-5.9V9.7h5.9v0.9h-5v17.2h5c2.2,0,3.9-0.7,5.2-2.2c1.4-1.5,2.1-3.7,2.1-6.7h0.9c0,3.1-0.8,5.6-2.3,7.2
							C284.5,27.8,282.6,28.6,280.2,28.6z M296.1,26.5l-0.8-0.3c0.9-2.1,1.3-4.6,1.3-7.5c0-3.1-0.5-5.8-1.4-7.9
							c-1-2.1-2.2-3.8-3.7-5.1c-1.5-1.3-3.2-2.2-5-2.7c-1.9-0.5-3.7-0.8-5.5-0.8h-15.3v10.3h-0.9V1.5H281c1.9,0,3.8,0.3,5.7,0.8
							c2,0.6,3.8,1.5,5.4,2.9c1.6,1.4,2.9,3.2,3.9,5.3c1,2.2,1.5,5,1.5,8.2C297.5,21.7,297,24.3,296.1,26.5z"/>
					</g>
				</g>
			</g>
			<g>
				<g>
					<path fill="#414141" d="M277.3,33.1l-2-0.1l0-0.9l2,0h0.6l0,1H277.3z M279.6,32.8l0-0.9c0.8,0,1.6,0,2.5-0.1l0.1,0.9
						C281.3,32.7,280.4,32.8,279.6,32.8z M284,32.3l-0.2-0.8c0.8-0.2,1.6-0.5,2.3-0.9l0.4,0.8C285.8,31.7,284.9,32.1,284,32.3z
						 M288,30.3l-0.5-0.7c0.6-0.5,1.2-1.1,1.7-1.8l0.7,0.5C289.3,29.1,288.7,29.8,288,30.3z M290.9,26.9l-0.7-0.5
						c0.5-0.7,0.9-1.5,1.2-2.2l0.8,0.3C291.8,25.4,291.4,26.2,290.9,26.9z M292.8,22.9l-0.8-0.3c0.3-0.8,0.4-1.6,0.6-2.5l0.9,0.1
						C293.3,21.2,293.1,22.1,292.8,22.9z M293.6,18.6l-0.9,0c0-0.1,0-0.3,0-0.4c0-0.7-0.1-1.4-0.2-2.1l0.9-0.1
						c0.1,0.7,0.2,1.5,0.2,2.3C293.6,18.3,293.6,18.4,293.6,18.6z M292.2,14.4c-0.2-0.8-0.5-1.6-0.8-2.4l0.8-0.3
						c0.4,0.8,0.7,1.7,0.9,2.5L292.2,14.4z M290.6,10.5c-0.4-0.7-1-1.3-1.6-1.8l0.6-0.7c0.7,0.6,1.3,1.3,1.8,2L290.6,10.5z
						 M287.6,7.8c-0.7-0.4-1.5-0.7-2.3-1l0.3-0.8c0.9,0.3,1.7,0.7,2.4,1.1L287.6,7.8z M283.7,6.3c-0.8-0.2-1.6-0.3-2.5-0.4l0.1-0.9
						c0.9,0.1,1.8,0.2,2.6,0.4L283.7,6.3z M272.6,5.8l-0.1-0.9c0,0,1.1-0.1,2.6-0.1l0,0.9C273.6,5.7,272.6,5.8,272.6,5.8z
						 M279.5,5.8c-0.9,0-1.8-0.1-2.6-0.1l0-0.9c0.8,0,1.7,0,2.6,0.1L279.5,5.8z"/>
				</g>
			</g>
			<g>
				<g>
					<path fill="#414141" d="M269.8,55.1h-1v-2h1V55.1z M269.8,51.1h-1v-3h1V51.1z M269.8,47.1h-1v-3h1V47.1z M269.8,42.1h-1v-2h1
						V42.1z M269.8,38.1h-1v-3h1V38.1z M269.8,34.1h-1v-3h1V34.1z M269.8,29.1h-1v-2h1V29.1z M269.8,25.1h-1v-3h1V25.1z M269.8,21.1
						h-1v-3h1V21.1z M269.8,16.1h-1v-2h1V16.1z M269.8,12.1h-1v-2h1V12.1z M269.8,8.1h-1v-3h1V8.1z"/>
				</g>
			</g>
		</g>
	</g>
</g>
</svg>
